<svg width="44" height="45" viewBox="0 0 44 45" fill="none" xmlns="http://www.w3.org/2000/svg">
<path d="M35.8519 22.5C35.8519 25.2396 35.0395 27.9178 33.5174 30.1957C31.9953 32.4736 29.832 34.249 27.3009 35.2974C24.7698 36.3459 21.9846 36.6202 19.2976 36.0857C16.6106 35.5512 14.1425 34.232 12.2053 32.2947C10.268 30.3575 8.94878 27.8894 8.41431 25.2024C7.87983 22.5154 8.15414 19.7302 9.20256 17.1991C10.251 14.668 12.0264 12.5047 14.3043 10.9826C16.5822 9.46055 19.2604 8.64815 22 8.64815C25.6725 8.65231 29.1933 10.113 31.7901 12.7099C34.387 15.3067 35.8477 18.8275 35.8519 22.5ZM22 5.38889C22.214 5.38889 22.4259 5.34674 22.6236 5.26484C22.8214 5.18295 23.001 5.06291 23.1523 4.91159C23.3037 4.76026 23.4237 4.58061 23.5056 4.38289C23.5875 4.18518 23.6296 3.97327 23.6296 3.75926V2.12963C23.6296 1.69743 23.4579 1.28292 23.1523 0.977307C22.8467 0.671693 22.4322 0.5 22 0.5C21.5678 0.5 21.1533 0.671693 20.8477 0.977307C20.5421 1.28292 20.3704 1.69743 20.3704 2.12963V3.75926C20.3704 3.97327 20.4125 4.18518 20.4944 4.38289C20.5763 4.58061 20.6963 4.76026 20.8477 4.91159C20.999 5.06291 21.1786 5.18295 21.3764 5.26484C21.5741 5.34674 21.786 5.38889 22 5.38889ZM7.59592 10.4006C7.74716 10.5523 7.92682 10.6727 8.12464 10.7549C8.32245 10.8372 8.53453 10.8796 8.74875 10.8797C8.96297 10.8799 9.17512 10.8378 9.37306 10.7559C9.57101 10.674 9.75086 10.5539 9.90234 10.4024C10.0538 10.251 10.1739 10.0711 10.2559 9.87318C10.3378 9.67524 10.3798 9.46309 10.3797 9.24887C10.3795 9.03465 10.3371 8.82257 10.2549 8.62475C10.1727 8.42693 10.0523 8.24726 9.90061 8.09602L8.74831 6.94367C8.59709 6.7919 8.41742 6.67145 8.21959 6.58919C8.02177 6.50694 7.80966 6.4645 7.59541 6.46431C7.38117 6.46412 7.16898 6.50617 6.97101 6.58807C6.77304 6.66997 6.59315 6.79011 6.44166 6.94161C6.29016 7.0931 6.17003 7.27298 6.08813 7.47096C6.00623 7.66893 5.96417 7.88111 5.96436 8.09536C5.96455 8.30961 6.00699 8.52171 6.08924 8.71954C6.1715 8.91737 6.29195 9.09703 6.44372 9.24826L7.59592 10.4006ZM3.25926 20.8704H1.62963C1.19743 20.8704 0.782922 21.0421 0.477307 21.3477C0.171693 21.6533 0 22.0678 0 22.5C0 22.9322 0.171693 23.3467 0.477307 23.6523C0.782922 23.9579 1.19743 24.1296 1.62963 24.1296H3.25926C3.69146 24.1296 4.10597 23.9579 4.41158 23.6523C4.7172 23.3467 4.88889 22.9322 4.88889 22.5C4.88889 22.0678 4.7172 21.6533 4.41158 21.3477C4.10597 21.0421 3.69146 20.8704 3.25926 20.8704ZM7.59602 34.5994L6.44372 35.7517C6.29224 35.903 6.17206 36.0826 6.09004 36.2804C6.00802 36.4781 5.96577 36.6901 5.9657 36.9042C5.96563 37.1183 6.00775 37.3303 6.08965 37.5281C6.17154 37.7259 6.29161 37.9056 6.443 38.057C6.59438 38.2084 6.77411 38.3285 6.97191 38.4104C7.16972 38.4923 7.38172 38.5344 7.59581 38.5343C7.8099 38.5342 8.02187 38.492 8.21962 38.41C8.41738 38.3279 8.59703 38.2078 8.74832 38.0563L9.90062 36.904C10.2059 36.5983 10.3773 36.1839 10.3772 35.7519C10.3771 35.3199 10.2054 34.9056 9.8999 34.6001C9.59441 34.2946 9.18013 34.1229 8.74811 34.1228C8.31609 34.1227 7.90169 34.2941 7.59602 34.5994ZM22 39.6111C21.786 39.6111 21.5741 39.6533 21.3764 39.7351C21.1786 39.817 20.999 39.9371 20.8477 40.0884C20.6963 40.2397 20.5763 40.4194 20.4944 40.6171C20.4125 40.8148 20.3704 41.0267 20.3704 41.2407V42.8704C20.3704 43.3026 20.5421 43.7171 20.8477 44.0227C21.1533 44.3283 21.5678 44.5 22 44.5C22.4322 44.5 22.8467 44.3283 23.1523 44.0227C23.4579 43.7171 23.6296 43.3026 23.6296 42.8704V41.2407C23.6296 41.0267 23.5875 40.8148 23.5056 40.6171C23.4237 40.4194 23.3037 40.2397 23.1523 40.0884C23.001 39.9371 22.8214 39.817 22.6236 39.7351C22.4259 39.6533 22.214 39.6111 22 39.6111ZM36.404 34.5994C36.0981 34.295 35.684 34.1243 35.2525 34.1248C34.821 34.1254 34.4073 34.297 34.1021 34.6021C33.797 34.9073 33.6254 35.321 33.6248 35.7525C33.6243 36.184 33.795 36.5981 34.0994 36.904L35.2517 38.0563C35.5574 38.3616 35.9718 38.533 36.4038 38.5329C36.8358 38.5327 37.2501 38.361 37.5556 38.0556C37.861 37.7501 38.0327 37.3358 38.0329 36.9038C38.033 36.4717 37.8616 36.0574 37.5563 35.7517L36.404 34.5994ZM42.3704 20.8704H40.7407C40.3085 20.8704 39.894 21.0421 39.5884 21.3477C39.2828 21.6533 39.1111 22.0678 39.1111 22.5C39.1111 22.9322 39.2828 23.3467 39.5884 23.6523C39.894 23.9579 40.3085 24.1296 40.7407 24.1296H42.3704C42.8026 24.1296 43.2171 23.9579 43.5227 23.6523C43.8283 23.3467 44 22.9322 44 22.5C44 22.0678 43.8283 21.6533 43.5227 21.3477C43.2171 21.0421 42.8026 20.8704 42.3704 20.8704ZM35.2517 10.8779C35.4657 10.8782 35.6777 10.8362 35.8755 10.7543C36.0733 10.6723 36.2529 10.5522 36.4041 10.4006L37.5563 9.24827C37.7076 9.09694 37.8276 8.9173 37.9095 8.71959C37.9914 8.52187 38.0336 8.30997 38.0336 8.09597C38.0336 7.88197 37.9914 7.67006 37.9095 7.47235C37.8276 7.27464 37.7076 7.09499 37.5563 6.94367C37.405 6.79235 37.2253 6.67231 37.0276 6.59042C36.8299 6.50852 36.618 6.46637 36.404 6.46637C36.19 6.46637 35.9781 6.50852 35.7804 6.59042C35.5826 6.67231 35.403 6.79235 35.2517 6.94367L34.0994 8.09602C33.8715 8.32392 33.7163 8.61429 33.6534 8.93041C33.5905 9.24652 33.6228 9.57419 33.7461 9.87196C33.8694 10.1697 34.0783 10.4242 34.3463 10.6033C34.6143 10.7824 34.9294 10.8779 35.2517 10.8779Z" fill="#B78A16"/>
<path d="M23.3525 27.5H21.7393V21.0674C21.7393 20.8532 21.7415 20.639 21.7461 20.4248C21.7507 20.2106 21.7552 20.001 21.7598 19.7959C21.7689 19.5908 21.7803 19.3949 21.7939 19.208C21.6982 19.3128 21.5798 19.4268 21.4385 19.5498C21.3018 19.6729 21.1559 19.8005 21.001 19.9326L19.8525 20.8486L19.0459 19.8301L22.0127 17.5059H23.3525V27.5Z" fill="#374646"/>
</svg>
