<svg width="13" height="14" viewBox="0 0 13 14" fill="none" xmlns="http://www.w3.org/2000/svg">
<path d="M12.5699 7.40397C12.5726 7.17072 12.5117 6.94114 12.3937 6.73992C12.2757 6.53871 12.105 6.37347 11.9001 6.26199L2.14796 0.903159C1.93787 0.783456 1.69807 0.725984 1.45655 0.737453C1.21503 0.748923 0.981756 0.82886 0.783961 0.967933C0.36528 1.25331 0.150777 1.93437 0.26812 2.42533L1.17823 6.23993C1.22361 6.43004 1.33198 6.59919 1.48573 6.71987C1.63947 6.84055 1.82953 6.90564 2.02498 6.90456L7.45187 6.88766C7.51759 6.88625 7.58292 6.89816 7.64392 6.92267C7.70492 6.94717 7.76033 6.98377 7.80681 7.03025C7.85329 7.07674 7.88989 7.13215 7.91439 7.19314C7.9389 7.25414 7.95081 7.31947 7.9494 7.3852C7.94846 7.65837 7.72645 7.88038 7.44858 7.88602L2.01653 7.89869C1.61381 7.89963 1.26178 8.17656 1.16556 8.56848L0.22306 12.3976C0.108533 12.8501 0.239019 13.3016 0.558192 13.6208C0.595742 13.6584 0.637986 13.7006 0.680699 13.7339C1.09375 14.0531 1.6354 14.0935 2.0982 13.8466L11.8837 8.54173C12.3038 8.31878 12.5643 7.87991 12.5704 7.40444L12.5699 7.40397Z" fill="#F3B921"/>
</svg>
