<svg width="98" height="31" viewBox="0 0 98 31" fill="none" xmlns="http://www.w3.org/2000/svg">
<path d="M18.4629 5.27168C18.4591 5.21366 18.4554 5.1575 18.4517 5.09947C18.4573 5.01711 18.461 4.93662 18.418 4.85988C18.345 4.44058 18.2701 4.02316 18.1353 3.61697C18.1147 3.62446 18.096 3.63194 18.0811 3.63943C18.0904 3.6282 18.1054 3.62071 18.1353 3.61697C18.0605 3.44289 18.0586 3.23137 17.877 3.11344C17.8564 2.93936 17.7423 2.81207 17.6562 2.67168C17.6262 2.62301 17.5963 2.57247 17.5663 2.52381C17.4709 2.35534 17.3511 2.20934 17.1976 2.09141C17.0479 1.84807 16.8008 1.71329 16.5818 1.5467C16.4096 1.38946 16.2037 1.28651 15.9941 1.18918C15.8368 1.0544 15.6347 1.02633 15.4531 0.949579C15.3614 0.91027 15.2697 0.872833 15.178 0.833524C15.1031 0.816678 15.0301 0.799831 14.9552 0.782984C14.8804 0.702495 14.7793 0.713726 14.6838 0.702495C14.6127 0.622005 14.4948 0.674417 14.4181 0.60703C14.2477 0.520925 14.0587 0.519053 13.8771 0.477872C13.8734 0.472257 13.8715 0.466641 13.8678 0.461026C13.7667 0.328124 13.5945 0.41423 13.4728 0.339355C13.4129 0.339355 13.353 0.339355 13.2931 0.339355C13.2632 0.339355 13.2332 0.339355 13.2033 0.339355C13.0985 0.339355 12.9937 0.339355 12.8888 0.339355C12.8851 0.352458 12.8813 0.365561 12.8795 0.378664C12.8533 0.38428 12.8271 0.388024 12.799 0.393639C12.6212 0.444179 12.5089 0.56585 12.4303 0.724957C12.3236 0.863474 12.2562 1.01884 12.2131 1.1873C12.1121 1.38572 12.0353 1.59537 11.9867 1.8125C11.8893 2.01653 11.8163 2.22993 11.7639 2.4508C11.7078 2.53129 11.6797 2.62301 11.6703 2.71848C11.6292 2.75217 11.6273 2.79897 11.6254 2.84576C11.558 2.94497 11.5318 3.05916 11.5019 3.17147C11.4963 3.1958 11.4906 3.22014 11.485 3.24447C11.4382 3.31747 11.4139 3.39609 11.4027 3.48219C11.311 3.65253 11.2492 3.83223 11.2155 4.02129C11.1668 4.09991 11.135 4.18414 11.1275 4.27586C11.0227 4.53043 10.9123 4.78313 10.858 5.05455C10.7326 5.34281 10.6296 5.64044 10.5473 5.94555C10.4631 6.11963 10.4013 6.3012 10.3582 6.49026C10.2497 6.73547 10.1598 6.9863 10.0981 7.24836C10.0157 7.47111 9.92773 7.69012 9.85099 7.91474C9.52905 8.84879 9.21086 9.78472 8.89266 10.7206C8.79346 10.9359 8.69987 11.1512 8.66243 11.3889C8.57072 11.578 8.51082 11.7782 8.4528 11.9804C8.40039 12.0646 8.38167 12.1208 8.52205 12.132C8.84025 12.1545 9.15658 12.1657 9.47664 12.1582C9.56649 12.162 9.65446 12.1638 9.7443 12.1676C9.96704 12.2069 10.1935 12.2032 10.42 12.2013C10.4649 12.2032 10.5098 12.205 10.5548 12.2069C10.5828 12.2069 10.609 12.2088 10.6371 12.2088C10.654 12.22 10.6727 12.2256 10.6895 12.2256C10.7775 12.2499 10.8674 12.2481 10.9591 12.2462C11.1069 12.2687 11.2548 12.2911 11.4027 12.3136C11.5393 12.3641 11.6759 12.4147 11.8126 12.4652C11.9473 12.5607 12.0634 12.6767 12.1682 12.8021C12.2131 12.9481 12.2581 13.096 12.303 13.242C12.2768 13.3918 12.2487 13.5397 12.2225 13.6894C12.1233 13.8859 12.0353 14.0881 11.981 14.3034C11.7882 14.7358 11.6067 15.1738 11.4513 15.623C11.3128 15.8982 11.1986 16.1846 11.0976 16.4766C11.0021 16.6469 10.931 16.8285 10.873 17.0157C10.8131 17.113 10.7625 17.2178 10.7382 17.3302C10.6671 17.4406 10.6053 17.5548 10.5828 17.6839C10.5473 17.7083 10.5473 17.742 10.5585 17.7794C10.4949 17.8767 10.4256 17.9703 10.4144 18.092C10.3208 18.2998 10.2272 18.5094 10.1355 18.7172C10.0307 18.9568 9.92586 19.1964 9.82105 19.436C9.69377 19.7617 9.44108 19.9414 9.1154 20.0312C9.02181 20.0237 8.93197 20.0275 8.84399 20.0369C8.61751 20.0237 8.40413 19.9545 8.21134 19.8029C8.15332 19.7261 8.09717 19.6512 8.03914 19.5745C7.99797 19.4528 7.97925 19.3199 7.89689 19.2151C7.90251 19.1758 7.90625 19.1346 7.91187 19.0953C7.95679 18.9811 7.95117 18.8576 7.95866 18.7378C8.03166 18.5787 7.99235 18.399 8.04476 18.2361C8.10091 18.0452 8.13086 17.8505 8.1346 17.6502C8.1814 17.566 8.17952 17.4743 8.17765 17.3826C8.2207 17.3096 8.2207 17.2291 8.21696 17.1486C8.2207 17.1205 8.22632 17.0906 8.23006 17.0625C8.2806 16.8884 8.30868 16.7124 8.31616 16.5327C8.3667 16.3549 8.40039 16.1752 8.40413 15.9899C8.46403 15.8027 8.49023 15.608 8.49772 15.4115C8.54826 15.2412 8.40975 15.3142 8.35734 15.3142C7.27922 15.3086 6.19922 15.3104 5.12109 15.3086C5.07992 15.3048 5.04061 15.3029 4.99943 15.2992C4.743 15.2449 4.48844 15.1813 4.26383 15.0371C4.13094 14.908 4.03361 14.7545 3.95874 14.5841C3.94002 14.4044 3.92131 14.2266 3.90446 14.0469C3.90633 14.0057 3.9082 13.9646 3.91007 13.9215C3.96248 13.7119 3.99618 13.5003 4.00179 13.2851C4.05233 13.1896 4.04858 13.0867 4.04671 12.9856C4.10099 12.7741 4.16089 12.5625 4.12345 12.3417C4.14217 12.2836 4.16089 12.2275 4.17961 12.1695C4.23576 11.9804 4.26383 11.7876 4.27319 11.5911C4.32186 11.5012 4.32186 11.4057 4.31812 11.3084C4.28817 11.2111 4.38924 11.1381 4.36491 11.0426C4.41919 10.8816 4.44539 10.7169 4.45101 10.5466C4.50529 10.3744 4.53337 10.1965 4.54085 10.015C4.55583 9.9588 4.56706 9.90077 4.58577 9.84649C4.65316 9.64995 4.59701 9.43655 4.67375 9.24188C4.72803 9.0678 4.75423 8.88997 4.76359 8.7084C4.77669 8.65974 4.79541 8.6092 4.80477 8.56053C4.88151 8.11503 4.92456 7.66391 5.00317 7.22215C5.07992 6.78788 5.13794 6.34987 5.2465 5.92122C5.27645 5.74152 5.30827 5.56182 5.33822 5.38212C5.38501 5.15937 5.44116 4.9385 5.44116 4.70826C5.48234 4.48363 5.56657 4.26463 5.56657 4.03252C5.54598 3.81538 5.69572 3.62445 5.66577 3.40545C5.70321 3.18083 5.79118 2.96369 5.78931 2.73158C5.8361 2.55376 5.87354 2.37593 5.88102 2.19249C5.92969 2.01466 5.96338 1.83684 5.97274 1.6534C6.02702 1.49242 6.04012 1.32582 6.05884 1.15923C6.07568 1.08061 6.09627 1.00199 6.10938 0.921501C6.18799 0.423589 6.18612 0.423589 5.66952 0.436692C5.4056 0.388024 5.14355 0.386152 4.87964 0.43482C4.85531 0.436692 4.83097 0.436692 4.80664 0.438564C4.43416 0.421717 4.08415 0.532156 3.72852 0.618261C3.3916 0.681904 3.08089 0.816678 2.7889 0.99076C2.56055 1.10869 2.33968 1.24159 2.15625 1.42503C1.97095 1.57103 1.80249 1.73014 1.66211 1.92107C1.50114 2.09515 1.35514 2.28234 1.2522 2.4976C1.10059 2.70725 0.980794 2.93561 0.892822 3.18083C0.782389 3.38111 0.668213 3.5814 0.621419 3.80977C0.55778 3.92208 0.509115 4.04001 0.488525 4.16916C0.434245 4.24965 0.409912 4.3395 0.400553 4.43497C0.331299 4.5922 0.27889 4.75318 0.262044 4.92352C0.19279 5.0845 0.168457 5.25671 0.140381 5.42892C0.0973307 5.57118 0.0711263 5.71719 0.0861003 5.86693C0.080485 5.87629 0.0767415 5.88565 0.0748698 5.89688C0.0411784 5.9755 0.0561523 6.06348 0.0374349 6.14584C0.0243327 6.14022 0.0131022 6.1421 0 6.14771C0 6.22259 0 6.29746 0 6.37233C0 6.50711 0 6.64188 0 6.77665C0 6.94138 0 7.1061 0 7.27082C0 7.48047 0 7.69012 0 7.89976C0 8.25916 0 8.61856 0 8.97795C0 9.08278 0 9.1876 0 9.29242C0 9.47212 0 9.65182 0 9.83152C0 10.0112 0 10.1909 0 10.3706C0 10.745 0 11.1193 0 11.4937C0 11.7183 0 11.943 0 12.1676C0 12.3473 0 12.527 0 12.7067C0 12.8564 0 13.0062 0 13.1559C0 13.2907 0 13.4255 0 13.5602C0 13.695 0 13.8298 0 13.9646C0 14.0844 0 14.2042 0 14.324H0.0205892H0.0411784C0.072998 14.5355 0.0224609 14.7545 0.0861003 14.9641C0.0767415 14.9754 0.0767415 14.9866 0.0861003 14.9978C0.0898438 15.2224 0.0917155 15.4471 0.095459 15.6698C0.0992025 15.9581 0.080485 16.2482 0.131022 16.5346C0.131022 16.5608 0.132894 16.5889 0.132894 16.6151C0.134766 16.9221 0.121663 17.2291 0.16097 17.5342C0.153483 17.5772 0.164714 17.6203 0.177816 17.6633C0.153483 17.7494 0.164714 17.8337 0.183431 17.9179C0.175944 18.1332 0.168457 18.3484 0.220866 18.56C0.217122 18.7135 0.215251 18.8651 0.263916 19.0129C0.263916 19.1159 0.258301 19.2189 0.305094 19.3143C0.31071 19.4996 0.342529 19.6831 0.402425 19.859C0.394938 19.9882 0.43986 20.1061 0.490397 20.2222C0.490397 20.2839 0.496012 20.3438 0.539063 20.3925C0.527832 20.4955 0.576497 20.5816 0.625163 20.6658C0.647624 20.7912 0.692546 20.9091 0.7618 21.0177C0.799235 21.1843 0.883464 21.3284 0.975179 21.4707C1.06128 21.6523 1.16235 21.8226 1.29899 21.9705C1.40942 22.152 1.54606 22.313 1.71265 22.4459C1.87549 22.6387 2.07202 22.7903 2.28353 22.9214C2.5306 23.1104 2.80575 23.2546 3.09399 23.3669C3.48145 23.5559 3.88949 23.6795 4.3125 23.7581C4.87215 23.9097 5.44303 23.9734 6.01766 24.022C6.53988 24.0932 7.06209 24.1456 7.58993 24.1568C7.7509 24.2111 7.93807 24.1212 8.08594 24.2504C8.19076 24.2504 8.29557 24.2504 8.40039 24.2504C8.49023 24.2504 8.58008 24.2504 8.66992 24.2504C8.77474 24.2504 8.87956 24.2504 8.98438 24.2504C9.13412 24.2504 9.28385 24.2504 9.43359 24.2504C9.68815 24.2504 9.94271 24.2504 10.1973 24.2504C10.362 24.2504 10.5267 24.2504 10.6914 24.2504C10.7812 24.2504 10.8711 24.2504 10.9609 24.2504C11.0358 24.2504 11.1107 24.2504 11.1855 24.2504C11.2604 24.2504 11.3353 24.2504 11.4102 24.2504C11.4551 24.2504 11.5 24.2504 11.5449 24.2504C11.5936 24.1381 11.7153 24.2298 11.7808 24.1662C12.9057 24.1456 14.0194 24.0407 15.0863 23.6533C15.8125 23.3893 16.4676 23.0037 16.9842 22.4197C18.126 21.1319 18.4086 19.5651 18.418 17.916C18.418 17.8898 18.4198 17.8636 18.4198 17.8374C18.4273 17.8019 18.4329 17.7663 18.4348 17.7307C18.4591 17.5398 18.4535 17.347 18.4535 17.1542C18.4535 17.1243 18.4554 17.0943 18.4554 17.0644C18.4591 16.9296 18.4629 16.7929 18.4666 16.6582C18.4872 16.559 18.4854 16.4597 18.4666 16.3587C18.4779 16.353 18.4872 16.3474 18.4985 16.3418C18.5153 16.3437 18.534 16.3437 18.5509 16.3456C18.5509 16.2258 18.5509 16.106 18.5509 15.9862C18.5415 15.9862 18.5321 15.9862 18.5228 15.988C18.4872 15.8083 18.5172 15.6268 18.5022 15.4471C18.491 15.3947 18.4816 15.3366 18.4479 15.3011C18.4348 15.0315 18.3993 14.7638 18.3225 14.5037C18.2851 14.2528 18.2102 14.0132 18.0979 13.7849C18.0305 13.5715 17.9351 13.3731 17.7853 13.2027C17.7217 13.023 17.6 12.8864 17.469 12.7553C17.3754 12.6093 17.2575 12.4877 17.1096 12.3941C17.0797 12.3042 16.9973 12.2668 16.9299 12.2163C16.87 12.089 16.8869 11.9841 16.9973 11.8849C17.0946 11.7988 17.1714 11.6884 17.2556 11.5873C17.2799 11.5798 17.2931 11.5649 17.2856 11.5386C17.381 11.4488 17.4615 11.3458 17.5233 11.2279C17.6075 11.1231 17.6899 11.0164 17.7741 10.9116C17.8003 10.876 17.8265 10.8404 17.8508 10.8011C18.2327 10.2021 18.4273 9.54325 18.4985 8.84318C18.5153 8.84318 18.534 8.84505 18.5509 8.84505C18.5509 8.77017 18.5509 8.6953 18.5509 8.62043C18.5509 8.53058 18.5509 8.44073 18.5509 8.35088C18.5509 8.24606 18.5509 8.14123 18.5509 8.03641C18.5509 7.88666 18.5509 7.73691 18.5509 7.58717C18.5509 7.1529 18.5509 6.71863 18.5509 6.28436C18.5359 6.28248 18.5209 6.28436 18.5097 6.28997C18.5097 6.2881 18.5097 6.28436 18.5097 6.28248L18.5003 6.28436C18.5003 6.28061 18.5003 6.27687 18.5003 6.27313C18.5041 6.27687 18.5059 6.27874 18.5097 6.28248C18.5228 6.28436 18.5378 6.28436 18.5509 6.28436C18.5509 6.17953 18.5509 6.07471 18.5509 5.96989C18.5509 5.86506 18.5509 5.76024 18.5509 5.65541C18.5509 5.58054 18.5509 5.50567 18.5509 5.43079C18.4517 5.40833 18.5078 5.31099 18.4629 5.27168ZM7.41211 24.0613C7.40088 24.0557 7.39152 24.052 7.37842 24.0445C7.39339 24.0426 7.40649 24.0389 7.42147 24.037C7.41772 24.0426 7.41585 24.052 7.41211 24.0613ZM9.42985 24.1924C9.42985 24.1905 9.42985 24.1886 9.42985 24.1886C9.43172 24.1886 9.43359 24.1886 9.43359 24.1886C9.43359 24.1905 9.43172 24.1905 9.42985 24.1924ZM11.1799 24.2036L11.1818 24.198C11.1855 24.1998 11.1874 24.2017 11.1912 24.2036C11.1893 24.2017 11.1837 24.2036 11.1799 24.2036ZM18.5116 5.94742C18.5116 5.94929 18.5116 5.95304 18.5116 5.95491H18.5041C18.5059 5.95304 18.5097 5.95117 18.5116 5.94742Z" fill="#F3B921"/>
<path d="M54.0132 10.0022C53.184 8.56271 52.0179 7.50325 50.4401 6.95666C48.1977 6.17797 45.9329 6.16487 43.6756 6.88553C42.0808 7.39468 40.8511 8.39237 39.9957 9.83183C39.174 11.2151 38.8296 12.7444 38.7473 14.3318C38.7098 15.0618 38.751 15.7955 38.7847 16.5274C38.8315 17.4914 39.0336 18.4274 39.3631 19.3371C40.0949 21.3549 41.4126 22.8187 43.4379 23.5731C45.2609 24.2526 47.142 24.3443 49.0475 23.9755C50.3989 23.7135 51.6305 23.1987 52.6562 22.2478C53.4367 21.5234 54.0319 20.668 54.4175 19.6796C54.9716 18.2627 55.1868 16.7839 55.1999 15.2639C55.1531 14.6462 55.1363 14.0229 55.0558 13.4089C54.8986 12.2166 54.6215 11.0579 54.0132 10.0022ZM51.4452 16.1512C51.3834 17.1863 51.1888 18.1953 50.6403 19.0956C49.9965 20.1551 49.0007 20.6493 47.8028 20.7896C47.5127 20.8233 47.2207 20.8308 46.9305 20.8495C46.253 20.8327 45.5848 20.7672 44.9484 20.5145C43.8309 20.0709 43.1702 19.2192 42.7959 18.1092C42.5581 17.4016 42.4702 16.6716 42.4309 15.9303C42.3785 14.9719 42.4178 14.0192 42.6199 13.0795C42.7846 12.312 43.0691 11.5895 43.5988 10.9905C44.1922 10.3204 44.9484 9.94227 45.8262 9.80001C46.7284 9.654 47.6324 9.65588 48.5178 9.89547C49.7756 10.2343 50.5954 11.0523 51.0334 12.2709C51.3291 13.0945 51.4564 13.9424 51.4545 14.8128C51.4489 15.2602 51.4714 15.7076 51.4452 16.1512Z" fill="#F3B921"/>
<path d="M35.4641 9.1688C34.7566 8.25346 33.8862 7.55713 32.8249 7.10602C31.5971 6.5819 30.3018 6.38348 29.3061 6.37412C28.0782 6.37038 27.1966 6.47333 26.3281 6.69046C23.8874 7.30443 22.2271 8.79068 21.3736 11.1548C20.7728 12.8189 20.6399 14.5466 20.7559 16.3024C20.8214 17.2851 20.9936 18.2435 21.3062 19.1757C22.0587 21.4219 23.528 22.97 25.8003 23.6981C27.6065 24.2784 29.4408 24.3271 31.292 23.919C34.0528 23.3106 35.8422 21.6428 36.662 18.9492C37.2703 16.952 37.3302 14.9154 36.9746 12.8676C36.7388 11.5311 36.3101 10.2657 35.4641 9.1688ZM33.1581 17.9103C32.9017 18.7677 32.4862 19.5407 31.7337 20.0817C31.2003 20.4654 30.6013 20.6788 29.9537 20.7668C29.1245 20.881 28.2953 20.8791 27.4792 20.6807C26.0848 20.34 25.2088 19.4265 24.797 18.0863C24.6136 17.491 24.5369 16.8602 24.4508 16.2407C24.4058 15.9187 24.4433 15.5836 24.4433 15.2561C24.4302 14.1535 24.4994 13.0585 24.9561 12.029C25.5233 10.7524 26.4947 10.0093 27.876 9.79399C28.7352 9.66109 29.5924 9.66296 30.4347 9.87448C31.7225 10.1983 32.5592 11.0238 33.0308 12.2574C33.3041 12.9724 33.4108 13.7137 33.4557 14.4661C33.525 15.6286 33.4932 16.7872 33.1581 17.9103Z" fill="#F3B921"/>
<path d="M97.8474 7.61704C97.3215 6.43777 95.6182 6.20192 94.7946 7.19587C94.6093 7.42049 94.4764 7.69753 94.3585 7.96707C93.7689 9.31481 93.1924 10.6682 92.6122 12.0215C91.8578 13.7792 91.1073 15.5368 90.353 17.2926C90.2538 17.5229 90.1527 17.7494 90.0254 18.0395C89.9636 17.9104 89.9337 17.8505 89.9094 17.7906C89.4414 16.7068 88.9735 15.6248 88.5074 14.541C87.5416 12.2892 86.5758 10.0392 85.6175 7.78551C85.2562 6.93756 84.661 6.54447 83.7476 6.5819C82.9914 6.61373 82.2783 7.18651 82.1004 7.90905C81.9713 8.43691 82.1154 8.89739 82.3194 9.35786C83.0625 11.0388 83.815 12.716 84.5562 14.3969C85.1476 15.7371 85.7241 17.0811 86.3137 18.4214C86.8191 19.5707 87.3133 20.7237 87.8523 21.8562C88.0489 22.2699 88.062 22.6087 87.8598 23.0243C87.3451 24.0818 86.9408 25.1956 86.1584 26.1128C85.6736 26.68 85.0821 27.0338 84.3615 27.1629C83.9815 27.2303 83.5866 27.2097 83.2029 27.264C82.9259 27.3014 82.6376 27.3538 82.3906 27.4736C81.9395 27.6926 81.6756 28.0689 81.5464 28.5687C81.3461 29.338 81.829 30.2683 82.5815 30.5248C83.1617 30.7232 83.742 30.6633 84.3297 30.6015C85.3198 30.4986 86.2688 30.2552 87.1392 29.7573C88.1743 29.1639 88.9585 28.3141 89.6136 27.3295C90.2163 26.4217 90.6431 25.424 91.0829 24.4356C91.8429 22.7304 92.5972 21.0214 93.3496 19.3124C94.2219 17.3301 95.0904 15.3459 95.9607 13.3618C96.5765 11.9597 97.1961 10.5615 97.8119 9.15944C98.0365 8.65217 98.0739 8.12618 97.8474 7.61704Z" fill="#F3B921"/>
<path d="M68.7177 15.4C67.7763 14.6644 66.6813 14.2451 65.5807 13.8389C64.6654 13.5001 63.7277 13.2174 62.8124 12.8805C62.2584 12.6765 61.723 12.4238 61.3112 11.9726C60.95 11.5758 60.9051 10.9618 61.227 10.5295C61.4479 10.2337 61.7736 10.0933 62.1124 9.99223C62.7169 9.81066 63.3402 9.83874 63.9598 9.84623C65.0491 9.85933 66.0075 10.2206 66.8292 10.9375C67.1473 11.2145 67.4712 11.4635 67.9054 11.5477C68.5362 11.6694 69.2568 11.383 69.6499 10.8215C70.0092 10.3067 70.028 9.55609 69.6611 9.02261C69.0771 8.17466 68.2854 7.57005 67.357 7.14889C66.1535 6.60231 64.8732 6.40015 63.606 6.3833C62.3519 6.39453 61.1709 6.56487 60.0609 7.06091C58.8836 7.58877 58.0282 8.44234 57.5977 9.67776C57.4049 10.2318 57.3581 10.8102 57.3731 11.398C57.3937 12.1823 57.5827 12.9104 57.9908 13.5881C58.5617 14.5333 59.4096 15.1567 60.3698 15.6396C61.446 16.1824 62.5953 16.5437 63.7408 16.9068C64.5587 17.167 65.3711 17.4403 66.1141 17.8896C67.1979 18.5428 66.9564 19.8101 66.0149 20.2799C65.7754 20.3997 65.5227 20.5008 65.2644 20.5663C64.5325 20.7516 63.7838 20.7572 63.0333 20.7105C61.8166 20.6375 60.7254 20.235 59.7989 19.4339C59.4395 19.1231 59.0914 18.8199 58.5972 18.7356C58.075 18.6458 57.2552 18.8723 56.8696 19.4956C56.5346 20.0366 56.5065 20.746 56.8902 21.2701C57.1129 21.5752 57.3731 21.8654 57.6632 22.1087C59.2654 23.4583 61.169 24.033 63.2204 24.1678C64.2555 24.2351 65.2793 24.1116 66.2901 23.8664C67.3046 23.6212 68.233 23.2 69.006 22.5018C69.7865 21.798 70.2357 20.8827 70.4042 19.8531C70.5127 19.1924 70.5071 18.5241 70.3349 17.8559C70.0766 16.847 69.5357 16.0402 68.7177 15.4Z" fill="#F3B921"/>
<path d="M78.9937 10.2472C79.3793 10.2322 79.778 10.2509 80.1467 10.1573C80.9534 9.95141 81.4157 9.22888 81.3727 8.46703C81.3128 7.4188 80.5005 6.8666 79.6638 6.86099C79.1921 6.85724 78.7204 6.85163 78.2487 6.86473C78.0316 6.87035 77.9493 6.81606 77.9549 6.57834C77.9699 5.72477 77.9549 4.87121 77.9624 4.01764C77.9755 2.6437 76.6241 1.89871 75.6189 2.23751C74.8665 2.49209 74.3181 3.16408 74.3181 3.95774C74.3181 4.84875 74.3125 5.73975 74.3218 6.63075C74.3237 6.81232 74.2601 6.86847 74.0897 6.86099C73.8726 6.85163 73.6555 6.8535 73.4384 6.86099C72.4089 6.89655 71.634 7.91297 71.8754 8.90879C72.072 9.72305 72.7421 10.2472 73.5844 10.249C73.8221 10.249 74.0579 10.249 74.3181 10.249C74.3181 10.3763 74.3181 10.4718 74.3181 10.5673C74.3181 13.3975 74.3162 16.2277 74.3218 19.058C74.3218 19.3855 74.3536 19.715 74.406 20.0369C74.7448 22.0997 75.997 23.4362 78.0241 23.8855C78.6755 24.0296 79.3306 24.1344 79.9951 23.921C81.0844 23.5729 81.5112 22.2701 80.8317 21.3547C80.4462 20.8344 79.9052 20.6416 79.2894 20.6228C78.6493 20.6022 78.1926 20.2803 78.0354 19.6738C77.9773 19.4529 77.9642 19.2152 77.9642 18.985C77.9605 16.1622 77.9605 13.3395 77.9605 10.5167C77.9605 10.4418 77.9605 10.367 77.9605 10.249C78.3236 10.2509 78.6587 10.2603 78.9937 10.2472Z" fill="#F3B921"/>
</svg>
