<svg width="98" height="31" viewBox="0 0 98 31" fill="none" xmlns="http://www.w3.org/2000/svg">
<path d="M18.4629 5.27217C18.4591 5.21415 18.4554 5.15799 18.4517 5.09996C18.4573 5.0176 18.461 4.93711 18.418 4.86037C18.345 4.44107 18.2701 4.02365 18.1353 3.61746C18.1147 3.62494 18.096 3.63243 18.0811 3.63992C18.0904 3.62869 18.1054 3.6212 18.1353 3.61746C18.0605 3.44337 18.0586 3.23185 17.877 3.11393C17.8564 2.93985 17.7423 2.81256 17.6562 2.67217C17.6262 2.6235 17.5963 2.57296 17.5663 2.52429C17.4709 2.35583 17.3511 2.20982 17.1976 2.0919C17.0479 1.84856 16.8008 1.71378 16.5818 1.54719C16.4096 1.38995 16.2037 1.287 15.9941 1.18966C15.8368 1.05489 15.6347 1.02681 15.4531 0.950067C15.3614 0.910758 15.2697 0.873321 15.178 0.834013C15.1031 0.817166 15.0301 0.800319 14.9552 0.783473C14.8804 0.702983 14.7793 0.714214 14.6838 0.702983C14.6127 0.622493 14.4948 0.674905 14.4181 0.607519C14.2477 0.521413 14.0587 0.519542 13.8771 0.478361C13.8734 0.472745 13.8715 0.46713 13.8678 0.461514C13.7667 0.328613 13.5945 0.414718 13.4728 0.339844C13.4129 0.339844 13.353 0.339844 13.2931 0.339844C13.2632 0.339844 13.2332 0.339844 13.2033 0.339844C13.0985 0.339844 12.9937 0.339844 12.8888 0.339844C12.8851 0.352947 12.8813 0.36605 12.8795 0.379153C12.8533 0.384768 12.8271 0.388512 12.799 0.394127C12.6212 0.444667 12.5089 0.566338 12.4303 0.725445C12.3236 0.863962 12.2562 1.01933 12.2131 1.18779C12.1121 1.38621 12.0353 1.59586 11.9867 1.81299C11.8893 2.01702 11.8163 2.23041 11.7639 2.45129C11.7078 2.53178 11.6797 2.6235 11.6703 2.71897C11.6292 2.75266 11.6273 2.79946 11.6254 2.84625C11.558 2.94546 11.5318 3.05964 11.5019 3.17196C11.4963 3.19629 11.4906 3.22062 11.485 3.24496C11.4382 3.31796 11.4139 3.39658 11.4027 3.48268C11.311 3.65302 11.2492 3.83272 11.2155 4.02178C11.1668 4.10039 11.135 4.18463 11.1275 4.27635C11.0227 4.53092 10.9123 4.78362 10.858 5.05504C10.7326 5.3433 10.6296 5.64093 10.5473 5.94604C10.4631 6.12012 10.4013 6.30169 10.3582 6.49075C10.2497 6.73596 10.1598 6.98679 10.0981 7.24885C10.0157 7.4716 9.92773 7.69061 9.85099 7.91523C9.52905 8.84928 9.21086 9.78521 8.89266 10.7211C8.79346 10.9364 8.69987 11.1517 8.66243 11.3894C8.57072 11.5784 8.51082 11.7787 8.4528 11.9809C8.40039 12.0651 8.38167 12.1213 8.52205 12.1325C8.84025 12.155 9.15658 12.1662 9.47664 12.1587C9.56649 12.1625 9.65446 12.1643 9.7443 12.1681C9.96704 12.2074 10.1935 12.2036 10.42 12.2018C10.4649 12.2036 10.5098 12.2055 10.5548 12.2074C10.5828 12.2074 10.609 12.2093 10.6371 12.2093C10.654 12.2205 10.6727 12.2261 10.6895 12.2261C10.7775 12.2504 10.8674 12.2486 10.9591 12.2467C11.1069 12.2692 11.2548 12.2916 11.4027 12.3141C11.5393 12.3646 11.6759 12.4152 11.8126 12.4657C11.9473 12.5612 12.0634 12.6772 12.1682 12.8026C12.2131 12.9486 12.2581 13.0965 12.303 13.2425C12.2768 13.3923 12.2487 13.5401 12.2225 13.6899C12.1233 13.8864 12.0353 14.0886 11.981 14.3039C11.7882 14.7363 11.6067 15.1743 11.4513 15.6235C11.3128 15.8987 11.1986 16.1851 11.0976 16.4771C11.0021 16.6474 10.931 16.829 10.873 17.0162C10.8131 17.1135 10.7625 17.2183 10.7382 17.3306C10.6671 17.4411 10.6053 17.5553 10.5828 17.6844C10.5473 17.7088 10.5473 17.7424 10.5585 17.7799C10.4949 17.8772 10.4256 17.9708 10.4144 18.0925C10.3208 18.3003 10.2272 18.5099 10.1355 18.7177C10.0307 18.9573 9.92586 19.1969 9.82105 19.4365C9.69377 19.7622 9.44108 19.9419 9.1154 20.0317C9.02181 20.0242 8.93197 20.028 8.84399 20.0373C8.61751 20.0242 8.40413 19.955 8.21134 19.8034C8.15332 19.7266 8.09717 19.6517 8.03914 19.575C7.99797 19.4533 7.97925 19.3204 7.89689 19.2156C7.90251 19.1763 7.90625 19.1351 7.91187 19.0958C7.95679 18.9816 7.95117 18.8581 7.95866 18.7383C8.03166 18.5792 7.99235 18.3995 8.04476 18.2366C8.10091 18.0457 8.13086 17.851 8.1346 17.6507C8.1814 17.5665 8.17952 17.4748 8.17765 17.3831C8.2207 17.3101 8.2207 17.2296 8.21696 17.1491C8.2207 17.121 8.22632 17.091 8.23006 17.063C8.2806 16.8889 8.30868 16.7129 8.31616 16.5332C8.3667 16.3554 8.40039 16.1757 8.40413 15.9904C8.46403 15.8032 8.49023 15.6085 8.49772 15.412C8.54826 15.2417 8.40975 15.3147 8.35734 15.3147C7.27922 15.309 6.19922 15.3109 5.12109 15.309C5.07992 15.3053 5.04061 15.3034 4.99943 15.2997C4.743 15.2454 4.48844 15.1818 4.26383 15.0376C4.13094 14.9085 4.03361 14.755 3.95874 14.5846C3.94002 14.4049 3.92131 14.2271 3.90446 14.0474C3.90633 14.0062 3.9082 13.9651 3.91007 13.922C3.96248 13.7124 3.99618 13.5008 4.00179 13.2856C4.05233 13.1901 4.04858 13.0872 4.04671 12.9861C4.10099 12.7746 4.16089 12.563 4.12345 12.3422C4.14217 12.2841 4.16089 12.228 4.17961 12.1699C4.23576 11.9809 4.26383 11.7881 4.27319 11.5915C4.32186 11.5017 4.32186 11.4062 4.31812 11.3089C4.28817 11.2116 4.38924 11.1386 4.36491 11.0431C4.41919 10.8821 4.44539 10.7174 4.45101 10.5471C4.50529 10.3748 4.53337 10.197 4.54085 10.0154C4.55583 9.95929 4.56706 9.90126 4.58577 9.84698C4.65316 9.65043 4.59701 9.43704 4.67375 9.24237C4.72803 9.06829 4.75423 8.89046 4.76359 8.70889C4.77669 8.66022 4.79541 8.60968 4.80477 8.56102C4.88151 8.11552 4.92456 7.6644 5.00317 7.22264C5.07992 6.78837 5.13794 6.35036 5.2465 5.92171C5.27645 5.74201 5.30827 5.56231 5.33822 5.38261C5.38501 5.15986 5.44116 4.93898 5.44116 4.70875C5.48234 4.48412 5.56657 4.26512 5.56657 4.03301C5.54598 3.81587 5.69572 3.62494 5.66577 3.40594C5.70321 3.18131 5.79118 2.96418 5.78931 2.73207C5.8361 2.55424 5.87354 2.37642 5.88102 2.19298C5.92969 2.01515 5.96338 1.83733 5.97274 1.65388C6.02702 1.4929 6.04012 1.32631 6.05884 1.15971C6.07568 1.0811 6.09627 1.00248 6.10938 0.92199C6.18799 0.424077 6.18612 0.424077 5.66952 0.43718C5.4056 0.388512 5.14355 0.38664 4.87964 0.435308C4.85531 0.43718 4.83097 0.43718 4.80664 0.439052C4.43416 0.422205 4.08415 0.532644 3.72852 0.61875C3.3916 0.682393 3.08089 0.817166 2.7889 0.991248C2.56055 1.10917 2.33968 1.24208 2.15625 1.42552C1.97095 1.57152 1.80249 1.73063 1.66211 1.92156C1.50114 2.09564 1.35514 2.28283 1.2522 2.49809C1.10059 2.70774 0.980794 2.9361 0.892822 3.18131C0.782389 3.3816 0.668213 3.58189 0.621419 3.81026C0.55778 3.92257 0.509115 4.04049 0.488525 4.16965C0.434245 4.25014 0.409912 4.33999 0.400553 4.43545C0.331299 4.59269 0.27889 4.75367 0.262044 4.92401C0.19279 5.08499 0.168457 5.2572 0.140381 5.42941C0.0973307 5.57167 0.0711263 5.71767 0.0861003 5.86742C0.080485 5.87678 0.0767415 5.88614 0.0748698 5.89737C0.0411784 5.97599 0.0561523 6.06397 0.0374349 6.14633C0.0243327 6.14071 0.0131022 6.14258 0 6.1482C0 6.22307 0 6.29795 0 6.37282C0 6.5076 0 6.64237 0 6.77714C0 6.94186 0 7.10659 0 7.27131C0 7.48096 0 7.69061 0 7.90025C0 8.25965 0 8.61904 0 8.97844C0 9.08326 0 9.18809 0 9.29291C0 9.47261 0 9.65231 0 9.832C0 10.0117 0 10.1914 0 10.3711C0 10.7455 0 11.1198 0 11.4942C0 11.7188 0 11.9435 0 12.1681C0 12.3478 0 12.5275 0 12.7072C0 12.8569 0 13.0067 0 13.1564C0 13.2912 0 13.426 0 13.5607C0 13.6955 0 13.8303 0 13.9651C0 14.0849 0 14.2046 0 14.3244H0.0205892H0.0411784C0.072998 14.536 0.0224609 14.755 0.0861003 14.9646C0.0767415 14.9759 0.0767415 14.9871 0.0861003 14.9983C0.0898438 15.2229 0.0917155 15.4476 0.095459 15.6703C0.0992025 15.9586 0.080485 16.2487 0.131022 16.5351C0.131022 16.5613 0.132894 16.5894 0.132894 16.6156C0.134766 16.9226 0.121663 17.2296 0.16097 17.5347C0.153483 17.5777 0.164714 17.6208 0.177816 17.6638C0.153483 17.7499 0.164714 17.8342 0.183431 17.9184C0.175944 18.1337 0.168457 18.3489 0.220866 18.5604C0.217122 18.7139 0.215251 18.8656 0.263916 19.0134C0.263916 19.1164 0.258301 19.2193 0.305094 19.3148C0.31071 19.5001 0.342529 19.6836 0.402425 19.8595C0.394938 19.9887 0.43986 20.1066 0.490397 20.2227C0.490397 20.2844 0.496012 20.3443 0.539063 20.393C0.527832 20.4959 0.576497 20.582 0.625163 20.6663C0.647624 20.7917 0.692546 20.9096 0.7618 21.0182C0.799235 21.1848 0.883464 21.3289 0.975179 21.4712C1.06128 21.6527 1.16235 21.8231 1.29899 21.971C1.40942 22.1525 1.54606 22.3135 1.71265 22.4464C1.87549 22.6392 2.07202 22.7908 2.28353 22.9219C2.5306 23.1109 2.80575 23.2551 3.09399 23.3674C3.48145 23.5564 3.88949 23.68 4.3125 23.7586C4.87215 23.9102 5.44303 23.9738 6.01766 24.0225C6.53988 24.0936 7.06209 24.1461 7.58993 24.1573C7.7509 24.2116 7.93807 24.1217 8.08594 24.2509C8.19076 24.2509 8.29557 24.2509 8.40039 24.2509C8.49023 24.2509 8.58008 24.2509 8.66992 24.2509C8.77474 24.2509 8.87956 24.2509 8.98438 24.2509C9.13412 24.2509 9.28385 24.2509 9.43359 24.2509C9.68815 24.2509 9.94271 24.2509 10.1973 24.2509C10.362 24.2509 10.5267 24.2509 10.6914 24.2509C10.7812 24.2509 10.8711 24.2509 10.9609 24.2509C11.0358 24.2509 11.1107 24.2509 11.1855 24.2509C11.2604 24.2509 11.3353 24.2509 11.4102 24.2509C11.4551 24.2509 11.5 24.2509 11.5449 24.2509C11.5936 24.1386 11.7153 24.2303 11.7808 24.1666C12.9057 24.1461 14.0194 24.0412 15.0863 23.6538C15.8125 23.3898 16.4676 23.0042 16.9842 22.4202C18.126 21.1324 18.4086 19.5656 18.418 17.9165C18.418 17.8903 18.4198 17.8641 18.4198 17.8379C18.4273 17.8023 18.4329 17.7668 18.4348 17.7312C18.4591 17.5403 18.4535 17.3475 18.4535 17.1547C18.4535 17.1247 18.4554 17.0948 18.4554 17.0648C18.4591 16.9301 18.4629 16.7934 18.4666 16.6586C18.4872 16.5594 18.4854 16.4602 18.4666 16.3591C18.4779 16.3535 18.4872 16.3479 18.4985 16.3423C18.5153 16.3442 18.534 16.3442 18.5509 16.346C18.5509 16.2262 18.5509 16.1065 18.5509 15.9867C18.5415 15.9867 18.5321 15.9867 18.5228 15.9885C18.4872 15.8088 18.5172 15.6273 18.5022 15.4476C18.491 15.3951 18.4816 15.3371 18.4479 15.3016C18.4348 15.032 18.3993 14.7643 18.3225 14.5041C18.2851 14.2533 18.2102 14.0137 18.0979 13.7854C18.0305 13.572 17.9351 13.3735 17.7853 13.2032C17.7217 13.0235 17.6 12.8869 17.469 12.7558C17.3754 12.6098 17.2575 12.4882 17.1096 12.3946C17.0797 12.3047 16.9973 12.2673 16.9299 12.2167C16.87 12.0895 16.8869 11.9846 16.9973 11.8854C17.0946 11.7993 17.1714 11.6889 17.2556 11.5878C17.2799 11.5803 17.2931 11.5653 17.2856 11.5391C17.381 11.4493 17.4615 11.3463 17.5233 11.2284C17.6075 11.1236 17.6899 11.0169 17.7741 10.9121C17.8003 10.8765 17.8265 10.8409 17.8508 10.8016C18.2327 10.2026 18.4273 9.54374 18.4985 8.84367C18.5153 8.84367 18.534 8.84554 18.5509 8.84554C18.5509 8.77066 18.5509 8.69579 18.5509 8.62092C18.5509 8.53107 18.5509 8.44122 18.5509 8.35137C18.5509 8.24655 18.5509 8.14172 18.5509 8.0369C18.5509 7.88715 18.5509 7.7374 18.5509 7.58765C18.5509 7.15338 18.5509 6.71911 18.5509 6.28484C18.5359 6.28297 18.5209 6.28484 18.5097 6.29046C18.5097 6.28859 18.5097 6.28484 18.5097 6.28297L18.5003 6.28484C18.5003 6.2811 18.5003 6.27736 18.5003 6.27361C18.5041 6.27736 18.5059 6.27923 18.5097 6.28297C18.5228 6.28484 18.5378 6.28484 18.5509 6.28484C18.5509 6.18002 18.5509 6.0752 18.5509 5.97037C18.5509 5.86555 18.5509 5.76073 18.5509 5.6559C18.5509 5.58103 18.5509 5.50615 18.5509 5.43128C18.4517 5.40882 18.5078 5.31148 18.4629 5.27217ZM7.41211 24.0618C7.40088 24.0562 7.39152 24.0525 7.37842 24.045C7.39339 24.0431 7.40649 24.0394 7.42147 24.0375C7.41772 24.0431 7.41585 24.0525 7.41211 24.0618ZM9.42985 24.1929C9.42985 24.191 9.42985 24.1891 9.42985 24.1891C9.43172 24.1891 9.43359 24.1891 9.43359 24.1891C9.43359 24.191 9.43172 24.191 9.42985 24.1929ZM11.1799 24.2041L11.1818 24.1985C11.1855 24.2003 11.1874 24.2022 11.1912 24.2041C11.1893 24.2022 11.1837 24.2041 11.1799 24.2041ZM18.5116 5.94791C18.5116 5.94978 18.5116 5.95353 18.5116 5.9554H18.5041C18.5059 5.95353 18.5097 5.95165 18.5116 5.94791Z" fill="#F3B921"/>
<path d="M54.0132 10.0031C53.184 8.56369 52.0179 7.50422 50.4401 6.95764C48.1977 6.17895 45.9329 6.16585 43.6756 6.88651C42.0808 7.39566 40.8511 8.39335 39.9957 9.83281C39.174 11.2161 38.8296 12.7454 38.7473 14.3327C38.7098 15.0628 38.751 15.7965 38.7847 16.5284C38.8315 17.4924 39.0336 18.4283 39.3631 19.3381C40.0949 21.3559 41.4126 22.8197 43.4379 23.5741C45.2609 24.2536 47.142 24.3453 49.0475 23.9765C50.3989 23.7145 51.6305 23.1997 52.6562 22.2488C53.4367 21.5244 54.0319 20.669 54.4175 19.6806C54.9716 18.2636 55.1868 16.7849 55.1999 15.2649C55.1531 14.6472 55.1363 14.0239 55.0558 13.4099C54.8986 12.2175 54.6215 11.0589 54.0132 10.0031ZM51.4452 16.1522C51.3834 17.1873 51.1888 18.1962 50.6403 19.0966C49.9965 20.1561 49.0007 20.6502 47.8028 20.7906C47.5127 20.8243 47.2207 20.8318 46.9305 20.8505C46.253 20.8337 45.5848 20.7682 44.9484 20.5155C43.8309 20.0718 43.1702 19.2201 42.7959 18.1101C42.5581 17.4026 42.4702 16.6726 42.4309 15.9313C42.3785 14.9729 42.4178 14.0201 42.6199 13.0805C42.7846 12.313 43.0691 11.5905 43.5988 10.9915C44.1922 10.3214 44.9484 9.94325 45.8262 9.80098C46.7284 9.65498 47.6324 9.65685 48.5178 9.89645C49.7756 10.2353 50.5954 11.0533 51.0334 12.2718C51.3291 13.0954 51.4564 13.9434 51.4545 14.8138C51.4489 15.2612 51.4714 15.7085 51.4452 16.1522Z" fill="#F3B921"/>
<path d="M35.4639 9.16977C34.7563 8.25444 33.886 7.55811 32.8247 7.10699C31.5968 6.58287 30.3016 6.38446 29.3058 6.3751C28.078 6.37135 27.1964 6.47431 26.3279 6.69144C23.8871 7.30541 22.2269 8.79166 21.3734 11.1558C20.7725 12.8199 20.6396 14.5476 20.7557 16.3034C20.8212 17.2861 20.9934 18.2445 21.306 19.1767C22.0584 21.4229 23.5277 22.9709 25.8 23.6991C27.6063 24.2794 29.4406 24.328 31.2917 23.92C34.0526 23.3116 35.842 21.6438 36.6618 18.9502C37.2701 16.9529 37.33 14.9164 36.9744 12.8686C36.7385 11.532 36.3099 10.2667 35.4639 9.16977ZM33.1579 17.9113C32.9014 18.7686 32.4859 19.5417 31.7335 20.0827C31.2 20.4664 30.6011 20.6798 29.9534 20.7678C29.1243 20.8819 28.2951 20.8801 27.479 20.6817C26.0845 20.341 25.2086 19.4275 24.7968 18.0873C24.6134 17.492 24.5366 16.8612 24.4505 16.2416C24.4056 15.9197 24.443 15.5846 24.443 15.257C24.4299 14.1545 24.4992 13.0595 24.9559 12.03C25.523 10.7534 26.4945 10.0102 27.8758 9.79497C28.7349 9.66207 29.5922 9.66394 30.4345 9.87546C31.7222 10.1993 32.5589 11.0248 33.0306 12.2583C33.3039 12.9734 33.4106 13.7146 33.4555 14.4671C33.5247 15.6295 33.4929 16.7882 33.1579 17.9113Z" fill="#F3B921"/>
<path d="M97.8474 7.61826C97.3215 6.43899 95.6182 6.20314 94.7946 7.19709C94.6093 7.42172 94.4764 7.69875 94.3585 7.9683C93.7689 9.31603 93.1924 10.6694 92.6122 12.0227C91.8578 13.7804 91.1073 15.5381 90.353 17.2939C90.2538 17.5241 90.1527 17.7506 90.0254 18.0407C89.9636 17.9116 89.9337 17.8517 89.9094 17.7918C89.4414 16.708 88.9735 15.626 88.5074 14.5422C87.5416 12.2904 86.5758 10.0404 85.6175 7.78673C85.2562 6.93878 84.661 6.54569 83.7476 6.58313C82.9914 6.61495 82.2783 7.18773 82.1004 7.91027C81.9713 8.43813 82.1154 8.89861 82.3194 9.35908C83.0625 11.04 83.815 12.7172 84.5562 14.3981C85.1476 15.7384 85.7241 17.0823 86.3137 18.4226C86.8191 19.5719 87.3133 20.725 87.8523 21.8574C88.0489 22.2711 88.062 22.6099 87.8598 23.0255C87.3451 24.0831 86.9408 25.1968 86.1584 26.114C85.6736 26.6812 85.0821 27.035 84.3615 27.1641C83.9815 27.2315 83.5866 27.2109 83.2029 27.2652C82.9259 27.3027 82.6376 27.3551 82.3906 27.4749C81.9395 27.6939 81.6756 28.0701 81.5464 28.5699C81.3461 29.3392 81.829 30.2695 82.5815 30.526C83.1617 30.7244 83.742 30.6645 84.3297 30.6027C85.3198 30.4998 86.2688 30.2564 87.1392 29.7585C88.1743 29.1651 88.9585 28.3153 89.6136 27.3307C90.2163 26.4229 90.6431 25.4252 91.0829 24.4368C91.8429 22.7316 92.5972 21.0226 93.3496 19.3136C94.2219 17.3313 95.0904 15.3471 95.9607 13.363C96.5765 11.961 97.1961 10.5627 97.8119 9.16067C98.0365 8.65339 98.0739 8.1274 97.8474 7.61826Z" fill="#F3B921"/>
<path d="M68.7177 15.3995C67.7763 14.6639 66.6813 14.2446 65.5807 13.8384C64.6654 13.4996 63.7277 13.2169 62.8124 12.88C62.2584 12.676 61.723 12.4233 61.3112 11.9722C60.95 11.5753 60.9051 10.9614 61.227 10.529C61.4479 10.2332 61.7736 10.0928 62.1124 9.99174C62.7169 9.81017 63.3402 9.83825 63.9598 9.84574C65.0491 9.85884 66.0075 10.2201 66.8292 10.937C67.1473 11.2141 67.4712 11.463 67.9054 11.5473C68.5362 11.6689 69.2568 11.3825 69.6499 10.821C70.0092 10.3062 70.028 9.5556 69.6611 9.02212C69.0771 8.17417 68.2854 7.56957 67.357 7.1484C66.1535 6.60182 64.8732 6.39966 63.606 6.38281C62.3519 6.39404 61.1709 6.56438 60.0609 7.06042C58.8836 7.58828 58.0282 8.44185 57.5977 9.67727C57.4049 10.2313 57.3581 10.8097 57.3731 11.3975C57.3937 12.1818 57.5827 12.91 57.9908 13.5876C58.5617 14.5329 59.4096 15.1562 60.3698 15.6391C61.446 16.182 62.5953 16.5432 63.7408 16.9064C64.5587 17.1665 65.3711 17.4398 66.1141 17.8891C67.1979 18.5424 66.9564 19.8096 66.0149 20.2794C65.7754 20.3992 65.5227 20.5003 65.2644 20.5658C64.5325 20.7511 63.7838 20.7568 63.0333 20.71C61.8166 20.637 60.7254 20.2345 59.7989 19.4334C59.4395 19.1226 59.0914 18.8194 58.5972 18.7352C58.075 18.6453 57.2552 18.8718 56.8696 19.4951C56.5346 20.0361 56.5065 20.7455 56.8902 21.2696C57.1129 21.5748 57.3731 21.8649 57.6632 22.1082C59.2654 23.4578 61.169 24.0325 63.2204 24.1673C64.2555 24.2347 65.2793 24.1111 66.2901 23.8659C67.3046 23.6207 68.233 23.1995 69.006 22.5013C69.7865 21.7975 70.2357 20.8822 70.4042 19.8527C70.5127 19.1919 70.5071 18.5236 70.3349 17.8554C70.0766 16.8465 69.5357 16.0397 68.7177 15.3995Z" fill="#F3B921"/>
<path d="M78.9937 10.2472C79.3793 10.2322 79.778 10.2509 80.1467 10.1573C80.9534 9.95141 81.4157 9.22888 81.3727 8.46703C81.3128 7.4188 80.5005 6.8666 79.6638 6.86099C79.1921 6.85724 78.7204 6.85163 78.2487 6.86473C78.0316 6.87035 77.9493 6.81606 77.9549 6.57834C77.9699 5.72477 77.9549 4.87121 77.9624 4.01764C77.9755 2.6437 76.6241 1.89871 75.6189 2.23751C74.8665 2.49209 74.3181 3.16408 74.3181 3.95774C74.3181 4.84875 74.3125 5.73975 74.3218 6.63075C74.3237 6.81232 74.2601 6.86847 74.0897 6.86099C73.8726 6.85163 73.6555 6.8535 73.4384 6.86099C72.4089 6.89655 71.634 7.91297 71.8754 8.90879C72.072 9.72305 72.7421 10.2472 73.5844 10.249C73.8221 10.249 74.0579 10.249 74.3181 10.249C74.3181 10.3763 74.3181 10.4718 74.3181 10.5673C74.3181 13.3975 74.3162 16.2277 74.3218 19.058C74.3218 19.3855 74.3536 19.715 74.406 20.0369C74.7448 22.0997 75.997 23.4362 78.0241 23.8855C78.6755 24.0296 79.3306 24.1344 79.9951 23.921C81.0844 23.5729 81.5112 22.2701 80.8317 21.3547C80.4462 20.8344 79.9052 20.6416 79.2894 20.6228C78.6493 20.6022 78.1926 20.2803 78.0354 19.6738C77.9773 19.4529 77.9642 19.2152 77.9642 18.985C77.9605 16.1622 77.9605 13.3395 77.9605 10.5167C77.9605 10.4418 77.9605 10.367 77.9605 10.249C78.3236 10.2509 78.6587 10.2603 78.9937 10.2472Z" fill="#F3B921"/>
</svg>
