<svg width="28" height="28" viewBox="0 0 28 28" fill="none" xmlns="http://www.w3.org/2000/svg">
<path fill-rule="evenodd" clip-rule="evenodd" d="M0 1.4C0 0.626801 0.626793 0 1.39998 0H5.59993C6.29092 0 6.87856 0.504156 6.98363 1.18712L8.73944 12.6H22.7437L25.2535 3.81539C25.466 3.07194 26.2408 2.64145 26.9843 2.85387C27.7277 3.06628 28.1582 3.84116 27.9458 4.58461L25.1458 14.3846C24.9741 14.9856 24.4248 15.4 23.7997 15.4H9.1702L9.60096 18.2H25.1997C25.9729 18.2 26.5997 18.8268 26.5997 19.6C26.5997 20.3732 25.9729 21 25.1997 21H8.39989C7.7089 21 7.12126 20.4958 7.01619 19.8129L6.1814 14.3867C6.14956 14.2757 6.13109 14.159 6.12783 14.0385L4.39886 2.8H1.39998C0.626793 2.8 0 2.1732 0 1.4ZM5.59993 25.2C5.59993 23.6536 6.85354 22.4 8.39989 22.4C9.94624 22.4 11.1999 23.6536 11.1999 25.2C11.1999 26.7464 9.94625 28 8.39989 28C6.85354 28 5.59993 26.7464 5.59993 25.2ZM20.9997 25.2C20.9997 23.6536 22.2533 22.4 23.7997 22.4C25.3461 22.4 26.5997 23.6536 26.5997 25.2C26.5997 26.7464 25.3461 28 23.7997 28C22.2533 28 20.9997 26.7464 20.9997 25.2Z" fill="#202D2D"/>
</svg>
