<svg width="309" height="78" viewBox="0 0 309 78" fill="none" xmlns="http://www.w3.org/2000/svg">
<mask id="path-1-inside-1_5252_7104" fill="white">
<path fill-rule="evenodd" clip-rule="evenodd" d="M29 0C20.1634 0 13 7.16344 13 16V23.8757L1.17548 35.6676C-0.391828 37.2306 -0.391827 39.7693 1.17548 41.3323L13 53.1242V62C13 70.8366 20.1635 78 29 78H293C301.837 78 309 70.8366 309 62V16C309 7.16344 301.837 0 293 0H29Z"/>
</mask>
<path fill-rule="evenodd" clip-rule="evenodd" d="M29 0C20.1634 0 13 7.16344 13 16V23.8757L1.17548 35.6676C-0.391828 37.2306 -0.391827 39.7693 1.17548 41.3323L13 53.1242V62C13 70.8366 20.1635 78 29 78H293C301.837 78 309 70.8366 309 62V16C309 7.16344 301.837 0 293 0H29Z" fill="#FCF8EF"/>
<path d="M13 23.8757L13.7061 24.5838L14 24.2908V23.8757H13ZM1.17548 35.6676L1.88161 36.3757H1.88161L1.17548 35.6676ZM1.17548 41.3323L1.88161 40.6242H1.88161L1.17548 41.3323ZM13 53.1242H14V52.7092L13.7061 52.4161L13 53.1242ZM14 16C14 7.71573 20.7157 1 29 1V-1C19.6112 -1 12 6.61116 12 16H14ZM14 23.8757V16H12V23.8757H14ZM1.88161 36.3757L13.7061 24.5838L12.2939 23.1676L0.469352 34.9595L1.88161 36.3757ZM1.88161 40.6242C0.70613 39.452 0.706129 37.548 1.88161 36.3757L0.469352 34.9595C-1.48979 36.9133 -1.48978 40.0866 0.469354 42.0404L1.88161 40.6242ZM13.7061 52.4161L1.88161 40.6242L0.469354 42.0404L12.2939 53.8323L13.7061 52.4161ZM14 62V53.1242H12V62H14ZM29 77C20.7157 77 14 70.2843 14 62H12C12 71.3888 19.6112 79 29 79V77ZM293 77H29V79H293V77ZM308 62C308 70.2843 301.284 77 293 77V79C302.389 79 310 71.3888 310 62H308ZM308 16V62H310V16H308ZM293 1C301.284 1 308 7.71573 308 16H310C310 6.61116 302.389 -1 293 -1V1ZM29 1H293V-1H29V1Z" fill="#F3B921" mask="url(#path-1-inside-1_5252_7104)"/>
</svg>
