<svg width="49" height="31" viewBox="0 0 49 31" fill="none" xmlns="http://www.w3.org/2000/svg">
<path d="M28.1029 4.07398C26.064 3.10707 23.8001 2.71418 21.5546 2.93753C19.3293 3.1397 17.2069 3.96856 15.4335 5.32799C13.2019 7.09555 11.7062 9.62888 11.2365 12.4367L11.0484 13.4203L10.0687 13.5927C9.19098 13.7386 8.32988 13.9709 7.49793 14.2863C6.80251 14.5477 6.14389 14.8981 5.53854 15.3287C5.1025 15.6441 4.70756 16.0127 4.3629 16.426C3.36694 17.6523 2.83916 19.1926 2.87376 20.7719C2.89066 22.3953 3.40946 23.9736 4.35898 25.2903C4.71526 25.7838 5.1312 26.2313 5.59732 26.6227C6.08417 27.0272 6.62995 27.3549 7.21578 27.5946C7.8558 27.8532 8.52604 28.0297 9.21045 28.1197H37.6413C38.9123 27.8325 40.1384 27.3737 41.2858 26.7559C42.2607 26.2338 43.1141 25.5113 43.7899 24.6359C44.7696 23.3309 45.2516 21.5008 45.2712 19.5924C45.3312 17.6846 44.843 15.7997 43.8643 14.1609C43.6044 13.7582 43.3093 13.3792 42.9826 13.0284C42.3361 12.3237 41.5482 11.7633 40.6703 11.3838C39.7925 11.0043 38.8445 10.8142 37.8882 10.8261C36.8802 10.8265 35.8787 10.9879 34.9216 11.3041C32.9191 8.47478 31.4378 5.67676 28.1029 4.07398ZM16.2016 17.3273C15.9085 17.3185 15.6181 17.3861 15.3591 17.5235C15.1 17.6609 14.8812 17.8634 14.7242 18.1111C14.3345 18.7541 14.1487 19.5001 14.1912 20.2508C14.1912 22.1396 14.911 23.084 16.3505 23.084C16.7776 23.0857 17.2027 23.025 17.6123 22.9038C18.0042 22.7823 18.4314 22.6373 18.8428 22.4688V24.6907C17.9676 25.0703 17.0223 25.2613 16.0683 25.2511C14.587 25.2511 13.4506 24.8214 12.659 23.9618C11.8674 23.1023 11.4755 21.8588 11.4833 20.2312C11.4627 19.3053 11.6586 18.3874 12.0555 17.5507C12.416 16.8063 12.9922 16.1878 13.7092 15.7755C14.4838 15.3457 15.3591 15.1306 16.2447 15.1524C17.2972 15.1512 18.3366 15.387 19.2857 15.8421L18.4588 17.9308C18.1057 17.7642 17.7417 17.6214 17.3694 17.5037C16.9893 17.3829 16.5925 17.3234 16.1937 17.3273H16.2016ZM29.4118 20.192C29.4118 21.8457 29.0069 23.1023 28.197 23.9618C27.3871 24.8214 26.1997 25.2511 24.6348 25.2511C23.096 25.2511 21.9204 24.8188 21.1079 23.954C20.2954 23.0893 19.8852 21.8313 19.8774 20.1802C19.8774 18.5448 20.2863 17.296 21.104 16.4338C21.9217 15.5717 23.1104 15.1406 24.6701 15.1406C26.2376 15.1406 27.4224 15.5691 28.2244 16.426C29.0265 17.2829 29.4288 18.5382 29.4314 20.192H29.4118ZM22.6558 20.192C22.6558 22.0913 23.309 23.0409 24.6152 23.0409C24.907 23.064 25.1997 23.0116 25.4653 22.8888C25.731 22.7659 25.9605 22.5767 26.1318 22.3395C26.4584 21.8823 26.6203 21.1638 26.6177 20.1841C26.6151 19.2044 26.4505 18.486 26.124 18.0288C25.9581 17.7964 25.7358 17.61 25.478 17.4873C25.2202 17.3646 24.9354 17.3095 24.6505 17.3273C23.3181 17.3273 22.6532 18.2848 22.6558 20.1998V20.192ZM37.124 25.114H29.9957V23.3701L32.394 20.9444C33.0811 20.2285 33.5292 19.7387 33.7382 19.4748C33.9127 19.2741 34.0602 19.0515 34.1771 18.8126C34.2593 18.6261 34.302 18.4246 34.3025 18.2208C34.307 18.1084 34.2874 17.9963 34.2448 17.8922C34.2022 17.788 34.1376 17.6943 34.0556 17.6173C33.8578 17.458 33.6076 17.3784 33.3541 17.394C33.0242 17.4007 32.7016 17.4924 32.4175 17.6604C32.0388 17.8793 31.6819 18.1339 31.3516 18.4207L29.8938 16.716C30.2842 16.3491 30.7125 16.0246 31.1714 15.7481C31.5227 15.5485 31.8998 15.3982 32.2921 15.3013C32.7408 15.1912 33.2017 15.1385 33.6637 15.1446C34.2481 15.135 34.8279 15.2498 35.3645 15.4816C35.8411 15.679 36.2497 16.0114 36.5401 16.4378C36.817 16.8498 36.9619 17.3364 36.9555 17.8329C36.9576 18.1932 36.9088 18.5521 36.8105 18.8988C36.7064 19.2403 36.5561 19.5659 36.3638 19.8667C36.1347 20.2226 35.8723 20.5559 35.58 20.8621C35.2482 21.2148 34.5376 21.8784 33.4482 22.8528V22.9194H37.1632V25.1061L37.124 25.114ZM36.0542 8.09466C36.6748 7.99526 37.3027 7.94807 37.9313 7.95358C39.2796 7.94443 40.6147 8.21879 41.8502 8.75887C43.0856 9.29896 44.1937 10.0927 45.1027 11.0886C45.5369 11.5641 45.9301 12.0753 46.2783 12.6169C47.5598 14.731 48.2085 17.168 48.1476 19.6394C48.1201 22.1122 47.4539 24.5732 46.0902 26.3837C45.1787 27.5706 44.0295 28.5543 42.7161 29.2718C41.2723 30.0482 39.7261 30.6168 38.1233 30.9608L37.802 31H9.16342H8.98316C8.00235 30.8826 7.04161 30.6348 6.12636 30.2633C5.26808 29.9129 4.46852 29.4332 3.75549 28.8407C3.10565 28.2987 2.52637 27.6773 2.03122 26.9911C0.725091 25.1792 0.0156026 23.0055 0.00128393 20.7719C-0.035786 18.5143 0.730917 16.317 2.16446 14.5724C2.66361 13.9809 3.23499 13.4542 3.86521 13.0049C4.66904 12.4311 5.54364 11.9635 6.46729 11.6137C7.16867 11.3377 7.88897 11.1125 8.62263 10.9397C9.36576 7.81054 11.1513 5.02726 13.6857 3.04725C15.8907 1.35707 18.5293 0.325833 21.296 0.0728904C24.0587 -0.1981 26.843 0.289663 29.3491 1.48366C32.2591 2.87754 34.6193 5.20464 36.0542 8.09466Z" fill="#B78A16"/>
</svg>
