<svg width="35" height="37" viewBox="0 0 35 37" fill="none" xmlns="http://www.w3.org/2000/svg">
<path d="M24.2952 6.22486L24.2952 6.22483C24.0666 4.80241 24.279 3.42769 24.992 2.30423L24.9923 2.30376C25.2746 1.86427 25.6337 1.45857 26.0694 1.11131L26.0694 1.11129C27.068 0.316087 28.2112 -0.109094 29.3585 -0.0998525L29.3585 -0.0998523C30.4603 -0.0906052 31.5481 0.319735 32.4855 1.17573L24.2952 6.22486ZM24.2952 6.22486C24.5207 7.6259 25.1782 9.07784 26.2188 10.3844C26.9714 11.3356 27.9326 12.21 29.0718 12.9353C29.212 13.0272 29.3845 13.016 29.5095 12.9255C30.2833 12.454 30.9719 11.8734 31.5632 11.2234C32.7716 9.89772 33.5858 8.27669 33.9142 6.67787C34.2486 5.06121 34.0865 3.45915 33.3216 2.19464L33.3216 2.1946M24.2952 6.22486L33.3216 2.1946M33.3216 2.1946C33.0944 1.81946 32.8178 1.47772 32.4857 1.17589L33.3216 2.1946ZM6.04911 16.467H6.04914C7.15103 16.4763 8.23882 16.8867 9.17635 17.7428C9.50844 18.0446 9.78503 18.3864 10.0122 18.7615L10.0122 18.7615C10.7772 20.026 10.9393 21.6281 10.6049 23.2448C10.2764 24.8406 9.46217 26.4617 8.25382 27.7874C7.66247 28.4373 6.97395 29.0179 6.20017 29.4894C6.07516 29.5799 5.9026 29.5911 5.76238 29.4992C4.62336 28.7709 3.66213 27.8996 2.90945 26.9482C1.87184 25.6447 1.21438 24.1928 0.988852 22.7887M6.04911 16.467L0.988851 22.7887C0.988851 22.7887 0.988852 22.7887 0.988852 22.7887M6.04911 16.467C4.90486 16.4578 3.76171 16.883 2.76316 17.6781C2.32458 18.0252 1.96525 18.428 1.6856 18.8712M6.04911 16.467L1.6856 18.8712M0.988852 22.7887C0.760285 21.3664 0.972575 19.9917 1.6856 18.8712M0.988852 22.7887L1.6856 18.8712M9.06877 33.0761C8.6732 31.8311 7.50783 30.9262 6.13249 30.9262C4.42955 30.9262 3.05004 32.308 3.05004 34.0132C3.05004 35.7183 4.42955 37.1001 6.13249 37.1001C7.42265 37.1001 8.52696 36.3086 8.98747 35.1821H27.0276C28.4714 35.1821 29.7834 34.5925 30.7333 33.6412C31.6832 32.6899 32.2718 31.376 32.2718 29.9302C32.2718 28.4843 31.6832 27.1705 30.7333 26.2191C29.7834 25.2678 28.4714 24.6782 27.0276 24.6782L20.6966 24.6782C20.6965 24.6782 20.6965 24.6782 20.6964 24.6782C19.8401 24.6723 19.0623 24.3194 18.4968 23.7531C17.9254 23.1808 17.573 22.3928 17.573 21.5293C17.573 20.6628 17.9253 19.8778 18.4968 19.3055C19.0682 18.7332 19.8549 18.3803 20.717 18.3803H26.3619C26.797 19.5554 27.9257 20.3947 29.2524 20.3947C30.9554 20.3947 32.3349 19.0129 32.3349 17.3078C32.3349 15.6026 30.9554 14.2208 29.2524 14.2208C27.9136 14.2208 26.7727 15.078 26.3488 16.2743H20.717C19.2732 16.2743 17.9613 16.8639 17.0114 17.8152C16.0615 18.7666 15.4729 20.0804 15.4729 21.5263C15.4729 22.9721 16.0615 24.286 17.0114 25.2373C17.9613 26.1887 19.2732 26.7782 20.717 26.7782H27.0246C27.8897 26.7782 28.6734 27.131 29.2448 27.7034C29.8162 28.2757 30.1686 29.0636 30.1686 29.9271C30.1686 30.7937 29.8163 31.5786 29.2448 32.1509C28.6734 32.7232 27.8867 33.0761 27.0246 33.0761H9.06877ZM5.83484 19.1602C7.10834 19.1602 8.14004 20.1933 8.14004 21.4691C8.14004 22.7449 7.10834 23.7779 5.83484 23.7779C4.56134 23.7779 3.52965 22.7449 3.52965 21.4691C3.52965 20.1933 4.56134 19.1602 5.83484 19.1602ZM29.1442 2.59331C30.4177 2.59331 31.4494 3.62636 31.4494 4.90216C31.4494 6.17797 30.4177 7.21102 29.1442 7.21102C27.8707 7.21102 26.839 6.17797 26.839 4.90216C26.839 3.62636 27.8707 2.59331 29.1442 2.59331Z" fill="#B78A16" stroke="#B78A16" stroke-width="0.2"/>
</svg>
