<svg width="74" height="73" viewBox="0 0 74 73" fill="none" xmlns="http://www.w3.org/2000/svg">
<path d="M8.125 5.77539H10.6738C11.7793 5.77539 12.6133 5.93555 13.1758 6.25586C13.7383 6.57617 14.0195 7.12891 14.0195 7.91406C14.0195 8.24219 13.9609 8.53906 13.8438 8.80469C13.7305 9.06641 13.5645 9.2832 13.3457 9.45508C13.127 9.62305 12.8574 9.73633 12.5371 9.79492V9.85352C12.8691 9.91211 13.1641 10.0156 13.4219 10.1641C13.6836 10.3125 13.8887 10.5254 14.0371 10.8027C14.1895 11.0801 14.2656 11.4395 14.2656 11.8809C14.2656 12.4043 14.1406 12.8496 13.8906 13.2168C13.6445 13.584 13.291 13.8633 12.8301 14.0547C12.373 14.2461 11.8301 14.3418 11.2012 14.3418H8.125V5.77539ZM9.53125 9.30859H10.8789C11.5156 9.30859 11.957 9.20508 12.2031 8.99805C12.4492 8.79102 12.5723 8.48828 12.5723 8.08984C12.5723 7.68359 12.4258 7.39062 12.1328 7.21094C11.8438 7.03125 11.3828 6.94141 10.75 6.94141H9.53125V9.30859ZM9.53125 10.4453V13.1641H11.0137C11.6699 13.1641 12.1309 13.0371 12.3965 12.7832C12.6621 12.5293 12.7949 12.1855 12.7949 11.752C12.7949 11.4863 12.7344 11.2559 12.6133 11.0605C12.4961 10.8652 12.3027 10.7148 12.0332 10.6094C11.7637 10.5 11.4004 10.4453 10.9434 10.4453H9.53125ZM18.4375 7.73242C19.2578 7.73242 19.877 7.91406 20.2949 8.27734C20.7168 8.64062 20.9277 9.20703 20.9277 9.97656V14.3418H19.9492L19.6855 13.4219H19.6387C19.4551 13.6562 19.2656 13.8496 19.0703 14.002C18.875 14.1543 18.6484 14.2676 18.3906 14.3418C18.1367 14.4199 17.8262 14.459 17.459 14.459C17.0723 14.459 16.7266 14.3887 16.4219 14.248C16.1172 14.1035 15.877 13.8848 15.7012 13.5918C15.5254 13.2988 15.4375 12.9277 15.4375 12.4785C15.4375 11.8105 15.6855 11.3086 16.1816 10.9727C16.6816 10.6367 17.4355 10.4512 18.4434 10.416L19.5684 10.375V10.0352C19.5684 9.58594 19.4629 9.26562 19.252 9.07422C19.0449 8.88281 18.752 8.78711 18.373 8.78711C18.0488 8.78711 17.7344 8.83398 17.4297 8.92773C17.125 9.02148 16.8281 9.13672 16.5391 9.27344L16.0938 8.30078C16.4102 8.13281 16.7695 7.99609 17.1719 7.89062C17.5781 7.78516 18 7.73242 18.4375 7.73242ZM19.5625 11.2422L18.7246 11.2715C18.0371 11.2949 17.5547 11.4121 17.2773 11.623C17 11.834 16.8613 12.123 16.8613 12.4902C16.8613 12.8105 16.957 13.0449 17.1484 13.1934C17.3398 13.3379 17.5918 13.4102 17.9043 13.4102C18.3809 13.4102 18.7754 13.2754 19.0879 13.0059C19.4043 12.7324 19.5625 12.332 19.5625 11.8047V11.2422ZM25.4688 14.459C24.8555 14.459 24.3242 14.3398 23.875 14.1016C23.4258 13.8633 23.0801 13.498 22.8379 13.0059C22.5957 12.5137 22.4746 11.8887 22.4746 11.1309C22.4746 10.3418 22.6074 9.69727 22.873 9.19727C23.1387 8.69727 23.5059 8.32812 23.9746 8.08984C24.4473 7.85156 24.9883 7.73242 25.5977 7.73242C25.9844 7.73242 26.334 7.77148 26.6465 7.84961C26.9629 7.92383 27.2305 8.01562 27.4492 8.125L27.0391 9.22656C26.8008 9.12891 26.5566 9.04688 26.3066 8.98047C26.0566 8.91406 25.8164 8.88086 25.5859 8.88086C25.207 8.88086 24.8906 8.96484 24.6367 9.13281C24.3867 9.30078 24.1992 9.55078 24.0742 9.88281C23.9531 10.2148 23.8926 10.627 23.8926 11.1191C23.8926 11.5957 23.9551 11.998 24.0801 12.3262C24.2051 12.6504 24.3906 12.8965 24.6367 13.0645C24.8828 13.2285 25.1855 13.3105 25.5449 13.3105C25.9004 13.3105 26.2188 13.2676 26.5 13.1816C26.7812 13.0957 27.0469 12.9844 27.2969 12.8477V14.043C27.0508 14.1836 26.7871 14.2871 26.5059 14.3535C26.2246 14.4238 25.8789 14.459 25.4688 14.459ZM30.1973 5.22461V9.63086C30.1973 9.83008 30.1895 10.0488 30.1738 10.2871C30.1582 10.5215 30.1426 10.7422 30.127 10.9492H30.1562C30.2578 10.8125 30.3789 10.6523 30.5195 10.4688C30.6641 10.2852 30.8008 10.125 30.9297 9.98828L32.9102 7.85547H34.4922L31.8965 10.6445L34.6621 14.3418H33.0449L30.9707 11.4941L30.1973 12.1562V14.3418H28.8203V5.22461H30.1973ZM38.2832 7.73242C38.8613 7.73242 39.3574 7.85156 39.7715 8.08984C40.1855 8.32812 40.5039 8.66602 40.7266 9.10352C40.9492 9.54102 41.0605 10.0645 41.0605 10.6738V11.4121H36.7305C36.7461 12.041 36.9141 12.5254 37.2344 12.8652C37.5586 13.2051 38.0117 13.375 38.5938 13.375C39.0078 13.375 39.3789 13.3359 39.707 13.2578C40.0391 13.1758 40.3809 13.0566 40.7324 12.9004V14.0195C40.4082 14.1719 40.0781 14.2832 39.7422 14.3535C39.4062 14.4238 39.0039 14.459 38.5352 14.459C37.8984 14.459 37.3379 14.3359 36.8535 14.0898C36.373 13.8398 35.9961 13.4688 35.7227 12.9766C35.4531 12.4844 35.3184 11.873 35.3184 11.1426C35.3184 10.416 35.4414 9.79883 35.6875 9.29102C35.9336 8.7832 36.2793 8.39648 36.7246 8.13086C37.1699 7.86523 37.6895 7.73242 38.2832 7.73242ZM38.2832 8.76953C37.8496 8.76953 37.498 8.91016 37.2285 9.19141C36.9629 9.47266 36.8066 9.88477 36.7598 10.4277H39.7129C39.709 10.1035 39.6543 9.81641 39.5488 9.56641C39.4473 9.31641 39.291 9.12109 39.0801 8.98047C38.873 8.83984 38.6074 8.76953 38.2832 8.76953ZM44.793 14.459C44.0195 14.459 43.3984 14.1777 42.9297 13.6152C42.4648 13.0488 42.2324 12.2148 42.2324 11.1133C42.2324 10 42.4688 9.1582 42.9414 8.58789C43.418 8.01758 44.0449 7.73242 44.8223 7.73242C45.1504 7.73242 45.4375 7.77734 45.6836 7.86719C45.9297 7.95312 46.1406 8.07031 46.3164 8.21875C46.4961 8.36719 46.6484 8.5332 46.7734 8.7168H46.8379C46.8184 8.5957 46.7949 8.42188 46.7676 8.19531C46.7441 7.96484 46.7324 7.75195 46.7324 7.55664V5.22461H48.1152V14.3418H47.0371L46.791 13.457H46.7324C46.6152 13.6445 46.4668 13.8145 46.2871 13.9668C46.1113 14.1152 45.9004 14.2344 45.6543 14.3242C45.4121 14.4141 45.125 14.459 44.793 14.459ZM45.1797 13.3398C45.7695 13.3398 46.1855 13.1699 46.4277 12.8301C46.6699 12.4902 46.7949 11.9805 46.8027 11.3008V11.1191C46.8027 10.3926 46.6855 9.83594 46.4512 9.44922C46.2168 9.05859 45.7891 8.86328 45.168 8.86328C44.6719 8.86328 44.293 9.06445 44.0312 9.4668C43.7734 9.86523 43.6445 10.4219 43.6445 11.1367C43.6445 11.8516 43.7734 12.3984 44.0312 12.7773C44.293 13.1523 44.6758 13.3398 45.1797 13.3398ZM54.584 5.22461V7.42188C54.584 7.67578 54.5762 7.92578 54.5605 8.17188C54.5488 8.41406 54.5371 8.60352 54.5254 8.74023H54.584C54.7598 8.45898 55.0039 8.22266 55.3164 8.03125C55.6328 7.83594 56.0371 7.73828 56.5293 7.73828C57.2988 7.73828 57.918 8.02148 58.3867 8.58789C58.8555 9.15039 59.0898 9.98438 59.0898 11.0898C59.0898 11.8242 58.9824 12.4414 58.7676 12.9414C58.5527 13.4414 58.25 13.8203 57.8594 14.0781C57.4727 14.332 57.0176 14.459 56.4941 14.459C56.002 14.459 55.6035 14.3691 55.2988 14.1895C54.998 14.0059 54.7617 13.793 54.5898 13.5508H54.4902L54.2383 14.3418H53.207V5.22461H54.584ZM56.166 8.85742C55.7754 8.85742 55.4648 8.93555 55.2344 9.0918C55.0078 9.24805 54.8438 9.48242 54.7422 9.79492C54.6406 10.1035 54.5879 10.4961 54.584 10.9727V11.0957C54.584 11.8184 54.6973 12.3711 54.9238 12.7539C55.1543 13.1367 55.5723 13.3281 56.1777 13.3281C56.6582 13.3281 57.0273 13.1348 57.2852 12.748C57.543 12.3574 57.6719 11.7988 57.6719 11.0723C57.6719 10.3379 57.543 9.78516 57.2852 9.41406C57.0312 9.04297 56.6582 8.85742 56.166 8.85742ZM59.7051 7.85547H61.2051L62.5352 11.5586C62.5938 11.7266 62.6465 11.8926 62.6934 12.0566C62.7441 12.2168 62.7871 12.375 62.8223 12.5312C62.8613 12.6875 62.8926 12.8438 62.916 13H62.9512C62.9902 12.7969 63.0449 12.5703 63.1152 12.3203C63.1895 12.0664 63.2715 11.8125 63.3613 11.5586L64.6387 7.85547H66.1211L63.3379 15.2324C63.1777 15.6543 62.9805 16.0137 62.7461 16.3105C62.5156 16.6113 62.2422 16.8379 61.9258 16.9902C61.6094 17.1465 61.248 17.2246 60.8418 17.2246C60.6465 17.2246 60.4766 17.2129 60.332 17.1895C60.1875 17.1699 60.0645 17.1484 59.9629 17.125V16.0234C60.0449 16.043 60.1484 16.0605 60.2734 16.0762C60.3984 16.0918 60.5273 16.0996 60.6602 16.0996C60.9062 16.0996 61.1191 16.0508 61.2988 15.9531C61.4785 15.8555 61.6309 15.7168 61.7559 15.5371C61.8809 15.3613 61.9844 15.1602 62.0664 14.9336L62.2949 14.3242L59.7051 7.85547Z" fill="#F3B921"/>
<path d="M34.866 25.399L34.8569 25.5451L34.6305 25.6638C34.3705 25.7977 33.875 26.2634 33.7006 26.5343C33.6425 26.6256 33.5385 26.7535 33.4712 26.8174C33.3366 26.9483 33.2907 27.0396 33.1776 27.42C33.1347 27.5631 33.0644 27.7275 33.0246 27.7853C32.8227 28.0623 32.7769 28.1658 32.679 28.601C32.5994 28.945 32.5413 29.1154 32.422 29.3528C32.2477 29.7059 32.2018 29.9037 32.1529 30.5825C32.1345 30.826 32.107 31.106 32.0886 31.2065C32.0489 31.4378 32.0519 31.9004 32.0886 32.0587C32.1039 32.1257 32.1376 32.3935 32.162 32.6553C32.2232 33.3006 32.2752 33.4862 32.4434 33.6902C32.5169 33.7815 32.5994 33.9215 32.627 34.0067C32.7218 34.2928 32.8441 34.5242 32.9879 34.6916C33.0674 34.7829 33.1837 34.9533 33.2418 35.0659C33.303 35.1816 33.4039 35.3155 33.4681 35.3673C33.5293 35.416 33.6394 35.5408 33.7098 35.6473C33.7863 35.7599 33.9056 35.8817 34.0065 35.9517C34.1013 36.0186 34.2114 36.1313 34.2604 36.2104C34.3093 36.2895 34.4378 36.4295 34.5449 36.5239L34.7406 36.6974L34.8385 37.0718C34.8936 37.2788 34.9976 37.577 35.071 37.7353C35.2484 38.1249 35.2637 38.1949 35.3157 38.7398C35.3677 39.2694 35.3707 40.0151 35.3279 40.429C35.3126 40.5782 35.2881 41.1413 35.2729 41.677C35.2484 42.5992 35.2423 42.6662 35.1658 42.9188L35.0863 43.1836V46.0904C35.0863 48.9211 35.0832 49.0033 35.0251 49.2194C34.9914 49.3381 34.9486 49.609 34.9333 49.819C34.8966 50.3273 34.8385 50.5404 34.7131 50.6469C34.658 50.6956 34.5999 50.7321 34.5816 50.7321C34.5112 50.7321 34.4164 50.5891 34.2757 50.2756C34.1961 50.099 34.0921 49.9073 34.0463 49.8495C33.9147 49.6821 33.8444 49.5207 33.771 49.2103C33.6976 48.8907 33.6211 48.6989 33.514 48.5589C33.3917 48.3945 33.3183 48.2241 33.2357 47.8984C33.1867 47.7006 33.095 47.4571 32.991 47.247C32.838 46.9366 32.7799 46.7783 32.6117 46.2122C32.575 46.0935 32.5138 45.9443 32.471 45.8774C32.3241 45.643 32.2446 45.4482 32.1498 45.1012C32.0978 44.9094 32.0152 44.6842 31.9663 44.599C31.7521 44.2276 31.7154 44.1394 31.6145 43.7285C31.5411 43.4241 31.4799 43.2506 31.4187 43.1532C31.1863 42.8032 31.1649 42.7514 31.0456 42.2675C30.9783 41.9935 30.8957 41.7105 30.8651 41.6374C30.7764 41.4396 30.7825 41.0987 30.8773 40.8247C30.9171 40.706 31.0058 40.4321 31.0761 40.216C31.1526 39.9664 31.2505 39.7351 31.3361 39.592C31.5656 39.2085 31.6298 38.7671 31.6298 37.5283C31.6298 36.4174 31.5441 35.8543 31.327 35.5438C31.2627 35.4525 31.174 35.276 31.1281 35.1542C31.018 34.8438 30.9813 34.7829 30.7703 34.5485C30.6693 34.4359 30.5409 34.2807 30.4919 34.2046C30.4399 34.1285 30.2992 33.9702 30.1799 33.8515C30.0606 33.7328 29.8985 33.5684 29.819 33.4862C29.7394 33.4041 29.5529 33.2245 29.406 33.0875C29.2592 32.9505 29.0206 32.7283 28.8769 32.5975C28.6077 32.3448 28.4303 32.2261 28.1427 32.1074C28.051 32.0709 27.8827 31.9857 27.7726 31.9187C27.482 31.7452 27.1058 31.6691 26.6439 31.6874C26.1973 31.7056 26.0046 31.7483 25.8241 31.8791C25.7446 31.9339 25.5856 32.0313 25.4724 32.0922C25.3378 32.1652 25.1726 32.2961 25.0044 32.4666C24.7872 32.6827 24.7199 32.774 24.6098 33.0023C24.5394 33.1514 24.4324 33.334 24.3712 33.4071C24.2733 33.5228 24.206 33.6932 24.154 33.9458C24.1449 33.9945 24.1081 34.305 24.0745 34.6307C23.998 35.3764 23.9858 37.0596 24.0561 37.4309C24.0806 37.5557 24.1173 37.8084 24.1357 37.994C24.1785 38.3775 24.2336 38.545 24.4079 38.8098C24.4752 38.9132 24.5731 39.1111 24.6251 39.2481C24.7077 39.4642 24.7474 39.525 24.8973 39.659C24.9952 39.7472 25.1176 39.8842 25.1726 39.9633C25.2246 40.0425 25.3286 40.149 25.399 40.1977C25.4693 40.2464 25.6009 40.3682 25.6896 40.4686C25.8058 40.6056 25.9037 40.6786 26.0505 40.7486C26.1606 40.8004 26.3166 40.9039 26.3961 40.9769C26.4849 41.0591 26.6623 41.1687 26.8611 41.26C27.0538 41.3513 27.2281 41.4578 27.3016 41.5309C27.3689 41.5978 27.5126 41.6983 27.6227 41.7561C27.9194 41.9144 28.2712 42.2827 28.415 42.5901C28.4792 42.724 28.5863 42.8975 28.6536 42.9767C28.7881 43.1319 28.8616 43.3176 28.9686 43.7833C29.0084 43.9507 29.0879 44.1668 29.1674 44.325C29.3265 44.6325 29.4305 44.9277 29.5192 45.296C29.5896 45.6065 29.6416 45.7343 29.7425 45.8682C29.8801 46.0509 29.9505 46.2304 30.0117 46.5409C30.0881 46.9488 30.1157 47.0249 30.2472 47.1953C30.3818 47.3718 30.443 47.5271 30.5256 47.9167C30.6112 48.3185 30.6969 48.5711 30.8345 48.8298C30.9446 49.0398 30.9691 49.122 31.1251 49.7581C31.171 49.9499 31.2536 50.1873 31.3361 50.3517C31.4921 50.6621 31.5411 50.8204 31.6329 51.2952C31.7063 51.6727 31.6971 51.8218 31.5992 52.0227C31.5319 52.1627 31.3943 52.2692 31.3361 52.2297C31.3209 52.2175 31.226 52.1049 31.1281 51.9801C31.0333 51.8553 30.8467 51.6392 30.7183 51.5053C30.2686 51.0304 30.0545 50.7839 29.978 50.6439C29.9352 50.5678 29.822 50.4399 29.7211 50.3639C29.6232 50.2847 29.4978 50.1508 29.4427 50.0686C29.3846 49.9864 29.2806 49.8738 29.2103 49.816C29.1399 49.7612 29.0298 49.6334 28.9656 49.5299C28.8983 49.4294 28.7759 49.2925 28.6872 49.2255C28.5985 49.1555 28.4976 49.055 28.4639 49.0003C28.4303 48.9455 28.2957 48.7841 28.1672 48.6441C28.0357 48.5011 27.9286 48.3732 27.9286 48.358C27.9286 48.3428 27.8216 48.215 27.687 48.075C27.4973 47.868 27.4117 47.7432 27.274 47.4692C27.1792 47.2805 27.0599 47.0705 27.011 47.0035C26.8764 46.824 26.7969 46.4739 26.7969 46.063C26.7969 45.6673 26.7204 44.7542 26.6714 44.5716C26.6531 44.5046 26.5919 44.3433 26.5369 44.2155C26.4787 44.0846 26.4176 43.9202 26.3992 43.8502C26.3809 43.7772 26.3166 43.5824 26.2554 43.415C26.1545 43.1471 26.1239 43.0923 25.9434 42.9127C25.8333 42.8001 25.7049 42.651 25.659 42.584C25.6131 42.514 25.503 42.4044 25.4143 42.3375C25.3225 42.2705 25.2246 42.1762 25.194 42.1305C25.0778 41.9479 24.9799 41.8748 24.6954 41.7683C24.515 41.6983 24.3559 41.6131 24.2703 41.537C24.0714 41.3665 24.0011 41.3361 23.5147 41.2174C23.2761 41.1595 22.9856 41.0713 22.8663 41.0256C22.2086 40.7639 21.4011 40.7456 21.0126 40.98C20.9178 41.0347 20.7801 41.1078 20.7067 41.1382C20.5232 41.2174 20.3886 41.3361 20.2907 41.5065C20.2479 41.5826 20.1531 41.7348 20.0797 41.8444C19.8809 42.1427 19.8441 42.3405 19.8411 43.2141C19.838 44.1181 19.9053 44.5777 20.0919 44.9308C20.1561 45.0525 20.2479 45.2747 20.2938 45.4238C20.4406 45.8926 20.4681 45.9565 20.5997 46.1026C20.6731 46.1817 20.8016 46.3826 20.8903 46.55C21.086 46.9153 21.0799 46.9061 21.291 47.0492C21.3827 47.1131 21.5601 47.2531 21.6794 47.3627C21.8997 47.5545 21.9976 47.6153 22.3371 47.7614C22.435 47.8041 22.5665 47.8802 22.6307 47.9319C22.7929 48.0597 23.062 48.1389 23.5361 48.1937C24.0623 48.2515 24.3773 48.3306 24.5486 48.4493C24.6251 48.5011 24.8086 48.5924 24.9554 48.6502C25.4265 48.842 25.4877 48.8846 25.6834 49.1768C25.8456 49.4172 26.0872 49.6973 26.5491 50.1691C26.647 50.2725 26.7724 50.4308 26.8274 50.5282C26.9192 50.6895 26.9834 50.7595 27.1792 50.8965C27.2251 50.9269 27.3077 51.0213 27.3627 51.1096C27.4178 51.1948 27.5218 51.3196 27.5921 51.3866C27.6625 51.4535 27.7665 51.5783 27.8246 51.6635C27.8797 51.7518 28.002 51.8857 28.0938 51.9649C28.1856 52.041 28.3049 52.181 28.3569 52.2753C28.4089 52.3666 28.5312 52.528 28.6291 52.6315C28.727 52.7349 28.8646 52.9206 28.938 53.0454C29.0114 53.1702 29.1552 53.362 29.2592 53.4715C29.3938 53.6115 29.4641 53.715 29.5009 53.8307C29.5345 53.9281 29.5865 54.0103 29.6324 54.0438C29.7456 54.1168 29.9169 54.2812 29.9169 54.3146C29.9169 54.3299 29.8801 54.3847 29.8343 54.4394L29.7486 54.5368L29.4794 54.4851C29.2286 54.4364 29.198 54.4212 29.0604 54.2903C28.9686 54.202 28.8432 54.1229 28.7392 54.0833C28.4853 53.989 28.3569 53.9159 28.1886 53.7789C28.103 53.7089 27.9041 53.5841 27.742 53.502C27.5799 53.4198 27.3811 53.298 27.2985 53.228C27.1914 53.1398 27.063 53.0789 26.8213 52.9967C26.5063 52.8932 26.3656 52.8171 26.286 52.7075C26.2646 52.6771 26.1606 52.601 26.0536 52.5341C25.9465 52.4671 25.8211 52.3606 25.7691 52.2997C25.6406 52.1384 25.4785 51.977 25.3531 51.8827C25.2827 51.8279 25.2063 51.7275 25.1481 51.5996C25.0961 51.49 25.0074 51.35 24.9493 51.2892C24.8239 51.1461 24.7719 51.0487 24.6924 50.7869C24.6067 50.513 24.5609 50.4339 24.411 50.2908C24.3406 50.2238 24.2366 50.099 24.1816 50.0138C24.1265 49.9286 24.0133 49.8038 23.9338 49.7399C23.8543 49.6729 23.738 49.5694 23.6799 49.5025C23.5606 49.3777 23.4413 49.3077 23.1752 49.2072C23.0804 49.1737 22.9336 49.0946 22.8449 49.0337C22.5329 48.8207 22.0924 48.7233 21.4439 48.7233C21.034 48.7233 20.6578 48.7689 20.4559 48.845C20.2846 48.9089 19.5536 49.4386 19.4801 49.5542C19.4557 49.5907 19.4037 49.7003 19.37 49.7977C19.3089 49.959 19.3027 50.0321 19.3027 50.6347C19.3027 51.5783 19.3761 52.0044 19.5964 52.321C19.6484 52.4001 19.731 52.5645 19.7799 52.6832C19.8472 52.8628 19.9084 52.9541 20.1072 53.1641C20.3427 53.4167 20.5936 53.6237 20.6639 53.6237C20.6823 53.6237 20.7924 53.6907 20.9117 53.7729C21.2726 54.0285 21.2787 54.0285 22.7439 54.0498C24.1999 54.0711 24.2152 54.0742 24.7352 54.336C24.8851 54.412 25.1359 54.5094 25.295 54.5521C25.6376 54.6464 25.6957 54.6738 25.8945 54.8412C26.026 54.9477 26.1606 55.0208 26.5797 55.2186C26.6194 55.2369 26.7173 55.316 26.7938 55.3921C26.8794 55.4774 27.0324 55.5808 27.167 55.6417C27.2924 55.7026 27.482 55.8274 27.5921 55.9218C27.7023 56.0161 27.9011 56.147 28.0357 56.2109C28.1825 56.2809 28.3293 56.3783 28.4027 56.4544C28.47 56.5244 28.6352 56.637 28.7698 56.704C28.9013 56.771 29.0879 56.8866 29.1797 56.9627C29.3846 57.1301 29.4458 57.1606 29.7517 57.258C29.8863 57.3036 30.0606 57.3797 30.134 57.4284C30.2074 57.4771 30.3176 57.5502 30.3757 57.5897C30.547 57.7054 30.7091 57.7541 31.0792 57.8089C31.2719 57.8363 31.5441 57.8941 31.6879 57.9337L31.9449 58.0098L36.7197 57.9976C40.115 57.9915 41.5343 57.9763 41.6321 57.9519C41.7086 57.9337 41.9625 57.888 42.198 57.8545C42.6997 57.7754 42.8251 57.7267 43.0973 57.5075C43.2074 57.4193 43.3818 57.3006 43.4827 57.2458C43.5837 57.191 43.7427 57.0723 43.8345 56.984C43.9385 56.8836 44.0914 56.7831 44.2383 56.7131C44.3698 56.6523 44.535 56.5457 44.6053 56.4757C44.6849 56.4027 44.8623 56.2931 45.0519 56.2048C45.2691 56.1013 45.4098 56.0131 45.5107 55.9096C45.6209 55.803 45.7249 55.7391 45.9176 55.663C46.2173 55.5443 46.2846 55.5048 46.4467 55.3647C46.5538 55.2704 46.6333 55.2278 47.0065 55.0695C47.0769 55.0421 47.1992 54.9569 47.2818 54.8808C47.4439 54.7316 47.6152 54.6373 47.9456 54.5094C48.071 54.4607 48.2361 54.3786 48.3187 54.3207C48.3983 54.2659 48.5298 54.2081 48.6063 54.1929C48.6827 54.1807 49.3006 54.1564 49.9827 54.1412C51.6437 54.1077 51.867 54.0711 52.2799 53.7637C52.3809 53.6876 52.546 53.5872 52.6531 53.5385C52.8519 53.4441 52.9559 53.3498 53.0691 53.1611C53.1058 53.1002 53.2037 52.9967 53.2893 52.9358C53.3719 52.875 53.4606 52.7897 53.482 52.7441C53.5065 52.7015 53.5738 52.4671 53.635 52.2266C53.6961 51.9862 53.7543 51.7762 53.7665 51.7579C53.8093 51.6879 53.8644 51.0426 53.8674 50.586C53.8674 50.163 53.8583 50.0747 53.8093 49.9773C53.7787 49.9164 53.7237 49.7734 53.687 49.6607C53.6319 49.4964 53.5891 49.4294 53.482 49.3351C53.4056 49.2681 53.2985 49.2072 53.2404 49.1981C53.1792 49.1859 53.0385 49.1281 52.9253 49.0703C52.5552 48.8755 52.3319 48.8328 51.7263 48.8298C51.1543 48.8298 51.0441 48.8511 50.7107 49.0155C50.6312 49.055 50.4385 49.125 50.2825 49.1677C49.9093 49.2742 49.7503 49.3564 49.5331 49.5542C49.4352 49.6455 49.267 49.7825 49.1599 49.8616C49.0192 49.9621 48.9121 50.0777 48.7837 50.2665C48.6827 50.4126 48.5543 50.586 48.4931 50.65C48.435 50.7169 48.3432 50.86 48.2943 50.9726C48.2453 51.0822 48.178 51.2313 48.1444 51.3013C48.1138 51.3744 48.0251 51.5053 47.9517 51.5996C47.8752 51.6909 47.7559 51.8492 47.6856 51.9557C47.6121 52.0623 47.395 52.3058 47.1992 52.5006C46.9086 52.7897 46.7954 52.881 46.5721 52.9997C46.4192 53.0819 46.2387 53.1976 46.1714 53.2615C46.0154 53.4015 45.9114 53.4563 45.6453 53.5385C45.3914 53.6146 45.2446 53.6876 45.1651 53.7759C45.0611 53.8916 44.8653 53.9859 44.6359 54.0346C44.5136 54.059 44.3698 54.0985 44.3117 54.1229C44.1771 54.1777 44.1037 54.132 44.0333 53.9464C43.9874 53.8276 43.9874 53.8063 44.0272 53.7242C44.0547 53.6755 44.1373 53.5841 44.2138 53.5202C44.2933 53.4563 44.3943 53.3315 44.4524 53.2219C44.5074 53.1215 44.6084 52.9815 44.6757 52.9115C44.746 52.8445 44.8837 52.671 44.9816 52.528C45.0794 52.3849 45.2385 52.184 45.3364 52.0805C45.4312 51.977 45.5474 51.8249 45.5933 51.7396C45.6392 51.6575 45.7646 51.5113 45.8717 51.417C45.9818 51.3226 46.0919 51.2009 46.1164 51.1491C46.1439 51.0944 46.254 50.9635 46.358 50.8539C46.462 50.7443 46.5783 50.5982 46.6119 50.5313C46.6486 50.4613 46.7434 50.3456 46.826 50.2725C46.9086 50.1995 47.031 50.0564 47.1013 49.956C47.1686 49.8555 47.2818 49.7186 47.3521 49.6516C47.4225 49.5847 47.5816 49.3959 47.707 49.2346C47.9547 48.9181 48.0587 48.8359 48.4839 48.632C48.6277 48.565 48.8081 48.4615 48.8846 48.4067C49.0376 48.3002 49.1844 48.2637 49.9032 48.1571C50.3376 48.0932 50.5976 48.0141 50.7566 47.8923C50.827 47.8375 51.0105 47.7432 51.1634 47.6793C51.3439 47.6062 51.4999 47.5149 51.6192 47.4114C51.7201 47.3262 51.9159 47.1831 52.0536 47.0918C52.234 46.9701 52.3411 46.8696 52.439 46.7357C52.5154 46.6322 52.6531 46.4618 52.7479 46.3552C52.9284 46.1513 53.0293 45.9778 53.115 45.7191C53.1456 45.6308 53.2281 45.4695 53.3016 45.3599C53.534 45.0068 53.6503 44.3707 53.6747 43.3054C53.6961 42.4014 53.6044 41.8292 53.3933 41.5522C53.3077 41.4426 52.6194 40.9739 52.3931 40.8704C52.2769 40.8186 52.1912 40.8095 51.6957 40.8095C50.9952 40.8095 50.6649 40.8552 50.3345 41.0013C50.1999 41.0621 49.9185 41.1595 49.7105 41.2204C49.2609 41.3513 49.2211 41.3696 48.9856 41.5644C48.8846 41.6496 48.7103 41.7683 48.5971 41.8292C48.4472 41.9113 48.3554 41.9874 48.2698 42.1061C48.2025 42.1944 48.0893 42.3162 48.0159 42.377C47.9394 42.441 47.811 42.6053 47.7161 42.7636C47.6244 42.9127 47.4929 43.1045 47.4194 43.1897C47.2604 43.3754 47.242 43.4089 47.1503 43.6798C47.1105 43.7985 47.0218 43.9872 46.9545 44.0968C46.7373 44.4559 46.7312 44.4742 46.7098 45.436C46.6853 46.3126 46.6333 46.7722 46.5354 46.964C46.514 47.0096 46.4345 47.1162 46.358 47.2014C46.2846 47.2836 46.1561 47.4845 46.0705 47.6488C45.9573 47.868 45.8778 47.9806 45.7738 48.0658C45.6973 48.1297 45.5719 48.2758 45.5016 48.3854C45.4281 48.495 45.3089 48.6289 45.2354 48.6837C45.159 48.7385 45.0458 48.8602 44.9846 48.9576C44.9204 49.055 44.8194 49.1707 44.7583 49.2194C44.6971 49.2651 44.5839 49.3959 44.5074 49.5086C44.431 49.6181 44.3025 49.7612 44.223 49.8221C44.1434 49.8829 44.018 50.0199 43.9446 50.1264C43.8712 50.236 43.7641 50.3608 43.703 50.4065C43.6449 50.4521 43.5317 50.58 43.4583 50.6926C43.3818 50.8082 43.2564 50.9604 43.1769 51.0335C43.0973 51.1096 42.9627 51.2709 42.8801 51.3987C42.7945 51.5235 42.5712 51.7762 42.3846 51.9618L42.0481 52.2936L41.8371 52.2601C41.7209 52.2388 41.6138 52.2145 41.6016 52.2084C41.5893 52.1992 41.6046 52.1414 41.6352 52.0805C41.6658 52.0166 41.6933 51.9192 41.6933 51.8583C41.6933 51.7183 41.831 51.0152 41.9105 50.7535C41.9441 50.6408 42.0176 50.4613 42.0757 50.3578C42.1766 50.1721 42.2684 49.889 42.3938 49.3472C42.4305 49.192 42.5161 48.9546 42.5926 48.7994C42.7303 48.5254 42.7884 48.3458 42.9321 47.7493C42.978 47.5514 43.0606 47.3262 43.1463 47.1557C43.2411 46.9701 43.3176 46.7448 43.391 46.4557C43.4491 46.2213 43.5317 45.9687 43.5714 45.8926C43.8437 45.3812 43.8681 45.3204 43.9385 44.9612C44.015 44.5807 44.0609 44.462 44.1985 44.2794C44.3117 44.1333 44.3392 44.0572 44.4493 43.6341C44.5625 43.1806 44.59 43.1136 44.7338 42.9432C44.798 42.8671 44.8959 42.7088 44.954 42.5931C45.0947 42.307 45.4985 41.8992 45.8013 41.7348C45.9176 41.6678 46.0491 41.5735 46.0889 41.5187C46.1409 41.4487 46.2693 41.3696 46.4896 41.2661C46.6731 41.1778 46.8872 41.0469 46.982 40.9647C47.0769 40.8826 47.2298 40.7791 47.3216 40.7334C47.4133 40.6878 47.5816 40.566 47.6917 40.4625C47.8018 40.3621 47.9486 40.2312 48.019 40.1764C48.0893 40.1216 48.1872 39.9968 48.2423 39.8964C48.3004 39.7868 48.4044 39.659 48.5023 39.5768C48.6521 39.4459 48.6705 39.4185 48.7745 39.102C48.851 38.8798 48.9366 38.6941 49.0345 38.548C49.2027 38.2984 49.218 38.2528 49.3251 37.6349C49.3924 37.2331 49.4016 37.0992 49.4016 36.4326C49.4016 36.0186 49.3863 35.626 49.371 35.559C49.3557 35.4921 49.3159 35.2181 49.2823 34.9472C49.2211 34.4663 49.1263 34.0798 49.0498 33.9915C48.9672 33.8941 48.854 33.6293 48.7745 33.3371C48.6705 32.9597 48.6674 32.9536 48.4503 32.7223C48.3493 32.6188 48.2698 32.5214 48.2698 32.5031C48.2698 32.4209 48.0434 32.2261 47.8783 32.1652C47.7834 32.1287 47.6091 32.0435 47.4959 31.9765C47.1992 31.797 46.9453 31.7361 46.6211 31.7574C46.3091 31.7787 46.2296 31.8 45.8809 31.9552C45.734 32.0191 45.5077 32.0983 45.3761 32.1318C44.9479 32.2353 44.7858 32.3113 44.5809 32.5031C44.4769 32.5975 44.3361 32.707 44.2689 32.7405C44.2016 32.774 44.0976 32.8623 44.0425 32.9323C43.9874 33.0023 43.8896 33.1088 43.8253 33.1666C43.758 33.2275 43.6418 33.3432 43.5653 33.4223C43.4858 33.5015 43.3237 33.6658 43.2044 33.7876C43.0851 33.9093 42.9505 34.0737 42.9016 34.1559C42.8557 34.2411 42.7364 34.3933 42.6354 34.4998C42.5131 34.6307 42.4091 34.789 42.3051 34.999C42.2225 35.1664 42.1032 35.3734 42.042 35.4555C41.9013 35.6473 41.831 35.8786 41.7545 36.3991C41.7209 36.6274 41.6597 36.9135 41.6169 37.0322C41.5006 37.3518 41.5159 37.7231 41.6872 38.6332C41.8493 39.4885 41.9044 39.6742 42.0726 39.9268C42.2867 40.2525 42.3418 40.4564 42.3969 41.1443C42.4213 41.4396 42.4152 41.5491 42.3632 41.8596C42.2898 42.307 42.2409 42.4653 42.091 42.7484C41.9533 43.0041 41.8493 43.2932 41.7392 43.7315C41.6964 43.9081 41.623 44.1089 41.5771 44.182C41.3752 44.5046 41.3263 44.6142 41.2498 44.9399C41.1733 45.2656 41.1121 45.4117 40.9164 45.7465C40.8705 45.8226 40.7879 46.0691 40.7298 46.2944C40.6136 46.757 40.5707 46.8727 40.4484 47.0553C40.323 47.2379 40.2954 47.311 40.1945 47.7219C40.0966 48.1176 40.0813 48.1541 39.9345 48.358C39.806 48.5346 39.751 48.6685 39.6561 49.0429C39.6133 49.2103 39.5307 49.4355 39.4696 49.5451C39.2463 49.9469 39.2126 50.023 39.1423 50.306C39.0107 50.8356 38.9496 50.8996 38.6009 50.8539C38.4754 50.8387 38.3623 50.8235 38.3439 50.8235C38.2858 50.8235 38.1787 50.6256 38.1267 50.4278C38.0809 50.2604 38.0717 49.9956 38.0533 48.6776C38.0411 47.8223 38.0136 46.9822 37.9952 46.8057C37.9707 46.5713 37.9616 45.3021 37.9677 42.1183C37.9769 38.0214 37.983 37.7353 38.035 37.4918C38.0931 37.2179 38.1665 37.0444 38.2552 36.9713C38.2858 36.947 38.3837 36.8283 38.4724 36.7096C38.5641 36.5878 38.711 36.4326 38.7997 36.3687C38.8914 36.3017 39.0046 36.2013 39.0505 36.1434C39.0994 36.0856 39.2249 35.9791 39.3319 35.9121C39.4879 35.8086 39.5399 35.7508 39.6164 35.5986C39.6684 35.4951 39.7785 35.3429 39.858 35.2547C40.0171 35.0903 40.1639 34.8255 40.2251 34.6003C40.271 34.4298 40.3627 34.2533 40.4729 34.1132C40.586 33.9732 40.6594 33.7571 40.7604 33.261C40.8032 33.0388 40.8766 32.7618 40.9194 32.6431C40.9623 32.5244 41.0081 32.3296 41.0234 32.2109C41.0357 32.0952 41.0785 31.8578 41.1152 31.6874L41.1856 31.3769L41.0999 31.1395C41.0357 30.9691 41.0081 30.8138 40.9929 30.5825C40.9776 30.3755 40.947 30.199 40.9041 30.0833C40.8674 29.9859 40.794 29.6937 40.742 29.432C40.6319 28.8749 40.5983 28.7745 40.4423 28.5127C40.375 28.4032 40.2801 28.1779 40.2251 28.0105C40.1058 27.6422 40.066 27.5661 39.9161 27.3774C39.8519 27.2952 39.7449 27.1126 39.6745 26.9696C39.5797 26.7778 39.4879 26.6469 39.3105 26.4613C39.182 26.3273 39.0291 26.1569 38.974 26.0869C38.9006 25.9895 38.7874 25.9103 38.5489 25.7855C38.1267 25.5633 38.1145 25.5512 38.1145 25.3868V25.2559H36.4964H34.8752L34.866 25.399Z" fill="#F3B921"/>
<path d="M2.46317 64.1275C2.18481 64.1579 1.84834 64.231 1.68011 64.2949C1.47211 64.3771 1.32222 64.4897 1.03164 64.791C0.600342 65.2354 0.539165 65.4272 0.557518 66.2825C0.569754 66.9125 0.612577 67.086 0.811401 67.3173C0.881754 67.3995 0.976577 67.5273 1.0194 67.6034C1.06528 67.6795 1.15093 67.7708 1.20905 67.8074C1.27022 67.8439 1.56387 67.9352 1.86058 68.0083L2.40199 68.1422H3.19422C3.98034 68.1422 3.98952 68.1422 4.11493 68.2183C4.18528 68.2578 4.31681 68.3218 4.40858 68.3552C4.73587 68.4831 4.81846 68.6201 4.79399 68.9975C4.77258 69.3262 4.72975 69.4145 4.5034 69.5788C4.40858 69.6488 4.2954 69.7432 4.25258 69.7858C4.12411 69.9197 4.0354 69.9624 3.76622 70.0111C3.20034 70.1176 1.89422 70.0263 1.42928 69.8497C1.26105 69.7858 0.976577 69.9745 0.875636 70.215C0.832812 70.3185 0.835871 70.3306 0.952107 70.5955C1.16317 71.0703 1.23658 71.0916 2.83634 71.1159C4.07211 71.1342 4.46058 71.1068 4.72364 70.9881C4.9714 70.8755 5.66881 70.3885 5.74222 70.2789C5.81564 70.1663 5.91964 69.9015 6.04199 69.5088C6.11234 69.2806 6.12152 69.2075 6.10928 68.9457C6.09093 68.4983 5.87375 67.8378 5.68105 67.6278C5.58622 67.5273 5.18858 67.2625 4.9714 67.1591C4.60128 66.9795 4.61658 66.9795 3.48787 66.9551C2.50599 66.9338 2.4234 66.9277 2.31022 66.8699C2.05022 66.736 1.99211 66.6599 1.91258 66.3464L1.83917 66.0603L1.90034 65.9598C1.93399 65.905 2.01046 65.765 2.06552 65.6494C2.2154 65.3419 2.29799 65.3024 2.93117 65.2232C3.47258 65.1532 3.91917 65.141 4.2067 65.1897C4.30764 65.205 4.56764 65.2354 4.78787 65.2537C5.03564 65.275 5.27117 65.3145 5.41187 65.3572C5.57705 65.4089 5.65352 65.4211 5.68105 65.3998C5.70246 65.3815 5.76058 65.2841 5.80952 65.1867C5.89211 65.0223 5.89822 64.9858 5.88293 64.7849C5.85234 64.3345 5.76975 64.234 5.39352 64.2036C5.26199 64.1914 5.02034 64.161 4.85822 64.1366C4.53093 64.091 2.86081 64.0818 2.46317 64.1275Z" fill="#F3B921"/>
<path d="M7.65206 64.167C7.597 64.2065 7.51747 64.2857 7.47771 64.3405L7.4043 64.4409V67.6551V70.8693L7.48994 70.9485C7.64289 71.0915 7.74689 71.125 8.04359 71.125C8.31889 71.125 8.32194 71.125 8.4443 71.0154L8.56665 70.9058V68.2273C8.56665 65.2962 8.55747 65.4484 8.74712 65.3145C8.83277 65.2536 8.87559 65.2506 9.6403 65.2506C10.0808 65.2506 10.5671 65.2658 10.7201 65.2871C10.9678 65.3175 11.0107 65.3327 11.0932 65.4149C11.1758 65.4971 11.1911 65.5397 11.2217 65.7832C11.2676 66.1241 11.2217 66.5502 11.1299 66.6659C11.0963 66.7085 10.9801 66.8029 10.8669 66.8759C10.7537 66.949 10.6283 67.0464 10.5855 67.092C10.4876 67.1986 10.2826 67.299 10.041 67.3599C9.85441 67.4055 9.73206 67.4725 9.63112 67.5821C9.58524 67.6338 9.58524 67.6673 9.61889 67.9291C9.65865 68.2365 9.70453 68.3552 9.833 68.4739C9.90947 68.5469 9.91559 68.5469 10.1787 68.5104C10.8179 68.4252 11.0841 68.3461 11.2584 68.1878C11.3012 68.1482 11.4114 68.0782 11.5031 68.0325C11.6989 67.9291 12.2097 67.4512 12.3137 67.2747C12.3535 67.2077 12.4085 67.0646 12.4361 66.9551C12.4636 66.8455 12.5431 66.6416 12.6135 66.4985C12.7817 66.1576 12.7848 66.0054 12.6288 65.6615C12.5676 65.5275 12.4942 65.3145 12.4667 65.1897C12.4024 64.9005 12.3504 64.8153 12.0629 64.5535C11.7876 64.3009 11.6775 64.2431 11.2737 64.1578C10.9831 64.097 10.8822 64.0939 9.35889 64.0939H7.753L7.65206 64.167Z" fill="#F3B921"/>
<path d="M15.9375 64.1148C15.4389 64.1544 15.0076 64.2944 14.7109 64.5105C14.5855 64.6018 14.4081 64.7175 14.3163 64.7631C14.1175 64.8636 14.0869 64.8971 13.9401 65.1619C13.8789 65.2714 13.7719 65.4297 13.7015 65.5119C13.4079 65.8619 13.3375 66.1967 13.3161 67.3655C13.3039 68.026 13.31 68.2513 13.3528 68.5222C13.4415 69.134 13.5088 69.347 13.6587 69.5114C13.6954 69.554 13.7719 69.6697 13.8269 69.7701C13.9401 69.9801 14.3989 70.461 14.5672 70.5493C14.6283 70.5798 14.7538 70.6345 14.8455 70.668C14.9342 70.7015 15.0688 70.7806 15.1392 70.8415C15.2401 70.9267 15.338 70.9694 15.5491 71.0272C15.8182 71.0972 15.8825 71.1033 16.9011 71.1155C18.1215 71.1307 18.4458 71.1033 18.7914 70.948C18.9596 70.872 18.9963 70.8385 19.0514 70.7259C19.0881 70.6528 19.134 70.525 19.1554 70.4458C19.1921 70.3089 19.1891 70.2815 19.1156 70.0806L19.0392 69.8614L18.7639 69.8706C18.614 69.8766 18.4091 69.901 18.3081 69.9223C18.2072 69.9436 17.9686 69.9862 17.7789 70.0106C16.95 70.1262 16.0262 70.0045 15.7173 69.7397C15.65 69.6849 15.5154 69.5966 15.4145 69.5418C15.1912 69.4262 15.1025 69.3318 15.0321 69.1492C15.0046 69.0731 14.9128 68.8752 14.8302 68.7109C14.6039 68.2635 14.5947 68.2208 14.5733 67.6577C14.5549 67.1981 14.558 67.1281 14.6222 66.8816C14.662 66.7142 14.7232 66.565 14.7782 66.4889C14.8241 66.425 14.8945 66.2911 14.9281 66.1967C15.0168 65.9685 15.1086 65.8528 15.3288 65.7037C15.4298 65.6367 15.5215 65.5606 15.5307 65.5363C15.5399 65.5119 15.6041 65.4541 15.6745 65.4054C15.7846 65.3293 15.8702 65.308 16.3443 65.238C16.9959 65.1436 17.3323 65.1406 17.9411 65.2227C18.1949 65.2593 18.5406 65.2928 18.7088 65.3019L19.0208 65.3171L19.1034 65.174C19.1799 65.0462 19.186 65.0158 19.1676 64.8301C19.1371 64.4953 19.1003 64.404 18.9719 64.3401C18.5742 64.1392 18.1888 64.0935 17.0173 64.0996C16.4973 64.1026 16.014 64.1087 15.9375 64.1148Z" fill="#F3B921"/>
<path d="M23.1721 64.1487C23.1048 64.1822 22.9977 64.2552 22.9335 64.3131L22.8203 64.4227L22.8295 66.8668L22.8356 69.314L22.9213 69.5575C23.0589 69.9471 23.1109 70.0292 23.3954 70.3184C23.6003 70.5284 23.7135 70.6197 23.8909 70.708C24.0163 70.7719 24.1815 70.8632 24.258 70.9119C24.5271 71.0885 24.778 71.125 25.714 71.125C26.5613 71.125 26.9161 71.0976 27.1638 71.0154C27.2403 70.9911 27.5064 70.8298 27.7603 70.6593L28.2191 70.3488L28.3476 70.0901C28.7147 69.3566 28.7789 69.1953 28.8125 68.9365C28.834 68.7722 28.8462 67.9291 28.8462 66.5685V64.4531L28.7636 64.3374C28.6841 64.2309 28.6535 64.2126 28.4118 64.1548C28.1488 64.0878 28.1427 64.0878 27.8918 64.1426C27.6808 64.1883 27.6227 64.2126 27.5401 64.2979L27.4391 64.4013V66.5381C27.4391 68.5074 27.433 68.6991 27.381 68.97C27.3168 69.3048 27.2495 69.4388 27.1088 69.527C26.9956 69.597 26.7723 69.7462 26.6133 69.8588C26.5521 69.9014 26.3869 69.9684 26.2462 70.0019C26.0045 70.0627 25.9587 70.0658 25.6038 70.0353C25.0257 69.9836 24.9309 69.9532 24.7045 69.7218C24.6005 69.6153 24.4445 69.4692 24.362 69.3992C24.2121 69.2774 24.206 69.2653 24.157 69.0187C24.0163 68.3339 24.0133 68.2547 24.0133 66.3067V64.444L23.9398 64.3344C23.8787 64.2461 23.8297 64.2157 23.686 64.1761C23.3801 64.0939 23.3036 64.0878 23.1721 64.1487Z" fill="#F3B921"/>
<path d="M30.6564 64.2001C30.4178 64.404 30.4361 64.124 30.4361 67.6547C30.4361 69.8493 30.4453 70.8415 30.4698 70.8842C30.4881 70.9176 30.5646 70.9876 30.6441 71.0363C30.7726 71.1185 30.8062 71.1246 31.0724 71.1246C31.314 71.1246 31.3752 71.1155 31.4486 71.0607C31.6352 70.9298 31.6291 71.0242 31.6291 68.6957V66.5712L31.7208 66.4281C31.8768 66.1816 31.9441 66.2029 32.1338 66.5681C32.198 66.6899 32.3142 66.8542 32.3938 66.9395C32.4733 67.0216 32.5865 67.1738 32.6476 67.2743C32.7088 67.3747 32.8342 67.5452 32.926 67.6547C33.0208 67.7643 33.1462 67.9469 33.2074 68.0656C33.2686 68.1813 33.394 68.3548 33.4827 68.4492C33.5684 68.5405 33.6876 68.7079 33.7396 68.8205C33.7947 68.9301 33.9201 69.1096 34.018 69.2223C34.1189 69.3318 34.2566 69.5297 34.3269 69.6575C34.3973 69.7854 34.5135 69.9467 34.5839 70.0136C34.6542 70.0836 34.7552 70.2237 34.8072 70.3241C34.9204 70.5463 35.3608 71.012 35.5229 71.079C35.6667 71.1398 36.1347 71.1398 36.3029 71.082C36.3702 71.0576 36.4804 70.9998 36.5507 70.9542L36.6761 70.872V67.6578V64.4405L36.5629 64.331C36.3641 64.1422 36.2295 64.0935 35.9022 64.0935C35.63 64.0935 35.6147 64.0966 35.5382 64.1757C35.3547 64.3736 35.3608 64.2823 35.3608 66.3459C35.3608 68.1296 35.3578 68.2452 35.3027 68.4005C35.2691 68.4918 35.2109 68.6105 35.1742 68.6622L35.1039 68.7596L35.0182 68.6561C34.9693 68.5983 34.8806 68.4644 34.8194 68.3548C34.7582 68.2452 34.6298 68.0748 34.5349 67.9743C34.4371 67.8739 34.3147 67.7065 34.2596 67.603C34.2015 67.4904 34.1036 67.3656 34.0241 67.3017C33.9415 67.2347 33.8528 67.119 33.7947 67.0064C33.6999 66.8147 33.5928 66.6655 33.4093 66.4677C33.3573 66.4098 33.2564 66.2577 33.1921 66.1329C33.1248 66.0081 33.0147 65.8498 32.9444 65.7828C32.8771 65.7159 32.77 65.5758 32.7119 65.4724C32.6538 65.3689 32.5375 65.2106 32.4519 65.1162C32.3693 65.0249 32.2255 64.821 32.1368 64.6658C31.9594 64.3614 31.8829 64.2883 31.6046 64.1788C31.4731 64.1301 31.3476 64.1088 31.1091 64.0996L30.7879 64.0905L30.6564 64.2001Z" fill="#F3B921"/>
<path d="M38.5572 64.1546C38.441 64.185 38.3339 64.2124 38.3217 64.2124C38.3095 64.2155 38.2636 64.2672 38.2208 64.3281L38.1443 64.4437V67.6549V70.8691L38.2299 70.9513C38.2942 71.0122 38.3737 71.0395 38.5939 71.0822L38.8723 71.1309L39.0497 71.0517C39.1476 71.0061 39.2516 70.9482 39.2822 70.9208C39.3342 70.8752 39.3372 70.6986 39.3372 67.6366V64.4042L39.2302 64.3098C39.1017 64.2002 38.9029 64.0937 38.8264 64.0967C38.7958 64.0967 38.6765 64.1241 38.5572 64.1546Z" fill="#F3B921"/>
<path d="M40.8508 64.1157C40.5541 64.1827 40.4685 64.2222 40.395 64.3288C40.3216 64.4323 40.3216 64.4414 40.3675 64.5327C40.395 64.5844 40.447 64.6666 40.4868 64.7184C40.5755 64.834 40.6336 64.9862 40.7132 65.3119C40.7988 65.6467 40.8447 65.7472 40.9885 65.9359C41.1047 66.0881 41.1445 66.1885 41.3402 66.8429C41.3892 67.0103 41.4503 67.1442 41.5054 67.2082C41.643 67.3634 41.7195 67.5308 41.8174 67.9052C41.8725 68.1152 41.9459 68.307 42.004 68.4013C42.1936 68.7026 42.2395 68.8 42.3282 69.1014C42.4383 69.4666 42.475 69.5549 42.6372 69.8136C42.7045 69.9201 42.7809 70.0845 42.8085 70.1789C42.9461 70.6689 42.9889 70.7785 43.099 70.885C43.2489 71.0372 43.46 71.1011 43.8852 71.1163C44.2063 71.1316 44.2369 71.1255 44.4052 71.0494C44.7233 70.9063 44.8487 70.7359 44.9833 70.2732C45.072 69.9628 45.1821 69.7101 45.3412 69.4605C45.4023 69.3692 45.488 69.1592 45.5492 68.9461C45.6073 68.7422 45.696 68.52 45.751 68.4317C45.9376 68.1365 46.0019 67.9965 46.1059 67.6434C46.167 67.4395 46.2466 67.2386 46.2986 67.1655C46.479 66.9099 46.528 66.8094 46.632 66.4837C46.7023 66.2615 46.7819 66.0789 46.8736 65.942C47.0205 65.7198 47.048 65.6528 47.2009 65.1658C47.2529 64.9953 47.3355 64.8005 47.3814 64.7366C47.4273 64.6727 47.4885 64.5814 47.5129 64.5297C47.5588 64.4444 47.5588 64.4323 47.4854 64.3288C47.3845 64.1766 47.1917 64.1218 46.7146 64.1035L46.3353 64.0883L46.2129 64.204C46.1426 64.274 46.0447 64.417 45.9866 64.5418C45.9315 64.6605 45.8459 64.8158 45.7969 64.8827C45.7113 64.9984 45.6654 65.1293 45.4727 65.7685C45.4237 65.9267 45.3473 66.0972 45.2708 66.2068C45.1515 66.3833 45.0995 66.5203 44.9619 67.0438C44.9221 67.2021 44.8548 67.3573 44.7875 67.4547C44.6376 67.6708 44.5734 67.826 44.4694 68.2126C44.3746 68.5687 44.2553 68.8427 44.191 68.8427C44.1727 68.8427 44.0473 68.8274 43.9127 68.8061C43.6894 68.7726 43.668 68.7635 43.6007 68.6631C43.564 68.6022 43.4875 68.4013 43.4325 68.2187C43.3774 68.0178 43.2642 67.7439 43.1572 67.5338C43.0226 67.2751 42.9492 67.0773 42.8696 66.779C42.7626 66.3772 42.7289 66.292 42.5362 65.9876C42.475 65.8963 42.3986 65.6985 42.3466 65.5189C42.2334 65.1019 41.8633 64.3683 41.6889 64.207L41.5605 64.0944L41.2362 64.0974C41.0588 64.1005 40.8845 64.1066 40.8508 64.1157Z" fill="#F3B921"/>
<path d="M48.8318 64.1852C48.7461 64.2339 48.6391 64.3161 48.5932 64.3679L48.5137 64.4653V67.6521V70.8419L48.584 70.9058C48.6207 70.9393 48.7278 71.0032 48.8196 71.0459L48.9878 71.125H50.8873C52.9551 71.125 52.9153 71.128 53.1723 70.9515L53.2854 70.8724V70.5893V70.3062L53.1784 70.1967C53.1172 70.1388 53.0163 70.0627 52.949 70.0292C52.8358 69.9714 52.7716 69.9684 51.4746 69.9684C50.1868 69.9684 50.1134 69.9653 50.0217 69.9075C49.9666 69.8771 49.9054 69.8192 49.881 69.7797C49.8045 69.661 49.7372 69.2866 49.7372 68.9883C49.7372 68.7387 49.7464 68.6839 49.8259 68.5226C49.8748 68.4221 49.9574 68.2943 50.0125 68.2395L50.1104 68.1421H51.4654H52.8205L52.9276 68.0234C53.1417 67.786 53.1661 67.6886 53.0836 67.3538C53.0468 67.1955 53.0132 67.1316 52.9276 67.0525L52.8174 66.9551H51.441H50.0645L49.8993 66.7937L49.7372 66.6294V66.0663C49.7372 65.5214 49.7403 65.5032 49.8106 65.4058C49.8504 65.351 49.9299 65.2719 49.985 65.2323L50.0859 65.1592H51.444H52.8021L52.9796 65.0801C53.1508 65.004 53.157 64.9979 53.2028 64.8305C53.3007 64.4683 53.3007 64.4622 53.1906 64.3466C53.1325 64.2887 53.0224 64.2065 52.9428 64.167L52.7991 64.0939H50.8934H48.9878L48.8318 64.1852Z" fill="#F3B921"/>
<path d="M54.8242 64.1913C54.7722 64.2461 54.7141 64.3222 54.6958 64.3587C54.6713 64.4074 54.6621 65.3297 54.6621 67.6582V70.8876L54.7814 71.0063L54.9007 71.125H55.2005C55.4696 71.125 55.5247 71.1159 55.6868 71.0367C56.008 70.8845 55.9774 71.2011 55.9835 68.1543L55.9927 65.4788L56.2068 65.3723L56.4209 65.2658H57.2774C58.1033 65.2658 58.1369 65.2688 58.2409 65.3327C58.3572 65.4058 58.4275 65.5062 58.4856 65.6919C58.5071 65.7589 58.5499 65.8654 58.5835 65.9293C58.6386 66.0419 58.6386 66.0541 58.5927 66.1515C58.5652 66.2124 58.5162 66.3341 58.4826 66.4285C58.3939 66.6903 58.3143 66.7937 58.1094 66.9124C58.0054 66.9733 57.8586 67.0707 57.7852 67.1316C57.6567 67.2351 57.2591 67.3812 57.1061 67.3812C57.0755 67.3812 56.9929 67.436 56.9226 67.4999L56.7972 67.6216L56.8186 67.9047C56.8431 68.2213 56.8951 68.3461 57.0633 68.5074C57.1245 68.5652 57.2193 68.6991 57.2774 68.7996C57.3355 68.9031 57.4671 69.0796 57.5711 69.1922C57.6965 69.3292 57.8035 69.4905 57.8953 69.6823C57.9932 69.8831 58.0666 69.9927 58.1492 70.0597C58.2195 70.1145 58.3113 70.2423 58.3908 70.3915C58.5591 70.7141 58.7579 70.9302 58.9903 71.0367C59.1555 71.1159 59.2075 71.125 59.4828 71.125C59.8621 71.125 60.2383 71.0398 60.3515 70.9272L60.4249 70.8511L60.2536 70.6776C60.1588 70.5802 60.0487 70.431 60.0059 70.3488C59.9631 70.2636 59.8529 70.1236 59.7581 70.0323C59.6541 69.9349 59.5532 69.7979 59.4981 69.6823C59.4461 69.5818 59.3238 69.4022 59.2228 69.2896C59.1188 69.177 58.9812 68.9852 58.9139 68.8635C58.8496 68.7417 58.7303 68.5835 58.6539 68.5074C58.4489 68.3095 58.4092 68.2273 58.4703 68.1117C58.4979 68.0599 58.5774 67.9808 58.6478 67.9351C58.7181 67.8895 58.8496 67.7738 58.9445 67.6795C59.0362 67.5851 59.1769 67.4603 59.2565 67.4055C59.4094 67.296 59.4889 67.2077 59.5654 67.0555C59.5929 67.0038 59.6847 66.882 59.7673 66.7877C59.9049 66.6294 59.9202 66.5959 59.9661 66.3524C60.0273 66.0176 60.0273 65.7071 59.9661 65.4088C59.8988 65.0862 59.8499 64.9857 59.6939 64.8336C59.6174 64.7636 59.5073 64.6266 59.4492 64.5353C59.3146 64.3283 59.2656 64.2948 58.9598 64.2187C58.5254 64.1091 58.2409 64.0939 56.5586 64.0939H54.9191L54.8242 64.1913Z" fill="#F3B921"/>
<path d="M62.8867 64.1061C62.8806 64.1122 62.7307 64.1487 62.5563 64.1852C62.1587 64.2674 61.9691 64.3496 61.7733 64.5261C61.6907 64.5992 61.5592 64.7027 61.4827 64.7544C61.2747 64.8975 61.2196 64.9705 61.134 65.2232C60.9811 65.6736 60.9505 66.3737 61.0575 66.8759C61.1462 67.2868 61.1829 67.3599 61.4001 67.5882C61.6295 67.8225 61.7182 67.8712 62.1189 67.9747C62.7399 68.1299 62.8561 68.1421 63.734 68.1421C64.4498 68.1421 64.5691 68.1482 64.6027 68.1908C64.6272 68.2152 64.7709 68.3339 64.9269 68.4495C65.0829 68.5652 65.2175 68.6839 65.2267 68.7143C65.2359 68.7417 65.2328 68.8818 65.2175 69.0248C65.19 69.2805 65.19 69.2835 65.0523 69.4053C64.9789 69.4722 64.8566 69.6031 64.7862 69.6944C64.7159 69.7857 64.6333 69.8771 64.6058 69.8953C64.4926 69.9745 64.0858 70.0353 63.5474 70.0506C63.0335 70.0658 62.9601 70.0597 62.4462 69.9714C62.1434 69.9227 61.7733 69.8771 61.6203 69.871L61.3451 69.8649L61.2716 70.0445C61.1829 70.2697 61.1829 70.3641 61.2686 70.5893C61.3542 70.8115 61.4001 70.8571 61.6234 70.9424C62.0425 71.0976 62.3178 71.125 63.4954 71.125C64.4865 71.125 64.6119 71.1189 64.8474 71.0641C65.0156 71.0246 65.1625 70.9637 65.2634 70.8998C65.3491 70.8419 65.5081 70.7537 65.6152 70.6989C65.8446 70.5863 66.2453 70.1875 66.3523 69.9714C66.5573 69.5514 66.5451 68.3552 66.3309 67.9656C66.2025 67.7312 65.866 67.4025 65.6549 67.3081C65.5571 67.2655 65.3858 67.1833 65.2756 67.1255C65.0003 66.9825 64.7495 66.9551 63.7707 66.9551H62.9418L62.6695 66.812C62.5196 66.7329 62.3851 66.6537 62.3698 66.6355C62.3545 66.6172 62.3208 66.4802 62.2963 66.328C62.2566 66.0754 62.2566 66.048 62.3116 65.905C62.3973 65.6828 62.5778 65.4606 62.7521 65.3662C63.0672 65.1988 64.2265 65.1014 64.7709 65.1988C65.0829 65.2566 65.6825 65.3114 65.9822 65.3114H66.1841L66.2667 65.1562C66.3523 65.004 66.3523 65.001 66.3156 64.7392C66.2698 64.4196 66.2269 64.3648 65.9669 64.2766C65.502 64.1244 65.1839 64.0939 64.0032 64.0939C63.3975 64.0939 62.8928 64.1 62.8867 64.1061Z" fill="#F3B921"/>
<path d="M68.0359 64.1509C67.9136 64.1813 67.7851 64.2331 67.7515 64.2635C67.5955 64.4035 67.6016 64.2605 67.6016 67.6664V70.8472L67.6719 70.9263C67.8218 71.0998 67.8891 71.1059 70.0334 71.118C71.1101 71.1241 72.0338 71.1211 72.0858 71.1089C72.1378 71.0998 72.2357 71.045 72.3061 70.9841L72.4345 70.8745V70.5732V70.2688L72.2816 70.1197L72.1317 69.9675H70.7644H69.4002L69.2167 69.8853C69.0209 69.8001 68.9842 69.7514 68.8832 69.4562C68.8404 69.3375 68.8251 69.2035 68.8251 68.9935C68.8251 68.7165 68.8312 68.6922 68.9138 68.5796C68.9628 68.5156 69.0545 68.4122 69.1188 68.3513C69.3635 68.126 69.2442 68.1413 70.7399 68.1413C72.2724 68.1413 72.1256 68.1687 72.2694 67.8551L72.3489 67.6786L72.2999 67.4016C72.2571 67.1825 72.2296 67.1033 72.1684 67.0364L72.0858 66.9542H70.7308H69.3727L69.2136 66.8781C69.1249 66.8385 69.0025 66.7624 68.9414 66.7107L68.8251 66.6163V66.0563V65.4993L68.9383 65.4019C68.9995 65.3471 69.1188 65.271 69.2044 65.2314L69.3604 65.1584H70.7216H72.0828L72.1929 65.0853C72.303 65.0092 72.3489 64.8997 72.4192 64.5557C72.4437 64.434 72.355 64.2757 72.1959 64.1692L72.0828 64.0931L70.171 64.0961C68.4428 64.0961 68.2378 64.1022 68.0359 64.1509Z" fill="#F3B921"/>
</svg>
