<svg width="37" height="37" viewBox="0 0 37 37" fill="none" xmlns="http://www.w3.org/2000/svg">
<g clip-path="url(#clip0_6250_2405)">
<path d="M9.90045 0.287984C10.0226 0.325992 10.0226 0.325992 10.1472 0.364767C12.1153 1.05433 13.6488 2.50708 14.548 4.37551C15.0029 5.41259 15.2015 6.41788 15.1894 7.54616C15.1893 7.66948 15.1893 7.66948 15.1892 7.79528C15.1856 8.49584 15.1856 8.49584 15.1181 8.70542C15.0522 8.96772 15.0451 9.12715 15.1036 9.39345C15.4047 9.87523 15.8592 10.258 16.2663 10.6479C16.3865 10.7664 16.5065 10.885 16.6263 11.0039C16.9414 11.3154 17.2591 11.6239 17.5776 11.932C17.9023 12.2471 18.2244 12.5649 18.5468 12.8825C19.179 13.5047 19.8142 14.1238 20.4512 14.7411C20.702 14.6322 20.8747 14.4865 21.0736 14.3001C21.1402 14.2379 21.2067 14.1757 21.2753 14.1116C21.3486 14.0425 21.4218 13.9733 21.495 13.9041C21.5726 13.8313 21.6501 13.7585 21.7276 13.6857C22.4388 13.0164 23.1413 12.338 23.8414 11.6571C24.3111 11.2006 24.7832 10.7473 25.2623 10.3006C27.7357 8.2273 27.7357 8.2273 28.8963 5.40003C28.889 4.98029 28.8481 4.56046 28.7459 4.15257C28.6788 3.87264 28.6809 3.77271 28.82 3.5137C28.955 3.35145 29.076 3.22219 29.2431 3.09505C29.2937 3.05603 29.3444 3.01701 29.3966 2.97681C29.4781 2.91573 29.4781 2.91573 29.5612 2.85341C29.6186 2.80962 29.6759 2.76583 29.735 2.7207C30.1931 2.37235 30.6564 2.03087 31.121 1.69131C31.6452 1.30766 32.1611 0.913361 32.6748 0.515826C32.7353 0.46933 32.7957 0.422834 32.8581 0.374929C32.9114 0.333685 32.9647 0.29244 33.0196 0.249946C33.2998 0.0515189 33.5027 -0.0233496 33.8475 -0.0281778C33.9467 -0.0312519 33.9467 -0.0312519 34.0479 -0.0343881C34.5282 0.043255 34.8698 0.448852 35.1991 0.780294C35.2698 0.850833 35.2698 0.850833 35.342 0.922796C35.441 1.02174 35.5399 1.12087 35.6386 1.22017C35.7896 1.372 35.9414 1.52304 36.0933 1.67402C36.1898 1.77051 36.2861 1.86705 36.3824 1.96364C36.4277 2.00867 36.473 2.05369 36.5197 2.10008C36.5617 2.14253 36.6037 2.18498 36.647 2.22871C36.6839 2.26571 36.7208 2.30271 36.7588 2.34083C36.9638 2.58477 37.0253 2.80447 37.0362 3.11989C37.0399 3.18352 37.0436 3.24714 37.0475 3.3127C36.923 3.909 36.3896 4.43124 36.0245 4.90395C35.6368 5.40905 35.2536 5.91695 34.8773 6.43056C34.7554 6.59623 34.6334 6.76184 34.5115 6.92742C34.4381 7.02714 34.3648 7.12695 34.2917 7.22686C34.1955 7.35792 34.0984 7.48826 34.001 7.61843C33.9217 7.7256 33.9217 7.7256 33.8407 7.83494C33.6517 8.0476 33.4946 8.17629 33.2422 8.30947C33.0461 8.29077 32.8874 8.26082 32.6993 8.21235C31.782 8.04198 30.855 8.02411 30.0376 8.53194C28.7094 9.47724 27.5992 10.773 26.4933 11.9596C26.0358 12.4498 25.5696 12.9316 25.1027 13.4129C24.1449 14.4007 23.1978 15.3984 22.2579 16.4032C22.3521 16.6102 22.4532 16.7622 22.6115 16.9251C22.6542 16.9693 22.6969 17.0136 22.7409 17.0592C22.7877 17.107 22.8345 17.1547 22.8827 17.2039C22.9567 17.2802 22.9567 17.2802 23.0323 17.3581C23.5481 17.8887 24.0682 18.4151 24.5887 18.9411C24.8354 19.1907 25.0808 19.4416 25.325 19.6937C25.6202 19.9984 25.9176 20.3007 26.2167 20.6014C26.3302 20.7162 26.4429 20.8318 26.5547 20.9483C27.1197 21.586 27.1197 21.586 27.8575 21.9487C28.0775 21.9311 28.2629 21.8894 28.4727 21.8231C29.5844 21.7678 30.657 21.7767 31.7247 22.1122C31.8063 22.1375 31.8879 22.1629 31.972 22.189C33.9398 22.8801 35.4727 24.3307 36.3722 26.1997C37.1194 27.9031 37.3065 29.9448 36.711 31.7235C36.6815 31.8118 36.6519 31.9 36.6215 31.9909C36.2776 32.9416 36.2776 32.9416 35.8709 33.2321C35.5477 33.3398 35.2409 33.3785 34.9044 33.3134C34.601 33.129 34.353 32.9242 34.1031 32.6731C34.0692 32.6392 34.0353 32.6053 34.0004 32.5704C33.8898 32.4597 33.7797 32.3485 33.6696 32.2373C33.5925 32.1599 33.5154 32.0826 33.4382 32.0052C33.2361 31.8026 33.0345 31.5996 32.833 31.3965C32.6269 31.1889 32.4204 30.9817 32.2139 30.7745C31.8095 30.3686 31.4056 29.9622 31.002 29.5556C30.6116 29.8852 30.6116 29.8852 30.2412 30.237C30.1801 30.2985 30.1801 30.2985 30.1177 30.3612C30.0772 30.4024 30.0366 30.4436 29.9948 30.486C29.9523 30.5288 29.9098 30.5717 29.8659 30.6158C29.7627 30.7199 29.6597 30.8242 29.5567 30.9286C29.9204 31.3689 30.317 31.7682 30.7231 32.1693C30.7935 32.2391 30.8638 32.309 30.9341 32.3789C31.2305 32.6735 31.5273 32.9677 31.8244 33.2616C32.007 33.4423 32.1892 33.6233 32.3713 33.8046C32.4739 33.9065 32.5769 34.0081 32.6799 34.1096C32.7422 34.1716 32.8044 34.2336 32.8686 34.2975C32.9234 34.3518 32.9783 34.4061 33.0348 34.4621C33.3133 34.7754 33.3486 35.0339 33.3354 35.4432C33.3025 35.7309 33.2306 35.931 33.0254 36.1317C31.6336 37.0751 29.6129 37.2006 28.0064 36.947C27.6975 36.8867 27.4 36.804 27.0997 36.7099C27.0182 36.6845 26.9368 36.6592 26.8529 36.6331C24.8884 35.9448 23.3658 34.4983 22.4566 32.6404C21.9924 31.5866 21.8116 30.5771 21.8152 29.4291C21.815 29.3415 21.8147 29.254 21.8144 29.1638C21.8145 29.0341 21.8145 29.0341 21.8147 28.9018C21.8148 28.8244 21.8148 28.747 21.8149 28.6673C21.8243 28.3993 21.8243 28.3993 21.858 28.2197C21.9263 27.8233 21.9263 27.8233 21.8177 27.4467C21.6919 27.2933 21.5586 27.159 21.4138 27.0233C21.3617 26.971 21.3096 26.9187 21.2558 26.8648C21.0838 26.6934 20.9089 26.5253 20.7338 26.357C20.6136 26.2384 20.4936 26.1196 20.3738 26.0007C20.0586 25.6888 19.7409 25.3796 19.4225 25.0708C19.0979 24.7551 18.7757 24.4369 18.4533 24.1188C17.8209 23.4957 17.1858 22.8754 16.5489 22.2567C16.3086 22.3706 16.1502 22.4939 15.9629 22.6841C15.9084 22.7391 15.8539 22.794 15.7977 22.8507C15.7415 22.9081 15.6854 22.9654 15.6275 23.0246C15.5702 23.0825 15.5129 23.1404 15.4539 23.2001C15.3127 23.343 15.1719 23.4863 15.0313 23.6298C15.1288 23.8322 15.2227 23.9788 15.3791 24.1402C15.8977 24.7336 16.16 25.5722 16.1331 26.3578C16.0062 27.5177 15.4922 28.2825 14.6821 29.0866C14.6032 29.1663 14.5243 29.246 14.4455 29.3259C14.2329 29.5407 14.0193 29.7543 13.8053 29.9677C13.6259 30.1467 13.4471 30.3263 13.2683 30.5059C12.846 30.9301 12.4227 31.3533 11.9989 31.7759C11.5635 32.21 11.1297 32.6456 10.6967 33.0821C10.3232 33.4585 9.94868 33.834 9.57337 34.2086C9.34998 34.4316 9.12698 34.655 8.90491 34.8793C8.69582 35.0904 8.48551 35.3003 8.27426 35.5093C8.19757 35.5855 8.12129 35.6622 8.0455 35.7393C7.34459 36.4519 6.55506 36.9964 5.52852 37.0201C4.17685 37.0306 3.36265 36.5391 2.41305 35.6132C2.2659 35.4677 2.11951 35.3215 1.97363 35.1747C1.8249 35.0253 1.67487 34.8774 1.52469 34.7295C0.611634 33.8213 -0.0118262 33.0227 -0.0315599 31.6919C-0.023721 30.4081 0.62013 29.6247 1.49796 28.7511C1.57604 28.6726 1.65408 28.5941 1.73207 28.5155C1.94255 28.3037 2.1537 28.0927 2.36503 27.8817C2.54194 27.7051 2.71852 27.528 2.8951 27.351C3.31186 26.9333 3.72917 26.5161 4.14684 26.0992C4.57666 25.6702 5.00555 25.2403 5.43398 24.8099C5.80299 24.4393 6.17257 24.0693 6.54259 23.6997C6.76309 23.4794 6.98338 23.259 7.20314 23.038C7.4098 22.8302 7.61716 22.6231 7.82507 22.4165C7.90091 22.341 7.97651 22.2652 8.05184 22.1891C8.83624 21.3974 9.60659 20.9413 10.734 20.8795C11.5966 20.894 12.4355 21.1646 13.0576 21.778C13.1127 21.8406 13.1678 21.9032 13.2247 21.9677C13.4677 21.8624 13.6254 21.7284 13.8107 21.5403C13.8652 21.4853 13.9197 21.4304 13.9758 21.3737C14.032 21.3164 14.0882 21.259 14.1461 21.1999C14.2033 21.1419 14.2606 21.084 14.3197 21.0243C14.4609 20.8814 14.6017 20.7382 14.7422 20.5946C14.648 20.3876 14.5469 20.2357 14.3886 20.0728C14.3459 20.0285 14.3032 19.9842 14.2592 19.9386C14.189 19.867 14.189 19.867 14.1174 19.794C14.0681 19.7431 14.0187 19.6922 13.9678 19.6397C13.452 19.1091 12.9319 18.5828 12.4114 18.0568C12.1647 17.8071 11.9193 17.5562 11.6751 17.3041C11.3799 16.9995 11.0825 16.6972 10.7834 16.3965C10.6699 16.2816 10.5573 16.166 10.4455 16.0496C9.88038 15.4118 9.88038 15.4118 9.14259 15.0492C8.92258 15.0667 8.73724 15.1084 8.5274 15.1747C7.41572 15.2301 6.34311 15.2212 5.27545 14.8856C5.19384 14.8603 5.11224 14.835 5.02816 14.8089C3.06394 14.119 1.5419 12.6747 0.632381 10.8162C-0.119844 9.10849 -0.307499 7.05644 0.289119 5.27431C0.318649 5.1861 0.348179 5.09788 0.378604 5.00699C0.722472 4.05629 0.722472 4.05629 1.12921 3.76577C1.45245 3.65802 1.75919 3.61931 2.09576 3.68447C2.3991 3.86881 2.64715 4.0736 2.897 4.32477C2.93089 4.35864 2.96479 4.39252 2.99971 4.42742C3.11032 4.53812 3.2204 4.64933 3.33049 4.76055C3.4076 4.83794 3.48476 4.9153 3.56194 4.99262C3.76398 5.19522 3.96559 5.39824 4.16711 5.60136C4.37322 5.80896 4.57975 6.01614 4.78624 6.22336C5.1906 6.62927 5.5945 7.03563 5.9981 7.44228C6.38856 7.11264 6.38856 7.11264 6.75887 6.76084C6.79962 6.71985 6.84038 6.67886 6.88237 6.63663C6.92294 6.59546 6.96351 6.55428 7.00531 6.51186C7.06909 6.44759 7.06909 6.44759 7.13417 6.38201C7.23742 6.27792 7.34044 6.1736 7.44342 6.06923C7.07976 5.62899 6.68307 5.22963 6.277 4.82858C6.20665 4.75873 6.13633 4.68886 6.06603 4.61896C5.76965 4.32433 5.47284 4.03012 5.17573 3.73622C4.99312 3.55554 4.81087 3.37452 4.62882 3.19328C4.52621 3.09133 4.4232 2.98979 4.32018 2.88826C4.25793 2.82625 4.19568 2.76425 4.13155 2.70036C4.07669 2.64604 4.02183 2.59172 3.96531 2.53576C3.6868 2.22244 3.65149 1.96393 3.66471 1.55461C3.69761 1.26697 3.76951 1.06681 3.97467 0.866109C5.6102 -0.242451 8.08078 -0.282304 9.90045 0.287984ZM6.93756 2.23916C7.26296 2.63087 7.61 2.9884 7.97496 3.34318C8.09117 3.45742 8.20733 3.5717 8.32345 3.68602C8.50476 3.86421 8.68633 4.0421 8.86867 4.21925C9.04585 4.3916 9.22185 4.5651 9.39769 4.73881C9.45212 4.79115 9.50655 4.84348 9.56262 4.89741C9.92723 5.26014 10.1568 5.5807 10.207 6.10876C10.1408 6.50573 9.98732 6.73879 9.71273 7.03014C9.67822 7.0669 9.64371 7.10366 9.60815 7.14153C9.15587 7.61987 8.69139 8.08666 8.2259 8.5521C8.06983 8.70833 7.91434 8.86513 7.75887 9.02196C7.65855 9.12249 7.5582 9.22299 7.45781 9.32345C7.41196 9.36982 7.36611 9.41619 7.31887 9.46396C6.95425 9.82673 6.61298 10.1565 6.07381 10.1944C5.42694 10.168 5.05151 9.72208 4.62986 9.28647C4.52847 9.18404 4.42708 9.0816 4.32568 8.97918C4.18497 8.83657 4.04512 8.69314 3.90524 8.54971C3.65873 8.29734 3.41073 8.04643 3.16291 7.79533C3.03121 7.66171 2.89979 7.52781 2.76867 7.39362C2.70978 7.33355 2.65088 7.27349 2.5902 7.2116C2.53819 7.15833 2.48617 7.10507 2.43258 7.05019C2.33138 6.92814 2.33138 6.92814 2.24029 6.93642C2.1758 8.65299 2.51161 10.0588 3.69238 11.3491C4.65399 12.3469 5.95105 12.9271 7.33001 12.9596C7.93364 12.9649 8.48298 12.9442 9.06431 12.7671C9.38541 12.6817 9.71809 12.6546 10.045 12.7177C10.4339 12.9442 10.7323 13.2402 11.0483 13.5581C11.1043 13.6139 11.1603 13.6697 11.2181 13.7272C11.4055 13.914 11.5924 14.1014 11.7793 14.2887C11.9136 14.4229 12.048 14.557 12.1825 14.6912C12.5094 15.0174 12.8359 15.3441 13.1623 15.6709C13.4276 15.9365 13.693 16.2019 13.9584 16.4673C13.9962 16.505 14.034 16.5428 14.073 16.5818C14.1498 16.6585 14.2266 16.7353 14.3034 16.812C15.0232 17.5314 15.7425 18.2512 16.4617 18.9711C17.0789 19.589 17.6964 20.2064 18.3143 20.8236C19.0319 21.5404 19.7493 22.2575 20.4663 22.975C20.5427 23.0515 20.6192 23.1279 20.6956 23.2044C20.7332 23.242 20.7708 23.2797 20.8095 23.3184C21.0747 23.5837 21.34 23.8488 21.6053 24.1138C21.9622 24.4703 22.3188 24.8271 22.6751 25.1843C22.8061 25.3155 22.9373 25.4466 23.0686 25.5776C23.2473 25.7559 23.4256 25.9347 23.6038 26.1136C23.6562 26.1657 23.7086 26.2178 23.7627 26.2715C23.8103 26.3195 23.8579 26.3674 23.9069 26.4169C23.9481 26.4581 23.9893 26.4993 24.0317 26.5418C24.2997 26.856 24.3065 27.1316 24.3008 27.531C24.2816 27.7453 24.2362 27.9232 24.1729 28.1283C23.8157 29.4392 24.0403 30.8721 24.6855 32.049C25.4532 33.364 26.6329 34.2374 28.0843 34.6819C28.727 34.8271 29.4078 34.7757 30.0626 34.7587C29.7372 34.367 29.3901 34.0094 29.0251 33.6547C28.9089 33.5404 28.7928 33.4261 28.6767 33.3118C28.4953 33.1336 28.3138 32.9557 28.1314 32.7786C27.9543 32.6062 27.7783 32.4328 27.6024 32.259C27.5208 32.1805 27.5208 32.1805 27.4375 32.1004C27.037 31.702 26.8201 31.3713 26.8016 30.7886C26.9156 30.1593 27.5742 29.6377 28.0078 29.2064C28.0654 29.1486 28.123 29.0909 28.1823 29.0314C28.3032 28.9104 28.4242 28.7897 28.5455 28.6691C28.7304 28.4849 28.9146 28.2999 29.0987 28.1149C29.2168 27.9969 29.3349 27.879 29.4531 27.7611C29.5078 27.7061 29.5624 27.6512 29.6187 27.5945C30.3779 26.842 30.3779 26.842 30.9263 26.8034C31.5732 26.8299 31.9486 27.2758 32.3703 27.7114C32.4716 27.8138 32.573 27.9162 32.6744 28.0187C32.8151 28.1613 32.955 28.3047 33.0949 28.4481C33.3414 28.7005 33.5894 28.9514 33.8372 29.2025C33.9689 29.3361 34.1003 29.47 34.2314 29.6042C34.2903 29.6643 34.3492 29.7244 34.4099 29.7862C34.4619 29.8395 34.5139 29.8928 34.5675 29.9477C34.6687 30.0697 34.6687 30.0697 34.7598 30.0614C34.8218 28.3957 34.4846 26.9649 33.354 25.6973C32.3815 24.7008 31.0566 24.0687 29.6601 24.0333C29.0606 24.0291 28.5129 24.055 27.9358 24.2308C27.6147 24.3162 27.282 24.3433 26.9551 24.2802C26.5662 24.0536 26.2678 23.7577 25.9519 23.4398C25.8958 23.384 25.8398 23.3281 25.782 23.2706C25.5946 23.0838 25.4077 22.8965 25.2208 22.7091C25.0865 22.5749 24.9521 22.4408 24.8177 22.3067C24.4907 21.9804 24.1642 21.6537 23.8378 21.3269C23.5725 21.0613 23.3072 20.7959 23.0417 20.5306C23.0039 20.4928 22.9661 20.455 22.9271 20.4161C22.8503 20.3393 22.7735 20.2626 22.6967 20.1858C21.9769 19.4665 21.2576 18.7467 20.5384 18.0267C19.9212 17.4089 19.3037 16.7914 18.6858 16.1742C17.9682 15.4574 17.2508 14.7403 16.5338 14.0229C16.4574 13.9464 16.381 13.8699 16.3045 13.7934C16.2481 13.737 16.2481 13.737 16.1906 13.6794C15.9254 13.4142 15.6602 13.1491 15.3948 12.8841C15.0379 12.5276 14.6813 12.1707 14.325 11.8136C14.194 11.6823 14.0628 11.5512 13.9315 11.4203C13.7528 11.2419 13.5745 11.0631 13.3963 10.8842C13.3439 10.8321 13.2915 10.78 13.2374 10.7263C13.1661 10.6544 13.1661 10.6544 13.0932 10.581C13.052 10.5397 13.0108 10.4985 12.9684 10.4561C12.7004 10.1419 12.6936 9.86647 12.6993 9.46713C12.7186 9.25163 12.7642 9.07145 12.8272 8.86501C13.2096 7.4702 12.8984 6.05367 12.2129 4.82001C12.0654 4.56713 11.8962 4.34067 11.7071 4.11806C11.6534 4.04652 11.5998 3.97498 11.5445 3.90127C10.8026 3.04078 9.57216 2.41152 8.45513 2.23916C7.94931 2.20975 7.4436 2.22136 6.93756 2.23916ZM33.3704 2.82293C33.3082 2.87071 33.2461 2.91849 33.182 2.96772C33.1155 3.01943 33.0489 3.07114 32.9803 3.12441C32.8427 3.23031 32.7052 3.33617 32.5676 3.44198C32.4989 3.49495 32.4301 3.54792 32.3593 3.6025C32.0227 3.86071 31.6827 4.11431 31.3426 4.36782C31.128 4.52229 31.128 4.52229 30.9297 4.69619C30.9235 4.79849 30.922 4.9011 30.9227 5.0036C30.9229 5.06531 30.9232 5.12703 30.9234 5.19061C30.924 5.2555 30.9246 5.32038 30.9252 5.38723C30.9256 5.45239 30.9259 5.51755 30.9262 5.58469C30.9271 5.74621 30.9283 5.90772 30.9297 6.06923C31.747 6.17626 31.747 6.17626 32.5032 5.94051C32.6389 5.77206 32.7552 5.60082 32.8655 5.41482C33.0089 5.18511 33.1741 4.972 33.3366 4.75556C33.4672 4.58142 33.5959 4.40607 33.7241 4.23013C33.9463 3.92581 34.1716 3.62396 34.3985 3.32314C34.2984 3.11482 34.202 2.96238 34.0372 2.79922C33.9999 2.76158 33.9626 2.72395 33.9243 2.68517C33.7002 2.50251 33.5656 2.67184 33.3704 2.82293ZM9.64285 23.7792C9.59628 23.8268 9.5497 23.8744 9.50172 23.9234C9.45088 23.9742 9.40005 24.025 9.34767 24.0773C9.1812 24.244 9.01577 24.4117 8.85034 24.5794C8.73457 24.6957 8.61874 24.8119 8.50285 24.9281C8.19903 25.2331 7.89608 25.5388 7.59331 25.8448C7.28379 26.1573 6.97345 26.4689 6.66317 26.7807C6.05526 27.3917 5.44827 28.0036 4.84185 28.6161C5.08671 28.9066 5.33405 29.1896 5.60329 29.458C5.66402 29.5187 5.72476 29.5795 5.78733 29.642C5.88356 29.7377 5.88356 29.7377 5.98173 29.8353C6.04849 29.902 6.11524 29.9686 6.18402 30.0373C6.35992 30.2129 6.53604 30.3883 6.7122 30.5637C6.89256 30.7433 7.07271 30.9231 7.25287 31.1029C7.60525 31.4545 7.95785 31.8059 8.3106 32.1571C8.6606 31.8648 8.99182 31.5595 9.31491 31.2379C9.36186 31.1914 9.40881 31.1449 9.45719 31.097C9.61079 30.9448 9.76412 30.7924 9.91738 30.6398C9.97007 30.5874 10.0228 30.5351 10.077 30.4811C10.3554 30.2043 10.6334 29.9272 10.9114 29.65C11.1979 29.3643 11.4852 29.0794 11.7728 28.7947C11.9945 28.5749 12.2155 28.3545 12.4364 28.1339C12.542 28.0285 12.648 27.9235 12.7541 27.8187C12.9025 27.672 13.05 27.5245 13.1972 27.3767C13.2409 27.334 13.2846 27.2912 13.3296 27.2471C13.5985 26.9749 13.7536 26.7406 13.8751 26.3759C13.864 25.746 13.4645 25.3645 13.0448 24.9433C12.9999 24.8979 12.955 24.8525 12.9088 24.8057C12.8141 24.7104 12.7193 24.6152 12.6243 24.5202C12.4799 24.3755 12.3366 24.2296 12.1933 24.0836C12.1009 23.9907 12.0083 23.8978 11.9157 23.8051C11.8734 23.7617 11.8311 23.7184 11.7874 23.6737C11.0373 22.9317 10.3561 23.0722 9.64285 23.7792ZM2.89153 30.5467C2.85548 30.5833 2.81943 30.6199 2.78228 30.6576C2.72821 30.7109 2.72821 30.7109 2.67304 30.7652C2.37742 31.0624 2.22066 31.2798 2.19964 31.701C2.22903 32.4526 2.99643 33.0084 3.5015 33.5094C3.61842 33.6256 3.73453 33.7425 3.8506 33.8595C3.92588 33.9346 4.0012 34.0098 4.07657 34.0849C4.14374 34.1519 4.21091 34.2189 4.28012 34.2879C4.58499 34.5643 4.85078 34.8003 5.27545 34.7948C5.92696 34.7628 6.29406 34.263 6.72076 33.8192C6.61117 33.5619 6.46039 33.396 6.26359 33.1988C6.19897 33.1338 6.13434 33.0687 6.06775 33.0016C5.99713 32.9313 5.92649 32.8609 5.85583 32.7906C5.78345 32.7181 5.7111 32.6456 5.63876 32.5731C5.48737 32.4215 5.33572 32.2701 5.18388 32.119C4.98897 31.9249 4.79472 31.7302 4.60066 31.5353C4.45152 31.3856 4.30204 31.2363 4.15244 31.0871C4.08065 31.0154 4.00896 30.9435 3.93739 30.8716C3.83758 30.7715 3.73725 30.6718 3.63691 30.5722C3.57989 30.5153 3.52288 30.4584 3.46414 30.3997C3.20115 30.1713 3.10847 30.3309 2.89153 30.5467Z" fill="#83620C"/>
</g>
<defs>
<clipPath id="clip0_6250_2405">
<rect width="37" height="37" fill="white"/>
</clipPath>
</defs>
</svg>
