<svg width="37" height="37" viewBox="0 0 37 37" fill="none" xmlns="http://www.w3.org/2000/svg">
<g clip-path="url(#clip0_6250_2421)">
<path d="M4.68408 22.517C4.79096 22.5162 4.79096 22.5162 4.89999 22.5155C5.13526 22.5142 5.3705 22.5144 5.60577 22.5149C5.76947 22.5145 5.93318 22.5141 6.09689 22.5137C6.43993 22.5131 6.78296 22.5132 7.12601 22.514C7.56545 22.5148 8.00485 22.5133 8.44429 22.5112C8.78235 22.5099 9.1204 22.5099 9.45847 22.5103C9.62048 22.5103 9.78249 22.5099 9.9445 22.509C10.1711 22.5079 10.3976 22.5087 10.6243 22.5099C10.6911 22.5092 10.7579 22.5085 10.8267 22.5078C11.2261 22.5124 11.4676 22.5592 11.778 22.8352C12.0203 23.1293 12.0247 23.4083 12.0194 23.7749C12.0194 23.8321 12.0195 23.8892 12.0195 23.9481C12.0193 24.1362 12.0177 24.3242 12.016 24.5123C12.0155 24.643 12.0152 24.7738 12.015 24.9045C12.0142 25.2479 12.0121 25.5914 12.0097 25.9349C12.0074 26.2856 12.0065 26.6363 12.0054 26.987C12.003 27.6747 11.9992 28.3624 11.9948 29.0501C12.7102 29.0501 13.4256 29.0501 14.1628 29.0501C14.1612 28.875 14.1597 28.7 14.1582 28.5196C14.1534 27.9407 14.1502 27.3619 14.1478 26.7829C14.1463 26.432 14.1442 26.0811 14.1409 25.7302C14.1378 25.3914 14.1361 25.0527 14.1353 24.7139C14.1348 24.5847 14.1337 24.4556 14.1322 24.3265C14.1301 24.1453 14.1298 23.9643 14.1299 23.7831C14.1289 23.73 14.1279 23.6768 14.1268 23.622C14.1297 23.2528 14.2131 23.0431 14.4518 22.763C14.7739 22.484 15.1188 22.515 15.5239 22.517C15.6308 22.5162 15.6308 22.5162 15.7398 22.5155C15.9751 22.5142 16.2103 22.5144 16.4456 22.5149C16.6093 22.5145 16.773 22.5141 16.9367 22.5137C17.2798 22.5131 17.6228 22.5132 17.9659 22.514C18.4053 22.5148 18.8447 22.5133 19.2841 22.5112C19.6222 22.5099 19.9602 22.5099 20.2983 22.5103C20.4603 22.5103 20.6223 22.5099 20.7843 22.509C21.011 22.5079 21.2375 22.5087 21.4641 22.5099C21.5643 22.5089 21.5643 22.5089 21.6665 22.5078C22.0659 22.5124 22.3075 22.5592 22.6178 22.8352C22.8601 23.1293 22.8646 23.4083 22.8592 23.7749C22.8593 23.8321 22.8593 23.8892 22.8593 23.9481C22.8592 24.1362 22.8575 24.3242 22.8558 24.5123C22.8554 24.643 22.8551 24.7738 22.8549 24.9045C22.854 25.2479 22.8519 25.5914 22.8495 25.9349C22.8473 26.2856 22.8463 26.6363 22.8452 26.987C22.8429 27.6747 22.8391 28.3624 22.8346 29.0501C23.5501 29.0501 24.2655 29.0501 25.0026 29.0501C25.0011 28.875 24.9996 28.7 24.998 28.5196C24.9932 27.9407 24.99 27.3619 24.9876 26.7829C24.9861 26.432 24.9841 26.0811 24.9808 25.7302C24.9776 25.3914 24.9759 25.0527 24.9752 24.7139C24.9746 24.5847 24.9736 24.4556 24.972 24.3265C24.9699 24.1453 24.9696 23.9643 24.9698 23.7831C24.9687 23.73 24.9677 23.6768 24.9666 23.622C24.9696 23.2528 25.053 23.0431 25.2917 22.763C25.6137 22.484 25.9586 22.515 26.3638 22.517C26.4706 22.5162 26.4706 22.5162 26.5797 22.5155C26.8149 22.5142 27.0502 22.5144 27.2855 22.5149C27.4492 22.5145 27.6129 22.5141 27.7766 22.5137C28.1196 22.5131 28.4627 22.5132 28.8057 22.514C29.2451 22.5148 29.6845 22.5133 30.124 22.5112C30.462 22.5099 30.8001 22.5099 31.1382 22.5103C31.3002 22.5103 31.4622 22.5099 31.6242 22.509C31.8508 22.5079 32.0773 22.5087 32.3039 22.5099C32.4041 22.5089 32.4041 22.5089 32.5064 22.5078C32.9058 22.5124 33.1473 22.5592 33.4577 22.8352C33.6985 23.1285 33.7064 23.4093 33.7057 23.7749C33.7065 23.8321 33.7072 23.8892 33.7079 23.9481C33.7101 24.1362 33.7108 24.3242 33.7114 24.5123C33.7127 24.643 33.714 24.7738 33.7154 24.9045C33.7188 25.2479 33.721 25.5914 33.7229 25.9349C33.725 26.2856 33.7284 26.6363 33.7316 26.987C33.7379 27.6747 33.7427 28.3624 33.7467 29.0501C33.8064 29.0696 33.8661 29.0891 33.9276 29.1092C34.0058 29.135 34.084 29.1608 34.1646 29.1874C34.2422 29.2129 34.3197 29.2383 34.3997 29.2646C35.4525 29.631 36.1644 30.3872 36.6481 31.3662C36.886 31.9113 36.9646 32.4238 36.958 33.0157C36.9574 33.0855 36.9568 33.1553 36.9562 33.2272C36.9437 33.7572 36.8753 34.2074 36.6374 34.6868C36.6014 34.7599 36.5654 34.8331 36.5284 34.9084C36.0054 35.8801 35.2085 36.534 34.1687 36.897C33.6251 37.0551 33.0686 37.0295 32.5079 37.0273C32.3821 37.0276 32.2563 37.028 32.1305 37.0285C31.7861 37.0295 31.4417 37.0292 31.0973 37.0287C30.7254 37.0284 30.3535 37.0293 29.9816 37.03C29.2534 37.0313 28.5253 37.0313 27.7971 37.0309C27.2052 37.0306 26.6133 37.0307 26.0214 37.0311C25.9371 37.0312 25.8528 37.0312 25.766 37.0313C25.5947 37.0314 25.4235 37.0315 25.2522 37.0316C23.6468 37.0326 22.0415 37.0322 20.4361 37.0314C18.968 37.0307 17.4998 37.0316 16.0317 37.0333C14.5236 37.0351 13.0154 37.0358 11.5073 37.0353C10.6609 37.0351 9.81443 37.0352 8.96799 37.0365C8.24744 37.0376 7.5269 37.0376 6.80634 37.0364C6.43887 37.0357 6.07141 37.0356 5.70394 37.0367C5.3672 37.0377 5.03049 37.0373 4.69375 37.0359C4.57228 37.0357 4.4508 37.0359 4.32933 37.0366C3.12155 37.0436 2.08209 36.7497 1.17301 35.9108C0.420393 35.1089 0.0271316 34.1293 0.0393383 33.0337C0.039938 32.9639 0.0405376 32.8941 0.0411555 32.8222C0.0536906 32.2922 0.12208 31.842 0.360017 31.3626C0.395975 31.2895 0.431933 31.2163 0.46898 31.141C0.958567 30.2313 1.7175 29.529 2.71234 29.2073C2.77629 29.1886 2.84024 29.1699 2.90613 29.1507C2.97077 29.1317 3.03542 29.1127 3.10202 29.0931C3.15106 29.0789 3.20011 29.0647 3.25064 29.0501C3.25091 28.9777 3.25117 28.9054 3.25144 28.8308C3.25411 28.1482 3.25829 27.4656 3.26393 26.7829C3.26678 26.432 3.26911 26.0811 3.27023 25.7302C3.27132 25.3914 3.27381 25.0526 3.27726 24.7139C3.27833 24.5847 3.2789 24.4556 3.27896 24.3265C3.27913 24.1453 3.28109 23.9643 3.28346 23.7831C3.28291 23.7034 3.28291 23.7034 3.28236 23.622C3.28978 23.2542 3.37441 23.0424 3.61197 22.763C3.93401 22.484 4.27895 22.515 4.68408 22.517ZM5.49088 24.7142C5.49088 26.145 5.49088 27.5759 5.49088 29.0501C6.92174 29.0501 8.3526 29.0501 9.82681 29.0501C9.82681 27.6192 9.82681 26.1884 9.82681 24.7142C8.39595 24.7142 6.9651 24.7142 5.49088 24.7142ZM16.3307 24.7142C16.3307 26.145 16.3307 27.5759 16.3307 29.0501C17.7616 29.0501 19.1924 29.0501 20.6667 29.0501C20.6667 27.6192 20.6667 26.1884 20.6667 24.7142C19.2358 24.7142 17.8049 24.7142 16.3307 24.7142ZM27.1706 24.7142C27.1706 26.145 27.1706 27.5759 27.1706 29.0501C28.6014 29.0501 30.0323 29.0501 31.5065 29.0501C31.5065 27.6192 31.5065 26.1884 31.5065 24.7142C30.0756 24.7142 28.6448 24.7142 27.1706 24.7142ZM7.65884 31.2181C7.73039 31.4565 7.80193 31.695 7.87564 31.9407C8.10018 32.8389 8.02031 33.8412 7.65884 34.6868C7.65884 34.7345 7.65884 34.7822 7.65884 34.8313C10.0436 34.8313 12.4284 34.8313 14.8854 34.8313C14.8139 34.5929 14.7423 34.3544 14.6686 34.1087C14.4441 33.2105 14.5239 32.2082 14.8854 31.3626C14.8854 31.3149 14.8854 31.2672 14.8854 31.2181C12.5006 31.2181 10.1159 31.2181 7.65884 31.2181ZM22.112 31.2181C22.1835 31.4565 22.2551 31.695 22.3288 31.9407C22.5533 32.8389 22.4734 33.8412 22.112 34.6868C22.112 34.7345 22.112 34.7822 22.112 34.8313C24.4967 34.8313 26.8815 34.8313 29.3385 34.8313C29.267 34.5929 29.1954 34.3544 29.1217 34.1087C28.8972 33.2105 28.9771 32.2082 29.3385 31.3626C29.3385 31.3149 29.3385 31.2672 29.3385 31.2181C26.9538 31.2181 24.569 31.2181 22.112 31.2181ZM2.68155 31.8639C2.29793 32.4168 2.23214 32.8654 2.31119 33.5306C2.48942 34.0637 2.82734 34.3815 3.30625 34.6577C3.76481 34.8568 4.29213 34.8506 4.76257 34.6846C5.25911 34.4137 5.53127 34.0279 5.77994 33.5306C5.83886 32.8967 5.83066 32.3757 5.41861 31.8685C5.11623 31.5466 4.75042 31.3183 4.31063 31.2565C3.6315 31.2504 3.14573 31.345 2.68155 31.8639ZM17.1347 31.8639C16.7511 32.4168 16.6853 32.8654 16.7643 33.5306C16.9425 34.0637 17.2805 34.3815 17.7594 34.6577C18.2179 34.8568 18.7453 34.8506 19.2157 34.6846C19.7122 34.4137 19.9844 34.0279 20.2331 33.5306C20.292 32.8967 20.2838 32.3757 19.8717 31.8685C19.5694 31.5466 19.2035 31.3183 18.7638 31.2565C18.0846 31.2504 17.5989 31.345 17.1347 31.8639ZM31.5878 31.8639C31.2042 32.4168 31.1384 32.8654 31.2174 33.5306C31.3957 34.0637 31.7336 34.3815 32.2125 34.6577C32.6711 34.8568 33.1984 34.8506 33.6688 34.6846C34.1654 34.4137 34.4375 34.0279 34.6862 33.5306C34.7451 32.8967 34.7369 32.3757 34.3249 31.8685C34.0225 31.5466 33.6567 31.3183 33.2169 31.2565C32.5378 31.2504 32.052 31.345 31.5878 31.8639Z" fill="#83620C"/>
<path d="M1.25177 -0.0282589C1.31233 -0.0285956 1.37289 -0.0289324 1.43528 -0.0292794C1.63914 -0.0301461 1.84295 -0.0294627 2.0468 -0.028791C2.19406 -0.0290924 2.34131 -0.0294882 2.48857 -0.0299704C2.89395 -0.0310185 3.29931 -0.0307071 3.70469 -0.0301751C4.14159 -0.0298342 4.57849 -0.0307363 5.01539 -0.0314772C5.82207 -0.0326497 6.62874 -0.0328233 7.43542 -0.0324668C8.18065 -0.0321377 8.92587 -0.0321806 9.67109 -0.0325998C9.77099 -0.0326545 9.8709 -0.0327092 9.9708 -0.0327637C10.1213 -0.0328465 10.2719 -0.0329296 10.4224 -0.0330137C11.8223 -0.0337875 13.2221 -0.0341286 14.622 -0.0335579C14.6748 -0.0335364 14.7276 -0.0335149 14.782 -0.0334928C15.2106 -0.0333158 15.6393 -0.0331271 16.068 -0.0329375C17.7403 -0.0322074 19.4127 -0.0328113 21.085 -0.0344908C22.9633 -0.0363741 24.8416 -0.0373036 26.7198 -0.0367897C26.92 -0.036738 27.1202 -0.0366892 27.3204 -0.0366423C27.3697 -0.03663 27.419 -0.0366177 27.4698 -0.0366051C28.2146 -0.0364385 28.9593 -0.0370158 29.7041 -0.0379641C30.5508 -0.0390405 31.3976 -0.0390771 32.2444 -0.0378145C32.6767 -0.0371973 33.1089 -0.0370494 33.5411 -0.0381506C33.9366 -0.0391455 34.332 -0.0388145 34.7274 -0.0374107C34.8707 -0.0371372 35.014 -0.0373552 35.1574 -0.0381053C35.3517 -0.0390504 35.546 -0.0382258 35.7403 -0.0369492C35.7964 -0.0376466 35.8524 -0.038344 35.9101 -0.0390625C36.2839 -0.0339986 36.4957 0.0525518 36.7838 0.288287C37.0769 0.665702 37.0565 1.05816 37.0006 1.5168C36.8444 1.84657 36.68 2.01606 36.3502 2.16719C36.1393 2.16826 35.9452 2.15855 35.7365 2.13812C34.4702 2.00923 34.4702 2.00923 33.311 2.39606C32.9493 2.82547 32.7534 3.3341 32.5554 3.85439C32.3817 4.28073 32.1432 4.66449 31.9059 5.05782C31.8153 5.21401 31.7251 5.3704 31.6352 5.52698C31.5905 5.60446 31.5458 5.68194 31.4997 5.76177C31.3632 5.9985 31.2267 6.23528 31.0903 6.47208C30.6143 7.29831 30.1362 8.12327 29.6545 8.94626C29.3752 9.42451 29.0998 9.90487 28.8261 10.3863C27.3381 13.0037 27.3381 13.0037 26.6666 13.6574C26.6137 13.7127 26.5608 13.7679 26.5063 13.8248C25.5226 14.7938 24.1908 15.1977 22.8365 15.2111C21.3815 15.1967 19.9769 14.7033 18.9342 13.6574C18.1501 12.8066 17.7718 11.9709 17.4889 10.8391C15.271 10.8629 13.0532 10.8868 10.7682 10.9113C10.6489 11.1498 10.5297 11.3883 10.4068 11.634C10.0023 12.2015 9.48334 12.6404 8.81701 12.8625C8.79316 13.2679 8.76931 13.6733 8.74474 14.091C8.89817 14.1336 8.89817 14.1336 9.05469 14.1771C9.48275 14.3058 9.8828 14.4803 10.2894 14.6646C10.8003 14.8939 11.3119 15.1203 11.829 15.3351C11.9212 15.3736 12.0134 15.4121 12.1056 15.4507C12.2827 15.5247 12.4601 15.5977 12.6379 15.6701C13.1713 15.8937 13.4807 16.0641 13.8033 16.5481C13.8227 16.6864 13.8227 16.6864 13.8243 16.8444C13.8253 16.9038 13.8262 16.9631 13.8271 17.0243C13.8273 17.0882 13.8274 17.1521 13.8276 17.2179C13.8283 17.317 13.8283 17.317 13.8291 17.418C13.8298 17.5578 13.8301 17.6976 13.8301 17.8373C13.8304 18.0505 13.8331 18.2636 13.8358 18.4768C13.8362 18.6127 13.8365 18.7486 13.8366 18.8845C13.8377 18.948 13.8387 19.0115 13.8398 19.0769C13.8368 19.4741 13.7799 19.7022 13.5143 20.0168C13.1369 20.3099 12.7444 20.2895 12.2858 20.2336C11.9528 20.0759 11.7978 19.9092 11.6354 19.5832C11.6108 19.3697 11.6108 19.3697 11.6142 19.1369C11.6149 19.0533 11.6156 18.9697 11.6163 18.8836C11.6181 18.797 11.6199 18.7104 11.6218 18.6212C11.6228 18.5332 11.6238 18.4452 11.6248 18.3546C11.6273 18.1378 11.6309 17.9211 11.6354 17.7043C11.5971 17.6925 11.5589 17.6806 11.5195 17.6684C11.0765 17.5266 10.6569 17.3492 10.233 17.1584C10.0899 17.0954 9.94677 17.0325 9.8036 16.9698C9.58049 16.8718 9.35773 16.7733 9.13574 16.6728C8.91965 16.5753 8.70252 16.4804 8.48504 16.386C8.4193 16.3555 8.35357 16.3251 8.28584 16.2937C7.96117 16.1554 7.74106 16.0801 7.39779 16.1904C7.2918 16.2352 7.1867 16.2821 7.08263 16.3313C6.98452 16.3713 6.88634 16.4111 6.78808 16.4508C6.68902 16.4934 6.59007 16.5363 6.49124 16.5794C6.43773 16.6025 6.38423 16.6255 6.3291 16.6493C6.16012 16.7222 5.9913 16.7954 5.8225 16.8687C3.89236 17.7043 3.89236 17.7043 3.68615 17.7043C3.68766 17.7589 3.68917 17.8136 3.69073 17.8699C3.69676 18.1188 3.70051 18.3677 3.70421 18.6167C3.70663 18.7026 3.70906 18.7886 3.71155 18.8772C3.72058 19.6856 3.72059 19.6856 3.39708 20.0168C3.01967 20.3099 2.62721 20.2895 2.16857 20.2336C1.83708 20.0766 1.672 19.913 1.51818 19.5832C1.48599 19.3552 1.48607 19.1293 1.48684 18.8992C1.48647 18.8334 1.48609 18.7676 1.4857 18.6997C1.48523 18.5608 1.48533 18.4219 1.48594 18.283C1.48656 18.0711 1.48448 17.8593 1.48219 17.6474C1.48207 17.5122 1.48211 17.3769 1.48233 17.2416C1.48111 17.1471 1.48111 17.1471 1.47987 17.0507C1.48436 16.6562 1.51977 16.4079 1.80724 16.1145C2.08616 15.9461 2.37668 15.8124 2.67443 15.6809C2.74745 15.6483 2.82046 15.6157 2.89569 15.5821C3.12169 15.483 3.34863 15.3865 3.57605 15.2907C3.65789 15.2561 3.73973 15.2214 3.82405 15.1857C3.99512 15.1133 4.16624 15.041 4.33742 14.9689C4.60049 14.858 4.8633 14.7465 5.1261 14.635C5.29291 14.5645 5.45974 14.494 5.62659 14.4236C5.70532 14.3901 5.78405 14.3567 5.86517 14.3223C5.9376 14.2919 6.01002 14.2614 6.08464 14.2301C6.18037 14.1897 6.18037 14.1897 6.27803 14.1485C6.43224 14.091 6.43224 14.091 6.57677 14.091C6.55292 13.6856 6.52908 13.2802 6.50451 12.8625C6.40017 12.8163 6.29584 12.7701 6.18834 12.7225C5.37132 12.3105 4.82255 11.6781 4.50789 10.8244C4.39467 10.4717 4.36983 10.1419 4.37267 9.77315C4.37308 9.71015 4.3735 9.64715 4.37392 9.58224C4.39927 8.65829 4.76488 7.98272 5.39032 7.32177C6.1513 6.60337 7.01501 6.46197 8.01192 6.47857C8.9063 6.51805 9.61142 6.96768 10.2081 7.6097C10.4068 7.87618 10.4068 7.87618 10.7682 8.59883C12.986 8.62268 15.2038 8.64653 17.4889 8.6711C17.5604 8.38493 17.632 8.09876 17.7057 7.80391C17.8127 7.53743 17.8127 7.53743 17.936 7.29805C17.96 7.25162 17.9839 7.20518 18.0085 7.15733C18.6667 5.9021 19.4019 4.68304 20.119 3.46092C20.1768 3.36227 20.1768 3.36227 20.2358 3.26162C20.2855 3.17706 20.2855 3.17706 20.3362 3.09079C20.439 2.91206 20.5396 2.73238 20.6397 2.5521C20.6721 2.49354 20.7046 2.43499 20.7381 2.37467C20.7752 2.30774 20.7752 2.30774 20.8131 2.23946C20.7706 2.23942 20.7281 2.23937 20.6843 2.23933C18.1661 2.23674 15.6479 2.23264 13.1296 2.2266C12.8273 2.22588 12.525 2.22517 12.2227 2.22446C12.1325 2.22425 12.1325 2.22425 12.0404 2.22404C11.0656 2.2218 10.0909 2.22057 9.11613 2.21972C8.1161 2.21882 7.11608 2.21683 6.11606 2.21383C5.49889 2.21202 4.88173 2.21105 4.26455 2.21117C3.84145 2.21117 3.41836 2.21012 2.99526 2.20823C2.75107 2.20717 2.50692 2.20674 2.26273 2.20724C1.99798 2.20772 1.7333 2.20643 1.46856 2.2047C1.39138 2.20526 1.31419 2.20582 1.23466 2.2064C0.800555 2.20135 0.547661 2.16833 0.217397 1.87813C-0.0757346 1.50072 -0.0553319 1.10826 0.000599902 0.649616C0.27118 0.0783916 0.652773 -0.0334484 1.25177 -0.0282589ZM23.4869 2.16719C23.1292 2.78723 22.7715 3.40727 22.4029 4.0461C22.2241 4.35612 22.0452 4.66614 21.861 4.98555C21.7723 5.13944 21.6836 5.29334 21.5922 5.45189C21.429 5.7348 21.2653 6.01737 21.1009 6.29953C19.8219 8.32574 19.8219 8.32574 19.7063 10.6449C19.9906 11.4754 20.5426 12.1899 21.3153 12.6197C22.114 12.9909 23.0758 13.1081 23.925 12.8173C24.8939 12.3945 25.445 11.7531 25.9485 10.8436C26.0199 10.7172 26.0912 10.5909 26.1627 10.4646C26.2356 10.3357 26.3082 10.2066 26.3807 10.0775C26.5925 9.70274 26.8101 9.33146 27.0279 8.96016C27.5157 8.12578 27.9987 7.28873 28.4811 6.45126C28.6622 6.13702 28.8434 5.82289 29.0247 5.50877C29.1142 5.35362 29.2037 5.19845 29.2932 5.04328C29.505 4.6761 29.7169 4.30899 29.9291 3.9421C30.0295 3.76865 30.1297 3.59517 30.23 3.42168C30.3009 3.29913 30.3718 3.17664 30.4428 3.05414C30.4856 2.97999 30.5285 2.90584 30.5726 2.82944C30.6104 2.7642 30.6481 2.69895 30.687 2.63173C30.7727 2.47939 30.8521 2.32353 30.9303 2.16719C28.474 2.16719 26.0177 2.16719 23.4869 2.16719ZM6.73034 9.18599C6.60822 9.49807 6.60137 9.78592 6.64904 10.1164C6.80535 10.4348 6.96677 10.6366 7.29943 10.7668C7.66388 10.8163 7.93759 10.8083 8.2705 10.6449C8.51324 10.4258 8.65033 10.2796 8.69534 9.94789C8.71454 9.53471 8.6702 9.27795 8.38341 8.96016C8.10612 8.71549 7.83174 8.7063 7.47558 8.71796C7.13862 8.76656 6.9488 8.9384 6.73034 9.18599Z" fill="#83620C"/>
<path d="M23.27 8.67246C23.6035 8.83046 23.7562 8.99736 23.9204 9.32285C23.9803 9.72378 23.9727 10.0796 23.7984 10.4475C23.5742 10.6838 23.3868 10.823 23.0602 10.8718C22.6159 10.8723 22.3079 10.8727 21.9692 10.5514C21.6881 10.1581 21.6953 9.79124 21.7524 9.32285C22.0675 8.65758 22.5944 8.59007 23.27 8.67246Z" fill="#83620C"/>
</g>
<defs>
<clipPath id="clip0_6250_2421">
<rect width="37" height="37" fill="white"/>
</clipPath>
</defs>
</svg>
