<svg width="37" height="37" viewBox="0 0 37 37" fill="none" xmlns="http://www.w3.org/2000/svg">
<g clip-path="url(#clip0_6250_2411)">
<path d="M7.9722 -0.028223C8.08692 -0.0291379 8.08692 -0.0291379 8.20395 -0.0300713C8.28751 -0.0296369 8.37108 -0.0292026 8.45718 -0.0287551C8.54631 -0.0291443 8.63543 -0.0295335 8.72725 -0.0299345C8.97444 -0.0307898 9.2216 -0.0306721 9.46878 -0.0301393C9.73544 -0.0297977 10.0021 -0.030701 10.2687 -0.0314413C10.7911 -0.0326846 11.3134 -0.0327439 11.8357 -0.0323654C12.2602 -0.0320734 12.6847 -0.0321774 13.1092 -0.032564C13.1998 -0.0326451 13.1998 -0.0326451 13.2922 -0.0327279C13.4149 -0.0328385 13.5376 -0.0329497 13.6603 -0.0330614C14.8111 -0.0340536 15.9619 -0.03366 17.1127 -0.0328312C18.1657 -0.0321133 19.2187 -0.0330486 20.2717 -0.0347776C21.3527 -0.0365393 22.4338 -0.0372348 23.5148 -0.0367539C24.1218 -0.0365013 24.7288 -0.0366642 25.3358 -0.0379283C25.8525 -0.0389909 26.3692 -0.0390396 26.8859 -0.0377786C27.1496 -0.0371624 27.4132 -0.0370111 27.6769 -0.0381147C27.9626 -0.0392961 28.2483 -0.0382399 28.5341 -0.0369591C28.6175 -0.0376532 28.7009 -0.0383474 28.7868 -0.0390625C29.2342 -0.0349239 29.5075 -0.0151366 29.8459 0.288323C30.0759 0.574554 30.0893 0.800069 30.0873 1.16167C30.0874 1.21177 30.0874 1.26186 30.0874 1.31348C30.0873 1.47811 30.0856 1.64269 30.0839 1.80731C30.0835 1.92183 30.0832 2.03635 30.083 2.15087C30.0821 2.45157 30.08 2.75224 30.0776 3.05293C30.0754 3.36005 30.0744 3.66717 30.0733 3.97429C30.071 4.57638 30.0673 5.17844 30.0627 5.78051C30.1238 5.77955 30.1238 5.77955 30.186 5.77857C30.6104 5.77216 31.0348 5.76781 31.4592 5.76463C31.6174 5.76318 31.7757 5.76121 31.934 5.7587C32.1618 5.75519 32.3896 5.75356 32.6174 5.75228C32.6879 5.75079 32.7584 5.7493 32.831 5.74776C33.2432 5.74763 33.5129 5.76735 33.8205 6.06957C33.9699 6.2979 34.0737 6.54222 34.1819 6.79223C34.2276 6.89577 34.2733 6.99931 34.3191 7.10284C34.6516 7.86114 34.9698 8.62553 35.2857 9.3909C35.4459 9.77896 35.6079 10.166 35.7746 10.5514C36.7521 12.8164 37.5156 15.0563 36.6389 17.4875C36.2864 18.2815 35.6309 19.1839 34.8323 19.5832C34.8321 19.7123 34.8321 19.7123 34.8319 19.8439C34.8294 21.8855 34.8253 23.927 34.8194 25.9686C34.8187 26.2199 34.818 26.4712 34.8173 26.7225C34.8171 26.7975 34.8171 26.7975 34.8168 26.8741C34.8146 27.6841 34.8134 28.4941 34.8125 29.3041C34.8116 30.1353 34.8096 30.9664 34.8066 31.7976C34.805 32.2644 34.8039 32.7313 34.8039 33.1981C34.804 33.6374 34.8027 34.0767 34.8004 34.5159C34.7998 34.6773 34.7996 34.8386 34.8 34.9999C34.8005 35.2201 34.7992 35.4401 34.7975 35.6602C34.7983 35.7562 34.7983 35.7562 34.7992 35.8541C34.7937 36.2449 34.7389 36.4778 34.4709 36.7825C34.172 37.0068 33.9485 37.0265 33.5788 37.0267C33.5258 37.0271 33.4728 37.0274 33.4182 37.0278C33.2401 37.0286 33.062 37.028 32.8839 37.0273C32.7551 37.0276 32.6263 37.028 32.4976 37.0285C32.1433 37.0295 31.789 37.0292 31.4347 37.0287C31.0528 37.0283 30.6708 37.0292 30.2889 37.03C29.5405 37.0312 28.7922 37.0313 28.0438 37.0309C27.4357 37.0306 26.8275 37.0307 26.2194 37.0311C26.0897 37.0312 26.0897 37.0312 25.9574 37.0313C25.7817 37.0314 25.6061 37.0315 25.4304 37.0316C23.7823 37.0326 22.1342 37.0322 20.4861 37.0314C18.9775 37.0306 17.4689 37.0316 15.9603 37.0333C14.4121 37.0351 12.864 37.0358 11.3158 37.0353C10.4463 37.035 9.57677 37.0352 8.70724 37.0365C7.96704 37.0375 7.22685 37.0376 6.48665 37.0363C6.10884 37.0357 5.73105 37.0355 5.35324 37.0366C5.00755 37.0376 4.66189 37.0373 4.3162 37.0359C4.19098 37.0356 4.06576 37.0358 3.94054 37.0366C3.77058 37.0375 3.60071 37.0367 3.43075 37.0354C3.28904 37.0354 3.28904 37.0354 3.14446 37.0354C2.78392 36.984 2.55805 36.8279 2.32332 36.5538C2.20365 36.2578 2.21185 35.9882 2.21554 35.6718C2.21547 35.6034 2.21539 35.5349 2.21532 35.4644C2.21532 35.2348 2.21687 35.0053 2.21839 34.7757C2.21869 34.6112 2.21888 34.4466 2.21897 34.2821C2.21935 33.9277 2.22036 33.5734 2.22183 33.219C2.22404 32.6588 2.22424 32.0986 2.22403 31.5383C2.22388 30.753 2.22406 29.9677 2.22499 29.1824C2.22508 29.1076 2.22508 29.1077 2.22517 29.0314C2.22616 28.2237 2.22856 27.4161 2.23128 26.6084C2.23403 25.7789 2.23453 24.9494 2.23322 24.1199C2.23245 23.5628 2.23423 23.0058 2.23787 22.4488C2.23952 22.1024 2.23876 21.756 2.23731 21.4096C2.23712 21.2488 2.23792 21.0881 2.23979 20.9273C2.24219 20.7079 2.24104 20.4888 2.239 20.2694C2.24055 20.2057 2.2421 20.142 2.2437 20.0763C2.23795 19.8089 2.23034 19.6484 2.04104 19.4499C1.89501 19.3398 1.74655 19.244 1.59007 19.1497C0.613514 18.3338 0.135255 17.2065 0.0141476 15.959C-0.152699 13.7856 0.578673 12.0358 1.42492 10.068C1.56859 9.73101 1.70774 9.3922 1.84677 9.05324C2.01368 8.64654 2.18254 8.24066 2.35197 7.835C2.39973 7.72042 2.39973 7.72042 2.44847 7.60353C2.53873 7.38833 2.6303 7.17374 2.72238 6.95931C2.74879 6.89611 2.77519 6.83291 2.8024 6.7678C2.99357 6.32839 3.20863 6.05043 3.61351 5.78051C3.76578 5.76313 3.76578 5.76313 3.94327 5.7641C4.04308 5.76412 4.04308 5.76412 4.1449 5.76414C4.25229 5.76525 4.25229 5.76525 4.36185 5.7664C4.47207 5.7667 4.47207 5.7667 4.58451 5.76702C4.81941 5.76783 5.05428 5.76964 5.28917 5.77148C5.44833 5.7722 5.60749 5.77286 5.76666 5.77345C6.15702 5.77505 6.54737 5.77747 6.93773 5.78051C6.93709 5.71719 6.93644 5.65388 6.93578 5.58864C6.92998 4.99111 6.92559 4.39359 6.92275 3.79603C6.92124 3.48884 6.9192 3.18168 6.91592 2.8745C6.91277 2.5779 6.91105 2.28132 6.9103 1.9847C6.90977 1.8717 6.90873 1.7587 6.90717 1.64571C6.90506 1.48707 6.90478 1.32852 6.90491 1.16987C6.90427 1.07969 6.90363 0.9895 6.90297 0.89658C6.94515 0.596942 7.03375 0.447417 7.22679 0.216058C7.48325 0.0332135 7.65855 -0.0278692 7.9722 -0.028223ZM9.1057 2.16723C9.1057 4.31352 9.1057 6.45981 9.1057 8.67114C15.3061 8.67114 21.5065 8.67114 27.8948 8.67114C27.8948 6.52485 27.8948 4.37856 27.8948 2.16723C21.6944 2.16723 15.494 2.16723 9.1057 2.16723ZM4.84202 7.94848C4.66691 8.29872 4.50515 8.62797 4.36094 8.98797C4.32623 9.07427 4.29153 9.16057 4.25578 9.24948C4.21895 9.3418 4.18214 9.43413 4.14534 9.52647C4.10688 9.62251 4.06841 9.71855 4.02992 9.81459C3.94984 10.0146 3.86993 10.2147 3.79015 10.4148C3.68778 10.6715 3.58496 10.9281 3.48201 11.1846C3.40273 11.3823 3.32368 11.5801 3.24471 11.7779C3.20686 11.8726 3.16895 11.9673 3.13095 12.0619C3.07813 12.1936 3.02566 12.3254 2.97321 12.4573C2.94327 12.5322 2.91333 12.6072 2.88249 12.6844C2.81045 12.8537 2.81045 12.8537 2.81859 13.0071C13.1685 13.0071 23.5184 13.0071 34.1819 13.0071C34.0548 12.6257 33.9307 12.2573 33.7824 11.886C33.7479 11.7994 33.7135 11.7129 33.6779 11.6238C33.641 11.5316 33.604 11.4394 33.567 11.3472C33.5286 11.2511 33.4902 11.155 33.4518 11.0589C33.3719 10.8589 33.2918 10.659 33.2117 10.4591C33.1088 10.2025 33.0062 9.94576 32.9038 9.68899C32.8248 9.49118 32.7457 9.29344 32.6665 9.09572C32.6286 9.00101 32.5907 8.90627 32.5529 8.8115C32.5003 8.67982 32.4475 8.54823 32.3947 8.41665C32.3647 8.34175 32.3347 8.26684 32.3038 8.18967C32.2456 8.0268 32.2456 8.0268 32.1584 7.94848C32.0034 7.94214 31.8481 7.94075 31.6929 7.94142C31.5986 7.94166 31.5043 7.94189 31.4071 7.94213C31.3068 7.94273 31.2064 7.94334 31.1061 7.94396C31.0054 7.94433 30.9048 7.94465 30.8042 7.94495C30.557 7.94581 30.3099 7.947 30.0627 7.94848C30.0617 8.01445 30.0606 8.08042 30.0595 8.14839C30.0551 8.39421 30.0498 8.63998 30.0438 8.88576C30.0414 8.99194 30.0393 9.09813 30.0377 9.20432C30.0353 9.35738 30.0315 9.51035 30.0274 9.66338C30.0256 9.75534 30.0237 9.8473 30.0217 9.94205C29.988 10.2084 29.9402 10.3412 29.7737 10.55C29.5169 10.7321 29.3416 10.794 29.028 10.7941C28.9515 10.7947 28.875 10.7953 28.7962 10.7958C28.6707 10.7951 28.6707 10.7951 28.5428 10.7944C28.4536 10.7947 28.3644 10.795 28.2726 10.7954C28.0252 10.7961 27.7779 10.7959 27.5306 10.7952C27.2638 10.7947 26.997 10.7954 26.7302 10.796C26.2076 10.797 25.6851 10.7968 25.1625 10.7962C24.7378 10.7957 24.3131 10.7956 23.8884 10.7958C23.828 10.7959 23.7676 10.7959 23.7054 10.7959C23.5826 10.796 23.4599 10.7961 23.3372 10.7962C22.186 10.7968 21.0349 10.7961 19.8837 10.7949C18.8958 10.7939 17.9078 10.7941 16.9198 10.7951C15.7728 10.7963 14.6259 10.7967 13.4789 10.7961C13.3566 10.796 13.2343 10.7959 13.112 10.7958C13.0518 10.7958 12.9917 10.7958 12.9297 10.7957C12.5055 10.7956 12.0812 10.7959 11.657 10.7964C11.1401 10.797 10.6232 10.7968 10.1063 10.7957C9.84255 10.7951 9.57877 10.7949 9.31499 10.7956C9.02921 10.7964 8.74345 10.7955 8.45767 10.7944C8.37405 10.7949 8.29043 10.7953 8.20428 10.7958C8.12776 10.7953 8.05124 10.7947 7.97241 10.7941C7.90644 10.7941 7.84048 10.7941 7.77252 10.794C7.47484 10.7501 7.28384 10.6216 7.09812 10.3887C6.98736 10.1374 6.97866 9.93772 6.97301 9.66338C6.97172 9.61416 6.97042 9.56495 6.96908 9.51425C6.96519 9.35817 6.96273 9.20212 6.96031 9.04601C6.95791 8.93973 6.95542 8.83345 6.95283 8.72717C6.94653 8.4676 6.94218 8.20811 6.93773 7.94848C6.24615 7.94848 5.55456 7.94848 4.84202 7.94848ZM2.24046 15.175C2.30559 16.152 2.35964 16.7873 3.05797 17.4514C3.68179 17.9472 4.27094 18.0908 5.06182 18.0157C5.67443 17.9191 6.15334 17.552 6.53152 17.0779C6.97336 16.4423 6.95379 16.0181 7.00999 15.175C5.43605 15.175 3.8621 15.175 2.24046 15.175ZM9.17796 15.175C9.24309 16.152 9.29714 16.7873 9.99547 17.4514C10.6193 17.9472 11.2084 18.0908 11.9993 18.0157C12.6119 17.9191 13.0908 17.552 13.469 17.0779C13.9109 16.4423 13.8913 16.0181 13.9475 15.175C12.3735 15.175 10.7996 15.175 9.17796 15.175ZM16.1155 15.175C16.1806 16.152 16.2346 16.7873 16.933 17.4514C17.5568 17.9472 18.1459 18.0908 18.9368 18.0157C19.5494 17.9191 20.0283 17.552 20.4065 17.0779C20.8484 16.4423 20.8288 16.0181 20.885 15.175C19.311 15.175 17.7371 15.175 16.1155 15.175ZM23.053 15.175C23.1181 16.152 23.1721 16.7873 23.8705 17.4514C24.4943 17.9472 25.0834 18.0908 25.8743 18.0157C26.4869 17.9191 26.9658 17.552 27.344 17.0779C27.7859 16.4423 27.7663 16.0181 27.8225 15.175C26.2485 15.175 24.6746 15.175 23.053 15.175ZM29.9905 15.175C30.0556 16.152 30.1096 16.7873 30.808 17.4514C31.4318 17.9472 32.0209 18.0908 32.8118 18.0157C33.4244 17.9191 33.9033 17.552 34.2815 17.0779C34.7234 16.4423 34.7038 16.0181 34.76 15.175C33.1861 15.175 31.6121 15.175 29.9905 15.175ZM8.02171 18.7161C7.97672 18.7686 7.97672 18.7686 7.93082 18.8222C6.96896 19.8686 5.78869 20.135 4.40843 20.2336C4.40843 25.0509 4.40843 29.8681 4.40843 34.8313C5.12386 34.8313 5.83929 34.8313 6.5764 34.8313C6.57745 34.4807 6.57851 34.1302 6.57959 33.769C6.58323 32.6123 6.58803 31.4557 6.59343 30.2991C6.59668 29.5976 6.59953 28.8962 6.60143 28.1947C6.60309 27.5833 6.60551 26.972 6.60882 26.3607C6.61056 26.0369 6.61191 25.7132 6.61236 25.3894C6.6128 25.0847 6.61424 24.78 6.61645 24.4754C6.61709 24.3635 6.61736 24.2517 6.61723 24.1398C6.61711 23.9871 6.61832 23.8344 6.61985 23.6817C6.62018 23.5962 6.62052 23.5107 6.62086 23.4227C6.65234 23.1666 6.70623 23.0372 6.86546 22.8352C7.12272 22.6384 7.30922 22.5912 7.62995 22.5909C7.75031 22.59 7.75031 22.59 7.87309 22.589C8.00409 22.5897 8.00409 22.5897 8.13773 22.5903C8.23024 22.59 8.32276 22.5896 8.41807 22.5892C8.6713 22.5882 8.92451 22.5886 9.17774 22.5893C9.443 22.5898 9.70825 22.5893 9.9735 22.589C10.4189 22.5886 10.8643 22.5891 11.3097 22.5901C11.8244 22.5913 12.339 22.5909 12.8536 22.5897C13.2958 22.5888 13.738 22.5886 14.1802 22.5892C14.4442 22.5895 14.7081 22.5896 14.9721 22.5889C15.2664 22.5881 15.5606 22.5891 15.8549 22.5903C15.9422 22.5899 16.0296 22.5895 16.1195 22.589C16.1998 22.5896 16.28 22.5902 16.3627 22.5909C16.4322 22.591 16.5018 22.591 16.5734 22.5911C16.8848 22.6353 17.0629 22.7536 17.2564 22.9991C17.3633 23.24 17.3718 23.4182 17.3728 23.6817C17.3735 23.7532 17.3735 23.7532 17.3742 23.8262C17.3756 23.986 17.3754 24.1458 17.3752 24.3056C17.3759 24.4221 17.3766 24.5387 17.3775 24.6552C17.3795 24.967 17.3802 25.2789 17.3806 25.5908C17.3812 25.8835 17.3829 26.1762 17.3846 26.4689C17.3888 27.3248 17.3911 28.1806 17.3937 29.0365C17.4011 30.9488 17.4086 32.8611 17.4162 34.8313C22.4242 34.8313 27.4323 34.8313 32.592 34.8313C32.592 30.0141 32.592 25.1968 32.592 20.2336C32.0912 20.1979 32.0912 20.1979 31.5803 20.1614C30.659 19.9729 29.8628 19.5885 29.2018 18.9128C29.0464 18.7576 29.0464 18.7576 28.7619 18.7883C28.6526 18.879 28.6526 18.879 28.5542 19.0051C27.7977 19.8004 26.7086 20.1625 25.6353 20.1916C25.0177 20.1957 24.4235 20.1908 23.8479 19.9446C23.7666 19.9102 23.6852 19.8758 23.6014 19.8404C23.0787 19.6051 22.6658 19.3232 22.2642 18.9128C22.1089 18.7576 22.1089 18.7576 21.8244 18.7883C21.7151 18.879 21.7151 18.879 21.6167 19.0051C20.8601 19.8004 19.7711 20.1625 18.6978 20.1916C18.0802 20.1957 17.486 20.1908 16.9104 19.9446C16.8291 19.9102 16.7477 19.8758 16.6639 19.8404C16.1412 19.6051 15.7283 19.3232 15.3267 18.9128C15.1714 18.7576 15.1714 18.7576 14.8869 18.7883C14.7776 18.879 14.7776 18.879 14.6792 19.0051C13.9226 19.8004 12.8336 20.1625 11.7603 20.1916C11.1427 20.1957 10.5485 20.1908 9.97288 19.9446C9.89156 19.9102 9.81024 19.8758 9.72645 19.8404C9.20546 19.606 8.78824 19.3225 8.38219 18.9199C8.24122 18.7729 8.24122 18.7729 8.02171 18.7161ZM8.74437 24.7141C8.74437 28.0528 8.74437 31.3914 8.74437 34.8313C10.8907 34.8313 13.0369 34.8313 15.2483 34.8313C15.2483 31.4926 15.2483 28.1539 15.2483 24.7141C13.102 24.7141 10.9557 24.7141 8.74437 24.7141Z" fill="#83620C"/>
<path d="M20.6383 22.5182C20.7184 22.5175 20.7986 22.5167 20.8811 22.516C21.012 22.5165 21.012 22.5165 21.1454 22.517C21.2378 22.5165 21.3302 22.516 21.4254 22.5155C21.6784 22.5142 21.9313 22.5143 22.1842 22.5147C22.3956 22.5149 22.607 22.5145 22.8183 22.514C23.3171 22.513 23.8158 22.5131 24.3146 22.514C24.8287 22.5148 25.3427 22.5138 25.8568 22.5118C26.2986 22.5102 26.7404 22.5097 27.1823 22.5102C27.446 22.5104 27.7096 22.5102 27.9733 22.509C28.2674 22.5077 28.5615 22.5087 28.8556 22.5099C28.9862 22.5089 28.9862 22.5089 29.1194 22.5078C29.5618 22.5117 29.8719 22.5145 30.2083 22.8352C30.4873 23.1573 30.4563 23.5022 30.4543 23.9074C30.4548 23.9786 30.4553 24.0499 30.4558 24.1233C30.4571 24.3585 30.4568 24.5938 30.4564 24.829C30.4568 24.9928 30.4571 25.1565 30.4576 25.3202C30.4582 25.6632 30.458 26.0062 30.4573 26.3493C30.4565 26.7887 30.458 27.2281 30.4601 27.6676C30.4614 28.0056 30.4614 28.3437 30.461 28.6817C30.4609 28.8438 30.4614 29.0058 30.4623 29.1678C30.4634 29.3944 30.4626 29.6209 30.4613 29.8475C30.4624 29.9477 30.4624 29.9477 30.4635 30.05C30.4589 30.4494 30.4121 30.6909 30.136 31.0013C29.873 31.1888 29.6936 31.2453 29.372 31.2461C29.2919 31.2468 29.2118 31.2475 29.1292 31.2482C29.042 31.2479 28.9548 31.2476 28.8649 31.2473C28.7725 31.2478 28.6801 31.2483 28.5849 31.2488C28.332 31.2501 28.0791 31.25 27.8261 31.2496C27.6148 31.2493 27.4034 31.2498 27.192 31.2502C26.6933 31.2512 26.1945 31.2511 25.6957 31.2503C25.1817 31.2495 24.6676 31.2505 24.1535 31.2524C23.7117 31.254 23.2699 31.2545 22.8281 31.2541C22.5644 31.2538 22.3007 31.254 22.037 31.2552C21.7429 31.2566 21.4489 31.2556 21.1548 31.2543C21.0677 31.255 20.9806 31.2557 20.8909 31.2564C20.4486 31.2525 20.1384 31.2497 19.802 30.929C19.5231 30.607 19.5541 30.262 19.556 29.8569C19.5556 29.7856 19.5551 29.7144 19.5545 29.641C19.5532 29.4057 19.5535 29.1705 19.5539 28.9352C19.5536 28.7715 19.5532 28.6078 19.5528 28.4441C19.5521 28.101 19.5523 27.758 19.553 27.415C19.5538 26.9755 19.5524 26.5361 19.5503 26.0967C19.5489 25.7586 19.549 25.4206 19.5494 25.0825C19.5494 24.9205 19.549 24.7585 19.5481 24.5965C19.547 24.3699 19.5478 24.1433 19.549 23.9167C19.5483 23.8499 19.5476 23.7831 19.5469 23.7143C19.5514 23.3149 19.5983 23.0734 19.8743 22.763C20.1373 22.5754 20.3168 22.519 20.6383 22.5182ZM21.7532 24.7142C21.7532 26.145 21.7532 27.5759 21.7532 29.0501C23.8995 29.0501 26.0458 29.0501 28.2571 29.0501C28.2571 27.6192 28.2571 26.1884 28.2571 24.7142C26.1108 24.7142 23.9645 24.7142 21.7532 24.7142Z" fill="#83620C"/>
<path d="M12.4643 4.30718C12.5448 4.3066 12.5448 4.3066 12.627 4.306C12.8067 4.30497 12.9863 4.30548 13.1659 4.306C13.2948 4.30559 13.4238 4.30508 13.5527 4.3045C13.9027 4.3032 14.2526 4.30329 14.6026 4.3037C14.8948 4.30392 15.187 4.30348 15.4792 4.30304C16.1685 4.30203 16.8578 4.30214 17.5472 4.30296C18.2583 4.30379 18.9694 4.30278 19.6805 4.30084C20.2911 4.29924 20.9017 4.29876 21.5123 4.29918C21.8769 4.29943 22.2416 4.29925 22.6062 4.29801C22.9491 4.29689 23.292 4.29718 23.6349 4.29854C23.7607 4.2988 23.8865 4.29858 24.0123 4.29782C24.1841 4.29687 24.3559 4.2977 24.5277 4.29898C24.6022 4.29794 24.6022 4.29794 24.6783 4.29688C25.0342 4.30231 25.2352 4.4036 25.5104 4.62426C25.8035 5.00168 25.7831 5.39414 25.7272 5.85278C25.5698 6.18509 25.4042 6.34402 25.0768 6.50317C24.8908 6.52372 24.7226 6.5328 24.5369 6.53118C24.4564 6.53177 24.4564 6.53177 24.3742 6.53236C24.1945 6.53339 24.0149 6.53288 23.8353 6.53237C23.7064 6.53278 23.5774 6.53328 23.4485 6.53387C23.0985 6.53517 22.7486 6.53508 22.3986 6.53467C22.1064 6.53445 21.8142 6.53488 21.522 6.53532C20.8327 6.53634 20.1434 6.53622 19.454 6.5354C18.7429 6.53457 18.0318 6.53559 17.3207 6.53753C16.7101 6.53913 16.0995 6.53961 15.4889 6.53918C15.1243 6.53894 14.7596 6.53911 14.395 6.54036C14.0521 6.54147 13.7092 6.54119 13.3663 6.53983C13.2405 6.53956 13.1147 6.53979 12.9889 6.54054C12.8171 6.5415 12.6453 6.54066 12.4735 6.53939C12.4238 6.54008 12.3741 6.54078 12.323 6.54149C11.967 6.53606 11.766 6.43476 11.4908 6.2141C11.1977 5.83669 11.2181 5.44423 11.274 4.98559C11.5301 4.44506 11.8907 4.30218 12.4643 4.30718Z" fill="#83620C"/>
<path d="M13.1515 27.6039C13.484 27.7614 13.6419 27.9272 13.8019 28.2543C13.841 28.584 13.8361 28.914 13.8341 29.2457C13.8335 29.4053 13.8356 29.5647 13.8379 29.7243C13.838 29.8266 13.8379 29.9289 13.8377 30.0313C13.8379 30.1697 13.8379 30.1697 13.8381 30.311C13.7861 30.6783 13.632 30.9078 13.3409 31.1339C12.9977 31.2848 12.6512 31.2619 12.2843 31.2171C11.9517 31.0596 11.7939 30.8939 11.6339 30.5668C11.5948 30.237 11.5997 29.907 11.6017 29.5753C11.6023 29.4157 11.6002 29.2563 11.5979 29.0967C11.5978 28.9944 11.5978 28.8921 11.5981 28.7898C11.5979 28.6974 11.5978 28.6051 11.5977 28.51C11.6497 28.1427 11.8038 27.9133 12.0949 27.6871C12.4381 27.5362 12.7846 27.5591 13.1515 27.6039Z" fill="#83620C"/>
</g>
<defs>
<clipPath id="clip0_6250_2411">
<rect width="37" height="37" fill="white"/>
</clipPath>
</defs>
</svg>
