<svg width="20" height="19" viewBox="0 0 20 19" fill="none" xmlns="http://www.w3.org/2000/svg">
<g clip-path="url(#clip0_6250_2208)">
<path d="M17.5699 9.40543C17.5726 9.17218 17.5117 8.9426 17.3937 8.74139C17.2757 8.54017 17.105 8.37494 16.9001 8.26345L7.14796 2.90462C6.93787 2.78492 6.69807 2.72745 6.45655 2.73892C6.21503 2.75039 5.98176 2.83032 5.78396 2.9694C5.36528 3.25478 5.15078 3.93584 5.26812 4.4268L6.17823 8.24139C6.22361 8.4315 6.33198 8.60066 6.48573 8.72134C6.63947 8.84202 6.82953 8.90711 7.02498 8.90602L12.4519 8.88912C12.5176 8.88772 12.5829 8.89963 12.6439 8.92413C12.7049 8.94864 12.7603 8.98523 12.8068 9.03172C12.8533 9.0782 12.8899 9.13361 12.9144 9.19461C12.9389 9.25561 12.9508 9.32094 12.9494 9.38666C12.9485 9.65983 12.7265 9.88185 12.4486 9.88748L7.01653 9.90015C6.61381 9.90109 6.26178 10.178 6.16556 10.5699L5.22306 14.3991C5.10853 14.8516 5.23902 15.3031 5.55819 15.6223C5.59574 15.6598 5.63799 15.7021 5.6807 15.7354C6.09375 16.0546 6.6354 16.0949 7.0982 15.848L16.8837 10.5432C17.3038 10.3202 17.5643 9.88138 17.5704 9.4059L17.5699 9.40543Z" fill="#F3B921"/>
</g>
<defs>
<clipPath id="clip0_6250_2208">
<rect width="15.931" height="15.931" fill="white" transform="translate(3.66797 0.00976562) rotate(10.8584)"/>
</clipPath>
</defs>
</svg>
