<svg width="42" height="38" viewBox="0 0 42 38" fill="none" xmlns="http://www.w3.org/2000/svg">
<path fill-rule="evenodd" clip-rule="evenodd" d="M19.8921 13.6478C19.8921 13.1552 20.2914 12.7559 20.784 12.7559H32.6759C33.1685 12.7559 33.5678 13.1552 33.5678 13.6478C33.5678 14.1403 33.1685 14.5396 32.6759 14.5396H20.784C20.2914 14.5396 19.8921 14.1403 19.8921 13.6478Z" fill="#2B2D2C"/>
<path fill-rule="evenodd" clip-rule="evenodd" d="M8 13.6478C8 13.1552 8.39931 12.7559 8.89189 12.7559H11.2703C11.7628 12.7559 12.1622 13.1552 12.1622 13.6478C12.1622 14.1403 11.7628 14.5396 11.2703 14.5396H8.89189C8.39931 14.5396 8 14.1403 8 13.6478Z" fill="#2B2D2C"/>
<path fill-rule="evenodd" clip-rule="evenodd" d="M29.4053 24.3509C29.4053 23.8583 29.8046 23.459 30.2972 23.459H32.6755C33.1681 23.459 33.5674 23.8583 33.5674 24.3509C33.5674 24.8435 33.1681 25.2428 32.6755 25.2428H30.2972C29.8046 25.2428 29.4053 24.8435 29.4053 24.3509Z" fill="#2B2D2C"/>
<path fill-rule="evenodd" clip-rule="evenodd" d="M8 24.3509C8 23.8583 8.39931 23.459 8.89189 23.459H20.7838C21.2764 23.459 21.6757 23.8583 21.6757 24.3509C21.6757 24.8435 21.2764 25.2428 20.7838 25.2428H8.89189C8.39931 25.2428 8 24.8435 8 24.3509Z" fill="#2B2D2C"/>
<path fill-rule="evenodd" clip-rule="evenodd" d="M10.3784 13.6486C10.3784 10.529 12.9074 8 16.0271 8C19.1467 8 21.6757 10.529 21.6757 13.6486C21.6757 16.7683 19.1467 19.2973 16.0271 19.2973C12.9074 19.2973 10.3784 16.7682 10.3784 13.6486ZM16.0271 9.78378C13.8926 9.78378 12.1622 11.5141 12.1622 13.6486C12.1622 15.7831 13.8926 17.5135 16.0271 17.5135C18.1615 17.5135 19.8919 15.7831 19.8919 13.6486C19.8919 11.5141 18.1615 9.78378 16.0271 9.78378Z" fill="#2B2D2C"/>
<path fill-rule="evenodd" clip-rule="evenodd" d="M19.8921 24.3518C19.8921 21.2322 22.4211 18.7031 25.5407 18.7031C28.6604 18.7031 31.1894 21.2322 31.1894 24.3518C31.1894 27.4714 28.6604 30.0004 25.5407 30.0004C22.4211 30.0004 19.8921 27.4714 19.8921 24.3518ZM25.5407 20.4869C23.4063 20.4869 21.6759 22.2173 21.6759 24.3518C21.6759 26.4862 23.4063 28.2166 25.5407 28.2166C27.6752 28.2166 29.4056 26.4862 29.4056 24.3518C29.4056 22.2173 27.6752 20.4869 25.5407 20.4869Z" fill="#2B2D2C"/>
</svg>
