<svg width="34" height="37" viewBox="0 0 34 37" fill="none" xmlns="http://www.w3.org/2000/svg">
<g clip-path="url(#clip0_5252_7202)">
<path d="M24.6523 13.8848C24.6523 13.9602 24.6501 14.0349 24.6456 14.1091C24.5744 14.0467 24.4994 13.9879 24.4212 13.9333C23.9778 13.6231 23.4479 13.4566 22.905 13.4566C22.6308 13.4566 22.3599 13.4991 22.1018 13.581V6.30757C22.1018 5.61082 21.5309 5.04599 20.8266 5.04599H6.37399C5.66971 5.04599 5.09876 5.61082 5.09876 6.30757V13.8848C5.09876 14.5816 5.66971 15.1464 6.37399 15.1464H20.4447L20.4291 15.1891L20.4221 15.2088L19.6564 17.5374L19.6415 17.5818C19.6313 17.6112 19.6206 17.6405 19.6093 17.6696H6.37399C4.26113 17.6696 2.54832 15.975 2.54832 13.8848V6.30757C2.54832 4.21731 4.26113 2.52282 6.37399 2.52282L12.3243 2.52198L12.3256 1.26207C12.3256 0.623375 12.8053 0.0955445 13.4277 0.0119939L13.6008 0.000488281C14.2464 0.000488281 14.78 0.475097 14.8643 1.09088L14.8761 1.26207L14.8747 2.52198L20.8266 2.52282C22.9394 2.52282 24.6523 4.21731 24.6523 6.30757V13.8848ZM15.3727 20.2464L15.5642 20.1849H3.82958C1.71672 20.1849 0.00390625 21.8794 0.00390625 23.9696V25.4958C0.00390625 27.334 0.814353 29.0807 2.22325 30.279C4.8806 32.5393 8.68726 33.6438 13.6003 33.6438C17.13 33.6438 20.0899 33.0735 22.4636 31.9146C22.0957 31.8456 21.7448 31.6993 21.4358 31.4831C20.9922 31.1729 20.6569 30.7342 20.476 30.2272L20.4689 30.2076L20.4172 30.0499C18.5722 30.7596 16.3033 31.1206 13.6003 31.1206C9.24887 31.1206 6.02509 30.1852 3.88596 28.3658C3.04062 27.6467 2.55435 26.5988 2.55435 25.4958V23.9696C2.55435 23.2729 3.12528 22.708 3.82958 22.708H13.6003V22.7025C13.6003 22.1647 13.769 21.6406 14.083 21.2019C14.3969 20.7633 14.8407 20.432 15.3528 20.2533L15.3727 20.2464ZM11.8975 9.6706C11.8975 8.51001 10.9465 7.56916 9.77338 7.56916C8.60024 7.56916 7.64921 8.51001 7.64921 9.6706C7.64921 10.8312 8.60024 11.7721 9.77338 11.7721C10.9465 11.7721 11.8975 10.8312 11.8975 9.6706ZM17.4124 7.56916C18.5856 7.56916 19.5366 8.51001 19.5366 9.6706C19.5366 10.8312 18.5856 11.7721 17.4124 11.7721C16.2392 11.7721 15.2882 10.8312 15.2882 9.6706C15.2882 8.51001 16.2392 7.56916 17.4124 7.56916ZM20.5515 25.9249C20.4286 25.7678 20.2956 25.6179 20.1529 25.4764C19.6223 24.9498 18.9743 24.553 18.2607 24.3176L15.918 23.5651C15.7374 23.5021 15.5812 23.3852 15.4705 23.2308C15.36 23.0762 15.3006 22.8917 15.3006 22.7025C15.3006 22.5131 15.36 22.3285 15.4705 22.174C15.5812 22.0195 15.7374 21.9028 15.918 21.8397L18.2607 21.0871C18.9643 20.8469 19.602 20.4493 20.1244 19.925C20.6322 19.415 21.0174 18.7988 21.2517 18.1222L21.2711 18.0649L22.0324 15.7491C22.096 15.5707 22.2142 15.4161 22.3705 15.3067C22.5269 15.1974 22.7136 15.1387 22.905 15.1387C23.0965 15.1387 23.2834 15.1974 23.4396 15.3067C23.5959 15.4161 23.714 15.5707 23.7776 15.7491L24.539 18.0649C24.7759 18.769 25.1754 19.4087 25.7061 19.9334C26.2368 20.458 26.8841 20.853 27.5962 21.0871L29.9388 21.8397L29.9858 21.8513C30.1663 21.9142 30.3226 22.0311 30.4333 22.1856C30.5438 22.3401 30.6033 22.5247 30.6033 22.7139C30.6033 22.9033 30.5438 23.0878 30.4333 23.2424C30.3226 23.3969 30.1663 23.5136 29.9858 23.5767L27.6431 24.3292C26.9308 24.5634 26.2837 24.9584 25.753 25.483C25.2222 26.0077 24.8226 26.6474 24.586 27.3515L23.8246 29.6673C23.8178 29.6866 23.8101 29.7054 23.8021 29.7241C23.735 29.8785 23.6258 30.0121 23.4864 30.1097C23.3301 30.219 23.1434 30.2777 22.952 30.2777C22.7605 30.2777 22.5737 30.219 22.4174 30.1097C22.2611 30.0003 22.143 29.8457 22.0792 29.6673L21.318 27.3515C21.1459 26.8349 20.8863 26.3527 20.5515 25.9249ZM33.6348 32.3184L32.3334 31.9003C31.9375 31.7702 31.5781 31.5507 31.2833 31.2594C30.9884 30.9679 30.7664 30.6124 30.6349 30.2214L30.2119 28.9347C30.1765 28.8356 30.1109 28.7497 30.024 28.6889C29.9371 28.6282 29.8334 28.5956 29.7271 28.5956C29.6207 28.5956 29.517 28.6282 29.4301 28.6889C29.3432 28.7497 29.2776 28.8356 29.2422 28.9347L28.8194 30.2214C28.6903 30.6098 28.4723 30.9633 28.1823 31.2547C27.892 31.5458 27.5377 31.7669 27.1469 31.9003L25.8454 32.3184C25.745 32.3534 25.6582 32.4182 25.5968 32.5042C25.5354 32.5899 25.5024 32.6925 25.5024 32.7977C25.5024 32.9028 25.5354 33.0054 25.5968 33.0912C25.6582 33.177 25.745 33.2419 25.8454 33.2769L27.1469 33.6951C27.5433 33.8258 27.9032 34.0461 28.1981 34.3388C28.4931 34.6314 28.7146 34.9881 28.8454 35.3804L29.2682 36.667C29.3038 36.7661 29.3694 36.8521 29.4561 36.9128C29.543 36.9735 29.6467 37.0062 29.7532 37.0062C29.8594 37.0062 29.9631 36.9735 30.05 36.9128C30.1369 36.8521 30.2025 36.7661 30.2379 36.667L30.6609 35.3804C30.7924 34.9893 31.0144 34.6339 31.3093 34.3424C31.6041 34.051 31.9637 33.8315 32.3594 33.7015L33.6608 33.2833C33.7611 33.2483 33.848 33.1836 33.9094 33.0976C33.9709 33.0118 34.0039 32.9092 34.0039 32.8041C34.0039 32.6989 33.9709 32.5963 33.9094 32.5105C33.848 32.4248 33.7611 32.3598 33.6608 32.3248L33.6348 32.3184Z" fill="#B78A16"/>
</g>
<defs>
<clipPath id="clip0_5252_7202">
<rect width="34" height="37" fill="white"/>
</clipPath>
</defs>
</svg>
