<svg width="37" height="37" viewBox="0 0 37 37" fill="none" xmlns="http://www.w3.org/2000/svg">
<g clip-path="url(#clip0_5252_7708)">
<path d="M4.68506 22.5177C4.79193 22.517 4.79193 22.517 4.90097 22.5162C5.13624 22.5149 5.37147 22.5152 5.60674 22.5156C5.77045 22.5153 5.93416 22.5149 6.09786 22.5144C6.44091 22.5138 6.78394 22.514 7.12699 22.5147C7.56643 22.5155 8.00583 22.5141 8.44526 22.5119C8.78333 22.5106 9.12138 22.5106 9.45944 22.5111C9.62145 22.5111 9.78346 22.5106 9.94547 22.5097C10.1721 22.5087 10.3986 22.5094 10.6252 22.5107C10.692 22.51 10.7588 22.5093 10.8277 22.5085C11.2271 22.5131 11.4686 22.5599 11.779 22.836C12.0213 23.1301 12.0257 23.409 12.0204 23.7757C12.0204 23.8328 12.0204 23.89 12.0205 23.9488C12.0203 24.1369 12.0186 24.325 12.0169 24.5131C12.0165 24.6438 12.0162 24.7745 12.016 24.9052C12.0152 25.2487 12.013 25.5921 12.0106 25.9356C12.0084 26.2863 12.0074 26.637 12.0063 26.9877C12.004 27.6754 12.0002 28.3631 11.9958 29.0508C12.7112 29.0508 13.4266 29.0508 14.1637 29.0508C14.1622 28.8758 14.1607 28.7007 14.1591 28.5204C14.1543 27.9415 14.1512 27.3626 14.1488 26.7837C14.1472 26.4327 14.1452 26.0818 14.1419 25.7309C14.1388 25.3921 14.1371 25.0534 14.1363 24.7146C14.1358 24.5855 14.1347 24.4563 14.1332 24.3272C14.1311 24.1461 14.1308 23.965 14.1309 23.7839C14.1299 23.7307 14.1288 23.6775 14.1278 23.6227C14.1307 23.2535 14.2141 23.0438 14.4528 22.7637C14.7748 22.4847 15.1198 22.5158 15.5249 22.5177C15.6318 22.517 15.6318 22.517 15.7408 22.5162C15.9761 22.5149 16.2113 22.5152 16.4466 22.5156C16.6103 22.5153 16.774 22.5149 16.9377 22.5144C17.2808 22.5138 17.6238 22.514 17.9668 22.5147C18.4063 22.5155 18.8457 22.5141 19.2851 22.5119C19.6232 22.5106 19.9612 22.5106 20.2993 22.5111C20.4613 22.5111 20.6233 22.5106 20.7853 22.5097C21.0119 22.5087 21.2385 22.5094 21.4651 22.5107C21.5653 22.5096 21.5653 22.5096 21.6675 22.5085C22.0669 22.5131 22.3084 22.5599 22.6188 22.836C22.8611 23.1301 22.8656 23.409 22.8602 23.7757C22.8602 23.8328 22.8603 23.89 22.8603 23.9488C22.8602 24.1369 22.8585 24.325 22.8568 24.5131C22.8564 24.6438 22.8561 24.7745 22.8558 24.9052C22.855 25.2487 22.8529 25.5921 22.8505 25.9356C22.8483 26.2863 22.8473 26.637 22.8462 26.9877C22.8439 27.6754 22.8401 28.3631 22.8356 29.0508C23.551 29.0508 24.2665 29.0508 25.0036 29.0508C25.0021 28.8758 25.0005 28.7007 24.999 28.5204C24.9942 27.9415 24.991 27.3626 24.9886 26.7837C24.9871 26.4327 24.985 26.0818 24.9818 25.7309C24.9786 25.3921 24.9769 25.0534 24.9761 24.7146C24.9756 24.5855 24.9746 24.4563 24.973 24.3272C24.9709 24.1461 24.9706 23.965 24.9708 23.7839C24.9697 23.7307 24.9687 23.6775 24.9676 23.6227C24.9705 23.2535 25.0539 23.0438 25.2926 22.7637C25.6147 22.4847 25.9596 22.5158 26.3647 22.5177C26.4716 22.517 26.4716 22.517 26.5807 22.5162C26.8159 22.5149 27.0512 22.5152 27.2864 22.5156C27.4501 22.5153 27.6138 22.5149 27.7776 22.5144C28.1206 22.5138 28.4636 22.514 28.8067 22.5147C29.2461 22.5155 29.6855 22.5141 30.125 22.5119C30.463 22.5106 30.8011 22.5106 31.1391 22.5111C31.3011 22.5111 31.4632 22.5106 31.6252 22.5097C31.8518 22.5087 32.0783 22.5094 32.3049 22.5107C32.4051 22.5096 32.4051 22.5096 32.5073 22.5085C32.9067 22.5131 33.1483 22.5599 33.4586 22.836C33.6995 23.1292 33.7074 23.41 33.7067 23.7757C33.7074 23.8328 33.7082 23.89 33.7089 23.9488C33.7111 24.1369 33.7118 24.325 33.7124 24.5131C33.7136 24.6438 33.715 24.7745 33.7164 24.9052C33.7198 25.2487 33.7219 25.5921 33.7238 25.9356C33.726 26.2863 33.7294 26.637 33.7326 26.9877C33.7388 27.6754 33.7437 28.3631 33.7477 29.0508C33.8074 29.0703 33.8671 29.0899 33.9286 29.11C34.0068 29.1358 34.085 29.1615 34.1656 29.1881C34.2432 29.2136 34.3207 29.2391 34.4006 29.2653C35.4535 29.6317 36.1654 30.3879 36.6491 31.3669C36.8869 31.912 36.9656 32.4246 36.959 33.0164C36.9584 33.0862 36.9578 33.156 36.9572 33.2279C36.9447 33.758 36.8763 34.2081 36.6383 34.6875C36.6024 34.7607 36.5664 34.8338 36.5294 34.9091C36.0064 35.8809 35.2095 36.5347 34.1697 36.8977C33.6261 37.0558 33.0695 37.0303 32.5089 37.0281C32.3831 37.0284 32.2573 37.0288 32.1315 37.0292C31.7871 37.0303 31.4427 37.03 31.0983 37.0294C30.7264 37.0291 30.3545 37.03 29.9825 37.0307C29.2544 37.032 28.5263 37.032 27.7981 37.0317C27.2062 37.0314 26.6143 37.0315 26.0224 37.0319C25.9381 37.0319 25.8538 37.032 25.7669 37.032C25.5957 37.0321 25.4244 37.0323 25.2532 37.0324C23.6478 37.0334 22.0424 37.033 20.4371 37.0321C18.9689 37.0314 17.5008 37.0324 16.0327 37.0341C14.5246 37.0358 13.0164 37.0365 11.5083 37.0361C10.6618 37.0358 9.81541 37.036 8.96897 37.0372C8.24842 37.0383 7.52787 37.0383 6.80732 37.0371C6.43985 37.0365 6.07239 37.0363 5.70491 37.0374C5.36818 37.0384 5.03147 37.0381 4.69473 37.0367C4.57326 37.0364 4.45178 37.0366 4.33031 37.0374C3.12253 37.0443 2.08306 36.7505 1.17398 35.9115C0.421369 35.1097 0.0281082 34.13 0.0403148 33.0345C0.0409145 32.9647 0.0415142 32.8949 0.0421321 32.8229C0.0546671 32.2929 0.123056 31.8427 0.360994 31.3633C0.396951 31.2902 0.432909 31.2171 0.469957 31.1417C0.959544 30.232 1.71847 29.5297 2.71331 29.208C2.77727 29.1893 2.84122 29.1707 2.9071 29.1514C2.97175 29.1324 3.03639 29.1134 3.103 29.0939C3.15204 29.0797 3.20109 29.0655 3.25162 29.0508C3.25188 28.9785 3.25215 28.9061 3.25242 28.8315C3.25509 28.1489 3.25926 27.4663 3.26491 26.7837C3.26776 26.4328 3.27009 26.0818 3.2712 25.7309C3.2723 25.3921 3.27479 25.0534 3.27823 24.7146C3.27931 24.5855 3.27988 24.4563 3.27994 24.3272C3.28011 24.1461 3.28207 23.965 3.28443 23.7839C3.28389 23.7041 3.28389 23.7041 3.28333 23.6227C3.29075 23.2549 3.37538 23.0432 3.61295 22.7637C3.93499 22.4847 4.27992 22.5158 4.68506 22.5177ZM5.49185 24.7149C5.49185 26.1457 5.49185 27.5766 5.49185 29.0508C6.92271 29.0508 8.35357 29.0508 9.82779 29.0508C9.82779 27.62 9.82779 26.1891 9.82779 24.7149C8.39693 24.7149 6.96607 24.7149 5.49185 24.7149ZM16.3317 24.7149C16.3317 26.1457 16.3317 27.5766 16.3317 29.0508C17.7626 29.0508 19.1934 29.0508 20.6676 29.0508C20.6676 27.62 20.6676 26.1891 20.6676 24.7149C19.2368 24.7149 17.8059 24.7149 16.3317 24.7149ZM27.1715 24.7149C27.1715 26.1457 27.1715 27.5766 27.1715 29.0508C28.6024 29.0508 30.0333 29.0508 31.5075 29.0508C31.5075 27.62 31.5075 26.1891 31.5075 24.7149C30.0766 24.7149 28.6458 24.7149 27.1715 24.7149ZM7.65982 31.2188C7.73136 31.4573 7.80291 31.6957 7.87662 31.9415C8.10116 32.8396 8.02129 33.842 7.65982 34.6875C7.65982 34.7352 7.65982 34.7829 7.65982 34.8321C10.0446 34.8321 12.4294 34.8321 14.8864 34.8321C14.8148 34.5936 14.7433 34.3551 14.6696 34.1094C14.445 33.2112 14.5249 32.2089 14.8864 31.3633C14.8864 31.3156 14.8864 31.2679 14.8864 31.2188C12.5016 31.2188 10.1169 31.2188 7.65982 31.2188ZM22.1129 31.2188C22.1845 31.4573 22.256 31.6957 22.3297 31.9415C22.5543 32.8396 22.4744 33.842 22.1129 34.6875C22.1129 34.7352 22.1129 34.7829 22.1129 34.8321C24.4977 34.8321 26.8825 34.8321 29.3395 34.8321C29.268 34.5936 29.1964 34.3551 29.1227 34.1094C28.8982 33.2112 28.978 32.2089 29.3395 31.3633C29.3395 31.3156 29.3395 31.2679 29.3395 31.2188C26.9547 31.2188 24.57 31.2188 22.1129 31.2188ZM2.68253 31.8647C2.29891 32.4175 2.23312 32.8661 2.31217 33.5313C2.4904 34.0645 2.82832 34.3822 3.30723 34.6585C3.76579 34.8575 4.29311 34.8513 4.76355 34.6853C5.26009 34.4144 5.53225 34.0286 5.78092 33.5313C5.83984 32.8975 5.83163 32.3764 5.41959 31.8692C5.11721 31.5473 4.7514 31.3191 4.31161 31.2572C3.63248 31.2511 3.14671 31.3457 2.68253 31.8647ZM17.1357 31.8647C16.752 32.4175 16.6862 32.8661 16.7653 33.5313C16.9435 34.0645 17.2814 34.3822 17.7604 34.6585C18.2189 34.8575 18.7462 34.8513 19.2167 34.6853C19.7132 34.4144 19.9854 34.0286 20.234 33.5313C20.293 32.8975 20.2848 32.3764 19.8727 31.8692C19.5703 31.5473 19.2045 31.3191 18.7647 31.2572C18.0856 31.2511 17.5998 31.3457 17.1357 31.8647ZM31.5888 31.8647C31.2052 32.4175 31.1394 32.8661 31.2184 33.5313C31.3967 34.0645 31.7346 34.3822 32.2135 34.6585C32.672 34.8575 33.1994 34.8513 33.6698 34.6853C34.1663 34.4144 34.4385 34.0286 34.6872 33.5313C34.7461 32.8975 34.7379 32.3764 34.3258 31.8692C34.0235 31.5473 33.6576 31.3191 33.2179 31.2572C32.5387 31.2511 32.053 31.3457 31.5888 31.8647Z" fill="#83620C"/>
<path d="M1.25079 -0.0275265C1.31135 -0.0278632 1.37191 -0.0282 1.43431 -0.0285469C1.63816 -0.0294137 1.84198 -0.0287303 2.04583 -0.0280586C2.19308 -0.02836 2.34034 -0.0287558 2.48759 -0.029238C2.89297 -0.0302861 3.29834 -0.0299747 3.70371 -0.0294427C4.14062 -0.0291018 4.57751 -0.0300039 5.01441 -0.0307447C5.82109 -0.0319173 6.62777 -0.0320909 7.43445 -0.0317344C8.17967 -0.0314053 8.92489 -0.0314481 9.67011 -0.0318674C9.77002 -0.0319221 9.86992 -0.0319767 9.96982 -0.0320313C10.1204 -0.0321141 10.2709 -0.0321972 10.4214 -0.0322813C11.8213 -0.0330551 13.2212 -0.0333962 14.621 -0.0328254C14.6738 -0.032804 14.7266 -0.0327825 14.781 -0.0327604C15.2097 -0.0325834 15.6384 -0.0323947 16.067 -0.0322051C17.7394 -0.0314749 19.4117 -0.0320789 21.084 -0.0337584C22.9623 -0.0356417 24.8406 -0.0365712 26.7189 -0.0360573C26.9191 -0.0360056 27.1193 -0.0359568 27.3195 -0.0359099C27.3688 -0.0358976 27.4181 -0.0358853 27.4688 -0.0358727C28.2136 -0.0357061 28.9583 -0.0362833 29.7031 -0.0372317C30.5499 -0.0383081 31.3966 -0.0383447 32.2434 -0.037082C32.6757 -0.0364649 33.1079 -0.036317 33.5402 -0.0374182C33.9356 -0.0384131 34.331 -0.038082 34.7264 -0.0366782C34.8698 -0.0364047 35.0131 -0.0366228 35.1564 -0.0373728C35.3507 -0.038318 35.545 -0.0374934 35.7394 -0.0362167C35.7954 -0.0369141 35.8514 -0.0376115 35.9092 -0.0383301C36.283 -0.0332662 36.4947 0.0532842 36.7828 0.28902C37.076 0.666434 37.0556 1.05889 36.9996 1.51754C36.8434 1.8473 36.6791 2.01679 36.3492 2.16793C36.1383 2.16899 35.9442 2.15928 35.7355 2.13885C34.4692 2.00997 34.4692 2.00997 33.3101 2.39679C32.9483 2.8262 32.7524 3.33483 32.5544 3.85512C32.3807 4.28146 32.1422 4.66523 31.9049 5.05855C31.8143 5.21474 31.7241 5.37113 31.6342 5.52771C31.5895 5.60519 31.5448 5.68268 31.4987 5.76251C31.3622 5.99923 31.2258 6.23602 31.0894 6.47281C30.6133 7.29904 30.1352 8.124 29.6535 8.94699C29.3742 9.42524 29.0988 9.90561 28.8251 10.3871C27.3371 13.0044 27.3371 13.0044 26.6656 13.6582C26.6127 13.7134 26.5598 13.7686 26.5053 13.8256C25.5216 14.7945 24.1898 15.1985 22.8356 15.2119C21.3805 15.1975 19.9759 14.704 18.9332 13.6582C18.1491 12.8073 17.7709 11.9717 17.4879 10.8398C15.2701 10.8636 13.0522 10.8875 10.7672 10.9121C10.648 11.1505 10.5287 11.389 10.4059 11.6347C10.0013 12.2022 9.48237 12.6411 8.81603 12.8632C8.79218 13.2686 8.76833 13.6741 8.74376 14.0918C8.89719 14.1344 8.89719 14.1344 9.05372 14.1779C9.48178 14.3065 9.88182 14.4811 10.2884 14.6654C10.7994 14.8946 11.3109 15.121 11.828 15.3358C11.9202 15.3743 12.0124 15.4129 12.1046 15.4514C12.2817 15.5255 12.4591 15.5984 12.6369 15.6709C13.1703 15.8944 13.4797 16.0648 13.8024 16.5488C13.8217 16.6872 13.8217 16.6872 13.8234 16.8451C13.8243 16.9045 13.8252 16.9638 13.8261 17.025C13.8263 17.0889 13.8265 17.1528 13.8266 17.2187C13.8274 17.3177 13.8274 17.3177 13.8281 17.4188C13.8288 17.5585 13.8292 17.6983 13.8291 17.8381C13.8295 18.0513 13.8321 18.2643 13.8348 18.4775C13.8352 18.6134 13.8355 18.7494 13.8357 18.8853C13.8367 18.9488 13.8377 19.0122 13.8388 19.0776C13.8359 19.4749 13.7789 19.7029 13.5133 20.0175C13.1359 20.3107 12.7434 20.2903 12.2848 20.2343C11.9518 20.0766 11.7968 19.91 11.6344 19.5839C11.6098 19.3704 11.6098 19.3704 11.6132 19.1376C11.6139 19.054 11.6146 18.9704 11.6153 18.8843C11.6172 18.7977 11.619 18.7111 11.6208 18.6219C11.6218 18.5339 11.6228 18.4459 11.6238 18.3553C11.6264 18.1385 11.6299 17.9218 11.6344 17.705C11.5962 17.6932 11.5579 17.6814 11.5186 17.6692C11.0755 17.5273 10.6559 17.3499 10.232 17.1591C10.0889 17.0961 9.94579 17.0333 9.80262 16.9705C9.57951 16.8726 9.35675 16.774 9.13477 16.6736C8.91867 16.576 8.70154 16.4812 8.48406 16.3868C8.41832 16.3563 8.35259 16.3258 8.28486 16.2944C7.96019 16.1562 7.74008 16.0809 7.39681 16.1911C7.29083 16.2359 7.18572 16.2829 7.08165 16.332C6.98354 16.372 6.88536 16.4119 6.78711 16.4515C6.68804 16.4941 6.5891 16.537 6.49026 16.5801C6.43676 16.6032 6.38325 16.6263 6.32812 16.65C6.15915 16.7229 5.99033 16.7962 5.82152 16.8695C3.89138 17.705 3.89138 17.705 3.68517 17.705C3.68668 17.7597 3.6882 17.8143 3.68976 17.8706C3.69579 18.1195 3.69953 18.3684 3.70324 18.6174C3.70566 18.7034 3.70808 18.7894 3.71058 18.8779C3.71961 19.6863 3.71961 19.6863 3.39611 20.0175C3.01869 20.3107 2.62623 20.2903 2.16759 20.2343C1.8361 20.0773 1.67102 19.9137 1.5172 19.5839C1.48501 19.3559 1.48509 19.13 1.48587 18.9C1.48549 18.8341 1.48511 18.7683 1.48472 18.7005C1.48426 18.5616 1.48435 18.4227 1.48497 18.2837C1.48558 18.0718 1.4835 17.8601 1.48121 17.6482C1.48109 17.5129 1.48114 17.3776 1.48135 17.2424C1.48013 17.1478 1.48013 17.1478 1.47889 17.0514C1.48338 16.6569 1.5188 16.4086 1.80626 16.1152C2.08519 15.9468 2.37571 15.8132 2.67345 15.6816C2.74647 15.649 2.81949 15.6164 2.89472 15.5828C3.12071 15.4837 3.34766 15.3872 3.57508 15.2915C3.65692 15.2568 3.73876 15.2221 3.82307 15.1864C3.99414 15.114 4.16526 15.0418 4.33644 14.9696C4.59951 14.8587 4.86232 14.7473 5.12512 14.6357C5.29194 14.5652 5.45877 14.4947 5.62562 14.4243C5.70435 14.3909 5.78308 14.3575 5.86419 14.323C5.93662 14.2926 6.00904 14.2622 6.08366 14.2308C6.17939 14.1904 6.17939 14.1904 6.27706 14.1492C6.43126 14.0918 6.43126 14.0918 6.5758 14.0918C6.55195 13.6863 6.5281 13.2809 6.50353 12.8632C6.3992 12.817 6.29486 12.7708 6.18737 12.7232C5.37034 12.3112 4.82157 11.6788 4.50691 10.8251C4.39369 10.4724 4.36886 10.1426 4.37169 9.77388C4.37211 9.71088 4.37252 9.64788 4.37295 9.58297C4.39829 8.65902 4.7639 7.98346 5.38934 7.3225C6.15033 6.6041 7.01403 6.4627 8.01095 6.4793C8.90532 6.51878 9.61045 6.96841 10.2071 7.61043C10.4059 7.87691 10.4059 7.87691 10.7672 8.59957C12.985 8.62341 15.2029 8.64726 17.4879 8.67183C17.5594 8.38566 17.631 8.09949 17.7047 7.80465C17.8117 7.53817 17.8117 7.53817 17.935 7.29879C17.959 7.25235 17.9829 7.20591 18.0076 7.15807C18.6657 5.90284 19.4009 4.68378 20.118 3.46165C20.1758 3.363 20.1758 3.363 20.2348 3.26236C20.2845 3.17779 20.2845 3.17779 20.3353 3.09152C20.438 2.91279 20.5387 2.73311 20.6387 2.55283C20.6712 2.49428 20.7037 2.43573 20.7371 2.3754C20.7743 2.30847 20.7743 2.30847 20.8121 2.24019C20.7696 2.24015 20.7271 2.24011 20.6833 2.24006C18.1651 2.23747 15.6469 2.23338 13.1287 2.22733C12.8264 2.22661 12.5241 2.2259 12.2218 2.2252C12.1315 2.22498 12.1315 2.22498 12.0394 2.22477C11.0646 2.22253 10.0899 2.2213 9.11515 2.22045C8.11512 2.21955 7.1151 2.21757 6.11508 2.21457C5.49791 2.21275 4.88075 2.21178 4.26357 2.2119C3.84047 2.21191 3.41738 2.21085 2.99428 2.20896C2.75009 2.2079 2.50595 2.20747 2.26175 2.20798C1.99701 2.20845 1.73233 2.20717 1.46759 2.20543C1.3904 2.20599 1.31321 2.20655 1.23369 2.20713C0.799578 2.20208 0.546685 2.16907 0.21642 1.87886C-0.0767112 1.50145 -0.0563085 1.10899 -0.00037666 0.650348C0.270203 0.079124 0.651796 -0.0327159 1.25079 -0.0275265ZM23.486 2.16793C23.1282 2.78797 22.7705 3.408 22.402 4.04683C22.2231 4.35685 22.0443 4.66687 21.86 4.98629C21.7713 5.14018 21.6826 5.29407 21.5912 5.45262C21.4281 5.73553 21.2644 6.01811 21.0999 6.30027C19.8209 8.32648 19.8209 8.32648 19.7053 10.6456C19.9896 11.4761 20.5416 12.1906 21.3143 12.6205C22.1131 12.9916 23.0748 13.1088 23.9241 12.8181C24.8929 12.3952 25.444 11.7539 25.9475 10.8443C26.0189 10.718 26.0903 10.5916 26.1618 10.4653C26.2346 10.3364 26.3072 10.2073 26.3797 10.0782C26.5915 9.70347 26.8092 9.33219 27.027 8.96089C27.5147 8.12652 27.9977 7.28946 28.4801 6.45199C28.6612 6.13776 28.8424 5.82363 29.0237 5.50951C29.1132 5.35435 29.2027 5.19919 29.2922 5.04401C29.504 4.67684 29.7159 4.30972 29.9281 3.94283C30.0285 3.76938 30.1288 3.5959 30.229 3.42241C30.2999 3.29986 30.3708 3.17737 30.4418 3.05487C30.4847 2.98072 30.5275 2.90657 30.5717 2.83017C30.6094 2.76493 30.6472 2.69969 30.6861 2.63247C30.7718 2.48013 30.8511 2.32426 30.9293 2.16793C28.473 2.16793 26.0167 2.16793 23.486 2.16793ZM6.72936 9.18672C6.60724 9.4988 6.60039 9.78665 6.64806 10.1171C6.80437 10.4356 6.9658 10.6374 7.29845 10.7675C7.66291 10.817 7.93661 10.809 8.26952 10.6456C8.51227 10.4265 8.64935 10.2804 8.69436 9.94862C8.71357 9.53544 8.66922 9.27868 8.38244 8.96089C8.10514 8.71622 7.83076 8.70703 7.4746 8.71869C7.13764 8.76729 6.94783 8.93913 6.72936 9.18672Z" fill="#83620C"/>
<path d="M23.27 8.67197C23.6035 8.82997 23.7562 8.99688 23.9204 9.32236C23.9803 9.7233 23.9727 10.0791 23.7984 10.447C23.5742 10.6833 23.3868 10.8225 23.0602 10.8713C22.6159 10.8718 22.3079 10.8722 21.9692 10.5509C21.6881 10.1577 21.6953 9.79075 21.7524 9.32236C22.0675 8.65709 22.5944 8.58958 23.27 8.67197Z" fill="#83620C"/>
</g>
<defs>
<clipPath id="clip0_5252_7708">
<rect width="37" height="37" fill="white"/>
</clipPath>
</defs>
</svg>
