<svg width="37" height="37" viewBox="0 0 37 37" fill="none" xmlns="http://www.w3.org/2000/svg">
<g clip-path="url(#clip0_5252_7698)">
<path d="M7.9722 -0.0274906C8.08692 -0.0284055 8.08692 -0.0284055 8.20395 -0.0293388C8.28751 -0.0289045 8.37108 -0.0284702 8.45718 -0.0280227C8.54631 -0.0284119 8.63543 -0.0288011 8.72725 -0.0292021C8.97444 -0.0300574 9.2216 -0.0299396 9.46878 -0.0294068C9.73544 -0.0290653 10.0021 -0.0299686 10.2687 -0.0307089C10.7911 -0.0319521 11.3134 -0.0320114 11.8357 -0.0316329C12.2602 -0.031341 12.6847 -0.031445 13.1092 -0.0318315C13.1998 -0.0319127 13.1998 -0.0319127 13.2922 -0.0319954C13.4149 -0.0321061 13.5376 -0.0322173 13.6603 -0.0323289C14.8111 -0.0333212 15.9619 -0.0329275 17.1127 -0.0320988C18.1657 -0.0313809 19.2187 -0.0323162 20.2717 -0.0340452C21.3527 -0.0358068 22.4338 -0.0365024 23.5148 -0.0360214C24.1218 -0.0357689 24.7288 -0.0359318 25.3358 -0.0371958C25.8525 -0.0382585 26.3692 -0.0383072 26.8859 -0.0370462C27.1496 -0.03643 27.4132 -0.0362787 27.6769 -0.0373823C27.9626 -0.0385637 28.2483 -0.0375074 28.5341 -0.0362267C28.6175 -0.0369208 28.7009 -0.0376149 28.7868 -0.0383301C29.2342 -0.0341915 29.5075 -0.0144041 29.8459 0.289056C30.0759 0.575286 30.0893 0.800801 30.0873 1.1624C30.0874 1.2125 30.0874 1.26259 30.0874 1.31421C30.0873 1.47884 30.0856 1.64342 30.0839 1.80805C30.0835 1.92256 30.0832 2.03708 30.083 2.1516C30.0821 2.4523 30.08 2.75298 30.0776 3.05367C30.0754 3.36078 30.0744 3.6679 30.0733 3.97503C30.071 4.57711 30.0673 5.17917 30.0627 5.78124C30.1238 5.78028 30.1238 5.78028 30.186 5.7793C30.6104 5.77289 31.0348 5.76854 31.4592 5.76536C31.6174 5.76391 31.7757 5.76194 31.934 5.75944C32.1618 5.75592 32.3896 5.75429 32.6174 5.75301C32.6879 5.75152 32.7584 5.75003 32.831 5.74849C33.2432 5.74836 33.5129 5.76808 33.8205 6.07031C33.9699 6.29863 34.0737 6.54295 34.1819 6.79296C34.2276 6.89651 34.2733 7.00004 34.3191 7.10357C34.6516 7.86187 34.9698 8.62627 35.2857 9.39164C35.4459 9.77969 35.6079 10.1668 35.7746 10.5521C36.7521 12.8171 37.5156 15.0571 36.6389 17.4883C36.2864 18.2822 35.6309 19.1847 34.8323 19.584C34.8321 19.713 34.8321 19.713 34.8319 19.8446C34.8294 21.8862 34.8253 23.9278 34.8194 25.9694C34.8187 26.2206 34.818 26.4719 34.8173 26.7232C34.8171 26.7982 34.8171 26.7982 34.8168 26.8748C34.8146 27.6848 34.8134 28.4948 34.8125 29.3049C34.8116 30.136 34.8096 30.9672 34.8066 31.7983C34.805 32.2651 34.8039 32.732 34.8039 33.1988C34.804 33.6381 34.8027 34.0774 34.8004 34.5167C34.7998 34.678 34.7996 34.8393 34.8 35.0007C34.8005 35.2208 34.7992 35.4408 34.7975 35.661C34.7983 35.7569 34.7983 35.7569 34.7992 35.8548C34.7937 36.2457 34.7389 36.4786 34.4709 36.7832C34.172 37.0075 33.9485 37.0272 33.5788 37.0275C33.5258 37.0278 33.4728 37.0282 33.4182 37.0285C33.2401 37.0294 33.062 37.0287 32.8839 37.028C32.7551 37.0283 32.6263 37.0287 32.4976 37.0292C32.1433 37.0302 31.789 37.0299 31.4347 37.0294C31.0528 37.0291 30.6708 37.03 30.2889 37.0307C29.5405 37.0319 28.7922 37.032 28.0438 37.0316C27.4357 37.0313 26.8275 37.0314 26.2194 37.0318C26.0897 37.0319 26.0897 37.0319 25.9574 37.032C25.7817 37.0321 25.6061 37.0322 25.4304 37.0323C23.7823 37.0333 22.1342 37.0329 20.4861 37.0321C18.9775 37.0314 17.4689 37.0323 15.9603 37.034C14.4121 37.0358 12.864 37.0365 11.3158 37.036C10.4463 37.0358 9.57677 37.0359 8.70724 37.0372C7.96704 37.0382 7.22685 37.0383 6.48665 37.037C6.10884 37.0364 5.73105 37.0363 5.35324 37.0374C5.00755 37.0384 4.66189 37.038 4.3162 37.0366C4.19098 37.0364 4.06576 37.0366 3.94054 37.0373C3.77058 37.0383 3.60071 37.0374 3.43075 37.0362C3.28904 37.0362 3.28904 37.0362 3.14446 37.0361C2.78392 36.9848 2.55805 36.8286 2.32332 36.5545C2.20365 36.2586 2.21185 35.989 2.21554 35.6726C2.21547 35.6041 2.21539 35.5356 2.21532 35.4651C2.21532 35.2355 2.21687 35.006 2.21839 34.7764C2.21869 34.6119 2.21888 34.4474 2.21897 34.2829C2.21935 33.9285 2.22036 33.5741 2.22183 33.2197C2.22404 32.6595 2.22424 32.0993 2.22403 31.5391C2.22388 30.7538 2.22406 29.9684 2.22499 29.1831C2.22508 29.1084 2.22508 29.1084 2.22517 29.0321C2.22616 28.2245 2.22856 27.4168 2.23128 26.6092C2.23403 25.7796 2.23453 24.9501 2.23322 24.1206C2.23245 23.5635 2.23423 23.0065 2.23787 22.4495C2.23952 22.1031 2.23876 21.7567 2.23731 21.4103C2.23712 21.2495 2.23792 21.0888 2.23979 20.928C2.24219 20.7087 2.24104 20.4896 2.239 20.2702C2.24055 20.2065 2.2421 20.1427 2.2437 20.0771C2.23795 19.8096 2.23034 19.6492 2.04104 19.4506C1.89501 19.3405 1.74655 19.2448 1.59007 19.1504C0.613514 18.3345 0.135255 17.2072 0.0141476 15.9597C-0.152699 13.7863 0.578673 12.0365 1.42492 10.0688C1.56859 9.73175 1.70774 9.39293 1.84677 9.05397C2.01368 8.64727 2.18254 8.24139 2.35197 7.83573C2.39973 7.72115 2.39973 7.72115 2.44847 7.60426C2.53873 7.38906 2.6303 7.17447 2.72238 6.96004C2.74879 6.89684 2.77519 6.83364 2.8024 6.76853C2.99357 6.32912 3.20863 6.05116 3.61351 5.78124C3.76578 5.76386 3.76578 5.76386 3.94327 5.76484C4.04308 5.76485 4.04308 5.76485 4.1449 5.76487C4.25229 5.76599 4.25229 5.76599 4.36185 5.76713C4.47207 5.76744 4.47207 5.76744 4.58451 5.76775C4.81941 5.76856 5.05428 5.77037 5.28917 5.77221C5.44833 5.77293 5.60749 5.77359 5.76666 5.77419C6.15702 5.77578 6.54737 5.7782 6.93773 5.78124C6.93709 5.71793 6.93644 5.65461 6.93578 5.58937C6.92998 4.99184 6.92559 4.39432 6.92275 3.79677C6.92124 3.48958 6.9192 3.18241 6.91592 2.87523C6.91277 2.57863 6.91105 2.28205 6.9103 1.98543C6.90977 1.87243 6.90873 1.75943 6.90717 1.64644C6.90506 1.4878 6.90478 1.32926 6.90491 1.1706C6.90427 1.08042 6.90363 0.990232 6.90297 0.897313C6.94515 0.597674 7.03375 0.448149 7.22679 0.21679C7.48325 0.0339459 7.65855 -0.0271368 7.9722 -0.0274906ZM9.1057 2.16796C9.1057 4.31425 9.1057 6.46054 9.1057 8.67187C15.3061 8.67187 21.5065 8.67187 27.8948 8.67187C27.8948 6.52558 27.8948 4.37929 27.8948 2.16796C21.6944 2.16796 15.494 2.16796 9.1057 2.16796ZM4.84202 7.94921C4.66691 8.29945 4.50515 8.6287 4.36094 8.9887C4.32623 9.075 4.29153 9.1613 4.25578 9.25021C4.21895 9.34254 4.18214 9.43486 4.14534 9.5272C4.10688 9.62325 4.06841 9.71929 4.02992 9.81532C3.94984 10.0153 3.86993 10.2154 3.79015 10.4155C3.68778 10.6723 3.58496 10.9288 3.48201 11.1853C3.40273 11.383 3.32368 11.5808 3.24471 11.7786C3.20686 11.8733 3.16895 11.968 3.13095 12.0627C3.07813 12.1944 3.02566 12.3262 2.97321 12.458C2.94327 12.533 2.91333 12.6079 2.88249 12.6852C2.81045 12.8544 2.81045 12.8544 2.81859 13.0078C13.1685 13.0078 23.5184 13.0078 34.1819 13.0078C34.0548 12.6265 33.9307 12.258 33.7824 11.8867C33.7479 11.8002 33.7135 11.7136 33.6779 11.6245C33.641 11.5323 33.604 11.4401 33.567 11.348C33.5286 11.2518 33.4902 11.1557 33.4518 11.0596C33.3719 10.8596 33.2918 10.6597 33.2117 10.4598C33.1088 10.2032 33.0062 9.94649 32.9038 9.68972C32.8248 9.49191 32.7457 9.29417 32.6665 9.09645C32.6286 9.00174 32.5907 8.907 32.5529 8.81224C32.5003 8.68055 32.4475 8.54896 32.3947 8.41739C32.3647 8.34248 32.3347 8.26758 32.3038 8.1904C32.2456 8.02754 32.2456 8.02754 32.1584 7.94921C32.0034 7.94287 31.8481 7.94148 31.6929 7.94215C31.5986 7.94239 31.5043 7.94262 31.4071 7.94286C31.3068 7.94346 31.2064 7.94408 31.1061 7.9447C31.0054 7.94506 30.9048 7.94539 30.8042 7.94568C30.557 7.94654 30.3099 7.94773 30.0627 7.94921C30.0617 8.01518 30.0606 8.08115 30.0595 8.14912C30.0551 8.39495 30.0498 8.64071 30.0438 8.88649C30.0414 8.99267 30.0393 9.09886 30.0377 9.20506C30.0353 9.35811 30.0315 9.51109 30.0274 9.66411C30.0256 9.75607 30.0237 9.84803 30.0217 9.94278C29.988 10.2091 29.9402 10.3419 29.7737 10.5508C29.5169 10.7329 29.3416 10.7947 29.028 10.7949C28.9515 10.7954 28.875 10.796 28.7962 10.7966C28.6707 10.7958 28.6707 10.7958 28.5428 10.7951C28.4536 10.7954 28.3644 10.7958 28.2726 10.7961C28.0252 10.7968 27.7779 10.7966 27.5306 10.7959C27.2638 10.7954 26.997 10.7962 26.7302 10.7968C26.2076 10.7977 25.6851 10.7975 25.1625 10.7969C24.7378 10.7964 24.3131 10.7963 23.8884 10.7966C23.828 10.7966 23.7676 10.7966 23.7054 10.7967C23.5826 10.7968 23.4599 10.7968 23.3372 10.7969C22.186 10.7975 21.0349 10.7968 19.8837 10.7956C18.8958 10.7947 17.9078 10.7948 16.9198 10.7958C15.7728 10.797 14.6259 10.7975 13.4789 10.7968C13.3566 10.7967 13.2343 10.7966 13.112 10.7966C13.0518 10.7965 12.9917 10.7965 12.9297 10.7965C12.5055 10.7963 12.0812 10.7966 11.657 10.7971C11.1401 10.7977 10.6232 10.7976 10.1063 10.7964C9.84255 10.7958 9.57877 10.7956 9.31499 10.7963C9.02921 10.7971 8.74345 10.7962 8.45767 10.7951C8.37405 10.7956 8.29043 10.7961 8.20428 10.7966C8.12776 10.796 8.05124 10.7954 7.97241 10.7949C7.90644 10.7948 7.84048 10.7948 7.77252 10.7947C7.47484 10.7509 7.28384 10.6223 7.09812 10.3894C6.98736 10.1381 6.97866 9.93845 6.97301 9.66411C6.97172 9.6149 6.97042 9.56568 6.96908 9.51498C6.96519 9.3589 6.96273 9.20285 6.96031 9.04675C6.95791 8.94046 6.95542 8.83418 6.95283 8.7279C6.94653 8.46834 6.94218 8.20884 6.93773 7.94921C6.24615 7.94921 5.55456 7.94921 4.84202 7.94921ZM2.24046 15.1758C2.30559 16.1528 2.35964 16.7881 3.05797 17.4521C3.68179 17.9479 4.27094 18.0915 5.06182 18.0165C5.67443 17.9198 6.15334 17.5528 6.53152 17.0787C6.97336 16.4431 6.95379 16.0189 7.00999 15.1758C5.43605 15.1758 3.8621 15.1758 2.24046 15.1758ZM9.17796 15.1758C9.24309 16.1528 9.29714 16.7881 9.99547 17.4521C10.6193 17.9479 11.2084 18.0915 11.9993 18.0165C12.6119 17.9198 13.0908 17.5528 13.469 17.0787C13.9109 16.4431 13.8913 16.0189 13.9475 15.1758C12.3735 15.1758 10.7996 15.1758 9.17796 15.1758ZM16.1155 15.1758C16.1806 16.1528 16.2346 16.7881 16.933 17.4521C17.5568 17.9479 18.1459 18.0915 18.9368 18.0165C19.5494 17.9198 20.0283 17.5528 20.4065 17.0787C20.8484 16.4431 20.8288 16.0189 20.885 15.1758C19.311 15.1758 17.7371 15.1758 16.1155 15.1758ZM23.053 15.1758C23.1181 16.1528 23.1721 16.7881 23.8705 17.4521C24.4943 17.9479 25.0834 18.0915 25.8743 18.0165C26.4869 17.9198 26.9658 17.5528 27.344 17.0787C27.7859 16.4431 27.7663 16.0189 27.8225 15.1758C26.2485 15.1758 24.6746 15.1758 23.053 15.1758ZM29.9905 15.1758C30.0556 16.1528 30.1096 16.7881 30.808 17.4521C31.4318 17.9479 32.0209 18.0915 32.8118 18.0165C33.4244 17.9198 33.9033 17.5528 34.2815 17.0787C34.7234 16.4431 34.7038 16.0189 34.76 15.1758C33.1861 15.1758 31.6121 15.1758 29.9905 15.1758ZM8.02171 18.7168C7.97672 18.7693 7.97672 18.7693 7.93082 18.8229C6.96896 19.8693 5.78869 20.1358 4.40843 20.2344C4.40843 25.0516 4.40843 29.8688 4.40843 34.832C5.12386 34.832 5.83929 34.832 6.5764 34.832C6.57745 34.4815 6.57851 34.1309 6.57959 33.7697C6.58323 32.6131 6.58803 31.4564 6.59343 30.2998C6.59668 29.5983 6.59953 28.8969 6.60143 28.1954C6.60309 27.5841 6.60551 26.9727 6.60882 26.3614C6.61056 26.0377 6.61191 25.7139 6.61236 25.3902C6.6128 25.0855 6.61424 24.7808 6.61645 24.4761C6.61709 24.3642 6.61736 24.2524 6.61723 24.1406C6.61711 23.9878 6.61832 23.8351 6.61985 23.6824C6.62018 23.5969 6.62052 23.5115 6.62086 23.4234C6.65234 23.1674 6.70623 23.038 6.86546 22.8359C7.12272 22.6392 7.30922 22.592 7.62995 22.5916C7.75031 22.5907 7.75031 22.5907 7.87309 22.5898C8.00409 22.5904 8.00409 22.5904 8.13773 22.5911C8.23024 22.5907 8.32276 22.5903 8.41807 22.5899C8.6713 22.5889 8.92451 22.5893 9.17774 22.59C9.443 22.5906 9.70825 22.5901 9.9735 22.5897C10.4189 22.5893 10.8643 22.5898 11.3097 22.5909C11.8244 22.592 12.339 22.5917 12.8536 22.5905C13.2958 22.5895 13.738 22.5894 14.1802 22.5899C14.4442 22.5903 14.7081 22.5903 14.9721 22.5896C15.2664 22.5888 15.5606 22.5899 15.8549 22.5911C15.9422 22.5906 16.0296 22.5902 16.1195 22.5898C16.1998 22.5904 16.28 22.591 16.3627 22.5916C16.4322 22.5917 16.5018 22.5918 16.5734 22.5919C16.8848 22.636 17.0629 22.7543 17.2564 22.9998C17.3633 23.2407 17.3718 23.4189 17.3728 23.6824C17.3735 23.754 17.3735 23.754 17.3742 23.827C17.3756 23.9868 17.3754 24.1465 17.3752 24.3063C17.3759 24.4228 17.3766 24.5394 17.3775 24.6559C17.3795 24.9678 17.3802 25.2796 17.3806 25.5915C17.3812 25.8842 17.3829 26.1769 17.3846 26.4696C17.3888 27.3255 17.3911 28.1814 17.3937 29.0372C17.4011 30.9495 17.4086 32.8618 17.4162 34.832C22.4242 34.832 27.4323 34.832 32.592 34.832C32.592 30.0148 32.592 25.1976 32.592 20.2344C32.0912 20.1986 32.0912 20.1986 31.5803 20.1621C30.659 19.9736 29.8628 19.5893 29.2018 18.9135C29.0464 18.7584 29.0464 18.7584 28.7619 18.7891C28.6526 18.8797 28.6526 18.8797 28.5542 19.0059C27.7977 19.8011 26.7086 20.1633 25.6353 20.1923C25.0177 20.1965 24.4235 20.1915 23.8479 19.9453C23.7666 19.9109 23.6852 19.8766 23.6014 19.8411C23.0787 19.6058 22.6658 19.324 22.2642 18.9135C22.1089 18.7584 22.1089 18.7584 21.8244 18.7891C21.7151 18.8797 21.7151 18.8797 21.6167 19.0059C20.8601 19.8011 19.7711 20.1633 18.6978 20.1923C18.0802 20.1965 17.486 20.1915 16.9104 19.9453C16.8291 19.9109 16.7477 19.8766 16.6639 19.8411C16.1412 19.6058 15.7283 19.324 15.3267 18.9135C15.1714 18.7584 15.1714 18.7584 14.8869 18.7891C14.7776 18.8797 14.7776 18.8797 14.6792 19.0059C13.9226 19.8011 12.8336 20.1633 11.7603 20.1923C11.1427 20.1965 10.5485 20.1915 9.97288 19.9453C9.89156 19.9109 9.81024 19.8766 9.72645 19.8411C9.20546 19.6067 8.78824 19.3232 8.38219 18.9206C8.24122 18.7736 8.24122 18.7736 8.02171 18.7168ZM8.74437 24.7148C8.74437 28.0535 8.74437 31.3922 8.74437 34.832C10.8907 34.832 13.0369 34.832 15.2483 34.832C15.2483 31.4934 15.2483 28.1547 15.2483 24.7148C13.102 24.7148 10.9557 24.7148 8.74437 24.7148Z" fill="#83620C"/>
<path d="M20.6373 22.5189C20.7175 22.5182 20.7976 22.5175 20.8802 22.5167C21.011 22.5172 21.011 22.5172 21.1445 22.5177C21.2369 22.5172 21.3293 22.5167 21.4244 22.5162C21.6774 22.5149 21.9303 22.515 22.1832 22.5154C22.3946 22.5156 22.606 22.5152 22.8173 22.5148C23.3161 22.5137 23.8149 22.5139 24.3136 22.5147C24.8277 22.5155 25.3417 22.5145 25.8558 22.5126C26.2976 22.511 26.7395 22.5105 27.1813 22.5109C27.445 22.5111 27.7086 22.511 27.9723 22.5097C28.2664 22.5084 28.5605 22.5094 28.8546 22.5107C28.9852 22.5096 28.9852 22.5096 29.1184 22.5085C29.5608 22.5125 29.8709 22.5152 30.2073 22.836C30.4863 23.158 30.4553 23.503 30.4533 23.9081C30.4538 23.9793 30.4543 24.0506 30.4548 24.124C30.4561 24.3593 30.4559 24.5945 30.4555 24.8298C30.4558 24.9935 30.4562 25.1572 30.4566 25.3209C30.4572 25.6639 30.4571 26.007 30.4563 26.35C30.4555 26.7895 30.457 27.2289 30.4591 27.6683C30.4604 28.0064 30.4604 28.3444 30.46 28.6825C30.46 28.8445 30.4604 29.0065 30.4613 29.1685C30.4624 29.3951 30.4616 29.6217 30.4604 29.8483C30.4614 29.9485 30.4614 29.9485 30.4625 30.0507C30.4579 30.4501 30.4111 30.6916 30.1351 31.002C29.8721 31.1895 29.6926 31.246 29.3711 31.2468C29.2909 31.2475 29.2108 31.2482 29.1282 31.249C29.041 31.2487 28.9538 31.2483 28.8639 31.248C28.7715 31.2485 28.6791 31.249 28.5839 31.2495C28.331 31.2508 28.0781 31.2507 27.8252 31.2503C27.6138 31.2501 27.4024 31.2505 27.191 31.2509C26.6923 31.252 26.1935 31.2519 25.6948 31.251C25.1807 31.2502 24.6666 31.2512 24.1526 31.2532C23.7107 31.2548 23.2689 31.2552 22.8271 31.2548C22.5634 31.2546 22.2997 31.2547 22.0361 31.256C21.742 31.2573 21.4479 31.2563 21.1538 31.255C21.0667 31.2557 20.9797 31.2564 20.89 31.2572C20.4476 31.2533 20.1375 31.2505 19.8011 30.9297C19.5221 30.6077 19.5531 30.2628 19.5551 29.8576C19.5546 29.7864 19.5541 29.7151 19.5536 29.6417C19.5522 29.4064 19.5525 29.1712 19.5529 28.9359C19.5526 28.7722 19.5522 28.6085 19.5518 28.4448C19.5511 28.1018 19.5513 27.7587 19.552 27.4157C19.5529 26.9762 19.5514 26.5368 19.5493 26.0974C19.548 25.7594 19.548 25.4213 19.5484 25.0832C19.5484 24.9212 19.548 24.7592 19.5471 24.5972C19.546 24.3706 19.5468 24.1441 19.548 23.9174C19.5473 23.8506 19.5466 23.7838 19.5459 23.715C19.5505 23.3156 19.5973 23.0741 19.8733 22.7637C20.1363 22.5762 20.3158 22.5197 20.6373 22.5189ZM21.7522 24.7149C21.7522 26.1457 21.7522 27.5766 21.7522 29.0508C23.8985 29.0508 26.0448 29.0508 28.2561 29.0508C28.2561 27.62 28.2561 26.1891 28.2561 24.7149C26.1099 24.7149 23.9636 24.7149 21.7522 24.7149Z" fill="#83620C"/>
<path d="M12.4633 4.30791C12.5439 4.30733 12.5439 4.30733 12.6261 4.30674C12.8057 4.3057 12.9853 4.30622 13.1649 4.30673C13.2939 4.30632 13.4228 4.30582 13.5517 4.30523C13.9017 4.30393 14.2517 4.30402 14.6016 4.30443C14.8938 4.30465 15.186 4.30421 15.4782 4.30378C16.1675 4.30276 16.8569 4.30287 17.5462 4.3037C18.2573 4.30453 18.9684 4.30351 19.6795 4.30157C20.2901 4.29997 20.9007 4.29949 21.5113 4.29992C21.8759 4.30016 22.2406 4.29998 22.6052 4.29874C22.9481 4.29762 23.291 4.29791 23.6339 4.29927C23.7597 4.29954 23.8855 4.29931 24.0113 4.29856C24.1832 4.2976 24.3549 4.29843 24.5268 4.29971C24.6013 4.29867 24.6013 4.29867 24.6773 4.29761C25.0333 4.30304 25.2342 4.40434 25.5094 4.62499C25.8025 5.00241 25.7821 5.39487 25.7262 5.85351C25.5688 6.18582 25.4032 6.34475 25.0758 6.5039C24.8898 6.52445 24.7216 6.53353 24.5359 6.53192C24.4554 6.5325 24.4554 6.5325 24.3732 6.53309C24.1935 6.53413 24.014 6.53361 23.8343 6.5331C23.7054 6.53351 23.5765 6.53401 23.4475 6.5346C23.0975 6.5359 22.7476 6.53581 22.3976 6.5354C22.1054 6.53518 21.8132 6.53562 21.521 6.53605C20.8317 6.53707 20.1424 6.53696 19.4531 6.53613C18.742 6.5353 18.0309 6.53632 17.3198 6.53826C16.7092 6.53986 16.0986 6.54034 15.488 6.53991C15.1233 6.53967 14.7587 6.53985 14.394 6.54109C14.0511 6.54221 13.7082 6.54192 13.3653 6.54056C13.2395 6.54029 13.1137 6.54052 12.9879 6.54128C12.8161 6.54223 12.6443 6.5414 12.4725 6.54012C12.4228 6.54081 12.3731 6.54151 12.322 6.54222C11.966 6.53679 11.765 6.43549 11.4899 6.21484C11.1967 5.83742 11.2171 5.44496 11.2731 4.98632C11.5291 4.44579 11.8897 4.30292 12.4633 4.30791Z" fill="#83620C"/>
<path d="M13.1525 27.6056C13.485 27.7631 13.6428 27.9289 13.8029 28.256C13.8419 28.5857 13.837 28.9157 13.8351 29.2474C13.8345 29.407 13.8366 29.5664 13.8388 29.726C13.839 29.8283 13.8389 29.9306 13.8387 30.033C13.8389 30.1714 13.8389 30.1714 13.8391 30.3127C13.787 30.68 13.633 30.9095 13.3419 31.1356C12.9987 31.2865 12.6522 31.2636 12.2853 31.2189C11.9527 31.0613 11.7949 30.8956 11.6349 30.5685C11.5958 30.2387 11.6007 29.9088 11.6027 29.577C11.6033 29.4174 11.6012 29.258 11.5989 29.0985C11.5988 28.9961 11.5988 28.8938 11.599 28.7915C11.5989 28.6992 11.5988 28.6068 11.5986 28.5117C11.6507 28.1444 11.8047 27.915 12.0959 27.6888C12.4391 27.538 12.7855 27.5608 13.1525 27.6056Z" fill="#83620C"/>
</g>
<defs>
<clipPath id="clip0_5252_7698">
<rect width="37" height="37" fill="white"/>
</clipPath>
</defs>
</svg>
