<svg width="37" height="37" viewBox="0 0 37 37" fill="none" xmlns="http://www.w3.org/2000/svg">
<g clip-path="url(#clip0_5252_7692)">
<path d="M9.90045 0.288961C10.0226 0.326968 10.0226 0.326968 10.1472 0.365743C12.1153 1.05531 13.6488 2.50806 14.548 4.37649C15.0029 5.41357 15.2015 6.41886 15.1894 7.54714C15.1893 7.67045 15.1893 7.67045 15.1892 7.79626C15.1856 8.49681 15.1856 8.49681 15.1181 8.7064C15.0522 8.96869 15.0451 9.12812 15.1036 9.39443C15.4047 9.8762 15.8592 10.2589 16.2663 10.6489C16.3865 10.7674 16.5065 10.886 16.6263 11.0049C16.9414 11.3164 17.2591 11.6249 17.5776 11.9329C17.9023 12.2481 18.2244 12.5659 18.5468 12.8835C19.179 13.5057 19.8142 14.1248 20.4512 14.7421C20.702 14.6332 20.8747 14.4875 21.0736 14.3011C21.1402 14.2389 21.2067 14.1767 21.2753 14.1126C21.3486 14.0435 21.4218 13.9743 21.495 13.9051C21.5726 13.8323 21.6501 13.7594 21.7276 13.6866C22.4388 13.0173 23.1413 12.3389 23.8414 11.6581C24.3111 11.2016 24.7832 10.7482 25.2623 10.3016C27.7357 8.22827 27.7357 8.22827 28.8963 5.40101C28.889 4.98127 28.8481 4.56144 28.7459 4.15355C28.6788 3.87362 28.6809 3.77369 28.82 3.51468C28.955 3.35243 29.076 3.22317 29.2431 3.09603C29.2937 3.05701 29.3444 3.01799 29.3966 2.97779C29.4781 2.91671 29.4781 2.91671 29.5612 2.85439C29.6186 2.8106 29.6759 2.7668 29.735 2.72168C30.1931 2.37333 30.6564 2.03185 31.121 1.69228C31.6452 1.30863 32.1611 0.914337 32.6748 0.516802C32.7353 0.470306 32.7957 0.42381 32.8581 0.375906C32.9114 0.334661 32.9647 0.293417 33.0196 0.250923C33.2998 0.0524954 33.5027 -0.022373 33.8475 -0.0272012C33.9467 -0.0302753 33.9467 -0.0302753 34.0479 -0.0334115C34.5282 0.0442315 34.8698 0.449829 35.1991 0.781271C35.2698 0.851809 35.2698 0.851809 35.342 0.923773C35.441 1.02272 35.5399 1.12185 35.6386 1.22115C35.7896 1.37297 35.9414 1.52401 36.0933 1.67499C36.1898 1.77149 36.2861 1.86803 36.3824 1.96462C36.4277 2.00964 36.473 2.05467 36.5197 2.10105C36.5617 2.1435 36.6037 2.18595 36.647 2.22969C36.6839 2.26669 36.7208 2.30369 36.7588 2.34181C36.9638 2.58575 37.0253 2.80545 37.0362 3.12087C37.0399 3.1845 37.0436 3.24812 37.0475 3.31367C36.923 3.90998 36.3896 4.43221 36.0245 4.90493C35.6368 5.41003 35.2536 5.91793 34.8773 6.43154C34.7554 6.5972 34.6334 6.76282 34.5115 6.9284C34.4381 7.02812 34.3648 7.12792 34.2917 7.22784C34.1955 7.3589 34.0984 7.48924 34.001 7.61941C33.9217 7.72658 33.9217 7.72658 33.8407 7.83592C33.6517 8.04857 33.4946 8.17727 33.2422 8.31045C33.0461 8.29175 32.8874 8.26179 32.6993 8.21332C31.782 8.04296 30.855 8.02508 30.0376 8.53291C28.7094 9.47822 27.5992 10.774 26.4933 11.9605C26.0358 12.4508 25.5696 12.9325 25.1027 13.4139C24.1449 14.4017 23.1978 15.3993 22.2579 16.4042C22.3521 16.6112 22.4532 16.7631 22.6115 16.926C22.6542 16.9703 22.6969 17.0146 22.7409 17.0602C22.7877 17.108 22.8345 17.1557 22.8827 17.2049C22.9567 17.2812 22.9567 17.2812 23.0323 17.3591C23.5481 17.8897 24.0682 18.4161 24.5887 18.9421C24.8354 19.1917 25.0808 19.4426 25.325 19.6947C25.6202 19.9993 25.9176 20.3016 26.2167 20.6024C26.3302 20.7172 26.4429 20.8328 26.5547 20.9493C27.1197 21.587 27.1197 21.587 27.8575 21.9496C28.0775 21.9321 28.2629 21.8904 28.4727 21.8241C29.5844 21.7688 30.657 21.7777 31.7247 22.1132C31.8063 22.1385 31.8879 22.1639 31.972 22.19C33.9398 22.8811 35.4727 24.3317 36.3722 26.2007C37.1194 27.904 37.3065 29.9458 36.711 31.7245C36.6815 31.8127 36.6519 31.9009 36.6215 31.9918C36.2776 32.9425 36.2776 32.9425 35.8709 33.2331C35.5477 33.3408 35.2409 33.3795 34.9044 33.3144C34.601 33.13 34.353 32.9252 34.1031 32.6741C34.0692 32.6402 34.0353 32.6063 34.0004 32.5714C33.8898 32.4607 33.7797 32.3495 33.6696 32.2383C33.5925 32.1609 33.5154 32.0835 33.4382 32.0062C33.2361 31.8036 33.0345 31.6006 32.833 31.3975C32.6269 31.1899 32.4204 30.9827 32.2139 30.7755C31.8095 30.3696 31.4056 29.9632 31.002 29.5565C30.6116 29.8862 30.6116 29.8862 30.2412 30.238C30.1801 30.2995 30.1801 30.2995 30.1177 30.3622C30.0772 30.4034 30.0366 30.4445 29.9948 30.487C29.9523 30.5298 29.9098 30.5727 29.8659 30.6168C29.7627 30.7209 29.6597 30.8252 29.5567 30.9296C29.9204 31.3698 30.317 31.7692 30.7231 32.1702C30.7935 32.2401 30.8638 32.31 30.9341 32.3799C31.2305 32.6745 31.5273 32.9687 31.8244 33.2626C32.007 33.4433 32.1892 33.6243 32.3713 33.8055C32.4739 33.9075 32.5769 34.009 32.6799 34.1106C32.7422 34.1726 32.8044 34.2346 32.8686 34.2985C32.9234 34.3528 32.9783 34.4071 33.0348 34.4631C33.3133 34.7764 33.3486 35.0349 33.3354 35.4442C33.3025 35.7319 33.2306 35.932 33.0254 36.1327C31.6336 37.0761 29.6129 37.2016 28.0064 36.948C27.6975 36.8877 27.4 36.805 27.0997 36.7108C27.0182 36.6855 26.9368 36.6602 26.8529 36.6341C24.8884 35.9458 23.3658 34.4992 22.4566 32.6414C21.9924 31.5876 21.8116 30.5781 21.8152 29.4301C21.815 29.3425 21.8147 29.2549 21.8144 29.1647C21.8145 29.0351 21.8145 29.0351 21.8147 28.9028C21.8148 28.8254 21.8148 28.748 21.8149 28.6683C21.8243 28.4003 21.8243 28.4003 21.858 28.2207C21.9263 27.8243 21.9263 27.8243 21.8177 27.4477C21.6919 27.2942 21.5586 27.16 21.4138 27.0242C21.3617 26.972 21.3096 26.9197 21.2558 26.8658C21.0838 26.6944 20.9089 26.5262 20.7338 26.3579C20.6136 26.2394 20.4936 26.1206 20.3738 26.0017C20.0586 25.6898 19.7409 25.3805 19.4225 25.0718C19.0979 24.7561 18.7757 24.4378 18.4533 24.1198C17.8209 23.4967 17.1858 22.8763 16.5489 22.2577C16.3086 22.3716 16.1502 22.4949 15.9629 22.6851C15.9084 22.7401 15.8539 22.795 15.7977 22.8516C15.7415 22.909 15.6854 22.9664 15.6275 23.0255C15.5702 23.0835 15.5129 23.1414 15.4539 23.2011C15.3127 23.344 15.1719 23.4872 15.0313 23.6308C15.1288 23.8332 15.2227 23.9798 15.3791 24.1411C15.8977 24.7346 16.16 25.5732 16.1331 26.3588C16.0062 27.5187 15.4922 28.2835 14.6821 29.0876C14.6032 29.1673 14.5243 29.247 14.4455 29.3268C14.2329 29.5416 14.0193 29.7553 13.8053 29.9687C13.6259 30.1477 13.4471 30.3273 13.2683 30.5069C12.846 30.931 12.4227 31.3542 11.9989 31.7768C11.5635 32.2109 11.1297 32.6466 10.6967 33.0831C10.3232 33.4595 9.94868 33.8349 9.57337 34.2096C9.34998 34.4326 9.12698 34.6559 8.90491 34.8803C8.69582 35.0914 8.48551 35.3013 8.27426 35.5102C8.19757 35.5865 8.12129 35.6632 8.0455 35.7403C7.34459 36.4529 6.55506 36.9974 5.52852 37.0211C4.17685 37.0316 3.36265 36.5401 2.41305 35.6142C2.2659 35.4686 2.11951 35.3224 1.97363 35.1756C1.8249 35.0263 1.67487 34.8783 1.52469 34.7304C0.611634 33.8222 -0.0118262 33.0237 -0.0315599 31.6929C-0.023721 30.4091 0.62013 29.6257 1.49796 28.7521C1.57604 28.6736 1.65408 28.5951 1.73207 28.5165C1.94255 28.3047 2.1537 28.0936 2.36503 27.8827C2.54194 27.706 2.71852 27.529 2.8951 27.352C3.31186 26.9342 3.72917 26.517 4.14684 26.1002C4.57666 25.6712 5.00555 25.2413 5.43398 24.8109C5.80299 24.4403 6.17257 24.0702 6.54259 23.7006C6.76309 23.4804 6.98338 23.2599 7.20314 23.0389C7.4098 22.8311 7.61716 22.6241 7.82507 22.4175C7.90091 22.3419 7.97651 22.2661 8.05184 22.19C8.83624 21.3983 9.60659 20.9423 10.734 20.8804C11.5966 20.895 12.4355 21.1656 13.0576 21.779C13.1127 21.8416 13.1678 21.9042 13.2247 21.9687C13.4677 21.8633 13.6254 21.7294 13.8107 21.5413C13.8652 21.4863 13.9197 21.4313 13.9758 21.3747C14.032 21.3173 14.0882 21.26 14.1461 21.2008C14.2033 21.1429 14.2606 21.0849 14.3197 21.0252C14.4609 20.8824 14.6017 20.7391 14.7422 20.5956C14.648 20.3886 14.5469 20.2367 14.3886 20.0738C14.3459 20.0295 14.3032 19.9852 14.2592 19.9396C14.189 19.868 14.189 19.868 14.1174 19.7949C14.0681 19.744 14.0187 19.6931 13.9678 19.6407C13.452 19.1101 12.9319 18.5837 12.4114 18.0577C12.1647 17.8081 11.9193 17.5572 11.6751 17.3051C11.3799 17.0005 11.0825 16.6982 10.7834 16.3974C10.6699 16.2826 10.5573 16.167 10.4455 16.0505C9.88038 15.4128 9.88038 15.4128 9.14259 15.0502C8.92258 15.0677 8.73724 15.1094 8.5274 15.1757C7.41572 15.231 6.34311 15.2221 5.27545 14.8866C5.19384 14.8613 5.11224 14.8359 5.02816 14.8098C3.06394 14.12 1.5419 12.6756 0.632381 10.8172C-0.119844 9.10946 -0.307499 7.05742 0.289119 5.27529C0.318649 5.18707 0.348179 5.09885 0.378604 5.00796C0.722472 4.05727 0.722472 4.05727 1.12921 3.76674C1.45245 3.659 1.75919 3.62029 2.09576 3.68545C2.3991 3.86979 2.64715 4.07458 2.897 4.32574C2.93089 4.35962 2.96479 4.39349 2.99971 4.4284C3.11032 4.5391 3.2204 4.6503 3.33049 4.76153C3.4076 4.83891 3.48476 4.91627 3.56194 4.9936C3.76398 5.19619 3.96559 5.39922 4.16711 5.60234C4.37322 5.80994 4.57975 6.01712 4.78624 6.22434C5.1906 6.63024 5.5945 7.0366 5.9981 7.44326C6.38856 7.11362 6.38856 7.11362 6.75887 6.76182C6.79962 6.72083 6.84038 6.67984 6.88237 6.63761C6.92294 6.59644 6.96351 6.55526 7.00531 6.51284C7.06909 6.44856 7.06909 6.44856 7.13417 6.38299C7.23742 6.2789 7.34044 6.17458 7.44342 6.07021C7.07976 5.62997 6.68307 5.23061 6.277 4.82956C6.20665 4.75971 6.13633 4.68984 6.06603 4.61994C5.76965 4.3253 5.47284 4.03109 5.17573 3.73719C4.99312 3.55652 4.81087 3.3755 4.62882 3.19425C4.52621 3.09231 4.4232 2.99077 4.32018 2.88923C4.25793 2.82723 4.19568 2.76522 4.13155 2.70134C4.07669 2.64702 4.02183 2.5927 3.96531 2.53673C3.6868 2.22342 3.65149 1.96491 3.66471 1.55559C3.69761 1.26795 3.76951 1.06779 3.97467 0.867086C5.6102 -0.241475 8.08078 -0.281327 9.90045 0.288961ZM6.93756 2.24013C7.26296 2.63184 7.61 2.98938 7.97496 3.34416C8.09117 3.4584 8.20733 3.57268 8.32345 3.687C8.50476 3.86519 8.68633 4.04308 8.86867 4.22022C9.04585 4.39258 9.22185 4.56607 9.39769 4.73979C9.45212 4.79213 9.50655 4.84446 9.56262 4.89838C9.92723 5.26111 10.1568 5.58168 10.207 6.10973C10.1408 6.50671 9.98732 6.73977 9.71273 7.03112C9.67822 7.06788 9.64371 7.10464 9.60815 7.14251C9.15587 7.62084 8.69139 8.08764 8.2259 8.55307C8.06983 8.7093 7.91434 8.86611 7.75887 9.02294C7.65855 9.12347 7.5582 9.22396 7.45781 9.32442C7.41196 9.37079 7.36611 9.41716 7.31887 9.46494C6.95425 9.82771 6.61298 10.1574 6.07381 10.1954C5.42694 10.1689 5.05151 9.72305 4.62986 9.28744C4.52847 9.18501 4.42708 9.08258 4.32568 8.98016C4.18497 8.83755 4.04512 8.69411 3.90524 8.55069C3.65873 8.29832 3.41073 8.0474 3.16291 7.79631C3.03121 7.66269 2.89979 7.52879 2.76867 7.3946C2.70978 7.33453 2.65088 7.27446 2.5902 7.21258C2.53819 7.15931 2.48617 7.10605 2.43258 7.05117C2.33138 6.92911 2.33138 6.92911 2.24029 6.9374C2.1758 8.65397 2.51161 10.0598 3.69238 11.3501C4.65399 12.3479 5.95105 12.9281 7.33001 12.9606C7.93364 12.9659 8.48298 12.9452 9.06431 12.768C9.38541 12.6827 9.71809 12.6556 10.045 12.7186C10.4339 12.9452 10.7323 13.2412 11.0483 13.559C11.1043 13.6149 11.1603 13.6707 11.2181 13.7282C11.4055 13.915 11.5924 14.1024 11.7793 14.2897C11.9136 14.4239 12.048 14.558 12.1825 14.6921C12.5094 15.0184 12.8359 15.3451 13.1623 15.6719C13.4276 15.9375 13.693 16.2029 13.9584 16.4682C13.9962 16.506 14.034 16.5438 14.073 16.5827C14.1498 16.6595 14.2266 16.7362 14.3034 16.813C15.0232 17.5324 15.7425 18.2522 16.4617 18.9721C17.0789 19.5899 17.6964 20.2074 18.3143 20.8246C19.0319 21.5414 19.7493 22.2585 20.4663 22.976C20.5427 23.0524 20.6192 23.1289 20.6956 23.2054C20.7332 23.243 20.7708 23.2806 20.8095 23.3194C21.0747 23.5847 21.34 23.8497 21.6053 24.1147C21.9622 24.4712 22.3188 24.8281 22.6751 25.1853C22.8061 25.3165 22.9373 25.4476 23.0686 25.5785C23.2473 25.7569 23.4256 25.9357 23.6038 26.1146C23.6562 26.1667 23.7086 26.2188 23.7627 26.2725C23.8103 26.3204 23.8579 26.3684 23.9069 26.4179C23.9481 26.4591 23.9893 26.5003 24.0317 26.5428C24.2997 26.857 24.3065 27.1325 24.3008 27.532C24.2816 27.7463 24.2362 27.9242 24.1729 28.1293C23.8157 29.4402 24.0403 30.873 24.6855 32.05C25.4532 33.365 26.6329 34.2384 28.0843 34.6829C28.727 34.8281 29.4078 34.7766 30.0626 34.7597C29.7372 34.368 29.3901 34.0104 29.0251 33.6556C28.9089 33.5414 28.7928 33.4271 28.6767 33.3128C28.4953 33.1346 28.3138 32.9567 28.1314 32.7796C27.9543 32.6072 27.7783 32.4337 27.6024 32.26C27.5208 32.1815 27.5208 32.1815 27.4375 32.1014C27.037 31.703 26.8201 31.3722 26.8016 30.7896C26.9156 30.1602 27.5742 29.6386 28.0078 29.2074C28.0654 29.1496 28.123 29.0919 28.1823 29.0324C28.3032 28.9114 28.4242 28.7906 28.5455 28.67C28.7304 28.4859 28.9146 28.3009 29.0987 28.1159C29.2168 27.9979 29.3349 27.8799 29.4531 27.762C29.5078 27.7071 29.5624 27.6521 29.6187 27.5955C30.3779 26.843 30.3779 26.843 30.9263 26.8044C31.5732 26.8309 31.9486 27.2767 32.3703 27.7124C32.4716 27.8148 32.573 27.9172 32.6744 28.0196C32.8151 28.1623 32.955 28.3057 33.0949 28.4491C33.3414 28.7015 33.5894 28.9524 33.8372 29.2035C33.9689 29.3371 34.1003 29.471 34.2314 29.6052C34.2903 29.6653 34.3492 29.7253 34.4099 29.7872C34.4619 29.8405 34.5139 29.8938 34.5675 29.9486C34.6687 30.0707 34.6687 30.0707 34.7598 30.0624C34.8218 28.3966 34.4846 26.9659 33.354 25.6982C32.3815 24.7018 31.0566 24.0697 29.6601 24.0343C29.0606 24.0301 28.5129 24.0559 27.9358 24.2318C27.6147 24.3172 27.282 24.3442 26.9551 24.2812C26.5662 24.0546 26.2678 23.7586 25.9519 23.4408C25.8958 23.3849 25.8398 23.3291 25.782 23.2716C25.5946 23.0848 25.4077 22.8974 25.2208 22.7101C25.0865 22.5759 24.9521 22.4418 24.8177 22.3077C24.4907 21.9814 24.1642 21.6547 23.8378 21.3279C23.5725 21.0623 23.3072 20.7969 23.0417 20.5316C23.0039 20.4938 22.9661 20.456 22.9271 20.4171C22.8503 20.3403 22.7735 20.2636 22.6967 20.1868C21.9769 19.4674 21.2576 18.7476 20.5384 18.0277C19.9212 17.4099 19.3037 16.7924 18.6858 16.1752C17.9682 15.4584 17.2508 14.7413 16.5338 14.0238C16.4574 13.9474 16.381 13.8709 16.3045 13.7944C16.2481 13.738 16.2481 13.738 16.1906 13.6804C15.9254 13.4151 15.6602 13.1501 15.3948 12.8851C15.0379 12.5286 14.6813 12.1717 14.325 11.8145C14.194 11.6833 14.0628 11.5522 13.9315 11.4213C13.7528 11.2429 13.5745 11.0641 13.3963 10.8852C13.3439 10.8331 13.2915 10.781 13.2374 10.7273C13.1661 10.6554 13.1661 10.6554 13.0932 10.5819C13.052 10.5407 13.0108 10.4995 12.9684 10.457C12.7004 10.1429 12.6936 9.86744 12.6993 9.46811C12.7186 9.25261 12.7642 9.07242 12.8272 8.86599C13.2096 7.47118 12.8984 6.05465 12.2129 4.82098C12.0654 4.56811 11.8962 4.34165 11.7071 4.11904C11.6534 4.0475 11.5998 3.97595 11.5445 3.90224C10.8026 3.04175 9.57216 2.41249 8.45513 2.24013C7.94931 2.21072 7.4436 2.22234 6.93756 2.24013ZM33.3704 2.8239C33.3082 2.87169 33.2461 2.91947 33.182 2.9687C33.1155 3.02041 33.0489 3.07211 32.9803 3.12539C32.8427 3.23128 32.7052 3.33714 32.5676 3.44296C32.4989 3.49593 32.4301 3.5489 32.3593 3.60348C32.0227 3.86169 31.6827 4.11529 31.3426 4.36879C31.128 4.52326 31.128 4.52326 30.9297 4.69716C30.9235 4.79947 30.922 4.90208 30.9227 5.00458C30.9229 5.06629 30.9232 5.12801 30.9234 5.19159C30.924 5.25647 30.9246 5.32136 30.9252 5.3882C30.9256 5.45337 30.9259 5.51853 30.9262 5.58566C30.9271 5.74719 30.9283 5.9087 30.9297 6.07021C31.747 6.17724 31.747 6.17724 32.5032 5.94149C32.6389 5.77304 32.7552 5.60179 32.8655 5.4158C33.0089 5.18609 33.1741 4.97298 33.3366 4.75653C33.4672 4.5824 33.5959 4.40705 33.7241 4.23111C33.9463 3.92679 34.1716 3.62493 34.3985 3.32412C34.2984 3.11579 34.202 2.96335 34.0372 2.80019C33.9999 2.76256 33.9626 2.72492 33.9243 2.68615C33.7002 2.50349 33.5656 2.67282 33.3704 2.8239ZM9.64285 23.7801C9.59628 23.8277 9.5497 23.8754 9.50172 23.9244C9.45088 23.9752 9.40005 24.026 9.34767 24.0783C9.1812 24.245 9.01577 24.4127 8.85034 24.5804C8.73457 24.6967 8.61874 24.8129 8.50285 24.9291C8.19903 25.234 7.89608 25.5398 7.59331 25.8458C7.28379 26.1583 6.97345 26.4699 6.66317 26.7817C6.05526 27.3927 5.44827 28.0046 4.84185 28.6171C5.08671 28.9076 5.33405 29.1906 5.60329 29.459C5.66402 29.5197 5.72476 29.5805 5.78733 29.643C5.88356 29.7387 5.88356 29.7387 5.98173 29.8363C6.04849 29.9029 6.11524 29.9696 6.18402 30.0383C6.35992 30.2139 6.53604 30.3893 6.7122 30.5647C6.89256 30.7443 7.07271 30.9241 7.25287 31.1039C7.60525 31.4555 7.95785 31.8069 8.3106 32.1581C8.6606 31.8658 8.99182 31.5605 9.31491 31.2389C9.36186 31.1924 9.40881 31.1459 9.45719 31.098C9.61079 30.9458 9.76412 30.7934 9.91738 30.6408C9.97007 30.5884 10.0228 30.536 10.077 30.4821C10.3554 30.2052 10.6334 29.9282 10.9114 29.6509C11.1979 29.3652 11.4852 29.0804 11.7728 28.7957C11.9945 28.5759 12.2155 28.3554 12.4364 28.1348C12.542 28.0295 12.648 27.9244 12.7541 27.8196C12.9025 27.673 13.05 27.5255 13.1972 27.3777C13.2409 27.3349 13.2846 27.2922 13.3296 27.2481C13.5985 26.9759 13.7536 26.7416 13.8751 26.3769C13.864 25.7469 13.4645 25.3655 13.0448 24.9442C12.9999 24.8989 12.955 24.8535 12.9088 24.8067C12.8141 24.7114 12.7193 24.6162 12.6243 24.5212C12.4799 24.3764 12.3366 24.2305 12.1933 24.0845C12.1009 23.9916 12.0083 23.8988 11.9157 23.8061C11.8734 23.7627 11.8311 23.7193 11.7874 23.6747C11.0373 22.9327 10.3561 23.0732 9.64285 23.7801ZM2.89153 30.5477C2.85548 30.5843 2.81943 30.6209 2.78228 30.6586C2.72821 30.7118 2.72821 30.7118 2.67304 30.7661C2.37742 31.0633 2.22066 31.2808 2.19964 31.7019C2.22903 32.4536 2.99643 33.0094 3.5015 33.5104C3.61842 33.6266 3.73453 33.7435 3.8506 33.8604C3.92588 33.9356 4.0012 34.0108 4.07657 34.0858C4.14374 34.1529 4.21091 34.2199 4.28012 34.2889C4.58499 34.5653 4.85078 34.8012 5.27545 34.7958C5.92696 34.7638 6.29406 34.264 6.72076 33.8202C6.61117 33.5628 6.46039 33.397 6.26359 33.1998C6.19897 33.1347 6.13434 33.0696 6.06775 33.0026C5.99713 32.9322 5.92649 32.8619 5.85583 32.7916C5.78345 32.7191 5.7111 32.6466 5.63876 32.5741C5.48737 32.4225 5.33572 32.2711 5.18388 32.12C4.98897 31.9259 4.79472 31.7312 4.60066 31.5362C4.45152 31.3866 4.30204 31.2372 4.15244 31.088C4.08065 31.0163 4.00896 30.9445 3.93739 30.8726C3.83758 30.7724 3.73725 30.6728 3.63691 30.5731C3.57989 30.5162 3.52288 30.4593 3.46414 30.4007C3.20115 30.1722 3.10847 30.3319 2.89153 30.5477Z" fill="#83620C"/>
</g>
<defs>
<clipPath id="clip0_5252_7692">
<rect width="37" height="37" fill="white"/>
</clipPath>
</defs>
</svg>
