<svg width="22" height="18" viewBox="0 0 22 18" fill="none" xmlns="http://www.w3.org/2000/svg">
<path fill-rule="evenodd" clip-rule="evenodd" d="M2.39824 15.5801C1.5708 15.5801 0.900024 14.8323 0.900024 13.91L0.900024 4.07492C0.900024 3.15255 1.5708 2.40482 2.39824 2.40482C3.22568 2.40482 3.89646 3.15255 3.89646 4.07492L3.89646 13.91C3.89646 14.8323 3.22568 15.5801 2.39824 15.5801Z" fill="#F5C13C" fill-opacity="0.88"/>
<path fill-rule="evenodd" clip-rule="evenodd" d="M8.62346 15.207C7.79602 15.207 7.12524 14.4593 7.12524 13.5369L7.12524 4.44414C7.12524 3.52177 7.79602 2.77404 8.62346 2.77404C9.4509 2.77404 10.1217 3.52177 10.1217 4.44414V13.5369C10.1217 14.4593 9.4509 15.207 8.62346 15.207Z" fill="#F5C13C" fill-opacity="0.88"/>
<path fill-rule="evenodd" clip-rule="evenodd" d="M14.8487 17.9922C14.0212 17.9922 13.3505 17.2445 13.3505 16.3221V1.66229C13.3505 0.739918 14.0212 -0.0078125 14.8487 -0.0078125C15.6761 -0.0078125 16.3469 0.739918 16.3469 1.66229V16.3221C16.3469 17.2445 15.6761 17.9922 14.8487 17.9922Z" fill="#F5C13C" fill-opacity="0.88"/>
<path fill-rule="evenodd" clip-rule="evenodd" d="M20.7886 13.5C20.1197 13.5 19.5775 13.1142 19.5775 12.6383V5.3617C19.5775 4.8858 20.1197 4.5 20.7886 4.5C21.4574 4.5 21.9996 4.8858 21.9996 5.3617V12.6383C21.9996 13.1142 21.4574 13.5 20.7886 13.5Z" fill="#F5C13C" fill-opacity="0.88"/>
</svg>
