<svg width="74" height="49" viewBox="0 0 74 49" fill="none" xmlns="http://www.w3.org/2000/svg">
<path d="M34.866 1.398L34.8569 1.54411L34.6305 1.66281C34.3705 1.79673 33.875 2.26243 33.7006 2.53332C33.6425 2.62464 33.5385 2.75247 33.4712 2.81639C33.3366 2.94728 33.2907 3.03859 33.1776 3.41906C33.1347 3.56211 33.0644 3.72647 33.0246 3.78431C32.8227 4.06129 32.7769 4.16478 32.679 4.60003C32.5994 4.94398 32.5413 5.11443 32.422 5.35184C32.2477 5.70492 32.2018 5.90276 32.1529 6.58152C32.1345 6.82502 32.107 7.10504 32.0886 7.20549C32.0489 7.43681 32.0519 7.89946 32.0886 8.05774C32.1039 8.1247 32.1376 8.39255 32.162 8.65431C32.2232 9.29959 32.2752 9.48526 32.4434 9.68919C32.5169 9.7805 32.5994 9.92052 32.627 10.0057C32.7218 10.2919 32.8441 10.5232 32.9879 10.6906C33.0674 10.7819 33.1837 10.9523 33.2418 11.065C33.303 11.1806 33.4039 11.3146 33.4681 11.3663C33.5293 11.415 33.6394 11.5398 33.7098 11.6463C33.7863 11.7589 33.9056 11.8807 34.0065 11.9507C34.1013 12.0177 34.2114 12.1303 34.2604 12.2094C34.3093 12.2886 34.4378 12.4286 34.5449 12.5229L34.7406 12.6964L34.8385 13.0708C34.8936 13.2778 34.9976 13.5761 35.071 13.7343C35.2484 14.1239 35.2637 14.1939 35.3157 14.7388C35.3677 15.2684 35.3707 16.0141 35.3279 16.4281C35.3126 16.5772 35.2881 17.1403 35.2729 17.676C35.2484 18.5983 35.2423 18.6652 35.1658 18.9179L35.0863 19.1827V22.0894C35.0863 24.9201 35.0832 25.0023 35.0251 25.2184C34.9914 25.3371 34.9486 25.608 34.9333 25.818C34.8966 26.3264 34.8385 26.5394 34.7131 26.6459C34.658 26.6946 34.5999 26.7312 34.5816 26.7312C34.5112 26.7312 34.4164 26.5881 34.2757 26.2746C34.1961 26.0981 34.0921 25.9063 34.0463 25.8485C33.9147 25.6811 33.8444 25.5198 33.771 25.2093C33.6976 24.8897 33.6211 24.6979 33.514 24.5579C33.3917 24.3936 33.3183 24.2231 33.2357 23.8974C33.1867 23.6996 33.095 23.4561 32.991 23.2461C32.838 22.9356 32.7799 22.7773 32.6117 22.2112C32.575 22.0925 32.5138 21.9433 32.471 21.8764C32.3241 21.642 32.2446 21.4472 32.1498 21.1002C32.0978 20.9085 32.0152 20.6832 31.9663 20.598C31.7521 20.2267 31.7154 20.1384 31.6145 19.7275C31.5411 19.4231 31.4799 19.2496 31.4187 19.1522C31.1863 18.8022 31.1649 18.7504 31.0456 18.2665C30.9783 17.9926 30.8957 17.7095 30.8651 17.6364C30.7764 17.4386 30.7825 17.0977 30.8773 16.8238C30.9171 16.705 31.0058 16.4311 31.0761 16.215C31.1526 15.9654 31.2505 15.7341 31.3361 15.591C31.5656 15.2075 31.6298 14.7662 31.6298 13.5274C31.6298 12.4164 31.5441 11.8533 31.327 11.5428C31.2627 11.4515 31.174 11.275 31.1281 11.1532C31.018 10.8428 30.9813 10.7819 30.7703 10.5475C30.6693 10.4349 30.5409 10.2797 30.4919 10.2036C30.4399 10.1275 30.2992 9.96922 30.1799 9.85051C30.0606 9.7318 29.8985 9.56744 29.819 9.48526C29.7394 9.40308 29.5529 9.2235 29.406 9.08653C29.2592 8.94956 29.0206 8.72736 28.8769 8.59648C28.6077 8.34385 28.4303 8.22515 28.1427 8.10644C28.051 8.06991 27.8827 7.98469 27.7726 7.91772C27.482 7.74423 27.1058 7.66814 26.6439 7.6864C26.1973 7.70466 26.0046 7.74727 25.8241 7.87816C25.7446 7.93295 25.5856 8.03034 25.4724 8.09122C25.3378 8.16427 25.1726 8.29515 25.0044 8.4656C24.7872 8.68171 24.7199 8.77302 24.6098 9.0013C24.5394 9.15045 24.4324 9.33307 24.3712 9.40612C24.2733 9.52178 24.206 9.69223 24.154 9.94487C24.1449 9.99357 24.1081 10.304 24.0745 10.6297C23.998 11.3754 23.9858 13.0586 24.0561 13.43C24.0806 13.5548 24.1173 13.8074 24.1357 13.9931C24.1785 14.3766 24.2336 14.544 24.4079 14.8088C24.4752 14.9123 24.5731 15.1101 24.6251 15.2471C24.7077 15.4632 24.7474 15.5241 24.8973 15.658C24.9952 15.7463 25.1176 15.8832 25.1726 15.9624C25.2246 16.0415 25.3286 16.148 25.399 16.1967C25.4693 16.2454 25.6009 16.3672 25.6896 16.4676C25.8058 16.6046 25.9037 16.6777 26.0505 16.7477C26.1606 16.7994 26.3166 16.9029 26.3961 16.9759C26.4849 17.0581 26.6623 17.1677 26.8611 17.259C27.0538 17.3503 27.2281 17.4569 27.3016 17.5299C27.3689 17.5969 27.5126 17.6973 27.6227 17.7551C27.9194 17.9134 28.2712 18.2817 28.415 18.5891C28.4792 18.7231 28.5863 18.8965 28.6536 18.9757C28.7881 19.1309 28.8616 19.3166 28.9686 19.7823C29.0084 19.9497 29.0879 20.1658 29.1674 20.3241C29.3265 20.6315 29.4305 20.9267 29.5192 21.295C29.5896 21.6055 29.6416 21.7333 29.7425 21.8673C29.8801 22.0499 29.9505 22.2295 30.0117 22.5399C30.0881 22.9478 30.1157 23.0239 30.2472 23.1943C30.3818 23.3709 30.443 23.5261 30.5256 23.9157C30.6112 24.3175 30.6969 24.5701 30.8345 24.8288C30.9446 25.0388 30.9691 25.121 31.1251 25.7572C31.171 25.9489 31.2536 26.1863 31.3361 26.3507C31.4921 26.6612 31.5411 26.8194 31.6329 27.2943C31.7063 27.6717 31.6971 27.8208 31.5992 28.0217C31.5319 28.1617 31.3943 28.2683 31.3361 28.2287C31.3209 28.2165 31.226 28.1039 31.1281 27.9791C31.0333 27.8543 30.8467 27.6382 30.7183 27.5043C30.2686 27.0295 30.0545 26.7829 29.978 26.6429C29.9352 26.5668 29.822 26.439 29.7211 26.3629C29.6232 26.2837 29.4978 26.1498 29.4427 26.0676C29.3846 25.9855 29.2806 25.8728 29.2103 25.815C29.1399 25.7602 29.0298 25.6324 28.9656 25.5289C28.8983 25.4284 28.7759 25.2915 28.6872 25.2245C28.5985 25.1545 28.4976 25.0541 28.4639 24.9993C28.4303 24.9445 28.2957 24.7832 28.1672 24.6432C28.0357 24.5001 27.9286 24.3723 27.9286 24.357C27.9286 24.3418 27.8216 24.214 27.687 24.074C27.4973 23.867 27.4117 23.7422 27.274 23.4683C27.1792 23.2796 27.0599 23.0695 27.011 23.0026C26.8764 22.823 26.7969 22.473 26.7969 22.0621C26.7969 21.6664 26.7204 20.7532 26.6714 20.5706C26.6531 20.5037 26.5919 20.3423 26.5369 20.2145C26.4787 20.0836 26.4176 19.9192 26.3992 19.8492C26.3809 19.7762 26.3166 19.5814 26.2554 19.414C26.1545 19.1461 26.1239 19.0913 25.9434 18.9118C25.8333 18.7991 25.7049 18.65 25.659 18.583C25.6131 18.513 25.503 18.4035 25.4143 18.3365C25.3225 18.2695 25.2246 18.1752 25.194 18.1295C25.0778 17.9469 24.9799 17.8738 24.6954 17.7673C24.515 17.6973 24.3559 17.6121 24.2703 17.536C24.0714 17.3655 24.0011 17.3351 23.5147 17.2164C23.2761 17.1586 22.9856 17.0703 22.8663 17.0246C22.2086 16.7629 21.4011 16.7446 21.0126 16.979C20.9178 17.0338 20.7801 17.1068 20.7067 17.1373C20.5232 17.2164 20.3886 17.3351 20.2907 17.5056C20.2479 17.5816 20.1531 17.7338 20.0797 17.8434C19.8809 18.1417 19.8441 18.3395 19.8411 19.2131C19.838 20.1171 19.9053 20.5767 20.0919 20.9298C20.1561 21.0515 20.2479 21.2737 20.2938 21.4229C20.4406 21.8916 20.4681 21.9555 20.5997 22.1016C20.6731 22.1808 20.8016 22.3816 20.8903 22.5491C21.086 22.9143 21.0799 22.9052 21.291 23.0482C21.3827 23.1121 21.5601 23.2522 21.6794 23.3617C21.8997 23.5535 21.9976 23.6144 22.3371 23.7605C22.435 23.8031 22.5665 23.8792 22.6307 23.9309C22.7929 24.0588 23.062 24.1379 23.5361 24.1927C24.0623 24.2505 24.3773 24.3296 24.5486 24.4484C24.6251 24.5001 24.8086 24.5914 24.9554 24.6492C25.4265 24.841 25.4877 24.8836 25.6834 25.1758C25.8456 25.4163 26.0872 25.6963 26.5491 26.1681C26.647 26.2716 26.7724 26.4298 26.8274 26.5272C26.9192 26.6886 26.9834 26.7586 27.1792 26.8955C27.2251 26.926 27.3077 27.0203 27.3627 27.1086C27.4178 27.1938 27.5218 27.3186 27.5921 27.3856C27.6625 27.4525 27.7665 27.5773 27.8246 27.6626C27.8797 27.7508 28.002 27.8848 28.0938 27.9639C28.1856 28.04 28.3049 28.18 28.3569 28.2744C28.4089 28.3657 28.5312 28.527 28.6291 28.6305C28.727 28.734 28.8646 28.9196 28.938 29.0444C29.0114 29.1692 29.1552 29.361 29.2592 29.4706C29.3938 29.6106 29.4641 29.7141 29.5009 29.8297C29.5345 29.9271 29.5865 30.0093 29.6324 30.0428C29.7456 30.1158 29.9169 30.2802 29.9169 30.3137C29.9169 30.3289 29.8801 30.3837 29.8343 30.4385L29.7486 30.5359L29.4794 30.4841C29.2286 30.4354 29.198 30.4202 29.0604 30.2893C28.9686 30.2011 28.8432 30.1219 28.7392 30.0823C28.4853 29.988 28.3569 29.9149 28.1886 29.778C28.103 29.708 27.9041 29.5832 27.742 29.501C27.5799 29.4188 27.3811 29.2971 27.2985 29.2271C27.1914 29.1388 27.063 29.0779 26.8213 28.9957C26.5063 28.8922 26.3656 28.8161 26.286 28.7066C26.2646 28.6761 26.1606 28.6 26.0536 28.5331C25.9465 28.4661 25.8211 28.3596 25.7691 28.2987C25.6406 28.1374 25.4785 27.9761 25.3531 27.8817C25.2827 27.8269 25.2063 27.7265 25.1481 27.5986C25.0961 27.4891 25.0074 27.3491 24.9493 27.2882C24.8239 27.1451 24.7719 27.0477 24.6924 26.786C24.6067 26.512 24.5609 26.4329 24.411 26.2898C24.3406 26.2229 24.2366 26.0981 24.1816 26.0128C24.1265 25.9276 24.0133 25.8028 23.9338 25.7389C23.8543 25.6719 23.738 25.5685 23.6799 25.5015C23.5606 25.3767 23.4413 25.3067 23.1752 25.2063C23.0804 25.1728 22.9336 25.0936 22.8449 25.0328C22.5329 24.8197 22.0924 24.7223 21.4439 24.7223C21.034 24.7223 20.6578 24.768 20.4559 24.844C20.2846 24.908 19.5536 25.4376 19.4801 25.5532C19.4557 25.5898 19.4037 25.6993 19.37 25.7967C19.3089 25.9581 19.3027 26.0311 19.3027 26.6338C19.3027 27.5773 19.3761 28.0035 19.5964 28.32C19.6484 28.3991 19.731 28.5635 19.7799 28.6822C19.8472 28.8618 19.9084 28.9531 20.1072 29.1631C20.3427 29.4158 20.5936 29.6227 20.6639 29.6227C20.6823 29.6227 20.7924 29.6897 20.9117 29.7719C21.2726 30.0276 21.2787 30.0276 22.7439 30.0489C24.1999 30.0702 24.2152 30.0732 24.7352 30.335C24.8851 30.4111 25.1359 30.5085 25.295 30.5511C25.6376 30.6454 25.6957 30.6728 25.8945 30.8402C26.026 30.9468 26.1606 31.0198 26.5797 31.2177C26.6194 31.2359 26.7173 31.3151 26.7938 31.3912C26.8794 31.4764 27.0324 31.5799 27.167 31.6407C27.2924 31.7016 27.482 31.8264 27.5921 31.9208C27.7023 32.0151 27.9011 32.146 28.0357 32.2099C28.1825 32.2799 28.3293 32.3773 28.4027 32.4534C28.47 32.5234 28.6352 32.6361 28.7698 32.703C28.9013 32.77 29.0879 32.8856 29.1797 32.9617C29.3846 33.1291 29.4458 33.1596 29.7517 33.257C29.8863 33.3026 30.0606 33.3787 30.134 33.4274C30.2074 33.4761 30.3176 33.5492 30.3757 33.5888C30.547 33.7044 30.7091 33.7531 31.0792 33.8079C31.2719 33.8353 31.5441 33.8931 31.6879 33.9327L31.9449 34.0088L36.7197 33.9966C40.115 33.9905 41.5343 33.9753 41.6321 33.951C41.7086 33.9327 41.9625 33.887 42.198 33.8536C42.6997 33.7744 42.8251 33.7257 43.0973 33.5066C43.2074 33.4183 43.3818 33.2996 43.4827 33.2448C43.5837 33.19 43.7427 33.0713 43.8345 32.983C43.9385 32.8826 44.0914 32.7822 44.2383 32.7121C44.3698 32.6513 44.535 32.5447 44.6053 32.4747C44.6849 32.4017 44.8623 32.2921 45.0519 32.2038C45.2691 32.1004 45.4098 32.0121 45.5107 31.9086C45.6209 31.8021 45.7249 31.7381 45.9176 31.6621C46.2173 31.5433 46.2846 31.5038 46.4467 31.3638C46.5538 31.2694 46.6333 31.2268 47.0065 31.0685C47.0769 31.0411 47.1992 30.9559 47.2818 30.8798C47.4439 30.7307 47.6152 30.6363 47.9456 30.5085C48.071 30.4598 48.2361 30.3776 48.3187 30.3198C48.3983 30.265 48.5298 30.2071 48.6063 30.1919C48.6827 30.1797 49.3006 30.1554 49.9827 30.1402C51.6437 30.1067 51.867 30.0702 52.2799 29.7628C52.3809 29.6867 52.546 29.5862 52.6531 29.5375C52.8519 29.4432 52.9559 29.3488 53.0691 29.1601C53.1058 29.0992 53.2037 28.9957 53.2893 28.9349C53.3719 28.874 53.4606 28.7888 53.482 28.7431C53.5065 28.7005 53.5738 28.4661 53.635 28.2257C53.6961 27.9852 53.7543 27.7752 53.7665 27.7569C53.8093 27.6869 53.8644 27.0416 53.8674 26.5851C53.8674 26.162 53.8583 26.0737 53.8093 25.9763C53.7787 25.9154 53.7237 25.7724 53.687 25.6598C53.6319 25.4954 53.5891 25.4284 53.482 25.3341C53.4056 25.2671 53.2985 25.2063 53.2404 25.1971C53.1792 25.1849 53.0385 25.1271 52.9253 25.0693C52.5552 24.8745 52.3319 24.8319 51.7263 24.8288C51.1543 24.8288 51.0441 24.8501 50.7107 25.0145C50.6312 25.0541 50.4385 25.1241 50.2825 25.1667C49.9093 25.2732 49.7503 25.3554 49.5331 25.5532C49.4352 25.6446 49.267 25.7815 49.1599 25.8607C49.0192 25.9611 48.9121 26.0768 48.7837 26.2655C48.6827 26.4116 48.5543 26.5851 48.4931 26.649C48.435 26.716 48.3432 26.859 48.2943 26.9716C48.2453 27.0812 48.178 27.2303 48.1444 27.3004C48.1138 27.3734 48.0251 27.5043 47.9517 27.5986C47.8752 27.69 47.7559 27.8482 47.6856 27.9548C47.6121 28.0613 47.395 28.3048 47.1992 28.4996C46.9086 28.7888 46.7954 28.8801 46.5721 28.9988C46.4192 29.081 46.2387 29.1966 46.1714 29.2605C46.0154 29.4005 45.9114 29.4553 45.6453 29.5375C45.3914 29.6136 45.2446 29.6867 45.1651 29.7749C45.0611 29.8906 44.8653 29.9849 44.6359 30.0336C44.5136 30.058 44.3698 30.0976 44.3117 30.1219C44.1771 30.1767 44.1037 30.131 44.0333 29.9454C43.9874 29.8267 43.9874 29.8054 44.0272 29.7232C44.0547 29.6745 44.1373 29.5832 44.2138 29.5193C44.2933 29.4553 44.3943 29.3305 44.4524 29.221C44.5074 29.1205 44.6084 28.9805 44.6757 28.9105C44.746 28.8435 44.8837 28.67 44.9816 28.527C45.0794 28.3839 45.2385 28.183 45.3364 28.0796C45.4312 27.9761 45.5474 27.8239 45.5933 27.7387C45.6392 27.6565 45.7646 27.5104 45.8717 27.416C45.9818 27.3217 46.0919 27.1999 46.1164 27.1482C46.1439 27.0934 46.254 26.9625 46.358 26.8529C46.462 26.7433 46.5783 26.5972 46.6119 26.5303C46.6486 26.4603 46.7434 26.3446 46.826 26.2716C46.9086 26.1985 47.031 26.0555 47.1013 25.955C47.1686 25.8546 47.2818 25.7176 47.3521 25.6506C47.4225 25.5837 47.5816 25.395 47.707 25.2336C47.9547 24.9171 48.0587 24.8349 48.4839 24.631C48.6277 24.564 48.8081 24.4605 48.8846 24.4057C49.0376 24.2992 49.1844 24.2627 49.9032 24.1562C50.3376 24.0922 50.5976 24.0131 50.7566 23.8913C50.827 23.8366 51.0105 23.7422 51.1634 23.6783C51.3439 23.6052 51.4999 23.5139 51.6192 23.4104C51.7201 23.3252 51.9159 23.1822 52.0536 23.0908C52.234 22.9691 52.3411 22.8686 52.439 22.7347C52.5154 22.6312 52.6531 22.4608 52.7479 22.3543C52.9284 22.1503 53.0293 21.9768 53.115 21.7181C53.1456 21.6298 53.2281 21.4685 53.3016 21.3589C53.534 21.0059 53.6503 20.3697 53.6747 19.3044C53.6961 18.4004 53.6044 17.8282 53.3933 17.5512C53.3077 17.4416 52.6194 16.9729 52.3931 16.8694C52.2769 16.8177 52.1912 16.8085 51.6957 16.8085C50.9952 16.8085 50.6649 16.8542 50.3345 17.0003C50.1999 17.0612 49.9185 17.1586 49.7105 17.2194C49.2609 17.3503 49.2211 17.3686 48.9856 17.5634C48.8846 17.6486 48.7103 17.7673 48.5971 17.8282C48.4472 17.9104 48.3554 17.9865 48.2698 18.1052C48.2025 18.1934 48.0893 18.3152 48.0159 18.3761C47.9394 18.44 47.811 18.6043 47.7161 18.7626C47.6244 18.9118 47.4929 19.1035 47.4194 19.1887C47.2604 19.3744 47.242 19.4079 47.1503 19.6788C47.1105 19.7975 47.0218 19.9862 46.9545 20.0958C46.7373 20.455 46.7312 20.4732 46.7098 21.435C46.6853 22.3116 46.6333 22.7712 46.5354 22.963C46.514 23.0087 46.4345 23.1152 46.358 23.2004C46.2846 23.2826 46.1561 23.4835 46.0705 23.6478C45.9573 23.867 45.8778 23.9796 45.7738 24.0648C45.6973 24.1288 45.5719 24.2749 45.5016 24.3844C45.4281 24.494 45.3089 24.6279 45.2354 24.6827C45.159 24.7375 45.0458 24.8593 44.9846 24.9567C44.9204 25.0541 44.8194 25.1697 44.7583 25.2184C44.6971 25.2641 44.5839 25.395 44.5074 25.5076C44.431 25.6172 44.3025 25.7602 44.223 25.8211C44.1434 25.882 44.018 26.0189 43.9446 26.1255C43.8712 26.235 43.7641 26.3598 43.703 26.4055C43.6449 26.4511 43.5317 26.579 43.4583 26.6916C43.3818 26.8073 43.2564 26.9595 43.1769 27.0325C43.0973 27.1086 42.9627 27.2699 42.8801 27.3978C42.7945 27.5225 42.5712 27.7752 42.3846 27.9608L42.0481 28.2926L41.8371 28.2591C41.7209 28.2378 41.6138 28.2135 41.6016 28.2074C41.5893 28.1983 41.6046 28.1404 41.6352 28.0796C41.6658 28.0156 41.6933 27.9182 41.6933 27.8574C41.6933 27.7173 41.831 27.0142 41.9105 26.7525C41.9441 26.6399 42.0176 26.4603 42.0757 26.3568C42.1766 26.1711 42.2684 25.8881 42.3938 25.3463C42.4305 25.191 42.5161 24.9536 42.5926 24.7984C42.7303 24.5245 42.7884 24.3449 42.9321 23.7483C42.978 23.5504 43.0606 23.3252 43.1463 23.1548C43.2411 22.9691 43.3176 22.7439 43.391 22.4547C43.4491 22.2203 43.5317 21.9677 43.5714 21.8916C43.8437 21.3803 43.8681 21.3194 43.9385 20.9602C44.015 20.5797 44.0609 20.461 44.1985 20.2784C44.3117 20.1323 44.3392 20.0562 44.4493 19.6331C44.5625 19.1796 44.59 19.1127 44.7338 18.9422C44.798 18.8661 44.8959 18.7078 44.954 18.5922C45.0947 18.3061 45.4985 17.8982 45.8013 17.7338C45.9176 17.6669 46.0491 17.5725 46.0889 17.5177C46.1409 17.4477 46.2693 17.3686 46.4896 17.2651C46.6731 17.1768 46.8872 17.0459 46.982 16.9638C47.0769 16.8816 47.2298 16.7781 47.3216 16.7324C47.4133 16.6868 47.5816 16.565 47.6917 16.4615C47.8018 16.3611 47.9486 16.2302 48.019 16.1754C48.0893 16.1206 48.1872 15.9958 48.2423 15.8954C48.3004 15.7858 48.4044 15.658 48.5023 15.5758C48.6521 15.4449 48.6705 15.4175 48.7745 15.101C48.851 14.8788 48.9366 14.6931 49.0345 14.547C49.2027 14.2974 49.218 14.2518 49.3251 13.6339C49.3924 13.2321 49.4016 13.0982 49.4016 12.4316C49.4016 12.0177 49.3863 11.625 49.371 11.5581C49.3557 11.4911 49.3159 11.2172 49.2823 10.9463C49.2211 10.4653 49.1263 10.0788 49.0498 9.99052C48.9672 9.89312 48.854 9.62831 48.7745 9.33611C48.6705 8.95869 48.6674 8.9526 48.4503 8.72128C48.3493 8.61779 48.2698 8.52039 48.2698 8.50213C48.2698 8.41994 48.0434 8.22515 47.8783 8.16427C47.7834 8.12774 47.6091 8.04252 47.4959 7.97556C47.1992 7.79597 46.9453 7.7351 46.6211 7.75641C46.3091 7.77771 46.2296 7.79902 45.8809 7.95425C45.734 8.01817 45.5077 8.09731 45.3761 8.13079C44.9479 8.23428 44.7858 8.31037 44.5809 8.50213C44.4769 8.59648 44.3361 8.70606 44.2689 8.73954C44.2016 8.77302 44.0976 8.86129 44.0425 8.9313C43.9874 9.0013 43.8896 9.10783 43.8253 9.16566C43.758 9.22654 43.6418 9.3422 43.5653 9.42134C43.4858 9.50048 43.3237 9.66484 43.2044 9.78659C43.0851 9.90834 42.9505 10.0727 42.9016 10.1549C42.8557 10.2401 42.7364 10.3923 42.6354 10.4988C42.5131 10.6297 42.4091 10.788 42.3051 10.998C42.2225 11.1654 42.1032 11.3724 42.042 11.4546C41.9013 11.6463 41.831 11.8776 41.7545 12.3981C41.7209 12.6264 41.6597 12.9125 41.6169 13.0312C41.5006 13.3508 41.5159 13.7222 41.6872 14.6322C41.8493 15.4875 41.9044 15.6732 42.0726 15.9258C42.2867 16.2515 42.3418 16.4555 42.3969 17.1433C42.4213 17.4386 42.4152 17.5482 42.3632 17.8586C42.2898 18.3061 42.2409 18.4643 42.091 18.7474C41.9533 19.0031 41.8493 19.2922 41.7392 19.7305C41.6964 19.9071 41.623 20.108 41.5771 20.181C41.3752 20.5037 41.3263 20.6132 41.2498 20.9389C41.1733 21.2646 41.1121 21.4107 40.9164 21.7455C40.8705 21.8216 40.7879 22.0681 40.7298 22.2934C40.6136 22.756 40.5707 22.8717 40.4484 23.0543C40.323 23.2369 40.2954 23.31 40.1945 23.7209C40.0966 24.1166 40.0813 24.1531 39.9345 24.357C39.806 24.5336 39.751 24.6675 39.6561 25.0419C39.6133 25.2093 39.5307 25.4345 39.4696 25.5441C39.2463 25.9459 39.2126 26.022 39.1423 26.305C39.0107 26.8347 38.9496 26.8986 38.6009 26.8529C38.4754 26.8377 38.3623 26.8225 38.3439 26.8225C38.2858 26.8225 38.1787 26.6246 38.1267 26.4268C38.0809 26.2594 38.0717 25.9946 38.0533 24.6766C38.0411 23.8213 38.0136 22.9813 37.9952 22.8047C37.9707 22.5704 37.9616 21.3011 37.9677 18.1173C37.9769 14.0205 37.983 13.7343 38.035 13.4908C38.0931 13.2169 38.1665 13.0434 38.2552 12.9704C38.2858 12.946 38.3837 12.8273 38.4724 12.7086C38.5641 12.5868 38.711 12.4316 38.7997 12.3677C38.8914 12.3007 39.0046 12.2003 39.0505 12.1425C39.0994 12.0846 39.2249 11.9781 39.3319 11.9111C39.4879 11.8076 39.5399 11.7498 39.6164 11.5976C39.6684 11.4941 39.7785 11.3419 39.858 11.2537C40.0171 11.0893 40.1639 10.8245 40.2251 10.5993C40.271 10.4288 40.3627 10.2523 40.4729 10.1123C40.586 9.97226 40.6594 9.75615 40.7604 9.26002C40.8032 9.03783 40.8766 8.76085 40.9194 8.64214C40.9623 8.52343 41.0081 8.32863 41.0234 8.20993C41.0357 8.09426 41.0785 7.85685 41.1152 7.6864L41.1856 7.37594L41.0999 7.13853C41.0357 6.96807 41.0081 6.81284 40.9929 6.58152C40.9776 6.37454 40.947 6.198 40.9041 6.08234C40.8674 5.98494 40.794 5.69274 40.742 5.43098C40.6319 4.87397 40.5983 4.77353 40.4423 4.51176C40.375 4.40219 40.2801 4.17695 40.2251 4.00954C40.1058 3.64125 40.066 3.56516 39.9161 3.37644C39.8519 3.29426 39.7449 3.11164 39.6745 2.96858C39.5797 2.77682 39.4879 2.64594 39.3105 2.46027C39.182 2.32635 39.0291 2.1559 38.974 2.08589C38.9006 1.98849 38.7874 1.90936 38.5489 1.78456C38.1267 1.56237 38.1145 1.55019 38.1145 1.38583V1.25495H36.4964H34.8752L34.866 1.398Z" fill="#F3B921"/>
<path d="M2.46317 40.1265C2.18481 40.1569 1.84834 40.23 1.68011 40.2939C1.47211 40.3761 1.32222 40.4887 1.03164 40.79C0.600342 41.2344 0.539165 41.4262 0.557518 42.2815C0.569754 42.9115 0.612577 43.085 0.811401 43.3164C0.881754 43.3985 0.976577 43.5264 1.0194 43.6025C1.06528 43.6786 1.15093 43.7699 1.20905 43.8064C1.27022 43.8429 1.56387 43.9342 1.86058 44.0073L2.40199 44.1412H3.19422C3.98034 44.1412 3.98952 44.1412 4.11493 44.2173C4.18528 44.2569 4.31681 44.3208 4.40858 44.3543C4.73587 44.4821 4.81846 44.6191 4.79399 44.9965C4.77258 45.3252 4.72975 45.4135 4.5034 45.5779C4.40858 45.6479 4.2954 45.7422 4.25258 45.7848C4.12411 45.9188 4.0354 45.9614 3.76622 46.0101C3.20034 46.1166 1.89422 46.0253 1.42928 45.8488C1.26105 45.7848 0.976577 45.9736 0.875636 46.214C0.832812 46.3175 0.835871 46.3297 0.952107 46.5945C1.16317 47.0693 1.23658 47.0906 2.83634 47.115C4.07211 47.1332 4.46058 47.1058 4.72364 46.9871C4.9714 46.8745 5.66881 46.3875 5.74222 46.2779C5.81564 46.1653 5.91964 45.9005 6.04199 45.5079C6.11234 45.2796 6.12152 45.2065 6.10928 44.9448C6.09093 44.4973 5.87375 43.8368 5.68105 43.6268C5.58622 43.5264 5.18858 43.2616 4.9714 43.1581C4.60128 42.9785 4.61658 42.9785 3.48787 42.9541C2.50599 42.9328 2.4234 42.9268 2.31022 42.8689C2.05022 42.735 1.99211 42.6589 1.91258 42.3454L1.83917 42.0593L1.90034 41.9588C1.93399 41.9041 2.01046 41.764 2.06552 41.6484C2.2154 41.341 2.29799 41.3014 2.93117 41.2223C3.47258 41.1522 3.91917 41.1401 4.2067 41.1888C4.30764 41.204 4.56764 41.2344 4.78787 41.2527C5.03564 41.274 5.27117 41.3136 5.41187 41.3562C5.57705 41.4079 5.65352 41.4201 5.68105 41.3988C5.70246 41.3805 5.76058 41.2831 5.80952 41.1857C5.89211 41.0214 5.89822 40.9848 5.88293 40.7839C5.85234 40.3335 5.76975 40.233 5.39352 40.2026C5.26199 40.1904 5.02034 40.16 4.85822 40.1356C4.53093 40.09 2.86081 40.0808 2.46317 40.1265Z" fill="#F3B921"/>
<path d="M7.65206 40.1665C7.597 40.2061 7.51747 40.2852 7.47771 40.34L7.4043 40.4404V43.6546V46.8688L7.48994 46.948C7.64289 47.091 7.74689 47.1245 8.04359 47.1245C8.31889 47.1245 8.32194 47.1245 8.4443 47.0149L8.56665 46.9054V44.2269C8.56665 41.2957 8.55747 41.4479 8.74712 41.314C8.83277 41.2531 8.87559 41.2501 9.6403 41.2501C10.0808 41.2501 10.5671 41.2653 10.7201 41.2866C10.9678 41.317 11.0107 41.3322 11.0932 41.4144C11.1758 41.4966 11.1911 41.5392 11.2217 41.7827C11.2676 42.1236 11.2217 42.5497 11.1299 42.6654C11.0963 42.708 10.9801 42.8024 10.8669 42.8754C10.7537 42.9485 10.6283 43.0459 10.5855 43.0915C10.4876 43.1981 10.2826 43.2985 10.041 43.3594C9.85441 43.405 9.73206 43.472 9.63112 43.5816C9.58524 43.6333 9.58524 43.6668 9.61889 43.9286C9.65865 44.236 9.70453 44.3547 9.833 44.4734C9.90947 44.5465 9.91559 44.5465 10.1787 44.5099C10.8179 44.4247 11.0841 44.3456 11.2584 44.1873C11.3012 44.1477 11.4114 44.0777 11.5031 44.0321C11.6989 43.9286 12.2097 43.4507 12.3137 43.2742C12.3535 43.2072 12.4085 43.0641 12.4361 42.9546C12.4636 42.845 12.5431 42.6411 12.6135 42.498C12.7817 42.1571 12.7848 42.0049 12.6288 41.661C12.5676 41.527 12.4942 41.314 12.4667 41.1892C12.4024 40.9 12.3504 40.8148 12.0629 40.553C11.7876 40.3004 11.6775 40.2426 11.2737 40.1574C10.9831 40.0965 10.8822 40.0934 9.35889 40.0934H7.753L7.65206 40.1665Z" fill="#F3B921"/>
<path d="M15.9375 40.1143C15.4389 40.1539 15.0076 40.2939 14.7109 40.51C14.5855 40.6013 14.4081 40.717 14.3163 40.7626C14.1175 40.8631 14.0869 40.8966 13.9401 41.1614C13.8789 41.271 13.7719 41.4292 13.7015 41.5114C13.4079 41.8614 13.3375 42.1963 13.3161 43.3651C13.3039 44.0256 13.31 44.2508 13.3528 44.5217C13.4415 45.1335 13.5088 45.3465 13.6587 45.5109C13.6954 45.5535 13.7719 45.6692 13.8269 45.7696C13.9401 45.9796 14.3989 46.4606 14.5672 46.5488C14.6283 46.5793 14.7538 46.6341 14.8455 46.6675C14.9342 46.701 15.0688 46.7802 15.1392 46.841C15.2401 46.9263 15.338 46.9689 15.5491 47.0267C15.8182 47.0967 15.8825 47.1028 16.9011 47.115C18.1215 47.1302 18.4458 47.1028 18.7914 46.9476C18.9596 46.8715 18.9963 46.838 19.0514 46.7254C19.0881 46.6523 19.134 46.5245 19.1554 46.4453C19.1921 46.3084 19.1891 46.281 19.1156 46.0801L19.0392 45.8609L18.7639 45.8701C18.614 45.8762 18.4091 45.9005 18.3081 45.9218C18.2072 45.9431 17.9686 45.9857 17.7789 46.0101C16.95 46.1257 16.0262 46.004 15.7173 45.7392C15.65 45.6844 15.5154 45.5961 15.4145 45.5413C15.1912 45.4257 15.1025 45.3313 15.0321 45.1487C15.0046 45.0726 14.9128 44.8748 14.8302 44.7104C14.6039 44.263 14.5947 44.2204 14.5733 43.6573C14.5549 43.1977 14.558 43.1276 14.6222 42.8811C14.662 42.7137 14.7232 42.5646 14.7782 42.4885C14.8241 42.4245 14.8945 42.2906 14.9281 42.1963C15.0168 41.968 15.1086 41.8523 15.3288 41.7032C15.4298 41.6362 15.5215 41.5601 15.5307 41.5358C15.5399 41.5114 15.6041 41.4536 15.6745 41.4049C15.7846 41.3288 15.8702 41.3075 16.3443 41.2375C16.9959 41.1431 17.3323 41.1401 17.9411 41.2223C18.1949 41.2588 18.5406 41.2923 18.7088 41.3014L19.0208 41.3166L19.1034 41.1736C19.1799 41.0457 19.186 41.0153 19.1676 40.8296C19.1371 40.4948 19.1003 40.4035 18.9719 40.3396C18.5742 40.1387 18.1888 40.093 17.0173 40.0991C16.4973 40.1022 16.014 40.1082 15.9375 40.1143Z" fill="#F3B921"/>
<path d="M23.1721 40.1477C23.1048 40.1812 22.9977 40.2543 22.9335 40.3121L22.8203 40.4217L22.8295 42.8658L22.8356 45.313L22.9213 45.5565C23.0589 45.9461 23.1109 46.0283 23.3954 46.3174C23.6003 46.5274 23.7135 46.6188 23.8909 46.707C24.0163 46.7709 24.1815 46.8623 24.258 46.911C24.5271 47.0875 24.778 47.124 25.714 47.124C26.5613 47.124 26.9161 47.0966 27.1638 47.0144C27.2403 46.9901 27.5064 46.8288 27.7603 46.6583L28.2191 46.3479L28.3476 46.0891C28.7147 45.3556 28.7789 45.1943 28.8125 44.9356C28.834 44.7712 28.8462 43.9281 28.8462 42.5675V40.4521L28.7636 40.3365C28.6841 40.2299 28.6535 40.2117 28.4118 40.1538C28.1488 40.0869 28.1427 40.0869 27.8918 40.1417C27.6808 40.1873 27.6227 40.2117 27.5401 40.2969L27.4391 40.4004V42.5371C27.4391 44.5064 27.433 44.6982 27.381 44.969C27.3168 45.3039 27.2495 45.4378 27.1088 45.5261C26.9956 45.5961 26.7723 45.7452 26.6133 45.8578C26.5521 45.9004 26.3869 45.9674 26.2462 46.0009C26.0045 46.0618 25.9587 46.0648 25.6038 46.0344C25.0257 45.9826 24.9309 45.9522 24.7045 45.7209C24.6005 45.6143 24.4445 45.4682 24.362 45.3982C24.2121 45.2765 24.206 45.2643 24.157 45.0177C24.0163 44.3329 24.0133 44.2538 24.0133 42.3058V40.443L23.9398 40.3334C23.8787 40.2451 23.8297 40.2147 23.686 40.1751C23.3801 40.093 23.3036 40.0869 23.1721 40.1477Z" fill="#F3B921"/>
<path d="M30.6561 40.1996C30.4175 40.4035 30.4359 40.1235 30.4359 43.6542C30.4359 45.8488 30.445 46.8411 30.4695 46.8837C30.4879 46.9171 30.5643 46.9872 30.6439 47.0359C30.7723 47.118 30.806 47.1241 31.0721 47.1241C31.3138 47.1241 31.3749 47.115 31.4483 47.0602C31.6349 46.9293 31.6288 47.0237 31.6288 44.6952V42.5707L31.7206 42.4276C31.8766 42.1811 31.9439 42.2024 32.1335 42.5676C32.1978 42.6894 32.314 42.8537 32.3935 42.939C32.473 43.0211 32.5862 43.1733 32.6474 43.2738C32.7086 43.3742 32.834 43.5447 32.9258 43.6542C33.0206 43.7638 33.146 43.9464 33.2072 44.0652C33.2683 44.1808 33.3938 44.3543 33.4825 44.4487C33.5681 44.54 33.6874 44.7074 33.7394 44.82C33.7945 44.9296 33.9199 45.1092 34.0178 45.2218C34.1187 45.3314 34.2563 45.5292 34.3267 45.657C34.397 45.7849 34.5133 45.9462 34.5836 46.0132C34.654 46.0832 34.7549 46.2232 34.8069 46.3236C34.9201 46.5458 35.3606 47.0115 35.5227 47.0785C35.6665 47.1393 36.1345 47.1393 36.3027 47.0815C36.37 47.0572 36.4801 46.9993 36.5505 46.9537L36.6759 46.8715V43.6573V40.44L36.5627 40.3305C36.3639 40.1418 36.2293 40.0931 35.902 40.0931C35.6298 40.0931 35.6145 40.0961 35.538 40.1752C35.3545 40.3731 35.3606 40.2818 35.3606 42.3454C35.3606 44.1291 35.3575 44.2447 35.3025 44.4C35.2688 44.4913 35.2107 44.61 35.174 44.6617L35.1036 44.7591L35.018 44.6556C34.969 44.5978 34.8803 44.4639 34.8192 44.3543C34.758 44.2447 34.6295 44.0743 34.5347 43.9738C34.4368 43.8734 34.3145 43.706 34.2594 43.6025C34.2013 43.4899 34.1034 43.3651 34.0239 43.3012C33.9413 43.2342 33.8526 43.1185 33.7945 43.0059C33.6996 42.8142 33.5926 42.665 33.409 42.4672C33.357 42.4093 33.2561 42.2572 33.1919 42.1324C33.1246 42.0076 33.0145 41.8493 32.9441 41.7823C32.8768 41.7154 32.7698 41.5754 32.7116 41.4719C32.6535 41.3684 32.5373 41.2101 32.4516 41.1158C32.369 41.0244 32.2253 40.8205 32.1366 40.6653C31.9592 40.3609 31.8827 40.2879 31.6043 40.1783C31.4728 40.1296 31.3474 40.1083 31.1088 40.0991L30.7876 40.09L30.6561 40.1996Z" fill="#F3B921"/>
<path d="M38.5575 40.1541C38.4412 40.1845 38.3342 40.2119 38.3219 40.2119C38.3097 40.215 38.2638 40.2667 38.221 40.3276L38.1445 40.4432V43.6544V46.8686L38.2302 46.9508C38.2944 47.0117 38.3739 47.0391 38.5942 47.0817L38.8725 47.1304L39.0499 47.0512C39.1478 47.0056 39.2518 46.9477 39.2824 46.9204C39.3344 46.8747 39.3375 46.6982 39.3375 43.6361V40.4037L39.2304 40.3093C39.1019 40.1997 38.9031 40.0932 38.8266 40.0963C38.7961 40.0963 38.6768 40.1237 38.5575 40.1541Z" fill="#F3B921"/>
<path d="M40.8508 40.1147C40.5541 40.1817 40.4685 40.2213 40.395 40.3278C40.3216 40.4313 40.3216 40.4404 40.3675 40.5317C40.395 40.5835 40.447 40.6656 40.4868 40.7174C40.5755 40.8331 40.6336 40.9852 40.7132 41.3109C40.7988 41.6457 40.8447 41.7462 40.9885 41.9349C41.1047 42.0871 41.1445 42.1875 41.3402 42.8419C41.3892 43.0093 41.4503 43.1433 41.5054 43.2072C41.643 43.3624 41.7195 43.5298 41.8174 43.9042C41.8725 44.1142 41.9459 44.306 42.004 44.4003C42.1936 44.7017 42.2395 44.7991 42.3282 45.1004C42.4383 45.4656 42.475 45.5539 42.6372 45.8126C42.7045 45.9192 42.7809 46.0835 42.8085 46.1779C42.9461 46.6679 42.9889 46.7775 43.099 46.884C43.2489 47.0362 43.46 47.1001 43.8852 47.1154C44.2063 47.1306 44.2369 47.1245 44.4052 47.0484C44.7233 46.9053 44.8487 46.7349 44.9833 46.2722C45.072 45.9618 45.1821 45.7091 45.3412 45.4596C45.4023 45.3682 45.488 45.1582 45.5492 44.9452C45.6073 44.7412 45.696 44.519 45.751 44.4308C45.9376 44.1355 46.0019 43.9955 46.1059 43.6424C46.167 43.4385 46.2466 43.2376 46.2986 43.1646C46.479 42.9089 46.528 42.8084 46.632 42.4828C46.7023 42.2606 46.7819 42.0779 46.8736 41.941C47.0205 41.7188 47.048 41.6518 47.2009 41.1648C47.2529 40.9944 47.3355 40.7996 47.3814 40.7357C47.4273 40.6717 47.4885 40.5804 47.5129 40.5287C47.5588 40.4435 47.5588 40.4313 47.4854 40.3278C47.3845 40.1756 47.1917 40.1208 46.7146 40.1026L46.3353 40.0873L46.2129 40.203C46.1426 40.273 46.0447 40.4161 45.9866 40.5409C45.9315 40.6596 45.8459 40.8148 45.7969 40.8818C45.7113 40.9974 45.6654 41.1283 45.4727 41.7675C45.4237 41.9258 45.3473 42.0962 45.2708 42.2058C45.1515 42.3823 45.0995 42.5193 44.9619 43.0428C44.9221 43.2011 44.8548 43.3563 44.7875 43.4537C44.6376 43.6698 44.5734 43.8251 44.4694 44.2116C44.3746 44.5677 44.2553 44.8417 44.191 44.8417C44.1727 44.8417 44.0473 44.8265 43.9127 44.8052C43.6894 44.7717 43.668 44.7625 43.6007 44.6621C43.564 44.6012 43.4875 44.4003 43.4325 44.2177C43.3774 44.0168 43.2642 43.7429 43.1572 43.5329C43.0226 43.2741 42.9492 43.0763 42.8696 42.778C42.7626 42.3762 42.7289 42.291 42.5362 41.9866C42.475 41.8953 42.3986 41.6975 42.3466 41.5179C42.2334 41.1009 41.8633 40.3674 41.6889 40.206L41.5605 40.0934L41.2362 40.0965C41.0588 40.0995 40.8845 40.1056 40.8508 40.1147Z" fill="#F3B921"/>
<path d="M48.8318 40.1847C48.7461 40.2334 48.6391 40.3156 48.5932 40.3674L48.5137 40.4648V43.6516V46.8414L48.584 46.9054C48.6207 46.9388 48.7278 47.0028 48.8196 47.0454L48.9878 47.1245H50.8873C52.9551 47.1245 52.9153 47.1276 53.1723 46.951L53.2854 46.8719V46.5888V46.3057L53.1784 46.1962C53.1172 46.1383 53.0163 46.0622 52.949 46.0288C52.8358 45.9709 52.7716 45.9679 51.4746 45.9679C50.1868 45.9679 50.1134 45.9648 50.0217 45.907C49.9666 45.8766 49.9054 45.8187 49.881 45.7792C49.8045 45.6605 49.7372 45.2861 49.7372 44.9878C49.7372 44.7382 49.7464 44.6834 49.8259 44.5221C49.8748 44.4217 49.9574 44.2938 50.0125 44.239L50.1104 44.1416H51.4654H52.8205L52.9276 44.0229C53.1417 43.7855 53.1661 43.6881 53.0836 43.3533C53.0468 43.195 53.0132 43.1311 52.9276 43.052L52.8174 42.9546H51.441H50.0645L49.8993 42.7932L49.7372 42.6289V42.0658C49.7372 41.521 49.7403 41.5027 49.8106 41.4053C49.8504 41.3505 49.9299 41.2714 49.985 41.2318L50.0859 41.1588H51.444H52.8021L52.9796 41.0796C53.1508 41.0035 53.157 40.9974 53.2028 40.83C53.3007 40.4678 53.3007 40.4617 53.1906 40.3461C53.1325 40.2882 53.0224 40.2061 52.9428 40.1665L52.7991 40.0934H50.8934H48.9878L48.8318 40.1847Z" fill="#F3B921"/>
<path d="M54.8242 40.1908C54.7722 40.2456 54.7141 40.3217 54.6958 40.3582C54.6713 40.4069 54.6621 41.3292 54.6621 43.6577V46.8871L54.7814 47.0058L54.9007 47.1245H55.2005C55.4696 47.1245 55.5247 47.1154 55.6868 47.0362C56.008 46.8841 55.9774 47.2006 55.9835 44.1538L55.9927 41.4783L56.2068 41.3718L56.4209 41.2653H57.2774C58.1033 41.2653 58.1369 41.2683 58.2409 41.3322C58.3572 41.4053 58.4275 41.5057 58.4856 41.6914C58.5071 41.7584 58.5499 41.8649 58.5835 41.9288C58.6386 42.0414 58.6386 42.0536 58.5927 42.151C58.5652 42.2119 58.5162 42.3336 58.4826 42.428C58.3939 42.6898 58.3143 42.7933 58.1094 42.912C58.0054 42.9728 57.8586 43.0702 57.7852 43.1311C57.6567 43.2346 57.2591 43.3807 57.1061 43.3807C57.0755 43.3807 56.9929 43.4355 56.9226 43.4994L56.7972 43.6212L56.8186 43.9042C56.8431 44.2208 56.8951 44.3456 57.0633 44.5069C57.1245 44.5647 57.2193 44.6986 57.2774 44.7991C57.3355 44.9026 57.4671 45.0791 57.5711 45.1917C57.6965 45.3287 57.8035 45.49 57.8953 45.6818C57.9932 45.8827 58.0666 45.9922 58.1492 46.0592C58.2195 46.114 58.3113 46.2418 58.3908 46.391C58.5591 46.7136 58.7579 46.9297 58.9903 47.0362C59.1555 47.1154 59.2075 47.1245 59.4828 47.1245C59.8621 47.1245 60.2383 47.0393 60.3515 46.9267L60.4249 46.8506L60.2536 46.6771C60.1588 46.5797 60.0487 46.4305 60.0059 46.3484C59.9631 46.2631 59.8529 46.1231 59.7581 46.0318C59.6541 45.9344 59.5532 45.7974 59.4981 45.6818C59.4461 45.5813 59.3238 45.4017 59.2228 45.2891C59.1188 45.1765 58.9812 44.9848 58.9139 44.863C58.8496 44.7413 58.7303 44.583 58.6539 44.5069C58.4489 44.309 58.4092 44.2269 58.4703 44.1112C58.4979 44.0595 58.5774 43.9803 58.6478 43.9347C58.7181 43.889 58.8496 43.7733 58.9445 43.679C59.0362 43.5846 59.1769 43.4598 59.2565 43.405C59.4094 43.2955 59.4889 43.2072 59.5654 43.055C59.5929 43.0033 59.6847 42.8815 59.7673 42.7872C59.9049 42.6289 59.9202 42.5954 59.9661 42.3519C60.0273 42.0171 60.0273 41.7066 59.9661 41.4083C59.8988 41.0857 59.8499 40.9853 59.6939 40.8331C59.6174 40.7631 59.5073 40.6261 59.4492 40.5348C59.3146 40.3278 59.2656 40.2943 58.9598 40.2182C58.5254 40.1087 58.2409 40.0934 56.5586 40.0934H54.9191L54.8242 40.1908Z" fill="#F3B921"/>
<path d="M62.8867 40.1056C62.8806 40.1117 62.7307 40.1482 62.5563 40.1848C62.1587 40.2669 61.9691 40.3491 61.7733 40.5257C61.6907 40.5987 61.5592 40.7022 61.4827 40.7539C61.2747 40.897 61.2196 40.97 61.134 41.2227C60.9811 41.6731 60.9505 42.3732 61.0575 42.8754C61.1462 43.2863 61.1829 43.3594 61.4001 43.5877C61.6295 43.822 61.7182 43.8707 62.1189 43.9742C62.7399 44.1295 62.8561 44.1416 63.734 44.1416C64.4498 44.1416 64.5691 44.1477 64.6027 44.1903C64.6272 44.2147 64.7709 44.3334 64.9269 44.4491C65.0829 44.5647 65.2175 44.6834 65.2267 44.7139C65.2359 44.7413 65.2328 44.8813 65.2175 45.0243C65.19 45.28 65.19 45.283 65.0523 45.4048C64.9789 45.4718 64.8566 45.6026 64.7862 45.6939C64.7159 45.7853 64.6333 45.8766 64.6058 45.8948C64.4926 45.974 64.0858 46.0348 63.5474 46.0501C63.0335 46.0653 62.9601 46.0592 62.4462 45.9709C62.1434 45.9222 61.7733 45.8766 61.6203 45.8705L61.3451 45.8644L61.2716 46.044C61.1829 46.2692 61.1829 46.3636 61.2686 46.5888C61.3542 46.811 61.4001 46.8567 61.6234 46.9419C62.0425 47.0971 62.3178 47.1245 63.4954 47.1245C64.4865 47.1245 64.6119 47.1184 64.8474 47.0636C65.0156 47.0241 65.1625 46.9632 65.2634 46.8993C65.3491 46.8414 65.5081 46.7532 65.6152 46.6984C65.8446 46.5858 66.2453 46.187 66.3523 45.9709C66.5573 45.5509 66.5451 44.3547 66.3309 43.9651C66.2025 43.7307 65.866 43.402 65.6549 43.3076C65.5571 43.265 65.3858 43.1829 65.2756 43.125C65.0003 42.982 64.7495 42.9546 63.7707 42.9546H62.9418L62.6695 42.8115C62.5196 42.7324 62.3851 42.6532 62.3698 42.635C62.3545 42.6167 62.3208 42.4797 62.2963 42.3276C62.2566 42.0749 62.2566 42.0475 62.3116 41.9045C62.3973 41.6823 62.5778 41.4601 62.7521 41.3657C63.0672 41.1983 64.2265 41.1009 64.7709 41.1983C65.0829 41.2562 65.6825 41.3109 65.9822 41.3109H66.1841L66.2667 41.1557C66.3523 41.0035 66.3523 41.0005 66.3156 40.7387C66.2698 40.4191 66.2269 40.3643 65.9669 40.2761C65.502 40.1239 65.1839 40.0934 64.0032 40.0934C63.3975 40.0934 62.8928 40.0995 62.8867 40.1056Z" fill="#F3B921"/>
<path d="M68.0359 40.1509C67.9136 40.1813 67.7851 40.2331 67.7515 40.2635C67.5955 40.4035 67.6016 40.2605 67.6016 43.6664V46.8472L67.6719 46.9263C67.8218 47.0998 67.8891 47.1059 70.0334 47.118C71.1101 47.1241 72.0338 47.1211 72.0858 47.1089C72.1378 47.0998 72.2357 47.045 72.3061 46.9841L72.4345 46.8745V46.5732V46.2688L72.2816 46.1197L72.1317 45.9675H70.7644H69.4002L69.2167 45.8853C69.0209 45.8001 68.9842 45.7514 68.8832 45.4562C68.8404 45.3375 68.8251 45.2035 68.8251 44.9935C68.8251 44.7165 68.8312 44.6922 68.9138 44.5796C68.9628 44.5156 69.0545 44.4122 69.1188 44.3513C69.3635 44.126 69.2442 44.1413 70.7399 44.1413C72.2724 44.1413 72.1256 44.1687 72.2694 43.8551L72.3489 43.6786L72.2999 43.4016C72.2571 43.1825 72.2296 43.1033 72.1684 43.0364L72.0858 42.9542H70.7308H69.3727L69.2136 42.8781C69.1249 42.8385 69.0025 42.7624 68.9414 42.7107L68.8251 42.6163V42.0563V41.4993L68.9383 41.4019C68.9995 41.3471 69.1188 41.271 69.2044 41.2314L69.3604 41.1584H70.7216H72.0828L72.1929 41.0853C72.303 41.0092 72.3489 40.8997 72.4192 40.5557C72.4437 40.434 72.355 40.2757 72.1959 40.1692L72.0828 40.0931L70.171 40.0961C68.4428 40.0961 68.2378 40.1022 68.0359 40.1509Z" fill="#F3B921"/>
</svg>
