<svg width="86" height="80" viewBox="0 0 86 80" fill="none" xmlns="http://www.w3.org/2000/svg">
<path d="M14.125 8.43359H16.6738C17.7793 8.43359 18.6133 8.59375 19.1758 8.91406C19.7383 9.23438 20.0195 9.78711 20.0195 10.5723C20.0195 10.9004 19.9609 11.1973 19.8438 11.4629C19.7305 11.7246 19.5645 11.9414 19.3457 12.1133C19.127 12.2812 18.8574 12.3945 18.5371 12.4531V12.5117C18.8691 12.5703 19.1641 12.6738 19.4219 12.8223C19.6836 12.9707 19.8887 13.1836 20.0371 13.4609C20.1895 13.7383 20.2656 14.0977 20.2656 14.5391C20.2656 15.0625 20.1406 15.5078 19.8906 15.875C19.6445 16.2422 19.291 16.5215 18.8301 16.7129C18.373 16.9043 17.8301 17 17.2012 17H14.125V8.43359ZM15.5312 11.9668H16.8789C17.5156 11.9668 17.957 11.8633 18.2031 11.6562C18.4492 11.4492 18.5723 11.1465 18.5723 10.748C18.5723 10.3418 18.4258 10.0488 18.1328 9.86914C17.8438 9.68945 17.3828 9.59961 16.75 9.59961H15.5312V11.9668ZM15.5312 13.1035V15.8223H17.0137C17.6699 15.8223 18.1309 15.6953 18.3965 15.4414C18.6621 15.1875 18.7949 14.8438 18.7949 14.4102C18.7949 14.1445 18.7344 13.9141 18.6133 13.7188C18.4961 13.5234 18.3027 13.373 18.0332 13.2676C17.7637 13.1582 17.4004 13.1035 16.9434 13.1035H15.5312ZM24.4375 10.3906C25.2578 10.3906 25.877 10.5723 26.2949 10.9355C26.7168 11.2988 26.9277 11.8652 26.9277 12.6348V17H25.9492L25.6855 16.0801H25.6387C25.4551 16.3145 25.2656 16.5078 25.0703 16.6602C24.875 16.8125 24.6484 16.9258 24.3906 17C24.1367 17.0781 23.8262 17.1172 23.459 17.1172C23.0723 17.1172 22.7266 17.0469 22.4219 16.9062C22.1172 16.7617 21.877 16.543 21.7012 16.25C21.5254 15.957 21.4375 15.5859 21.4375 15.1367C21.4375 14.4688 21.6855 13.9668 22.1816 13.6309C22.6816 13.2949 23.4355 13.1094 24.4434 13.0742L25.5684 13.0332V12.6934C25.5684 12.2441 25.4629 11.9238 25.252 11.7324C25.0449 11.541 24.752 11.4453 24.373 11.4453C24.0488 11.4453 23.7344 11.4922 23.4297 11.5859C23.125 11.6797 22.8281 11.7949 22.5391 11.9316L22.0938 10.959C22.4102 10.791 22.7695 10.6543 23.1719 10.5488C23.5781 10.4434 24 10.3906 24.4375 10.3906ZM25.5625 13.9004L24.7246 13.9297C24.0371 13.9531 23.5547 14.0703 23.2773 14.2812C23 14.4922 22.8613 14.7812 22.8613 15.1484C22.8613 15.4688 22.957 15.7031 23.1484 15.8516C23.3398 15.9961 23.5918 16.0684 23.9043 16.0684C24.3809 16.0684 24.7754 15.9336 25.0879 15.6641C25.4043 15.3906 25.5625 14.9902 25.5625 14.4629V13.9004ZM31.4688 17.1172C30.8555 17.1172 30.3242 16.998 29.875 16.7598C29.4258 16.5215 29.0801 16.1562 28.8379 15.6641C28.5957 15.1719 28.4746 14.5469 28.4746 13.7891C28.4746 13 28.6074 12.3555 28.873 11.8555C29.1387 11.3555 29.5059 10.9863 29.9746 10.748C30.4473 10.5098 30.9883 10.3906 31.5977 10.3906C31.9844 10.3906 32.334 10.4297 32.6465 10.5078C32.9629 10.582 33.2305 10.6738 33.4492 10.7832L33.0391 11.8848C32.8008 11.7871 32.5566 11.7051 32.3066 11.6387C32.0566 11.5723 31.8164 11.5391 31.5859 11.5391C31.207 11.5391 30.8906 11.623 30.6367 11.791C30.3867 11.959 30.1992 12.209 30.0742 12.541C29.9531 12.873 29.8926 13.2852 29.8926 13.7773C29.8926 14.2539 29.9551 14.6562 30.0801 14.9844C30.2051 15.3086 30.3906 15.5547 30.6367 15.7227C30.8828 15.8867 31.1855 15.9688 31.5449 15.9688C31.9004 15.9688 32.2188 15.9258 32.5 15.8398C32.7812 15.7539 33.0469 15.6426 33.2969 15.5059V16.7012C33.0508 16.8418 32.7871 16.9453 32.5059 17.0117C32.2246 17.082 31.8789 17.1172 31.4688 17.1172ZM36.1973 7.88281V12.2891C36.1973 12.4883 36.1895 12.707 36.1738 12.9453C36.1582 13.1797 36.1426 13.4004 36.127 13.6074H36.1562C36.2578 13.4707 36.3789 13.3105 36.5195 13.127C36.6641 12.9434 36.8008 12.7832 36.9297 12.6465L38.9102 10.5137H40.4922L37.8965 13.3027L40.6621 17H39.0449L36.9707 14.1523L36.1973 14.8145V17H34.8203V7.88281H36.1973ZM44.2832 10.3906C44.8613 10.3906 45.3574 10.5098 45.7715 10.748C46.1855 10.9863 46.5039 11.3242 46.7266 11.7617C46.9492 12.1992 47.0605 12.7227 47.0605 13.332V14.0703H42.7305C42.7461 14.6992 42.9141 15.1836 43.2344 15.5234C43.5586 15.8633 44.0117 16.0332 44.5938 16.0332C45.0078 16.0332 45.3789 15.9941 45.707 15.916C46.0391 15.834 46.3809 15.7148 46.7324 15.5586V16.6777C46.4082 16.8301 46.0781 16.9414 45.7422 17.0117C45.4062 17.082 45.0039 17.1172 44.5352 17.1172C43.8984 17.1172 43.3379 16.9941 42.8535 16.748C42.373 16.498 41.9961 16.127 41.7227 15.6348C41.4531 15.1426 41.3184 14.5312 41.3184 13.8008C41.3184 13.0742 41.4414 12.457 41.6875 11.9492C41.9336 11.4414 42.2793 11.0547 42.7246 10.7891C43.1699 10.5234 43.6895 10.3906 44.2832 10.3906ZM44.2832 11.4277C43.8496 11.4277 43.498 11.5684 43.2285 11.8496C42.9629 12.1309 42.8066 12.543 42.7598 13.0859H45.7129C45.709 12.7617 45.6543 12.4746 45.5488 12.2246C45.4473 11.9746 45.291 11.7793 45.0801 11.6387C44.873 11.498 44.6074 11.4277 44.2832 11.4277ZM50.793 17.1172C50.0195 17.1172 49.3984 16.8359 48.9297 16.2734C48.4648 15.707 48.2324 14.873 48.2324 13.7715C48.2324 12.6582 48.4688 11.8164 48.9414 11.2461C49.418 10.6758 50.0449 10.3906 50.8223 10.3906C51.1504 10.3906 51.4375 10.4355 51.6836 10.5254C51.9297 10.6113 52.1406 10.7285 52.3164 10.877C52.4961 11.0254 52.6484 11.1914 52.7734 11.375H52.8379C52.8184 11.2539 52.7949 11.0801 52.7676 10.8535C52.7441 10.623 52.7324 10.4102 52.7324 10.2148V7.88281H54.1152V17H53.0371L52.791 16.1152H52.7324C52.6152 16.3027 52.4668 16.4727 52.2871 16.625C52.1113 16.7734 51.9004 16.8926 51.6543 16.9824C51.4121 17.0723 51.125 17.1172 50.793 17.1172ZM51.1797 15.998C51.7695 15.998 52.1855 15.8281 52.4277 15.4883C52.6699 15.1484 52.7949 14.6387 52.8027 13.959V13.7773C52.8027 13.0508 52.6855 12.4941 52.4512 12.1074C52.2168 11.7168 51.7891 11.5215 51.168 11.5215C50.6719 11.5215 50.293 11.7227 50.0312 12.125C49.7734 12.5234 49.6445 13.0801 49.6445 13.7949C49.6445 14.5098 49.7734 15.0566 50.0312 15.4355C50.293 15.8105 50.6758 15.998 51.1797 15.998ZM60.584 7.88281V10.0801C60.584 10.334 60.5762 10.584 60.5605 10.8301C60.5488 11.0723 60.5371 11.2617 60.5254 11.3984H60.584C60.7598 11.1172 61.0039 10.8809 61.3164 10.6895C61.6328 10.4941 62.0371 10.3965 62.5293 10.3965C63.2988 10.3965 63.918 10.6797 64.3867 11.2461C64.8555 11.8086 65.0898 12.6426 65.0898 13.748C65.0898 14.4824 64.9824 15.0996 64.7676 15.5996C64.5527 16.0996 64.25 16.4785 63.8594 16.7363C63.4727 16.9902 63.0176 17.1172 62.4941 17.1172C62.002 17.1172 61.6035 17.0273 61.2988 16.8477C60.998 16.6641 60.7617 16.4512 60.5898 16.209H60.4902L60.2383 17H59.207V7.88281H60.584ZM62.166 11.5156C61.7754 11.5156 61.4648 11.5938 61.2344 11.75C61.0078 11.9062 60.8438 12.1406 60.7422 12.4531C60.6406 12.7617 60.5879 13.1543 60.584 13.6309V13.7539C60.584 14.4766 60.6973 15.0293 60.9238 15.4121C61.1543 15.7949 61.5723 15.9863 62.1777 15.9863C62.6582 15.9863 63.0273 15.793 63.2852 15.4062C63.543 15.0156 63.6719 14.457 63.6719 13.7305C63.6719 12.9961 63.543 12.4434 63.2852 12.0723C63.0312 11.7012 62.6582 11.5156 62.166 11.5156ZM65.7051 10.5137H67.2051L68.5352 14.2168C68.5938 14.3848 68.6465 14.5508 68.6934 14.7148C68.7441 14.875 68.7871 15.0332 68.8223 15.1895C68.8613 15.3457 68.8926 15.502 68.916 15.6582H68.9512C68.9902 15.4551 69.0449 15.2285 69.1152 14.9785C69.1895 14.7246 69.2715 14.4707 69.3613 14.2168L70.6387 10.5137H72.1211L69.3379 17.8906C69.1777 18.3125 68.9805 18.6719 68.7461 18.9688C68.5156 19.2695 68.2422 19.4961 67.9258 19.6484C67.6094 19.8047 67.248 19.8828 66.8418 19.8828C66.6465 19.8828 66.4766 19.8711 66.332 19.8477C66.1875 19.8281 66.0645 19.8066 65.9629 19.7832V18.6816C66.0449 18.7012 66.1484 18.7188 66.2734 18.7344C66.3984 18.75 66.5273 18.7578 66.6602 18.7578C66.9062 18.7578 67.1191 18.709 67.2988 18.6113C67.4785 18.5137 67.6309 18.375 67.7559 18.1953C67.8809 18.0195 67.9844 17.8184 68.0664 17.5918L68.2949 16.9824L65.7051 10.5137Z" fill="#3E3D3D"/>
<path d="M40.6757 25.2322L40.665 25.4026L40.4009 25.5411C40.0976 25.6973 39.5195 26.2407 39.3161 26.5567C39.2483 26.6632 39.1269 26.8124 39.0484 26.8869C38.8914 27.0396 38.8379 27.1462 38.7059 27.5901C38.6559 27.757 38.5738 27.9487 38.5274 28.0162C38.2919 28.3393 38.2384 28.4601 38.1242 28.9679C38.0314 29.3691 37.9636 29.568 37.8244 29.845C37.621 30.2569 37.5675 30.4877 37.5104 31.2796C37.4889 31.5637 37.4568 31.8904 37.4354 32.0076C37.389 32.2774 37.3926 32.8172 37.4354 33.0019C37.4533 33.08 37.4925 33.3925 37.5211 33.6979C37.5924 34.4507 37.6531 34.6673 37.8494 34.9052C37.935 35.0117 38.0314 35.1751 38.0635 35.2745C38.1741 35.6083 38.3169 35.8782 38.4846 36.0735C38.5774 36.18 38.713 36.3789 38.7808 36.5103C38.8522 36.6452 38.9699 36.8015 39.0449 36.8618C39.1162 36.9187 39.2447 37.0642 39.3268 37.1885C39.416 37.3199 39.5552 37.462 39.6729 37.5436C39.7836 37.6218 39.912 37.7532 39.9691 37.8455C40.0262 37.9378 40.1761 38.1012 40.301 38.2112L40.5294 38.4136L40.6436 38.8504C40.7078 39.0919 40.8292 39.4399 40.9148 39.6246C41.1218 40.0791 41.1397 40.1608 41.2003 40.7964C41.261 41.4143 41.2646 42.2843 41.2146 42.7672C41.1968 42.9412 41.1682 43.5982 41.1504 44.2232C41.1218 45.2991 41.1147 45.3772 41.0255 45.672L40.9327 45.9809V49.3722C40.9327 52.6747 40.9291 52.7705 40.8613 53.0227C40.822 53.1611 40.7721 53.4772 40.7542 53.7222C40.7114 54.3152 40.6436 54.5638 40.4973 54.6881C40.4331 54.7449 40.3653 54.7875 40.3438 54.7875C40.2618 54.7875 40.1511 54.6206 39.987 54.2549C39.8942 54.0489 39.7729 53.8252 39.7193 53.7577C39.5659 53.5624 39.4838 53.3742 39.3982 53.012C39.3125 52.6391 39.2233 52.4154 39.0984 52.2521C38.9557 52.0603 38.87 51.8615 38.7737 51.4815C38.7166 51.2507 38.6095 50.9666 38.4882 50.7216C38.3097 50.3594 38.2419 50.1747 38.0457 49.5142C38.0028 49.3757 37.9315 49.2017 37.8815 49.1236C37.7102 48.8502 37.6174 48.6229 37.5068 48.2181C37.4461 47.9944 37.3498 47.7316 37.2927 47.6322C37.0429 47.1989 37 47.096 36.8823 46.6166C36.7966 46.2615 36.7253 46.059 36.6539 45.9454C36.3827 45.537 36.3577 45.4767 36.2185 44.9121C36.14 44.5925 36.0437 44.2622 36.008 44.177C35.9045 43.9462 35.9116 43.5485 36.0222 43.2289C36.0686 43.0904 36.1721 42.7708 36.2542 42.5187C36.3434 42.2275 36.4576 41.9576 36.5575 41.7907C36.8252 41.3433 36.9001 40.8284 36.9001 39.3831C36.9001 38.087 36.8002 37.43 36.5468 37.0678C36.4719 36.9613 36.3684 36.7553 36.3149 36.6133C36.1864 36.2511 36.1436 36.18 35.8973 35.9066C35.7796 35.7752 35.6297 35.5941 35.5726 35.5053C35.5119 35.4166 35.3478 35.2319 35.2086 35.0934C35.0694 34.9549 34.8803 34.7632 34.7875 34.6673C34.6947 34.5714 34.477 34.3619 34.3057 34.2021C34.1344 34.0423 33.8561 33.7831 33.6884 33.6304C33.3743 33.3356 33.1673 33.1972 32.8319 33.0587C32.7248 33.0161 32.5286 32.9166 32.4001 32.8385C32.0611 32.6361 31.6221 32.5473 31.0833 32.5686C30.5622 32.5899 30.3374 32.6396 30.1269 32.7923C30.0341 32.8563 29.8485 32.9699 29.7165 33.0409C29.5595 33.1261 29.3668 33.2788 29.1705 33.4777C28.9171 33.7298 28.8386 33.8363 28.7101 34.1027C28.628 34.2767 28.5031 34.4897 28.4318 34.575C28.3176 34.7099 28.2391 34.9088 28.1784 35.2035C28.1677 35.2603 28.1249 35.6225 28.0856 36.0025C27.9964 36.8725 27.9821 38.8362 28.0642 39.2694C28.0928 39.415 28.1356 39.7098 28.157 39.9264C28.2069 40.3738 28.2712 40.5691 28.4746 40.8781C28.5531 40.9988 28.6673 41.2296 28.728 41.3894C28.8243 41.6415 28.8707 41.7126 29.0456 41.8688C29.1598 41.9718 29.3025 42.1316 29.3668 42.2239C29.4274 42.3162 29.5488 42.4405 29.6308 42.4974C29.7129 42.5542 29.8664 42.6962 29.9698 42.8134C30.1055 42.9732 30.2197 43.0584 30.3909 43.1401C30.5194 43.2005 30.7014 43.3212 30.7942 43.4064C30.8977 43.5023 31.1047 43.6301 31.3366 43.7367C31.5615 43.8432 31.7649 43.9675 31.8505 44.0527C31.929 44.1308 32.0968 44.248 32.2252 44.3155C32.5714 44.5001 32.9818 44.9298 33.1495 45.2885C33.2244 45.4447 33.3493 45.6471 33.4278 45.7395C33.5849 45.9206 33.6705 46.1372 33.7954 46.6805C33.8418 46.8758 33.9346 47.1279 34.0274 47.3126C34.2129 47.6712 34.3343 48.0157 34.4378 48.4454C34.5198 48.8076 34.5805 48.9567 34.6983 49.113C34.8589 49.326 34.9409 49.5355 35.0123 49.8977C35.1015 50.3736 35.1337 50.4623 35.2871 50.6612C35.4441 50.8672 35.5155 51.0483 35.6118 51.5028C35.7118 51.9715 35.8117 52.2663 35.9723 52.5681C36.1008 52.8131 36.1293 52.909 36.3113 53.6512C36.3648 53.8749 36.4612 54.1519 36.5575 54.3436C36.7395 54.7058 36.7966 54.8905 36.9037 55.4445C36.9893 55.8848 36.9786 56.0588 36.8644 56.2932C36.7859 56.4565 36.6253 56.5808 36.5575 56.5346C36.5397 56.5204 36.4291 56.389 36.3149 56.2435C36.2042 56.0979 35.9866 55.8457 35.8367 55.6895C35.3121 55.1355 35.0623 54.8479 34.9731 54.6845C34.9231 54.5958 34.7911 54.4466 34.6733 54.3578C34.5591 54.2655 34.4128 54.1093 34.3486 54.0134C34.2808 53.9175 34.1594 53.7861 34.0773 53.7187C33.9953 53.6547 33.8668 53.5056 33.7918 53.3849C33.7133 53.2677 33.5706 53.1079 33.4671 53.0298C33.3636 52.9481 33.2458 52.8309 33.2066 52.767C33.1673 52.7031 33.0103 52.5149 32.8604 52.3515C32.707 52.1846 32.5821 52.0355 32.5821 52.0177C32.5821 52 32.4572 51.8508 32.3002 51.6875C32.0789 51.446 31.979 51.3004 31.8184 50.9808C31.7078 50.7606 31.5686 50.5156 31.5115 50.4375C31.3545 50.228 31.2617 49.8196 31.2617 49.3402C31.2617 48.8786 31.1725 47.8133 31.1154 47.6002C31.094 47.5221 31.0226 47.3339 30.9584 47.1847C30.8906 47.032 30.8192 46.8403 30.7978 46.7586C30.7764 46.6734 30.7014 46.4461 30.63 46.2508C30.5123 45.9383 30.4766 45.8744 30.266 45.6649C30.1376 45.5335 29.9877 45.3595 29.9342 45.2814C29.8806 45.1997 29.7522 45.0719 29.6487 44.9937C29.5416 44.9156 29.4274 44.8055 29.3917 44.7523C29.2561 44.5392 29.1419 44.454 28.81 44.3297C28.5995 44.248 28.4139 44.1486 28.314 44.0598C28.082 43.861 28 43.8254 27.4326 43.687C27.1542 43.6195 26.8152 43.5165 26.676 43.4632C25.9088 43.1578 24.9666 43.1365 24.5134 43.41C24.4028 43.4739 24.2422 43.5591 24.1566 43.5946C23.9424 43.687 23.7854 43.8254 23.6712 44.0243C23.6213 44.1131 23.5106 44.2906 23.425 44.4185C23.193 44.7665 23.1502 44.9973 23.1466 46.0164C23.1431 47.0711 23.2216 47.6073 23.4393 48.0192C23.5142 48.1613 23.6213 48.4205 23.6748 48.5945C23.8461 49.1414 23.8782 49.2159 24.0317 49.3864C24.1173 49.4787 24.2672 49.7131 24.3707 49.9084C24.5991 50.3345 24.5919 50.3239 24.8382 50.4908C24.9452 50.5653 25.1522 50.7287 25.2914 50.8565C25.5483 51.0802 25.6625 51.1513 26.0586 51.3217C26.1728 51.3714 26.3263 51.4602 26.4012 51.5206C26.5904 51.6697 26.9044 51.762 27.4575 51.826C28.0713 51.8934 28.4389 51.9857 28.6388 52.1242C28.728 52.1846 28.9421 52.2911 29.1134 52.3586C29.6629 52.5823 29.7343 52.632 29.9627 52.9729C30.1518 53.2535 30.4338 53.5802 30.9726 54.1306C31.0868 54.2513 31.2331 54.436 31.2974 54.5496C31.4044 54.7378 31.4794 54.8195 31.7078 54.9793C31.7613 55.0148 31.8577 55.1249 31.9219 55.2279C31.9861 55.3273 32.1075 55.4729 32.1895 55.551C32.2716 55.6291 32.3929 55.7747 32.4608 55.8741C32.525 55.9771 32.6677 56.1334 32.7748 56.2257C32.8818 56.3145 33.021 56.4778 33.0817 56.5879C33.1424 56.6944 33.2851 56.8826 33.3993 57.0034C33.5135 57.1241 33.6741 57.3407 33.7597 57.4863C33.8454 57.6319 34.0131 57.8556 34.1344 57.9835C34.2915 58.1468 34.3735 58.2675 34.4164 58.4025C34.4556 58.5161 34.5163 58.612 34.5698 58.6511C34.7018 58.7363 34.9017 58.928 34.9017 58.9671C34.9017 58.9849 34.8589 59.0488 34.8053 59.1127L34.7054 59.2263L34.3914 59.166C34.0988 59.1091 34.0631 59.0914 33.9025 58.9387C33.7954 58.8357 33.6491 58.7434 33.5278 58.6972C33.2316 58.5871 33.0817 58.5019 32.8854 58.3421C32.7855 58.2604 32.5535 58.1149 32.3644 58.019C32.1753 57.9231 31.9433 57.7811 31.8469 57.6994C31.722 57.5964 31.5722 57.5254 31.2902 57.4295C30.9227 57.3088 30.7585 57.22 30.6657 57.0922C30.6408 57.0566 30.5194 56.9679 30.3945 56.8897C30.2696 56.8116 30.1233 56.6873 30.0626 56.6163C29.9128 56.4281 29.7236 56.2399 29.5773 56.1298C29.4952 56.0659 29.406 55.9487 29.3382 55.7996C29.2775 55.6717 29.174 55.5084 29.1062 55.4374C28.9599 55.2705 28.8993 55.1568 28.8065 54.8514C28.7066 54.5318 28.653 54.4395 28.4782 54.2726C28.3961 54.1945 28.2748 54.0489 28.2105 53.9495C28.1463 53.85 28.0142 53.7045 27.9215 53.6299C27.8287 53.5518 27.6931 53.431 27.6253 53.3529C27.4861 53.2073 27.3469 53.1256 27.0364 53.0084C26.9258 52.9694 26.7545 52.8771 26.651 52.806C26.287 52.5575 25.7731 52.4438 25.0166 52.4438C24.5384 52.4438 24.0995 52.4971 23.8639 52.5859C23.6641 52.6604 22.8112 53.2783 22.7255 53.4133C22.697 53.4559 22.6363 53.5837 22.5971 53.6974C22.5257 53.8856 22.5186 53.9708 22.5186 54.6739C22.5186 55.7747 22.6042 56.2719 22.8611 56.6412C22.9218 56.7335 23.0182 56.9253 23.0753 57.0637C23.1538 57.2733 23.2251 57.3798 23.4571 57.6248C23.7319 57.9195 24.0245 58.161 24.1066 58.161C24.128 58.161 24.2565 58.2391 24.3957 58.335C24.8168 58.6333 24.8239 58.6333 26.5333 58.6582C28.2319 58.683 28.2498 58.6866 28.8564 58.992C29.0313 59.0807 29.3239 59.1944 29.5095 59.2441C29.9092 59.3542 29.977 59.3861 30.2089 59.5814C30.3624 59.7057 30.5194 59.7909 31.0083 60.0218C31.0547 60.0431 31.1689 60.1354 31.2581 60.2242C31.358 60.3236 31.5365 60.4443 31.6935 60.5154C31.8398 60.5864 32.0611 60.732 32.1895 60.8421C32.318 60.9521 32.55 61.1048 32.707 61.1794C32.8783 61.2611 33.0496 61.3747 33.1352 61.4635C33.2137 61.5452 33.4064 61.6766 33.5635 61.7547C33.7169 61.8328 33.9346 61.9677 34.0417 62.0565C34.2808 62.2518 34.3521 62.2873 34.709 62.401C34.866 62.4542 35.0694 62.543 35.1551 62.5998C35.2407 62.6566 35.3692 62.7419 35.437 62.788C35.6368 62.923 35.826 62.9798 36.2578 63.0437C36.4826 63.0757 36.8002 63.1431 36.9679 63.1893L37.2677 63.2781L42.8383 63.2639C46.7995 63.2568 48.4553 63.239 48.5695 63.2106C48.6588 63.1893 48.9549 63.136 49.2297 63.097C49.815 63.0046 49.9613 62.9478 50.2789 62.6922C50.4074 62.5892 50.6108 62.4507 50.7286 62.3868C50.8463 62.3228 51.0319 62.1844 51.1389 62.0814C51.2603 61.9642 51.4387 61.847 51.61 61.7653C51.7635 61.6943 51.9562 61.57 52.0382 61.4883C52.131 61.4031 52.338 61.2753 52.5593 61.1723C52.8126 61.0516 52.9768 60.9486 53.0946 60.8279C53.223 60.7036 53.3444 60.629 53.5692 60.5402C53.9189 60.4017 53.9974 60.3556 54.1866 60.1922C54.3115 60.0821 54.4042 60.0324 54.8396 59.8478C54.9217 59.8158 55.0644 59.7164 55.1608 59.6276C55.3499 59.4536 55.5498 59.3435 55.9352 59.1944C56.0815 59.1376 56.2742 59.0417 56.3706 58.9742C56.4633 58.9103 56.6168 58.8428 56.706 58.8251C56.7952 58.8109 57.5161 58.7825 58.3119 58.7647C60.2497 58.7256 60.5102 58.683 60.9919 58.3244C61.1097 58.2356 61.3024 58.1184 61.4273 58.0616C61.6593 57.9515 61.7806 57.8414 61.9126 57.6213C61.9555 57.5502 62.0697 57.4295 62.1696 57.3585C62.2659 57.2875 62.3694 57.188 62.3944 57.1348C62.423 57.0851 62.5015 56.8116 62.5728 56.5311C62.6442 56.2506 62.712 56.0055 62.7263 55.9842C62.7762 55.9026 62.8405 55.1497 62.844 54.6171C62.844 54.1235 62.8333 54.0205 62.7762 53.9069C62.7406 53.8358 62.6763 53.6689 62.6335 53.5376C62.5693 53.3458 62.5193 53.2677 62.3944 53.1576C62.3052 53.0795 62.1803 53.0084 62.1125 52.9978C62.0411 52.9836 61.8769 52.9161 61.7449 52.8487C61.3131 52.6214 61.0526 52.5717 60.346 52.5681C59.6787 52.5681 59.5502 52.593 59.1612 52.7847C59.0684 52.8309 58.8436 52.9126 58.6616 52.9623C58.2262 53.0866 58.0407 53.1825 57.7873 53.4133C57.6731 53.5198 57.4768 53.6796 57.3519 53.7719C57.1878 53.8891 57.0629 54.024 56.913 54.2442C56.7952 54.4147 56.6453 54.6171 56.574 54.6916C56.5062 54.7698 56.3991 54.9367 56.342 55.0681C56.2849 55.1959 56.2064 55.3699 56.1671 55.4516C56.1315 55.5368 56.028 55.6895 55.9423 55.7996C55.8531 55.9061 55.7139 56.0908 55.6319 56.215C55.5462 56.3393 55.2928 56.6234 55.0644 56.8507C54.7254 57.188 54.5934 57.2946 54.3329 57.4331C54.1544 57.5289 53.9439 57.6639 53.8654 57.7384C53.6834 57.9018 53.562 57.9657 53.2516 58.0616C52.9554 58.1504 52.7841 58.2356 52.6913 58.3386C52.57 58.4735 52.3416 58.5836 52.0739 58.6404C51.9312 58.6688 51.7635 58.715 51.6957 58.7434C51.5386 58.8073 51.453 58.754 51.3709 58.5374C51.3174 58.3989 51.3174 58.3741 51.3638 58.2782C51.3959 58.2214 51.4922 58.1149 51.5815 58.0403C51.6742 57.9657 51.792 57.8201 51.8598 57.6923C51.924 57.5751 52.0418 57.4117 52.1203 57.3301C52.2024 57.2519 52.363 57.0495 52.4772 56.8826C52.5914 56.7157 52.7769 56.4814 52.8911 56.3606C53.0018 56.2399 53.1374 56.0623 53.1909 55.9629C53.2444 55.867 53.3908 55.6966 53.5157 55.5865C53.6441 55.4764 53.7726 55.3344 53.8011 55.274C53.8333 55.2101 53.9617 55.0574 54.0831 54.9296C54.2044 54.8017 54.34 54.6313 54.3793 54.5532C54.4221 54.4715 54.5327 54.3365 54.6291 54.2513C54.7254 54.1661 54.8682 53.9992 54.9502 53.882C55.0288 53.7648 55.1608 53.605 55.2429 53.5269C55.3249 53.4488 55.5105 53.2286 55.6568 53.0404C55.9459 52.6711 56.0672 52.5752 56.5633 52.3373C56.731 52.2592 56.9415 52.1384 57.0308 52.0745C57.2092 51.9502 57.3805 51.9076 58.2191 51.7833C58.7258 51.7088 59.0292 51.6164 59.2148 51.4744C59.2968 51.4105 59.5109 51.3004 59.6894 51.2258C59.8999 51.1406 60.0819 51.0341 60.2211 50.9133C60.3389 50.8139 60.5673 50.647 60.7279 50.5405C60.9384 50.3984 61.0633 50.2812 61.1775 50.125C61.2667 50.0043 61.4273 49.8054 61.5379 49.6811C61.7485 49.4432 61.8662 49.2408 61.9662 48.9389C62.0019 48.836 62.0982 48.6478 62.1838 48.5199C62.4551 48.108 62.5907 47.3658 62.6192 46.123C62.6442 45.0683 62.5371 44.4007 62.2909 44.0776C62.191 43.9497 61.388 43.4029 61.124 43.2821C60.9884 43.2218 60.8884 43.2111 60.3103 43.2111C59.4931 43.2111 59.1077 43.2644 58.7223 43.4348C58.5653 43.5058 58.2369 43.6195 57.9943 43.6905C57.4697 43.8432 57.4233 43.8645 57.1485 44.0918C57.0308 44.1912 56.8273 44.3297 56.6953 44.4007C56.5204 44.4966 56.4134 44.5854 56.3135 44.7239C56.2349 44.8268 56.1029 44.9689 56.0173 45.0399C55.928 45.1145 55.7782 45.3062 55.6675 45.4909C55.5605 45.6649 55.407 45.8886 55.3214 45.988C55.1358 46.2046 55.1144 46.2437 55.0073 46.5597C54.9609 46.6982 54.8575 46.9184 54.7789 47.0462C54.5256 47.4653 54.5184 47.4866 54.4935 48.6087C54.4649 49.6314 54.4042 50.1676 54.29 50.3913C54.2651 50.4446 54.1723 50.5689 54.0831 50.6683C53.9974 50.7642 53.8475 50.9986 53.7476 51.1903C53.6156 51.446 53.5228 51.5774 53.4015 51.6768C53.3122 51.7514 53.1659 51.9218 53.0839 52.0497C52.9982 52.1775 52.859 52.3337 52.7734 52.3977C52.6842 52.4616 52.5521 52.6036 52.4808 52.7173C52.4058 52.8309 52.288 52.9658 52.2167 53.0227C52.1453 53.0759 52.0133 53.2286 51.924 53.36C51.8348 53.4878 51.6849 53.6547 51.5922 53.7258C51.4994 53.7968 51.3531 53.9566 51.2674 54.0809C51.1818 54.2087 51.0569 54.3543 50.9855 54.4076C50.9177 54.4608 50.7857 54.61 50.7 54.7414C50.6108 54.8763 50.4645 55.0539 50.3717 55.1391C50.2789 55.2279 50.1219 55.4161 50.0255 55.5652C49.9256 55.7108 49.6651 56.0055 49.4474 56.2221L49.0549 56.6092L48.8086 56.5701C48.673 56.5453 48.5481 56.5169 48.5338 56.5098C48.5196 56.4991 48.5374 56.4317 48.5731 56.3606C48.6088 56.2861 48.6409 56.1724 48.6409 56.1014C48.6409 55.9381 48.8015 55.1178 48.8943 54.8124C48.9335 54.681 49.0192 54.4715 49.087 54.3507C49.2048 54.1341 49.3118 53.8039 49.4581 53.1718C49.5009 52.9907 49.6009 52.7137 49.6901 52.5326C49.8507 52.213 49.9185 52.0035 50.0862 51.3075C50.1397 51.0767 50.2361 50.8139 50.336 50.615C50.4466 50.3984 50.5359 50.1357 50.6215 49.7983C50.6893 49.5249 50.7857 49.2301 50.832 49.1414C51.1497 48.5448 51.1782 48.4738 51.2603 48.0547C51.3495 47.6109 51.403 47.4724 51.5636 47.2593C51.6957 47.0889 51.7278 47.0001 51.8562 46.5065C51.9883 45.9774 52.0204 45.8993 52.1881 45.7004C52.2631 45.6116 52.3773 45.427 52.4451 45.292C52.6092 44.9582 53.0803 44.4824 53.4336 44.2906C53.5692 44.2125 53.7226 44.1024 53.769 44.0385C53.8297 43.9568 53.9796 43.8645 54.2365 43.7438C54.4506 43.6408 54.7004 43.4881 54.8111 43.3922C54.9217 43.2963 55.1001 43.1756 55.2072 43.1223C55.3142 43.0691 55.5105 42.927 55.639 42.8063C55.7675 42.6891 55.9388 42.5364 56.0208 42.4725C56.1029 42.4086 56.2171 42.263 56.2813 42.1458C56.3491 42.018 56.4705 41.8688 56.5847 41.7729C56.7595 41.6202 56.7809 41.5883 56.9023 41.219C56.9915 40.9597 57.0914 40.7431 57.2056 40.5727C57.4019 40.2815 57.4197 40.2282 57.5446 39.5074C57.6231 39.0386 57.6339 38.8824 57.6339 38.1047C57.6339 37.6218 57.616 37.1637 57.5982 37.0856C57.5803 37.0074 57.5339 36.6878 57.4947 36.3718C57.4233 35.8107 57.3127 35.3597 57.2235 35.2568C57.1271 35.1431 56.9951 34.8342 56.9023 34.4933C56.7809 34.053 56.7774 34.0459 56.524 33.776C56.4062 33.6552 56.3135 33.5416 56.3135 33.5203C56.3135 33.4244 56.0494 33.1972 55.8567 33.1261C55.746 33.0835 55.5426 32.9841 55.4106 32.906C55.0644 32.6965 54.7682 32.6254 54.39 32.6503C54.026 32.6752 53.9332 32.7 53.5264 32.8811C53.3551 32.9557 53.091 33.048 52.9375 33.0871C52.4379 33.2078 52.2488 33.2966 52.0097 33.5203C51.8884 33.6304 51.7242 33.7582 51.6457 33.7973C51.5672 33.8363 51.4459 33.9393 51.3816 34.021C51.3174 34.1027 51.2032 34.227 51.1282 34.2944C51.0497 34.3655 50.9141 34.5004 50.8249 34.5927C50.7321 34.685 50.543 34.8768 50.4038 35.0188C50.2646 35.1609 50.1076 35.3526 50.0505 35.4485C49.997 35.548 49.8578 35.7255 49.74 35.8498C49.5973 36.0025 49.476 36.1871 49.3546 36.4322C49.2583 36.6275 49.1191 36.8689 49.0477 36.9648C48.8836 37.1885 48.8015 37.4584 48.7123 38.0656C48.673 38.332 48.6017 38.6658 48.5517 38.8043C48.4161 39.1771 48.4339 39.6103 48.6338 40.6721C48.8229 41.67 48.8871 41.8866 49.0834 42.1813C49.3332 42.5613 49.3975 42.7992 49.4617 43.6017C49.4902 43.9462 49.4831 44.074 49.4224 44.4362C49.3368 44.9582 49.2797 45.1429 49.1048 45.4731C48.9442 45.7714 48.8229 46.1088 48.6944 46.6201C48.6445 46.8261 48.5588 47.0604 48.5053 47.1457C48.2698 47.5221 48.2127 47.6499 48.1235 48.0299C48.0342 48.4098 47.9629 48.5803 47.7345 48.9709C47.6809 49.0597 47.5846 49.3473 47.5168 49.6101C47.3812 50.1499 47.3312 50.2848 47.1885 50.4979C47.0422 50.7109 47.01 50.7961 46.8923 51.2755C46.7781 51.7372 46.7602 51.7798 46.5889 52.0177C46.4391 52.2237 46.3748 52.3799 46.2642 52.8167C46.2142 53.012 46.1179 53.2748 46.0465 53.4026C45.786 53.8714 45.7468 53.9601 45.6647 54.2904C45.5112 54.9083 45.4398 54.9828 45.033 54.9296C44.8867 54.9118 44.7547 54.8941 44.7333 54.8941C44.6655 54.8941 44.5406 54.6632 44.4799 54.4324C44.4264 54.2371 44.4157 53.9282 44.3942 52.3906C44.38 51.3927 44.3479 50.4126 44.3264 50.2067C44.2979 49.9332 44.2872 48.4525 44.2943 44.7381C44.305 39.9584 44.3122 39.6246 44.3728 39.3405C44.4406 39.0209 44.5263 38.8185 44.6298 38.7332C44.6655 38.7048 44.7797 38.5663 44.8831 38.4279C44.9902 38.2858 45.1615 38.1047 45.265 38.0301C45.372 37.952 45.5041 37.8348 45.5576 37.7674C45.6147 37.6999 45.761 37.5756 45.8859 37.4975C46.0679 37.3767 46.1286 37.3093 46.2178 37.1317C46.2785 37.011 46.4069 36.8334 46.4997 36.7304C46.6853 36.5387 46.8566 36.2298 46.928 35.967C46.9815 35.7681 47.0886 35.5622 47.217 35.3988C47.3491 35.2355 47.4347 34.9833 47.5525 34.4045C47.6024 34.1453 47.6881 33.8221 47.738 33.6837C47.788 33.5452 47.8415 33.3179 47.8594 33.1794C47.8737 33.0445 47.9236 32.7675 47.9664 32.5686L48.0485 32.2064L47.9486 31.9294C47.8737 31.7306 47.8415 31.5495 47.8237 31.2796C47.8059 31.0381 47.7702 30.8322 47.7202 30.6972C47.6774 30.5836 47.5917 30.2427 47.5311 29.9373C47.4026 29.2875 47.3633 29.1703 47.1813 28.8649C47.1028 28.737 46.9922 28.4743 46.928 28.279C46.7888 27.8493 46.7424 27.7605 46.5675 27.5403C46.4926 27.4445 46.3677 27.2314 46.2856 27.0645C46.175 26.8408 46.0679 26.6881 45.8609 26.4715C45.7111 26.3152 45.5326 26.1164 45.4684 26.0347C45.3828 25.9211 45.2507 25.8287 44.9724 25.6831C44.4799 25.4239 44.4656 25.4097 44.4656 25.218V25.0653H42.5778H40.6864L40.6757 25.2322Z" fill="#83620C"/>
<path d="M2.87304 70.4157C2.5483 70.4512 2.15575 70.5365 1.95947 70.611C1.71681 70.7069 1.54194 70.8383 1.20292 71.1899C0.699748 71.7083 0.628375 71.932 0.649787 72.9299C0.664062 73.6649 0.714022 73.8673 0.945983 74.1372C1.02806 74.2331 1.13869 74.3822 1.18865 74.471C1.24218 74.5598 1.3421 74.6663 1.4099 74.7089C1.48128 74.7516 1.82387 74.8581 2.17002 74.9433L2.80167 75.0996H3.72594C4.64308 75.0996 4.65379 75.0996 4.8001 75.1883C4.88218 75.2345 5.03563 75.3091 5.14269 75.3481C5.52453 75.4973 5.62089 75.6571 5.59234 76.0974C5.56736 76.4809 5.5174 76.5839 5.25332 76.7757C5.14269 76.8573 5.01065 76.9674 4.96069 77.0171C4.81081 77.1734 4.70732 77.2231 4.39328 77.2799C3.73308 77.4042 2.20928 77.2977 1.66685 77.0917C1.47057 77.0171 1.13869 77.2373 1.02092 77.5178C0.970964 77.6386 0.974532 77.6528 1.11014 77.9617C1.35638 78.5157 1.44202 78.5405 3.30841 78.5689C4.75014 78.5902 5.20336 78.5583 5.51026 78.4198C5.79932 78.2884 6.61296 77.7202 6.69861 77.5924C6.78426 77.461 6.90559 77.1521 7.04834 76.694C7.13041 76.4277 7.14112 76.3424 7.12685 76.037C7.10543 75.515 6.85206 74.7445 6.62724 74.4994C6.51661 74.3822 6.05269 74.0733 5.79932 73.9526C5.36751 73.7431 5.38536 73.7431 4.06853 73.7147C2.923 73.6898 2.82665 73.6827 2.69461 73.6152C2.39128 73.459 2.32347 73.3702 2.23069 73.0044L2.14504 72.6706L2.21641 72.5535C2.25567 72.4895 2.34489 72.3262 2.40912 72.1913C2.58398 71.8326 2.68034 71.7864 3.41904 71.6941C4.05069 71.6124 4.57171 71.5982 4.90716 71.655C5.02492 71.6728 5.32826 71.7083 5.5852 71.7296C5.87426 71.7545 6.14904 71.8006 6.3132 71.8504C6.5059 71.9107 6.59512 71.9249 6.62724 71.9001C6.65222 71.8788 6.72002 71.7651 6.77712 71.6515C6.87347 71.4597 6.88061 71.4171 6.86277 71.1828C6.82708 70.6572 6.73073 70.54 6.29179 70.5045C6.13834 70.4903 5.85641 70.4548 5.66728 70.4264C5.28543 70.3731 3.33696 70.3625 2.87304 70.4157Z" fill="#83620C"/>
<path d="M8.92578 70.4619C8.86154 70.5081 8.76876 70.6004 8.72237 70.6643L8.63672 70.7815V74.5314V78.2813L8.73664 78.3736C8.91507 78.5405 9.03641 78.5796 9.38256 78.5796C9.70374 78.5796 9.70731 78.5796 9.85005 78.4518L9.9928 78.3239V75.199C9.9928 71.7793 9.98209 71.9569 10.2033 71.8006C10.3033 71.7296 10.3532 71.7261 11.2454 71.7261C11.7593 71.7261 12.3267 71.7438 12.5051 71.7687C12.7942 71.8042 12.8441 71.8219 12.9405 71.9178C13.0368 72.0137 13.0547 72.0634 13.0904 72.3475C13.1439 72.7452 13.0904 73.2424 12.9833 73.3773C12.9441 73.427 12.8084 73.5371 12.6764 73.6223C12.5444 73.7076 12.3981 73.8212 12.3481 73.8745C12.2339 73.9987 11.9948 74.1159 11.7129 74.1869C11.4952 74.2402 11.3524 74.3183 11.2347 74.4462C11.1812 74.5065 11.1812 74.5456 11.2204 74.851C11.2668 75.2096 11.3203 75.3481 11.4702 75.4866C11.5594 75.5719 11.5666 75.5719 11.8735 75.5292C12.6193 75.4298 12.9298 75.3375 13.1332 75.1528C13.1832 75.1067 13.3116 75.025 13.4187 74.9717C13.6471 74.851 14.243 74.2935 14.3644 74.0875C14.4108 74.0094 14.475 73.8425 14.5071 73.7147C14.5392 73.5868 14.632 73.3489 14.7141 73.182C14.9104 72.7843 14.9139 72.6067 14.7319 72.2055C14.6606 72.0492 14.5749 71.8006 14.5428 71.6551C14.4679 71.3177 14.4072 71.2183 14.0717 70.9129C13.7506 70.6181 13.6221 70.5507 13.151 70.4512C12.812 70.3802 12.6942 70.3767 10.9171 70.3767H9.04354L8.92578 70.4619Z" fill="#83620C"/>
<path d="M18.5931 70.4015C18.0114 70.4477 17.5083 70.611 17.1621 70.8632C17.0158 70.9697 16.8088 71.1046 16.7018 71.1579C16.4698 71.2751 16.4341 71.3142 16.2628 71.6231C16.1914 71.7509 16.0665 71.9356 15.9845 72.0315C15.6419 72.4398 15.5598 72.8304 15.5348 74.1941C15.5205 74.9646 15.5277 75.2274 15.5776 75.5434C15.6811 76.2572 15.7596 76.5058 15.9345 76.6975C15.9773 76.7473 16.0665 76.8822 16.1308 76.9994C16.2628 77.2444 16.7981 77.8055 16.9944 77.9084C17.0658 77.944 17.2121 78.0079 17.3191 78.0469C17.4226 78.086 17.5796 78.1783 17.6617 78.2493C17.7795 78.3488 17.8937 78.3985 18.1399 78.466C18.454 78.5476 18.5289 78.5547 19.7172 78.5689C21.1411 78.5867 21.5194 78.5547 21.9227 78.3736C22.1189 78.2849 22.1618 78.2458 22.226 78.1144C22.2688 78.0292 22.3223 77.88 22.3473 77.7877C22.3901 77.6279 22.3866 77.596 22.3009 77.3616L22.2117 77.1059L21.8905 77.1166C21.7157 77.1237 21.4766 77.1521 21.3588 77.1769C21.2411 77.2018 20.9627 77.2515 20.7414 77.2799C19.7743 77.4148 18.6966 77.2728 18.3362 76.9639C18.2577 76.8999 18.1007 76.797 17.9829 76.733C17.7224 76.5981 17.6189 76.488 17.5368 76.275C17.5047 76.1862 17.3976 75.9554 17.3013 75.7636C17.0372 75.2416 17.0265 75.1919 17.0015 74.535C16.9801 73.9987 16.9837 73.9171 17.0586 73.6294C17.105 73.4341 17.1764 73.2601 17.2406 73.1713C17.2941 73.0968 17.3762 72.9405 17.4155 72.8304C17.519 72.5641 17.626 72.4292 17.883 72.2552C18.0007 72.1771 18.1078 72.0883 18.1185 72.0599C18.1292 72.0315 18.2041 71.964 18.2862 71.9072C18.4147 71.8184 18.5146 71.7935 19.0678 71.7119C19.8279 71.6018 20.2204 71.5982 20.9306 71.6941C21.2268 71.7367 21.63 71.7758 21.8263 71.7864L22.1903 71.8042L22.2867 71.6373C22.3759 71.4882 22.383 71.4526 22.3616 71.236C22.3259 70.8454 22.2831 70.7389 22.1332 70.6643C21.6693 70.4299 21.2196 70.3767 19.8529 70.3838C19.2462 70.3873 18.6823 70.3944 18.5931 70.4015Z" fill="#83620C"/>
<path d="M27.0325 70.4406C26.954 70.4797 26.8291 70.5649 26.7541 70.6323L26.6221 70.7602L26.6328 73.6117L26.6399 76.4667L26.7398 76.7508C26.9004 77.2053 26.9611 77.3012 27.293 77.6386C27.5321 77.8836 27.6641 77.9901 27.8711 78.0931C28.0174 78.1677 28.2101 78.2742 28.2993 78.331C28.6134 78.537 28.906 78.5796 29.998 78.5796C30.9865 78.5796 31.4005 78.5476 31.6895 78.4518C31.7787 78.4233 32.0892 78.2351 32.3854 78.0363L32.9207 77.6741L33.0706 77.3722C33.4988 76.5164 33.5738 76.3282 33.613 76.0264C33.638 75.8346 33.6523 74.851 33.6523 73.2637V70.7957L33.5559 70.6608C33.4631 70.5365 33.4274 70.5152 33.1455 70.4477C32.8386 70.3696 32.8315 70.3696 32.5389 70.4335C32.2926 70.4868 32.2248 70.5152 32.1285 70.6146L32.0107 70.7353V73.2282C32.0107 75.5257 32.0036 75.7494 31.9429 76.0654C31.868 76.4561 31.7894 76.6123 31.6253 76.7153C31.4932 76.797 31.2327 76.971 31.0472 77.1024C30.9758 77.1521 30.7831 77.2302 30.6189 77.2693C30.337 77.3403 30.2835 77.3438 29.8695 77.3083C29.1951 77.2479 29.0844 77.2124 28.8203 76.9426C28.699 76.8183 28.517 76.6478 28.4207 76.5661C28.2458 76.4241 28.2387 76.4099 28.1816 76.1223C28.0174 75.3233 28.0138 75.231 28.0138 72.9583V70.785L27.9282 70.6572C27.8568 70.5542 27.7997 70.5187 27.632 70.4726C27.2751 70.3767 27.1859 70.3696 27.0325 70.4406Z" fill="#83620C"/>
<path d="M35.7651 70.501C35.4868 70.7389 35.5082 70.4122 35.5082 74.5314C35.5082 77.0917 35.5189 78.2494 35.5474 78.2991C35.5689 78.3382 35.6581 78.4198 35.7509 78.4766C35.9007 78.5725 35.94 78.5796 36.2505 78.5796C36.5324 78.5796 36.6038 78.569 36.6894 78.5051C36.9071 78.3524 36.9 78.4624 36.9 75.7459V73.2673L37.007 73.1004C37.189 72.8127 37.2675 72.8376 37.4888 73.2637C37.5637 73.4058 37.6993 73.5975 37.7921 73.6969C37.8849 73.7928 38.0169 73.9704 38.0883 74.0876C38.1597 74.2047 38.306 74.4036 38.4131 74.5314C38.5237 74.6593 38.67 74.8723 38.7414 75.0108C38.8127 75.1458 38.9591 75.3482 39.0625 75.4583C39.1625 75.5648 39.3016 75.7601 39.3623 75.8915C39.4265 76.0193 39.5729 76.2288 39.6871 76.3602C39.8048 76.4881 39.9654 76.7189 40.0475 76.868C40.1296 77.0172 40.2652 77.2054 40.3473 77.2835C40.4293 77.3652 40.5471 77.5285 40.6078 77.6457C40.7398 77.9049 41.2537 78.4482 41.4428 78.5264C41.6105 78.5974 42.1565 78.5974 42.3528 78.5299C42.4313 78.5015 42.5598 78.434 42.6419 78.3808L42.7882 78.2849V74.535V70.7815L42.6562 70.6537C42.4242 70.4335 42.2672 70.3767 41.8853 70.3767C41.5677 70.3767 41.5499 70.3803 41.4607 70.4726C41.2465 70.7034 41.2537 70.5969 41.2537 73.0045C41.2537 75.0854 41.2501 75.2203 41.1859 75.4014C41.1466 75.508 41.0788 75.6465 41.036 75.7068L40.9539 75.8205L40.854 75.6997C40.7969 75.6323 40.6934 75.476 40.622 75.3482C40.5507 75.2203 40.4008 75.0215 40.2902 74.9043C40.176 74.7871 40.0332 74.5918 39.969 74.4711C39.9012 74.3397 39.787 74.1941 39.6942 74.1195C39.5978 74.0414 39.4943 73.9064 39.4265 73.7751C39.3159 73.5513 39.191 73.3773 38.9769 73.1465C38.9162 73.0791 38.7985 72.9015 38.7235 72.7559C38.645 72.6103 38.5165 72.4257 38.4345 72.3475C38.356 72.2694 38.2311 72.1061 38.1633 71.9853C38.0954 71.8646 37.9598 71.6799 37.8599 71.5699C37.7636 71.4633 37.5958 71.2254 37.4924 71.0443C37.2854 70.6892 37.1962 70.604 36.8714 70.4761C36.718 70.4193 36.5716 70.3945 36.2933 70.3838L35.9186 70.3732L35.7651 70.501Z" fill="#83620C"/>
<path d="M44.9827 70.4477C44.8471 70.4832 44.7222 70.5151 44.708 70.5151C44.6937 70.5187 44.6402 70.5791 44.5902 70.6501L44.501 70.785V74.5314V78.2813L44.6009 78.3772C44.6758 78.4482 44.7686 78.4801 45.0256 78.5299L45.3503 78.5867L45.5573 78.4943C45.6715 78.4411 45.7928 78.3736 45.8285 78.3416C45.8892 78.2884 45.8927 78.0824 45.8927 74.5101V70.7389L45.7678 70.6288C45.618 70.5009 45.386 70.3767 45.2968 70.3802C45.2611 70.3802 45.1219 70.4122 44.9827 70.4477Z" fill="#83620C"/>
<path d="M47.6593 70.4014C47.3131 70.4795 47.2132 70.5257 47.1275 70.65C47.0419 70.7707 47.0419 70.7814 47.0954 70.8879C47.1275 70.9483 47.1882 71.0442 47.2346 71.1045C47.3381 71.2395 47.4059 71.417 47.4987 71.797C47.5986 72.1876 47.6521 72.3048 47.8199 72.525C47.9555 72.7025 48.0019 72.8197 48.2303 73.5832C48.2873 73.7785 48.3587 73.9347 48.423 74.0093C48.5835 74.1904 48.6728 74.3857 48.787 74.8225C48.8512 75.0675 48.9368 75.2912 49.0046 75.4013C49.2259 75.7529 49.2794 75.8665 49.3829 76.218C49.5114 76.6442 49.5542 76.7471 49.7433 77.049C49.8219 77.1733 49.9111 77.365 49.9432 77.4751C50.1038 78.0468 50.1537 78.1747 50.2822 78.299C50.4571 78.4765 50.7033 78.5511 51.1993 78.5688C51.5741 78.5866 51.6097 78.5795 51.806 78.4907C52.1772 78.3238 52.3235 78.125 52.4805 77.5852C52.584 77.223 52.7124 76.9282 52.898 76.6371C52.9694 76.5305 53.0693 76.2855 53.1407 76.0369C53.2085 75.799 53.312 75.5398 53.3762 75.4368C53.5939 75.0924 53.6688 74.929 53.7902 74.5171C53.8615 74.2792 53.9543 74.0448 54.015 73.9596C54.2255 73.6613 54.2826 73.5441 54.404 73.1641C54.4861 72.9049 54.5788 72.6919 54.6859 72.5321C54.8572 72.2728 54.8893 72.1947 55.0677 71.6265C55.1284 71.4277 55.2248 71.2004 55.2783 71.1258C55.3318 71.0513 55.4032 70.9447 55.4317 70.8844C55.4853 70.7849 55.4853 70.7707 55.3996 70.65C55.2819 70.4724 55.057 70.4085 54.5003 70.3872L54.0578 70.3695L53.9151 70.5044C53.833 70.5861 53.7188 70.753 53.651 70.8986C53.5868 71.0371 53.4868 71.2182 53.4297 71.2963C53.3298 71.4312 53.2763 71.5839 53.0515 72.3296C52.9944 72.5143 52.9052 72.7132 52.8159 72.841C52.6768 73.047 52.6161 73.2068 52.4555 73.8175C52.4091 74.0022 52.3306 74.1833 52.2521 74.2969C52.0772 74.549 52.0023 74.7302 51.881 75.1811C51.7703 75.5966 51.6312 75.9162 51.5562 75.9162C51.5348 75.9162 51.3885 75.8984 51.2315 75.8736C50.971 75.8345 50.946 75.8239 50.8675 75.7067C50.8246 75.6357 50.7354 75.4013 50.6712 75.1882C50.607 74.9539 50.4749 74.6343 50.35 74.3893C50.193 74.0874 50.1073 73.8566 50.0146 73.5086C49.8897 73.0399 49.8504 72.9404 49.6256 72.5853C49.5542 72.4788 49.465 72.248 49.4043 72.0385C49.2723 71.552 48.8405 70.6962 48.6371 70.508L48.4872 70.3766L48.1089 70.3801C47.9019 70.3837 47.6985 70.3908 47.6593 70.4014Z" fill="#83620C"/>
<path d="M56.9698 70.4832C56.8698 70.54 56.7449 70.6359 56.6914 70.6963L56.5986 70.8099V74.5278V78.2493L56.6807 78.3239C56.7235 78.363 56.8484 78.4375 56.9555 78.4873L57.1518 78.5796H59.3679C61.7803 78.5796 61.7339 78.5831 62.0337 78.3772L62.1657 78.2848V77.9546V77.6244L62.0408 77.4965C61.9694 77.429 61.8517 77.3403 61.7731 77.3012C61.6411 77.2337 61.5662 77.2302 60.0531 77.2302C58.5507 77.2302 58.465 77.2266 58.358 77.1592C58.2937 77.1237 58.2224 77.0562 58.1938 77.01C58.1046 76.8715 58.0261 76.4348 58.0261 76.0868C58.0261 75.7956 58.0368 75.7316 58.1296 75.5434C58.1867 75.4263 58.283 75.2771 58.3473 75.2132L58.4615 75.0996H60.0424H61.6233L61.7482 74.9611C61.998 74.6841 62.0265 74.5705 61.9302 74.1798C61.8873 73.9952 61.8481 73.9206 61.7482 73.8283L61.6197 73.7147H60.0138H58.4079L58.2152 73.5264L58.0261 73.3347V72.6777C58.0261 72.0421 58.0297 72.0208 58.1117 71.9072C58.1581 71.8433 58.2509 71.7509 58.3151 71.7048L58.4329 71.6195H60.0174H61.6018L61.8088 71.5272C62.0087 71.4384 62.0158 71.4313 62.0693 71.236C62.1835 70.8134 62.1835 70.8063 62.0551 70.6714C61.9873 70.6039 61.8588 70.5081 61.766 70.4619L61.5983 70.3767H59.375H57.1518L56.9698 70.4832Z" fill="#83620C"/>
<path d="M63.9606 70.4903C63.9 70.5542 63.8322 70.643 63.8107 70.6856C63.7822 70.7424 63.7715 71.8184 63.7715 74.5349V78.3026L63.9107 78.4411L64.0498 78.5796H64.3996C64.7136 78.5796 64.7778 78.5689 64.967 78.4766C65.3417 78.2991 65.306 78.6684 65.3131 75.1138L65.3238 71.9924L65.5736 71.8681L65.8234 71.7438H66.8227C67.7862 71.7438 67.8254 71.7474 67.9468 71.8219C68.0824 71.9072 68.1645 72.0244 68.2323 72.241C68.2572 72.3191 68.3072 72.4434 68.3465 72.518C68.4107 72.6493 68.4107 72.6635 68.3572 72.7772C68.3251 72.8482 68.268 72.9902 68.2287 73.1003C68.1252 73.4057 68.0324 73.5265 67.7933 73.6649C67.672 73.736 67.5007 73.8496 67.4151 73.9206C67.2652 74.0414 66.8012 74.2118 66.6228 74.2118C66.5871 74.2118 66.4908 74.2757 66.4087 74.3503L66.2624 74.4923L66.2874 74.8226C66.3159 75.1919 66.3766 75.3375 66.5729 75.5257C66.6442 75.5932 66.7549 75.7494 66.8227 75.8666C66.8905 75.9873 67.0439 76.1933 67.1652 76.3247C67.3116 76.4845 67.4365 76.6727 67.5435 76.8964C67.6577 77.1308 67.7434 77.2586 67.8397 77.3367C67.9218 77.4006 68.0289 77.5498 68.1216 77.7238C68.3179 78.1002 68.5499 78.3523 68.8211 78.4766C69.0138 78.5689 69.0745 78.5796 69.3956 78.5796C69.8382 78.5796 70.2771 78.4802 70.4091 78.3488L70.4948 78.26L70.2949 78.0576C70.1843 77.944 70.0558 77.77 70.0059 77.6741C69.9559 77.5746 69.8274 77.4113 69.7168 77.3048C69.5955 77.1911 69.4777 77.0313 69.4135 76.8964C69.3528 76.7792 69.2101 76.5697 69.0923 76.4383C68.971 76.3069 68.8104 76.0832 68.7319 75.9412C68.6569 75.7991 68.5178 75.6145 68.4285 75.5257C68.1894 75.2949 68.1431 75.199 68.2144 75.0641C68.2465 75.0037 68.3393 74.9114 68.4214 74.8581C68.5035 74.8048 68.6569 74.6699 68.7676 74.5598C68.8746 74.4497 69.0388 74.3041 69.1316 74.2402C69.31 74.1124 69.4028 74.0094 69.492 73.8318C69.5241 73.7715 69.6312 73.6294 69.7275 73.5193C69.8881 73.3347 69.906 73.2956 69.9595 73.0115C70.0309 72.6209 70.0309 72.2587 69.9595 71.9107C69.881 71.5343 69.8239 71.4171 69.6419 71.2396C69.5527 71.1579 69.4242 70.9981 69.3564 70.8916C69.1994 70.6501 69.1423 70.611 68.7854 70.5223C68.2787 70.3944 67.9468 70.3767 65.984 70.3767H64.0712L63.9606 70.4903Z" fill="#83620C"/>
<path d="M73.3681 70.3909C73.361 70.398 73.1861 70.4406 72.9827 70.4832C72.5188 70.5791 72.2976 70.675 72.0692 70.8809C71.9728 70.9661 71.8194 71.0869 71.7301 71.1473C71.4875 71.3141 71.4232 71.3994 71.3233 71.6941C71.1449 72.2197 71.1092 73.0364 71.2341 73.6223C71.3376 74.1017 71.3804 74.1869 71.6338 74.4533C71.9014 74.7267 72.0049 74.7835 72.4724 74.9043C73.1968 75.0854 73.3325 75.0996 74.3566 75.0996C75.1917 75.0996 75.3309 75.1067 75.3701 75.1564C75.3987 75.1848 75.5664 75.3233 75.7484 75.4582C75.9304 75.5932 76.0874 75.7317 76.0981 75.7672C76.1088 75.7991 76.1053 75.9625 76.0874 76.1294C76.0553 76.4277 76.0553 76.4312 75.8947 76.5732C75.8091 76.6514 75.6663 76.8041 75.5843 76.9106C75.5022 77.0171 75.4058 77.1237 75.3737 77.145C75.2417 77.2373 74.767 77.3083 74.139 77.3261C73.5394 77.3438 73.4538 77.3367 72.8543 77.2337C72.501 77.1769 72.0692 77.1237 71.8907 77.1166L71.5696 77.1095L71.4839 77.319C71.3804 77.5817 71.3804 77.6918 71.4803 77.9546C71.5803 78.2138 71.6338 78.2671 71.8943 78.3665C72.3832 78.5476 72.7044 78.5796 74.0783 78.5796C75.2345 78.5796 75.3808 78.5725 75.6556 78.5086C75.8519 78.4624 76.0232 78.3914 76.141 78.3168C76.2409 78.2493 76.4265 78.1464 76.5514 78.0824C76.819 77.9511 77.2865 77.4859 77.4114 77.2337C77.6505 76.7437 77.6362 75.3481 77.3864 74.8936C77.2365 74.6202 76.844 74.2367 76.5977 74.1266C76.4836 74.0769 76.2837 73.981 76.1552 73.9135C75.8341 73.7466 75.5414 73.7147 74.3995 73.7147H73.4324L73.1148 73.5478C72.9399 73.4554 72.7829 73.3631 72.765 73.3418C72.7472 73.3205 72.7079 73.1607 72.6794 72.9831C72.633 72.6884 72.633 72.6564 72.6972 72.4895C72.7972 72.2303 73.0077 71.9711 73.2111 71.861C73.5787 71.6657 74.9312 71.5521 75.5664 71.6657C75.9304 71.7332 76.6299 71.7971 76.9796 71.7971H77.2151L77.3115 71.616C77.4114 71.4384 77.4114 71.4349 77.3686 71.1295C77.315 70.7566 77.2651 70.6927 76.9617 70.5897C76.4193 70.4122 76.0482 70.3767 74.6707 70.3767C73.9641 70.3767 73.3753 70.3838 73.3681 70.3909Z" fill="#83620C"/>
<path d="M79.374 70.444C79.2312 70.4795 79.0813 70.5399 79.0421 70.5754C78.8601 70.7388 78.8672 70.5719 78.8672 74.5455V78.2563L78.9493 78.3487C79.1242 78.5511 79.2027 78.5582 81.7043 78.5724C82.9604 78.5795 84.0382 78.5759 84.0988 78.5617C84.1595 78.5511 84.2737 78.4872 84.3558 78.4161L84.5057 78.2883V77.9367V77.5816L84.3272 77.4076L84.1524 77.2301H82.5572H80.9656L80.7515 77.1342C80.5231 77.0348 80.4802 76.978 80.3625 76.6335C80.3125 76.495 80.2947 76.3388 80.2947 76.0937C80.2947 75.7706 80.3018 75.7422 80.3982 75.6108C80.4553 75.5362 80.5623 75.4155 80.6373 75.3445C80.9228 75.0817 80.7836 75.0995 82.5286 75.0995C84.3165 75.0995 84.1452 75.1314 84.313 74.7657L84.4057 74.5597L84.3486 74.2365C84.2987 73.9809 84.2666 73.8885 84.1952 73.8104L84.0988 73.7145H82.5179H80.9335L80.7479 73.6258C80.6444 73.5796 80.5017 73.4908 80.4303 73.4305L80.2947 73.3204V72.667V72.0171L80.4267 71.9035C80.4981 71.8396 80.6373 71.7508 80.7372 71.7047L80.9192 71.6194H82.5072H84.0953L84.2237 71.5342C84.3522 71.4454 84.4057 71.3176 84.4878 70.9163C84.5164 70.7743 84.4129 70.5896 84.2273 70.4653L84.0953 70.3766L81.8649 70.3801C79.8486 70.3801 79.6095 70.3872 79.374 70.444Z" fill="#83620C"/>
</svg>
