<svg width="44" height="45" viewBox="0 0 44 45" fill="none" xmlns="http://www.w3.org/2000/svg">
<path d="M35.8519 22.9375C35.8519 25.6771 35.0395 28.3553 33.5174 30.6332C31.9953 32.9111 29.832 34.6865 27.3009 35.7349C24.7698 36.7834 21.9846 37.0577 19.2976 36.5232C16.6106 35.9887 14.1425 34.6695 12.2053 32.7322C10.268 30.795 8.94878 28.3269 8.41431 25.6399C7.87983 22.9529 8.15414 20.1677 9.20256 17.6366C10.251 15.1055 12.0264 12.9422 14.3043 11.4201C16.5822 9.89805 19.2604 9.08565 22 9.08565C25.6725 9.08981 29.1933 10.5505 31.7901 13.1474C34.387 15.7442 35.8477 19.265 35.8519 22.9375ZM22 5.82639C22.214 5.82639 22.4259 5.78424 22.6236 5.70234C22.8214 5.62045 23.001 5.50041 23.1523 5.34909C23.3037 5.19776 23.4237 5.01811 23.5056 4.82039C23.5875 4.62268 23.6296 4.41077 23.6296 4.19676V2.56713C23.6296 2.13493 23.4579 1.72042 23.1523 1.41481C22.8467 1.10919 22.4322 0.9375 22 0.9375C21.5678 0.9375 21.1533 1.10919 20.8477 1.41481C20.5421 1.72042 20.3704 2.13493 20.3704 2.56713V4.19676C20.3704 4.41077 20.4125 4.62268 20.4944 4.82039C20.5763 5.01811 20.6963 5.19776 20.8477 5.34909C20.999 5.50041 21.1786 5.62045 21.3764 5.70234C21.5741 5.78424 21.786 5.82639 22 5.82639ZM7.59592 10.8381C7.74716 10.9898 7.92682 11.1102 8.12464 11.1924C8.32245 11.2747 8.53453 11.3171 8.74875 11.3172C8.96297 11.3174 9.17512 11.2753 9.37306 11.1934C9.57101 11.1115 9.75086 10.9914 9.90234 10.8399C10.0538 10.6885 10.1739 10.5086 10.2559 10.3107C10.3378 10.1127 10.3798 9.90059 10.3797 9.68637C10.3795 9.47215 10.3371 9.26007 10.2549 9.06225C10.1727 8.86443 10.0523 8.68476 9.90061 8.53352L8.74831 7.38117C8.59709 7.2294 8.41742 7.10895 8.21959 7.02669C8.02177 6.94444 7.80966 6.902 7.59541 6.90181C7.38117 6.90162 7.16898 6.94367 6.97101 7.02557C6.77304 7.10747 6.59315 7.22761 6.44166 7.37911C6.29016 7.5306 6.17003 7.71048 6.08813 7.90846C6.00623 8.10643 5.96417 8.31861 5.96436 8.53286C5.96455 8.74711 6.00699 8.95921 6.08924 9.15704C6.1715 9.35487 6.29195 9.53453 6.44372 9.68576L7.59592 10.8381ZM3.25926 21.3079H1.62963C1.19743 21.3079 0.782922 21.4796 0.477307 21.7852C0.171693 22.0908 0 22.5053 0 22.9375C0 23.3697 0.171693 23.7842 0.477307 24.0898C0.782922 24.3954 1.19743 24.5671 1.62963 24.5671H3.25926C3.69146 24.5671 4.10597 24.3954 4.41158 24.0898C4.7172 23.7842 4.88889 23.3697 4.88889 22.9375C4.88889 22.5053 4.7172 22.0908 4.41158 21.7852C4.10597 21.4796 3.69146 21.3079 3.25926 21.3079ZM7.59602 35.0369L6.44372 36.1892C6.29224 36.3405 6.17206 36.5201 6.09004 36.7179C6.00802 36.9156 5.96577 37.1276 5.9657 37.3417C5.96563 37.5558 6.00775 37.7678 6.08965 37.9656C6.17154 38.1634 6.29161 38.3431 6.443 38.4945C6.59438 38.6459 6.77411 38.766 6.97191 38.8479C7.16972 38.9298 7.38172 38.9719 7.59581 38.9718C7.8099 38.9717 8.02187 38.9295 8.21962 38.8475C8.41738 38.7654 8.59703 38.6453 8.74832 38.4938L9.90062 37.3415C10.2059 37.0358 10.3773 36.6214 10.3772 36.1894C10.3771 35.7574 10.2054 35.3431 9.8999 35.0376C9.59441 34.7321 9.18013 34.5604 8.74811 34.5603C8.31609 34.5602 7.90169 34.7316 7.59602 35.0369ZM22 40.0486C21.786 40.0486 21.5741 40.0908 21.3764 40.1726C21.1786 40.2545 20.999 40.3746 20.8477 40.5259C20.6963 40.6772 20.5763 40.8569 20.4944 41.0546C20.4125 41.2523 20.3704 41.4642 20.3704 41.6782V43.3079C20.3704 43.7401 20.5421 44.1546 20.8477 44.4602C21.1533 44.7658 21.5678 44.9375 22 44.9375C22.4322 44.9375 22.8467 44.7658 23.1523 44.4602C23.4579 44.1546 23.6296 43.7401 23.6296 43.3079V41.6782C23.6296 41.4642 23.5875 41.2523 23.5056 41.0546C23.4237 40.8569 23.3037 40.6772 23.1523 40.5259C23.001 40.3746 22.8214 40.2545 22.6236 40.1726C22.4259 40.0908 22.214 40.0486 22 40.0486ZM36.404 35.0369C36.0981 34.7325 35.684 34.5618 35.2525 34.5623C34.821 34.5629 34.4073 34.7345 34.1021 35.0396C33.797 35.3448 33.6254 35.7585 33.6248 36.19C33.6243 36.6215 33.795 37.0356 34.0994 37.3415L35.2517 38.4938C35.5574 38.7991 35.9718 38.9705 36.4038 38.9704C36.8358 38.9702 37.2501 38.7985 37.5556 38.4931C37.861 38.1876 38.0327 37.7733 38.0329 37.3413C38.033 36.9092 37.8616 36.4949 37.5563 36.1892L36.404 35.0369ZM42.3704 21.3079H40.7407C40.3085 21.3079 39.894 21.4796 39.5884 21.7852C39.2828 22.0908 39.1111 22.5053 39.1111 22.9375C39.1111 23.3697 39.2828 23.7842 39.5884 24.0898C39.894 24.3954 40.3085 24.5671 40.7407 24.5671H42.3704C42.8026 24.5671 43.2171 24.3954 43.5227 24.0898C43.8283 23.7842 44 23.3697 44 22.9375C44 22.5053 43.8283 22.0908 43.5227 21.7852C43.2171 21.4796 42.8026 21.3079 42.3704 21.3079ZM35.2517 11.3154C35.4657 11.3157 35.6777 11.2737 35.8755 11.1918C36.0733 11.1098 36.2529 10.9897 36.4041 10.8381L37.5563 9.68577C37.7076 9.53444 37.8276 9.3548 37.9095 9.15709C37.9914 8.95937 38.0336 8.74747 38.0336 8.53347C38.0336 8.31947 37.9914 8.10756 37.9095 7.90985C37.8276 7.71214 37.7076 7.53249 37.5563 7.38117C37.405 7.22985 37.2253 7.10981 37.0276 7.02792C36.8299 6.94602 36.618 6.90387 36.404 6.90387C36.19 6.90387 35.9781 6.94602 35.7804 7.02792C35.5826 7.10981 35.403 7.22985 35.2517 7.38117L34.0994 8.53352C33.8715 8.76142 33.7163 9.05179 33.6534 9.36791C33.5905 9.68402 33.6228 10.0117 33.7461 10.3095C33.8694 10.6072 34.0783 10.8617 34.3463 11.0408C34.6143 11.2199 34.9294 11.3154 35.2517 11.3154Z" fill="#B78A16"/>
<path d="M25.3965 27.9375H18.6289V26.7275L21.2197 24.1025C21.721 23.5921 22.1335 23.1523 22.457 22.7832C22.7806 22.4095 23.0199 22.0563 23.1748 21.7236C23.3343 21.391 23.4141 21.0286 23.4141 20.6367C23.4141 20.1536 23.2751 19.7891 22.9971 19.543C22.7191 19.2923 22.3522 19.167 21.8965 19.167C21.4635 19.167 21.0625 19.2536 20.6934 19.4268C20.3288 19.5954 19.9505 19.8369 19.5586 20.1514L18.6768 19.0918C18.9548 18.8548 19.251 18.6383 19.5654 18.4424C19.8844 18.2464 20.2399 18.0915 20.6318 17.9775C21.0238 17.859 21.4704 17.7998 21.9717 17.7998C22.6051 17.7998 23.152 17.9137 23.6123 18.1416C24.0726 18.3649 24.4258 18.6771 24.6719 19.0781C24.9225 19.4792 25.0479 19.9463 25.0479 20.4795C25.0479 21.0173 24.9408 21.514 24.7266 21.9697C24.5124 22.4255 24.207 22.8766 23.8105 23.3232C23.4141 23.7653 22.9424 24.2461 22.3955 24.7656L20.666 26.4541V26.5293H25.3965V27.9375Z" fill="#374646"/>
</svg>
