<svg width="44" height="45" viewBox="0 0 44 45" fill="none" xmlns="http://www.w3.org/2000/svg">
<path d="M35.8519 22.0625C35.8519 24.8021 35.0395 27.4803 33.5174 29.7582C31.9953 32.0361 29.832 33.8115 27.3009 34.8599C24.7698 35.9084 21.9846 36.1827 19.2976 35.6482C16.6106 35.1137 14.1425 33.7945 12.2053 31.8572C10.268 29.92 8.94878 27.4519 8.41431 24.7649C7.87983 22.0779 8.15414 19.2927 9.20256 16.7616C10.251 14.2305 12.0264 12.0672 14.3043 10.5451C16.5822 9.02305 19.2604 8.21065 22 8.21065C25.6725 8.21481 29.1933 9.67554 31.7901 12.2724C34.387 14.8692 35.8477 18.39 35.8519 22.0625ZM22 4.95139C22.214 4.95139 22.4259 4.90924 22.6236 4.82734C22.8214 4.74545 23.001 4.62541 23.1523 4.47409C23.3037 4.32276 23.4237 4.14311 23.5056 3.94539C23.5875 3.74768 23.6296 3.53577 23.6296 3.32176V1.69213C23.6296 1.25993 23.4579 0.845422 23.1523 0.539807C22.8467 0.234193 22.4322 0.0625 22 0.0625C21.5678 0.0625 21.1533 0.234193 20.8477 0.539807C20.5421 0.845422 20.3704 1.25993 20.3704 1.69213V3.32176C20.3704 3.53577 20.4125 3.74768 20.4944 3.94539C20.5763 4.14311 20.6963 4.32276 20.8477 4.47409C20.999 4.62541 21.1786 4.74545 21.3764 4.82734C21.5741 4.90924 21.786 4.95139 22 4.95139ZM7.59592 9.96311C7.74716 10.1148 7.92682 10.2352 8.12464 10.3174C8.32245 10.3997 8.53453 10.4421 8.74875 10.4422C8.96297 10.4424 9.17512 10.4003 9.37306 10.3184C9.57101 10.2365 9.75086 10.1164 9.90234 9.96494C10.0538 9.81347 10.1739 9.63362 10.2559 9.43568C10.3378 9.23774 10.3798 9.02559 10.3797 8.81137C10.3795 8.59715 10.3371 8.38507 10.2549 8.18725C10.1727 7.98943 10.0523 7.80976 9.90061 7.65852L8.74831 6.50617C8.59709 6.3544 8.41742 6.23395 8.21959 6.15169C8.02177 6.06944 7.80966 6.027 7.59541 6.02681C7.38117 6.02662 7.16898 6.06867 6.97101 6.15057C6.77304 6.23247 6.59315 6.35261 6.44166 6.50411C6.29016 6.6556 6.17003 6.83548 6.08813 7.03346C6.00623 7.23143 5.96417 7.44361 5.96436 7.65786C5.96455 7.87211 6.00699 8.08421 6.08924 8.28204C6.1715 8.47987 6.29195 8.65953 6.44372 8.81076L7.59592 9.96311ZM3.25926 20.4329H1.62963C1.19743 20.4329 0.782922 20.6046 0.477307 20.9102C0.171693 21.2158 0 21.6303 0 22.0625C0 22.4947 0.171693 22.9092 0.477307 23.2148C0.782922 23.5204 1.19743 23.6921 1.62963 23.6921H3.25926C3.69146 23.6921 4.10597 23.5204 4.41158 23.2148C4.7172 22.9092 4.88889 22.4947 4.88889 22.0625C4.88889 21.6303 4.7172 21.2158 4.41158 20.9102C4.10597 20.6046 3.69146 20.4329 3.25926 20.4329ZM7.59602 34.1619L6.44372 35.3142C6.29224 35.4655 6.17206 35.6451 6.09004 35.8429C6.00802 36.0406 5.96577 36.2526 5.9657 36.4667C5.96563 36.6808 6.00775 36.8928 6.08965 37.0906C6.17154 37.2884 6.29161 37.4681 6.443 37.6195C6.59438 37.7709 6.77411 37.891 6.97191 37.9729C7.16972 38.0548 7.38172 38.0969 7.59581 38.0968C7.8099 38.0967 8.02187 38.0545 8.21962 37.9725C8.41738 37.8904 8.59703 37.7703 8.74832 37.6188L9.90062 36.4665C10.2059 36.1608 10.3773 35.7464 10.3772 35.3144C10.3771 34.8824 10.2054 34.4681 9.8999 34.1626C9.59441 33.8571 9.18013 33.6854 8.74811 33.6853C8.31609 33.6852 7.90169 33.8566 7.59602 34.1619ZM22 39.1736C21.786 39.1736 21.5741 39.2158 21.3764 39.2976C21.1786 39.3795 20.999 39.4996 20.8477 39.6509C20.6963 39.8022 20.5763 39.9819 20.4944 40.1796C20.4125 40.3773 20.3704 40.5892 20.3704 40.8032V42.4329C20.3704 42.8651 20.5421 43.2796 20.8477 43.5852C21.1533 43.8908 21.5678 44.0625 22 44.0625C22.4322 44.0625 22.8467 43.8908 23.1523 43.5852C23.4579 43.2796 23.6296 42.8651 23.6296 42.4329V40.8032C23.6296 40.5892 23.5875 40.3773 23.5056 40.1796C23.4237 39.9819 23.3037 39.8022 23.1523 39.6509C23.001 39.4996 22.8214 39.3795 22.6236 39.2976C22.4259 39.2158 22.214 39.1736 22 39.1736ZM36.404 34.1619C36.0981 33.8575 35.684 33.6868 35.2525 33.6873C34.821 33.6879 34.4073 33.8595 34.1021 34.1646C33.797 34.4698 33.6254 34.8835 33.6248 35.315C33.6243 35.7465 33.795 36.1606 34.0994 36.4665L35.2517 37.6188C35.5574 37.9241 35.9718 38.0955 36.4038 38.0954C36.8358 38.0952 37.2501 37.9235 37.5556 37.6181C37.861 37.3126 38.0327 36.8983 38.0329 36.4663C38.033 36.0342 37.8616 35.6199 37.5563 35.3142L36.404 34.1619ZM42.3704 20.4329H40.7407C40.3085 20.4329 39.894 20.6046 39.5884 20.9102C39.2828 21.2158 39.1111 21.6303 39.1111 22.0625C39.1111 22.4947 39.2828 22.9092 39.5884 23.2148C39.894 23.5204 40.3085 23.6921 40.7407 23.6921H42.3704C42.8026 23.6921 43.2171 23.5204 43.5227 23.2148C43.8283 22.9092 44 22.4947 44 22.0625C44 21.6303 43.8283 21.2158 43.5227 20.9102C43.2171 20.6046 42.8026 20.4329 42.3704 20.4329ZM35.2517 10.4404C35.4657 10.4407 35.6777 10.3987 35.8755 10.3168C36.0733 10.2348 36.2529 10.1147 36.4041 9.96312L37.5563 8.81077C37.7076 8.65944 37.8276 8.4798 37.9095 8.28209C37.9914 8.08437 38.0336 7.87247 38.0336 7.65847C38.0336 7.44447 37.9914 7.23256 37.9095 7.03485C37.8276 6.83714 37.7076 6.65749 37.5563 6.50617C37.405 6.35485 37.2253 6.23481 37.0276 6.15292C36.8299 6.07102 36.618 6.02887 36.404 6.02887C36.19 6.02887 35.9781 6.07102 35.7804 6.15292C35.5826 6.23481 35.403 6.35485 35.2517 6.50617L34.0994 7.65852C33.8715 7.88642 33.7163 8.17679 33.6534 8.49291C33.5905 8.80902 33.6228 9.13669 33.7461 9.43446C33.8694 9.73224 34.0783 9.98675 34.3463 10.1658C34.6143 10.3449 34.9294 10.4404 35.2517 10.4404Z" fill="#B78A16"/>
<path d="M23.3525 27.0625H21.7393V20.6299C21.7393 20.4157 21.7415 20.2015 21.7461 19.9873C21.7507 19.7731 21.7552 19.5635 21.7598 19.3584C21.7689 19.1533 21.7803 18.9574 21.7939 18.7705C21.6982 18.8753 21.5798 18.9893 21.4385 19.1123C21.3018 19.2354 21.1559 19.363 21.001 19.4951L19.8525 20.4111L19.0459 19.3926L22.0127 17.0684H23.3525V27.0625Z" fill="#374646"/>
</svg>
