<svg width="22" height="18" viewBox="0 0 22 18" fill="none" xmlns="http://www.w3.org/2000/svg">
<path fill-rule="evenodd" clip-rule="evenodd" d="M1.49822 15.5879C0.670774 15.5879 0 14.8402 0 13.9178L0 4.08274C0 3.16036 0.670774 2.41263 1.49822 2.41263C2.32566 2.41263 2.99643 3.16036 2.99643 4.08274L2.99643 13.9178C2.99643 14.8402 2.32566 15.5879 1.49822 15.5879Z" fill="#202D2D"/>
<path fill-rule="evenodd" clip-rule="evenodd" d="M7.7238 15.2148C6.89636 15.2148 6.22559 14.4671 6.22559 13.5447L6.22559 4.45196C6.22559 3.52958 6.89636 2.78185 7.7238 2.78185C8.55124 2.78185 9.22202 3.52958 9.22202 4.45196V13.5447C9.22202 14.4671 8.55124 15.2148 7.7238 15.2148Z" fill="#202D2D"/>
<path fill-rule="evenodd" clip-rule="evenodd" d="M13.9484 18C13.121 18 12.4502 17.2523 12.4502 16.3299V1.6701C12.4502 0.74773 13.121 0 13.9484 0C14.7759 0 15.4466 0.74773 15.4466 1.6701V16.3299C15.4466 17.2523 14.7759 18 13.9484 18Z" fill="#202D2D"/>
<path fill-rule="evenodd" clip-rule="evenodd" d="M19.8888 13.5078C19.2199 13.5078 18.6777 13.122 18.6777 12.6461V5.36951C18.6777 4.89361 19.2199 4.50781 19.8888 4.50781C20.5576 4.50781 21.0999 4.89361 21.0999 5.36951V12.6461C21.0999 13.122 20.5576 13.5078 19.8888 13.5078Z" fill="#202D2D"/>
</svg>
