<svg width="37" height="37" viewBox="0 0 37 37" fill="none" xmlns="http://www.w3.org/2000/svg">
<g clip-path="url(#clip0_5252_7191)">
<path d="M18.7369 6.63231C18.8834 6.44631 19.1562 6.42157 19.3339 6.57819L20.8535 7.9183L16.0682 13.9H19.2377L22.7119 9.55715L25.438 11.9611C25.6057 12.1089 25.6252 12.3634 25.4818 12.535L24.3413 13.9H27.5492C28.3643 12.7102 28.1784 11.0776 27.075 10.1047L20.9708 4.72186C19.7276 3.62553 17.8185 3.79863 16.7929 5.1007L9.86073 13.9H13.0116L18.7369 6.63231ZM21.8625 25.45C21.1791 25.45 20.625 26.0041 20.625 26.6875C20.625 27.3709 21.1791 27.925 21.8625 27.925H25.1625C25.8459 27.925 26.4 27.3709 26.4 26.6875C26.4 26.0041 25.8459 25.45 25.1625 25.45H21.8625ZM2.475 14.3125C2.475 13.6291 3.02905 13.075 3.7125 13.075H8.87443L10.8405 10.6H3.7125C1.66214 10.6 0 12.2621 0 14.3125V31.6375C0 34.5991 2.40087 37 5.3625 37H25.1625C28.1241 37 30.525 34.5991 30.525 31.6375V20.9125C30.525 17.9509 28.1241 15.55 25.1625 15.55H3.7125C3.02905 15.55 2.475 14.9959 2.475 14.3125ZM2.475 31.6375V17.8138C2.86206 17.9506 3.27858 18.025 3.7125 18.025H25.1625C26.7572 18.025 28.05 19.3178 28.05 20.9125V31.6375C28.05 33.2322 26.7572 34.525 25.1625 34.525H5.3625C3.76778 34.525 2.475 33.2322 2.475 31.6375Z" fill="#B78A16"/>
</g>
<defs>
<clipPath id="clip0_5252_7191">
<rect width="37" height="37" fill="white"/>
</clipPath>
</defs>
</svg>
